<?xml version="1.0" standalone="no"?>
<!DOCTYPE svg PUBLIC "-//W3C//DTD SVG 1.1//EN" "http://www.w3.org/Graphics/SVG/1.1/DTD/svg11.dtd" >
<svg xmlns="http://www.w3.org/2000/svg" xmlns:xlink="http://www.w3.org/1999/xlink" version="1.1">
<metadata>
Created by FontForge 20170731 at Tue May  3 22:22:10 2011
 By Aleksey,,,
Copyright (c) 2010, 2011 by Daniel Johnson. Released under the terms of the SIL Open Font License.
</metadata>
<defs>
<font id="Megrim" horiz-adv-x="576" >
  <font-face 
    font-family="Megrim"
    font-weight="500"
    font-stretch="normal"
    units-per-em="1000"
    panose-1="2 0 6 3 0 0 0 0 0 0"
    ascent="800"
    descent="-200"
    x-height="580"
    cap-height="700"
    bbox="-118 -200 936 880"
    underline-thickness="50"
    underline-position="-200"
    unicode-range="U+0020-2122"
  />
<missing-glyph horiz-adv-x="500" 
d="M50 0v580h400v-580h-400zM80 30h340v520h-340v-520z" />
    <glyph glyph-name=".notdef" horiz-adv-x="500" 
d="M50 0v580h400v-580h-400zM80 30h340v520h-340v-520z" />
    <glyph glyph-name=".null" horiz-adv-x="0" 
 />
    <glyph glyph-name="nonmarkingreturn" horiz-adv-x="333" 
 />
    <glyph glyph-name="space" unicode=" " horiz-adv-x="295" 
 />
    <glyph glyph-name="exclam" unicode="!" horiz-adv-x="240" 
d="M87 58h66v-58h-66v58zM135 135h-30v565h30v-565z" />
    <glyph glyph-name="quotedbl" unicode="&#x22;" horiz-adv-x="306" 
d="M193 700h30v-182h-30v182zM83 700h30v-182h-30v182z" />
    <glyph glyph-name="numbersign" unicode="#" horiz-adv-x="582" 
d="M146 3l-30 5l40 227h-99v30h105l30 170h-115v30h120l41 232l30 -5l-40 -227h167l41 232l30 -5l-40 -227h99v-30h-105l-30 -170h115v-30h-120l-41 -232l-30 5l40 227h-167zM222 435l-30 -170h168l30 170h-168z" />
    <glyph glyph-name="dollar" unicode="$" horiz-adv-x="526" 
d="M267 0h-30v47q-123 4 -171 55l20 22q49 -45 151 -47v268q-39 12 -64 22.5t-51.5 28t-39.5 43.5t-13 61q0 74 47 111.5t121 40.5v48h30v-48q111 -3 160 -55l-20 -22q-45 43 -140 47v-254q35 -10 50 -15t44.5 -16t44 -22t32 -28t24.5 -39t7 -50q0 -66 -52 -106.5
t-150 -44.5v-47zM267 336v-258q85 5 128.5 39.5t43.5 79.5q0 25 -10.5 45.5t-24 33.5t-40 25t-45 18.5t-52.5 16.5zM237 377v245q-138 -7 -138 -124q0 -49 35.5 -75t102.5 -46z" />
    <glyph glyph-name="percent" unicode="%" horiz-adv-x="582" 
d="M421 289q-30 0 -50 -21t-20 -49q0 -30 21 -50t49 -20q30 0 50 21t20 49q0 30 -21 50t-49 20zM321 219q0 43 30 71.5t70 28.5q43 0 71.5 -30t28.5 -70q0 -43 -30 -71.5t-70 -28.5q-43 0 -71.5 30t-28.5 70zM159 551q-30 0 -50 -21t-20 -49q0 -30 21 -50t49 -20q30 0 50 21
t20 49q0 30 -21 50t-49 20zM59 481q0 43 30 71.5t70 28.5q43 0 71.5 -30t28.5 -70q0 -43 -30 -71.5t-70 -28.5q-43 0 -71.5 30t-28.5 70zM138 177l-21 21l325 325l21 -21z" />
    <glyph glyph-name="ampersand" unicode="&#x26;" horiz-adv-x="586" 
d="M161 670l283 -533q50 83 50 197h30q0 -140 -62 -231l55 -103h-34l-41 78q-74 -83 -190 -83q-80 0 -140 61.5t-60 167.5q0 83 53 138t149 68l-143 270h383v-30h-333zM425 109l-155 292q-84 -11 -136 -60t-52 -117q0 -85 52 -142t118 -57q106 0 173 84z" />
    <glyph glyph-name="quotesingle" unicode="'" horiz-adv-x="196" 
d="M83 700h30v-182h-30v182z" />
    <glyph glyph-name="parenleft" unicode="(" horiz-adv-x="245" 
d="M82 221v258q0 210 95 275l19 -24q-84 -57 -84 -251v-258q0 -194 84 -251l-19 -24q-95 65 -95 275z" />
    <glyph glyph-name="parenright" unicode=")" horiz-adv-x="245" 
d="M163 479v-258q0 -210 -95 -275l-19 24q84 57 84 251v258q0 194 -84 251l19 24q95 -65 95 -275z" />
    <glyph glyph-name="asterisk" unicode="*" horiz-adv-x="436" 
d="M132 400l-19 14l86 118l-139 45l8 23l138 -45v145h24v-145l138 45l8 -23l-139 -45l86 -118l-19 -14l-86 118z" />
    <glyph glyph-name="plus" unicode="+" horiz-adv-x="390" 
d="M66 235v30h114v114h30v-114h114v-30h-114v-114h-30v114h-114z" />
    <glyph glyph-name="comma" unicode="," horiz-adv-x="224" 
d="M66 -156q11 15 26.5 62t15.5 94h-29v58h66q0 -151 -54 -230z" />
    <glyph glyph-name="hyphen" unicode="-" horiz-adv-x="364" 
d="M83 235v30h198v-30h-198z" />
    <glyph glyph-name="period" unicode="." horiz-adv-x="224" 
d="M79 58h66v-58h-66v58z" />
    <glyph glyph-name="slash" unicode="/" horiz-adv-x="411" 
d="M66 -36l-27 11l307 761l27 -11z" />
    <glyph glyph-name="zero" unicode="0" horiz-adv-x="566" 
d="M283 -10q-107 0 -158.5 97t-51.5 263t51.5 263t158.5 97t158.5 -97.5t51.5 -262.5t-51.5 -262.5t-158.5 -97.5zM283 680q-87 0 -133.5 -90t-46.5 -240t46.5 -240t133.5 -90t133.5 90.5t46.5 239.5t-46.5 239.5t-133.5 90.5z" />
    <glyph glyph-name="one" unicode="1" horiz-adv-x="261" 
d="M161 0h-30v591l-53 -183h-31l84 292h30v-700z" />
    <glyph glyph-name="two" unicode="2" horiz-adv-x="527" 
d="M460 0h-396v70q0 46 27.5 91t68.5 79t89 71.5t89 69t68.5 70.5t27.5 76q0 50 -14 82t-41.5 46.5t-55 19.5t-67.5 5q-58 0 -97.5 -27t-60.5 -94l108 -81h-49l-93 70q21 82 68 122t124 40q110 0 159 -43t49 -140q0 -44 -27.5 -87t-68.5 -76t-89 -69.5t-89 -68.5t-68.5 -73
t-27.5 -83v-40h366v-30z" />
    <glyph glyph-name="three" unicode="3" horiz-adv-x="557" 
d="M87 700h392l-211 -268q45 -6 84 -20.5t73 -40t54 -66.5t20 -93q0 -103 -61.5 -162.5t-166.5 -59.5q-48 0 -90 13t-67.5 31t-44.5 36t-27 31l-7 13l28 12q3 -4 8 -11.5t24 -25.5t41 -32t58.5 -25.5t76.5 -11.5q95 0 146.5 51.5t51.5 140.5q0 83 -57 129t-148 61l-50 8
l203 260h-330v30z" />
    <glyph glyph-name="four" unicode="4" horiz-adv-x="460" 
d="M337 0h-30v204h-274v30l269 466h35v-466h80v-30h-80v-204zM307 234v415l-239 -415h239z" />
    <glyph glyph-name="five" unicode="5" horiz-adv-x="532" 
d="M139 482h109q93 0 162 -70t69 -175q0 -106 -62.5 -176.5t-165.5 -70.5q-48 0 -87 12.5t-60.5 30.5t-36.5 36t-19 31l-5 12l28 12q1 -4 4.5 -11t17.5 -25t32.5 -32t52 -25t73.5 -11q92 0 145 62.5t53 154.5q0 88 -60.5 151.5t-144.5 63.5h-135v248h296v-30h-266v-188z" />
    <glyph glyph-name="six" unicode="6" horiz-adv-x="526" 
d="M84 238q0 -101 54 -160t143 -59q66 0 114.5 35t48.5 119q0 43 -18 76.5t-44.5 51t-51.5 26t-44 8.5q-29 0 -58.5 -9t-44 -17t-18.5 -12l-18 25q7 5 18.5 12t47.5 19t72 12q66 0 127.5 -50.5t61.5 -142.5q0 -94 -55.5 -138t-138.5 -44q-101 0 -163.5 68t-62.5 181
q0 64 23.5 137.5t66.5 144t116 123.5t162 67l8 -29q-67 -10 -125 -44.5t-97.5 -82t-68 -104t-42 -111t-13.5 -102.5z" />
    <glyph glyph-name="seven" unicode="7" horiz-adv-x="412" 
d="M403 700q-10 -17 -27 -46.5t-60 -117t-75.5 -169t-59.5 -184.5t-27 -183h-30q0 111 43.5 253.5t91.5 242.5t94 174h-328v30h378z" />
    <glyph glyph-name="eight" unicode="8" horiz-adv-x="584" 
d="M291 -10q-113 0 -171.5 57.5t-58.5 147.5q0 127 122 173q-84 47 -84 147q0 85 54.5 140t137.5 55q84 0 139 -55t55 -140q0 -100 -84 -147q122 -46 122 -173q0 -90 -59.5 -147.5t-172.5 -57.5zM292 680q-26 0 -53 -9t-52.5 -27t-41.5 -51.5t-16 -77.5q0 -83 69 -121
l56 -32l-60 -22q-103 -38 -103 -145q0 -90 60 -132.5t140 -42.5t141 42.5t61 132.5q0 107 -103 145l-60 22l56 32q69 38 69 121q0 44 -16 77.5t-41.5 51.5t-52.5 27t-53 9z" />
    <glyph glyph-name="nine" unicode="9" horiz-adv-x="527" 
d="M442 462q0 101 -54 160t-143 59q-66 0 -114.5 -35t-48.5 -119q0 -43 18 -76.5t44.5 -51t51.5 -26t44 -8.5q29 0 58.5 9t44 17t18.5 12l18 -25q-7 -5 -18.5 -12t-47.5 -19t-72 -12q-66 0 -127.5 50.5t-61.5 142.5q0 94 55.5 138t138.5 44q101 0 163.5 -68t62.5 -181
q0 -64 -23.5 -137.5t-66.5 -144t-116 -123.5t-162 -67l-8 29q67 10 125 44.5t97.5 82t68 104t42 111t13.5 102.5z" />
    <glyph glyph-name="colon" unicode=":" horiz-adv-x="244" 
d="M89 158h66v-58h-66v58zM89 358h66v-58h-66v58z" />
    <glyph glyph-name="semicolon" unicode=";" horiz-adv-x="262" 
d="M101 358h66v-58h-66v58zM88 -56q11 15 26.5 62t15.5 94h-29v58h66q0 -151 -54 -230z" />
    <glyph glyph-name="less" unicode="&#x3c;" horiz-adv-x="439" 
d="M43 350l308 308l21 -21l-287 -287l287 -287l-21 -21z" />
    <glyph glyph-name="equal" unicode="=" horiz-adv-x="436" 
d="M89 295v30h258v-30h-258zM89 375v30h258v-30h-258z" />
    <glyph glyph-name="greater" unicode="&#x3e;" horiz-adv-x="439" 
d="M396 350l-308 -308l-21 21l287 287l-287 287l21 21z" />
    <glyph glyph-name="question" unicode="?" horiz-adv-x="507" 
d="M180 58h66v-58h-66v58zM198 156q0 46 16.5 84.5t40.5 63t53 51t53 48.5t40.5 54.5t16.5 69.5q0 50 -14 82t-41.5 46.5t-55 19.5t-67.5 5q-58 0 -97.5 -27t-60.5 -94l108 -81h-49l-93 70q21 82 68 122t124 40q110 0 159 -43t49 -140q0 -42 -16.5 -77.5t-40.5 -59
t-53 -49.5t-53 -49.5t-40.5 -58.5t-16.5 -77h-30z" />
    <glyph glyph-name="at" unicode="@" horiz-adv-x="632" 
d="M452 244q-134 0 -134 98q0 45 28.5 66.5t67.5 21.5q43 0 82 -29q0 91 -52 166t-126 75q-94 0 -157 -80.5t-63 -215.5q0 -153 60.5 -239.5t171.5 -86.5q65 0 123.5 32t99.5 90l25 -17q-45 -64 -110.5 -99.5t-137.5 -35.5q-126 0 -194 96t-68 260q0 146 71 236t179 90
q89 0 148.5 -84t59.5 -187v-60l-48 36q-33 23 -64 23q-66 0 -66 -58q0 -68 104 -68h101v-30h-101z" />
    <glyph glyph-name="A" unicode="A" horiz-adv-x="546" 
d="M117 30h368l-212 583l-223 -613h-32l255 701l255 -701h-411v30z" />
    <glyph glyph-name="B" unicode="B" horiz-adv-x="579" 
d="M259 0h-160v700h122q132 0 199 -48.5t67 -136.5q0 -100 -84 -147q122 -46 122 -173q0 -90 -66 -142.5t-200 -52.5zM259 30q47 0 86 7.5t74.5 25t55.5 51.5t20 81q0 107 -103 145l-60 22l56 32q69 38 69 121q0 155 -236 155h-92v-640h130z" />
    <glyph glyph-name="C" unicode="C" horiz-adv-x="587" 
d="M533 128q-27 -66 -76 -102t-147 -36q-123 0 -178 75.5t-55 235.5v98q0 160 55 235.5t178 75.5q98 0 147 -36t76 -102l-27 -13q-23 58 -65 89.5t-131 31.5q-49 0 -84 -12.5t-63 -42.5t-42 -86.5t-14 -139.5v-98q0 -83 14 -139.5t42 -86.5t63 -42.5t84 -12.5q89 0 131 31.5
t65 89.5z" />
    <glyph glyph-name="D" unicode="D" horiz-adv-x="593" 
d="M195 0h-96v700h96q144 0 244 -106t100 -244t-100 -244t-244 -106zM195 30q131 0 222.5 96.5t91.5 223.5t-91.5 223.5t-222.5 96.5h-66v-640h66z" />
    <glyph glyph-name="E" unicode="E" 
d="M458 366h-297l306 304h-338v-640h388v-30h-418v700h441l-306 -304h224v-30z" />
    <glyph glyph-name="F" unicode="F" horiz-adv-x="550" 
d="M458 366h-297l306 304h-338v-670h-30v700h441l-306 -304h224v-30z" />
    <glyph glyph-name="G" unicode="G" horiz-adv-x="615" 
d="M506 559q-23 58 -65 89.5t-131 31.5q-49 0 -84 -12.5t-63 -42.5t-42 -86.5t-14 -139.5v-98q0 -83 14 -139.5t42 -86.5t63 -42.5t84 -12.5q90 0 143 38.5t53 82.5v169h-123v30h159v-189q0 -67 -60.5 -114t-171.5 -47q-123 0 -178 75.5t-55 235.5v98q0 160 55 235.5
t178 75.5q99 0 148 -36.5t76 -103.5z" />
    <glyph glyph-name="H" unicode="H" horiz-adv-x="618" 
d="M519 0h-30v350h-360v-350h-30v700h30v-320h360v320h30v-700z" />
    <glyph glyph-name="I" unicode="I" horiz-adv-x="228" 
d="M129 0h-30v700h30v-700z" />
    <glyph glyph-name="J" unicode="J" horiz-adv-x="504" 
d="M56 151q44 -131 170 -131q85 0 118.5 48.5t33.5 133.5v498h30v-498q0 -212 -182 -212q-86 0 -132.5 43t-73.5 118h36z" />
    <glyph glyph-name="K" unicode="K" horiz-adv-x="573" 
d="M129 700v-700h-30v700h30zM540 700l-336 -334l368 -366h-43l-368 366l336 334h43z" />
    <glyph glyph-name="L" unicode="L" horiz-adv-x="532" 
d="M517 30v-30h-418v700h30v-670h388z" />
    <glyph glyph-name="M" unicode="M" horiz-adv-x="708" 
d="M185 30h394v599l-225 -482l-225 483v-630l-30 1v700h30l225 -483l225 482l30 1v-701l-424 1v29z" />
    <glyph glyph-name="N" unicode="N" horiz-adv-x="637" 
d="M177 30h310l-358 619v-649h-30v700h35l374 -647v647h30v-700h-361v30z" />
    <glyph glyph-name="O" unicode="O" horiz-adv-x="620" 
d="M310 -10q-123 0 -178 75.5t-55 235.5v98q0 160 55 235.5t178 75.5t178 -75.5t55 -235.5v-98q0 -160 -55 -235.5t-178 -75.5zM310 680q-49 0 -84 -12.5t-63 -42.5t-42 -86.5t-14 -139.5v-98q0 -83 14 -139.5t42 -86.5t63 -42.5t84 -12.5t84 12.5t63 42.5t42 86.5t14 139.5
v98q0 83 -14 139.5t-42 86.5t-63 42.5t-84 12.5z" />
    <glyph glyph-name="P" unicode="P" horiz-adv-x="526" 
d="M347 336l-15 26l56 32q69 38 69 121q0 155 -236 155h-92v-670h-30v700h122q132 0 199 -48.5t67 -136.5q0 -100 -84 -147z" />
    <glyph glyph-name="Q" unicode="Q" horiz-adv-x="623" 
d="M543 301q0 -195 -84 -266l-19 23q73 62 73 243v98q0 83 -14 139.5t-42 86.5t-63 42.5t-84 12.5t-84 -12.5t-63 -42.5t-42 -86.5t-14 -139.5v-98q0 -83 14 -139.5t42 -86.5t63 -42.5t84 -12.5q0 -111 35.5 -150.5t110.5 -39.5v-30q-81 0 -125 40t-50 151
q-107 9 -155.5 84.5t-48.5 225.5v98q0 160 55 235.5t178 75.5t178 -75.5t55 -235.5v-98z" />
    <glyph glyph-name="R" unicode="R" horiz-adv-x="550" 
d="M177 30h276l-121 332l56 32q69 38 69 121q0 155 -236 155h-92v-670h-30v700h122q132 0 199 -48.5t67 -136.5q0 -100 -84 -147l-34 -19l127 -349h-319v30z" />
    <glyph glyph-name="S" unicode="S" horiz-adv-x="561" 
d="M78 527q0 97 49 140t159 43q77 0 124 -40t68 -122l-93 -70h-49l108 81q-21 67 -60.5 94t-97.5 27q-40 0 -67.5 -5t-55 -19.5t-41.5 -46.5t-14 -82q0 -44 40.5 -78t98.5 -58t116.5 -49t99 -64t40.5 -90q0 -100 -49.5 -149t-169.5 -49q-98 0 -154 39.5t-77 122.5l28 12
q20 -81 68.5 -112.5t134.5 -31.5q96 0 142.5 37t46.5 131q0 44 -40.5 78t-99 58t-116.5 49t-98.5 64t-40.5 90z" />
    <glyph glyph-name="T" unicode="T" horiz-adv-x="530" 
d="M515 700v-30h-235v-670h-30v670h-235v30h500z" />
    <glyph glyph-name="U" unicode="U" horiz-adv-x="646" 
d="M173 700h383v-399q0 -160 -55 -235.5t-178 -75.5t-178 75.5t-55 235.5v399h30v-399q0 -83 14 -139.5t42 -86.5t63 -42.5t84 -12.5t84 12.5t63 42.5t42 86.5t14 139.5v369h-353v30z" />
    <glyph glyph-name="V" unicode="V" horiz-adv-x="544" 
d="M117 700h410l-255 -701l-255 701h32l223 -613l212 583h-367v30z" />
    <glyph glyph-name="W" unicode="W" horiz-adv-x="803" 
d="M117 670v30h669l-255 -701l-130 356l-129 -356l-255 701h32l223 -613l129 356l130 -356l212 583h-626z" />
    <glyph glyph-name="X" unicode="X" horiz-adv-x="484" 
d="M259 369l196 -369h-34l-179 337l-179 -337h-34l196 369l-176 331h34l159 -299l159 299h34z" />
    <glyph glyph-name="Y" unicode="Y" horiz-adv-x="546" 
d="M133 700h405l-250 -400v-300h-30v300l-250 400h35l230 -367l211 337h-351v30z" />
    <glyph glyph-name="Z" unicode="Z" horiz-adv-x="480" 
d="M439 0h-408l356 670h-330v30h380l-356 -670h358v-30z" />
    <glyph glyph-name="bracketleft" unicode="[" horiz-adv-x="261" 
d="M208 0h-108v700h108v-30h-78v-640h78v-30z" />
    <glyph glyph-name="backslash" unicode="\" horiz-adv-x="411" 
d="M345 -36l-307 761l27 11l307 -761z" />
    <glyph glyph-name="bracketright" unicode="]" horiz-adv-x="261" 
d="M53 700h108v-700h-108v30h78v640h-78v30z" />
    <glyph glyph-name="asciicircum" unicode="^" horiz-adv-x="324" 
d="M162 784l117 -140l-23 -19l-94 112l-94 -112l-23 19z" />
    <glyph glyph-name="underscore" unicode="_" horiz-adv-x="502" 
d="M51 -90v30h400v-30h-400z" />
    <glyph glyph-name="grave" unicode="`" horiz-adv-x="230" 
d="M45 764l23 20l117 -140l-23 -19z" />
    <glyph glyph-name="a" unicode="a" horiz-adv-x="538" 
d="M148 30h326l-205 483l-218 -513h-32l250 590l250 -590h-371v30z" />
    <glyph glyph-name="b" unicode="b" horiz-adv-x="536" 
d="M239 0h-144v580h110q118 0 178.5 -41t60.5 -112q0 -85 -75 -123q55 -19 82 -56.5t27 -86.5q0 -72 -59.5 -116.5t-179.5 -44.5zM239 30q88 0 148.5 32t60.5 99q0 31 -23 67.5t-71 53.5l-52 18l48 25q25 13 44.5 39.5t19.5 62.5q0 63 -60 93t-149 30h-80v-520h114z" />
    <glyph glyph-name="c" unicode="c" horiz-adv-x="537" 
d="M70 290q0 158 54 229t179 71t180 -69l-22 -20q-44 59 -158 59q-50 0 -84 -10.5t-62.5 -39t-42.5 -83t-14 -137.5t14 -137.5t42.5 -83t62.5 -39t84 -10.5q114 0 158 59l22 -20q-55 -69 -180 -69t-179 71t-54 229z" />
    <glyph glyph-name="d" unicode="d" horiz-adv-x="553" 
d="M171 0h-76v580h76q148 0 236 -78t88 -212t-88 -212t-236 -78zM171 30q135 0 214.5 69t79.5 191t-79.5 191t-214.5 69h-46v-520h46z" />
    <glyph glyph-name="e" unicode="e" horiz-adv-x="548" 
d="M483 59q-55 -69 -180 -69t-179 71t-54 229t54 229t179 71q145 0 197 -95l-245 -205h-47l253 211q-44 59 -158 59q-50 0 -84 -10.5t-62.5 -39t-42.5 -83t-14 -137.5t14 -137.5t42.5 -83t62.5 -39t84 -10.5q114 0 158 59z" />
    <glyph glyph-name="f" unicode="f" horiz-adv-x="574" 
d="M85 0v290q0 158 54.5 229t178.5 71q145 0 197 -95l-209 -175h213v-30h-296l253 211q-44 59 -158 59q-50 0 -84 -10.5t-62.5 -39t-42.5 -83t-14 -137.5v-290h-30z" />
    <glyph glyph-name="g" unicode="g" horiz-adv-x="570" 
d="M328 390l133 111q-44 59 -158 59q-50 0 -84 -10.5t-62.5 -39t-42.5 -83t-14 -137.5t14 -137.5t42.5 -83t62.5 -39t84 -10.5q113 0 157 58v177h30v-264q0 -191 -175 -191h-117v30h117q75 0 110 39.5t35 150.5v15q-54 -45 -157 -45q-125 0 -179 71t-54 229t54 229t179 71
q145 0 197 -95l-125 -105h-47z" />
    <glyph glyph-name="h" unicode="h" horiz-adv-x="550" 
d="M455 0h-30v290h-300v-290h-30v580h30v-260h300v260h30v-580z" />
    <glyph glyph-name="i" unicode="i" horiz-adv-x="220" 
d="M95 580h30v-580h-30v580z" />
    <glyph glyph-name="j" unicode="j" horiz-adv-x="432" 
d="M15 -39q27 -131 155 -131q83 0 110 46.5t27 135.5v568h30v-568q0 -28 -1 -45t-5 -46t-15 -46.5t-28.5 -37t-47.5 -28.5t-70 -9q-157 0 -191 161h36z" />
    <glyph glyph-name="k" unicode="k" horiz-adv-x="515" 
d="M95 0v580h30v-580h-30zM465 0l-308 306l276 274h43l-276 -274l308 -306h-43z" />
    <glyph glyph-name="l" unicode="l" horiz-adv-x="449" 
d="M429 30v-30h-334v580h30v-550h304z" />
    <glyph glyph-name="m" unicode="m" horiz-adv-x="700" 
d="M189 30h386v508l-225 -225l-225 225v-538l-30 1v579h30l225 -225l225 225h30v-580l-416 1v29z" />
    <glyph glyph-name="n" unicode="n" 
d="M95 0v580h30l326 -525v525h30v-580h-30l-326 526v-526h-30z" />
    <glyph glyph-name="o" unicode="o" horiz-adv-x="606" 
d="M303 560q-50 0 -84 -10.5t-62.5 -39t-42.5 -83t-14 -137.5t14 -137.5t42.5 -83t62.5 -39t84 -10.5t84 10.5t62.5 39t42.5 83t14 137.5t-14 137.5t-42.5 83t-62.5 39t-84 10.5zM303 -10q-125 0 -179 71t-54 229t54 229t179 71t179 -71t54 -229t-54 -229t-179 -71z" />
    <glyph glyph-name="p" unicode="p" horiz-adv-x="529" 
d="M343 216l-15 26l56 32q69 38 69 121q0 155 -236 155h-92v-750h-30v780h122q132 0 199 -48.5t67 -136.5q0 -100 -84 -147z" />
    <glyph glyph-name="q" unicode="q" horiz-adv-x="607" 
d="M275 -9q-109 7 -156.5 78.5t-47.5 220.5q0 158 54.5 229t178.5 71t178.5 -71t54.5 -229q0 -200 -91 -264l-17 24q78 53 78 240q0 83 -14 137.5t-42.5 83t-62.5 39t-84 10.5t-84 -10.5t-62.5 -39t-42.5 -83t-14 -137.5t14 -137.5t42.5 -83t62.5 -39t84 -10.5
q0 -111 35.5 -150.5t110.5 -39.5v-30q-81 0 -125 40t-50 151z" />
    <glyph glyph-name="r" unicode="r" horiz-adv-x="516" 
d="M339 291l136 -291h-33l-140 300q2 1 17.5 8.5t21.5 11t20 12.5t21 17.5t15.5 20t12.5 26t4 31.5q0 63 -60 93t-149 30h-80v-550h-30v580h110q118 0 178.5 -41t60.5 -112q0 -46 -31 -81.5t-74 -54.5z" />
    <glyph glyph-name="s" unicode="s" horiz-adv-x="517" 
d="M248 592q124 0 176 -55l-20 -22q-48 47 -152 47q-156 0 -156 -124q0 -48 38 -76.5t92.5 -43.5t109 -31.5t92.5 -53t38 -95.5q0 -69 -57 -110t-165 -41q-53 0 -104.5 14t-76.5 41l20 22q51 -47 157 -47q97 0 146.5 36t49.5 84q0 50 -38 81t-92.5 46.5t-109 32t-92.5 51.5
t-38 92q0 77 51.5 114.5t130.5 37.5z" />
    <glyph glyph-name="t" unicode="t" horiz-adv-x="490" 
d="M470 580v-30h-210v-550h-30v550h-210v30h450z" />
    <glyph glyph-name="u" unicode="u" horiz-adv-x="586" 
d="M115 580v-290q0 -149 47.5 -209.5t130.5 -60.5t130.5 60.5t47.5 209.5v290h30v-290q0 -300 -208 -300t-208 300v290h30z" />
    <glyph glyph-name="v" unicode="v" horiz-adv-x="536" 
d="M518 580l-250 -590l-250 590h32l218 -513l218 513h32z" />
    <glyph glyph-name="w" unicode="w" horiz-adv-x="837" 
d="M50 580l218 -513l151 355l150 -355l205 483h-645v30h690l-250 -590l-150 355l-151 -355l-250 590h32z" />
    <glyph glyph-name="x" unicode="x" horiz-adv-x="458" 
d="M247 313l180 -313h-35l-163 282l-163 -282h-35l180 313l-154 267h35l137 -237l137 237h35z" />
    <glyph glyph-name="y" unicode="y" horiz-adv-x="534" 
d="M130 580h387l-235 -555v-225h-30v225l-235 555h32l218 -513l205 483h-342v30z" />
    <glyph glyph-name="z" unicode="z" horiz-adv-x="462" 
d="M361 550h-312v30h364l-318 -550h322v-30h-374z" />
    <glyph glyph-name="braceleft" unicode="{" horiz-adv-x="271" 
d="M30 354q84 43 84 188q0 163 101 214l12 -25q-83 -42 -83 -189q0 -140 -72 -192q72 -52 72 -192q0 -147 83 -189l-12 -25q-101 51 -101 214q0 145 -84 188v8z" />
    <glyph glyph-name="bar" unicode="|" horiz-adv-x="226" 
d="M128 -60h-30v820h30v-820z" />
    <glyph glyph-name="braceright" unicode="}" horiz-adv-x="271" 
d="M241 346q-84 -43 -84 -188q0 -163 -101 -214l-12 25q83 42 83 189q0 140 72 192q-72 52 -72 192q0 147 -83 189l12 25q101 -51 101 -214q0 -145 84 -188v-8z" />
    <glyph glyph-name="asciitilde" unicode="~" horiz-adv-x="361" 
d="M236 622q-28 0 -53 24t-45 24q-16 0 -28 -13t-12 -35h-30q0 35 21.5 56.5t48.5 21.5q28 0 53 -24t45 -24q16 0 28 13t12 35h30q0 -35 -21.5 -56.5t-48.5 -21.5z" />
    <glyph glyph-name="uni00A0" unicode="&#xa0;" horiz-adv-x="295" 
 />
    <glyph glyph-name="exclamdown" unicode="&#xa1;" horiz-adv-x="228" 
d="M147 522h-66v58h66v-58zM99 445h30v-565h-30v565z" />
    <glyph glyph-name="cent" unicode="&#xa2;" horiz-adv-x="533" 
d="M301 0h-30v71q-108 7 -159 79t-51 193q0 251 210 264v93h30v-92q120 -1 173 -69l-22 -20q-44 57 -151 59v-470q107 2 151 59l22 -20q-58 -74 -173 -77v-70zM271 109v468q-180 -13 -180 -234t180 -234z" />
    <glyph glyph-name="sterling" unicode="&#xa3;" horiz-adv-x="537" 
d="M51 32q37 21 54 58.5t17 107.5v201q0 162 41 236.5t142 74.5q86 0 131 -58l-27 -18q-39 46 -104 46q-76 0 -114.5 -60.5t-38.5 -220.5h119v-30h-119v-171q0 -113 -58 -168h396v-30h-439v32z" />
    <glyph glyph-name="currency" unicode="&#xa4;" horiz-adv-x="481" 
d="M140 256q0 -41 29.5 -70.5t70.5 -29.5t71 29.5t30 70.5t-30 70.5t-71 29.5t-70.5 -29.5t-29.5 -70.5zM141 172q-31 38 -31 84q0 41 26 77l-54 54l22 21l53 -53q38 31 83 31q46 0 84 -31l53 53l22 -21l-54 -54q26 -36 26 -77q0 -46 -31 -84l59 -59l-22 -21l-60 60
q-36 -26 -77 -26t-77 26l-59 -60l-22 21z" />
    <glyph glyph-name="yen" unicode="&#xa5;" horiz-adv-x="510" 
d="M82 700l173 -277l173 277h36l-194 -310v-60h138v-30h-138v-70h138v-30h-138v-200h-30v200h-138v30h138v70h-138v30h138v60l-194 310h36z" />
    <glyph glyph-name="brokenbar" unicode="&#xa6;" horiz-adv-x="230" 
d="M100 400v360h30v-360h-30zM130 300v-360h-30v360h30z" />
    <glyph glyph-name="dieresis" unicode="&#xa8;" horiz-adv-x="334" 
d="M223 712h66v-58h-66v58zM45 712h66v-58h-66v58z" />
    <glyph glyph-name="copyright" unicode="&#xa9;" horiz-adv-x="610" 
d="M305 560q-50 0 -84 -10.5t-62.5 -39t-42.5 -83t-14 -137.5t14 -137.5t42.5 -83t62.5 -39t84 -10.5t84 10.5t62.5 39t42.5 83t14 137.5t-14 137.5t-42.5 83t-62.5 39t-84 10.5zM305 -10q-125 0 -179 71t-54 229t54 229t179 71t179 -71t54 -229t-54 -229t-179 -71zM306 132
q-69 0 -96.5 40t-27.5 118q0 79 28 118.5t96 39.5q66 0 100 -43l-22 -20l-5 7q-20 26 -73 26q-55 0 -74.5 -30t-19.5 -98q0 -69 20 -98.5t74 -29.5t73 26l5 7l22 -20l-4 -6q-29 -37 -96 -37z" />
    <glyph glyph-name="guillemotleft" unicode="&#xab;" horiz-adv-x="432" 
d="M61 350l140 117l19 -23l-112 -94l112 -94l-19 -23zM181 350l140 117l19 -23l-112 -94l112 -94l-19 -23z" />
    <glyph glyph-name="registered" unicode="&#xae;" horiz-adv-x="610" 
d="M305 560q-50 0 -84 -10.5t-62.5 -39t-42.5 -83t-14 -137.5t14 -137.5t42.5 -83t62.5 -39t84 -10.5t84 10.5t62.5 39t42.5 83t14 137.5t-14 137.5t-42.5 83t-62.5 39t-84 10.5zM305 -10q-125 0 -179 71t-54 229t54 229t179 71t179 -71t54 -229t-54 -229t-179 -71zM312 298
q2 1 10.5 5t11.5 6t10.5 6.5t10.5 8t7.5 9t6 12t1.5 13.5q0 27 -27.5 40.5t-69.5 13.5h-32v-274h-30v304h62q62 0 94.5 -22.5t32.5 -61.5q0 -44 -50 -71l70 -149h-33z" />
    <glyph glyph-name="macron" unicode="&#xaf;" horiz-adv-x="300" 
d="M34 670v30h220v-30h-220z" />
    <glyph glyph-name="degree" unicode="&#xb0;" horiz-adv-x="322" 
d="M161 741q-30 0 -50 -21t-20 -49q0 -30 21 -50t49 -20q30 0 50 21t20 49q0 30 -21 50t-49 20zM61 671q0 43 30 71.5t70 28.5q43 0 71.5 -30t28.5 -70q0 -43 -30 -71.5t-70 -28.5q-43 0 -71.5 30t-28.5 70z" />
    <glyph glyph-name="acute" unicode="&#xb4;" horiz-adv-x="230" 
d="M185 764l-117 -139l-23 19l117 140z" />
    <glyph glyph-name="periodcentered" unicode="&#xb7;" horiz-adv-x="244" 
d="M89 358h66v-58h-66v58z" />
    <glyph glyph-name="cedilla" unicode="&#xb8;" horiz-adv-x="170" 
d="M45 -176q43 33 43 81h-29v58h66q0 -71 -13 -101t-47 -60z" />
    <glyph glyph-name="guillemotright" unicode="&#xbb;" horiz-adv-x="432" 
d="M251 350l-140 -117l-19 23l112 94l-112 94l19 23zM371 350l-140 -117l-19 23l112 94l-112 94l19 23z" />
    <glyph glyph-name="questiondown" unicode="&#xbf;" horiz-adv-x="501" 
d="M324 522h-66v58h66v-58zM306 424q0 -46 -16.5 -84.5t-40.5 -63t-53 -51t-53 -48.5t-40.5 -54.5t-16.5 -69.5q0 -50 14 -82t41.5 -46.5t55 -19.5t67.5 -5q58 0 97.5 27t60.5 94l-108 81h49l93 -70q-21 -82 -68 -122t-124 -40q-110 0 -159 43t-49 140q0 42 16.5 77.5
t40.5 59t53 49.5t53 49.5t40.5 58.5t16.5 77h30z" />
    <glyph glyph-name="Agrave" unicode="&#xc0;" horiz-adv-x="546" 
d="M180 860l23 20l117 -140l-23 -19zM117 30h368l-212 583l-223 -613h-32l255 701l255 -701h-411v30z" />
    <glyph glyph-name="Aacute" unicode="&#xc1;" horiz-adv-x="546" 
d="M367 860l-117 -139l-23 19l117 140zM117 30h368l-212 583l-223 -613h-32l255 701l255 -701h-411v30z" />
    <glyph glyph-name="Acircumflex" unicode="&#xc2;" horiz-adv-x="546" 
d="M273 864l117 -140l-23 -19l-94 112l-94 -112l-23 19zM117 30h368l-212 583l-223 -613h-32l255 701l255 -701h-411v30z" />
    <glyph glyph-name="Atilde" unicode="&#xc3;" horiz-adv-x="546" 
d="M324 722q-28 0 -53 24t-45 24q-16 0 -28 -13t-12 -35h-30q0 35 21.5 56.5t48.5 21.5q28 0 53 -24t45 -24q16 0 28 13t12 35h30q0 -35 -21.5 -56.5t-48.5 -21.5zM117 30h368l-212 583l-223 -613h-32l255 701l255 -701h-411v30z" />
    <glyph glyph-name="Adieresis" unicode="&#xc4;" horiz-adv-x="546" 
d="M329 812h66v-58h-66v58zM151 812h66v-58h-66v58zM117 30h368l-212 583l-223 -613h-32l255 701l255 -701h-411v30z" />
    <glyph glyph-name="Aring" unicode="&#xc5;" horiz-adv-x="546" 
d="M273 826q-19 0 -32 -13.5t-13 -31.5q0 -19 13.5 -32t31.5 -13q19 0 32 13.5t13 31.5q0 19 -13.5 32t-31.5 13zM273 851q28 0 49 -20t21 -50q0 -28 -20 -49t-50 -21q-28 0 -49 20t-21 50q0 28 20 49t50 21zM117 30h368l-212 583l-223 -613h-32l255 701l255 -701h-411v30z
" />
    <glyph glyph-name="AE" unicode="&#xc6;" horiz-adv-x="805" 
d="M687 366h-297l306 304h-338v-640h388v-30h-418v627l-279 -597h185v-30h-232l326 700h441l-306 -304h224v-30z" />
    <glyph glyph-name="Ccedilla" unicode="&#xc7;" horiz-adv-x="587" 
d="M268 -176q43 33 43 81h-29v58h66q0 -71 -13 -101t-47 -60zM533 128q-27 -66 -76 -102t-147 -36q-123 0 -178 75.5t-55 235.5v98q0 160 55 235.5t178 75.5q98 0 147 -36t76 -102l-27 -13q-23 58 -65 89.5t-131 31.5q-49 0 -84 -12.5t-63 -42.5t-42 -86.5t-14 -139.5v-98
q0 -83 14 -139.5t42 -86.5t63 -42.5t84 -12.5q89 0 131 31.5t65 89.5z" />
    <glyph glyph-name="Egrave" unicode="&#xc8;" 
d="M216 860l23 20l117 -140l-23 -19zM458 366h-297l306 304h-338v-640h388v-30h-418v700h441l-306 -304h224v-30z" />
    <glyph glyph-name="Eacute" unicode="&#xc9;" 
d="M402 860l-117 -139l-23 19l117 140zM458 366h-297l306 304h-338v-640h388v-30h-418v700h441l-306 -304h224v-30z" />
    <glyph glyph-name="Ecircumflex" unicode="&#xca;" 
d="M309 864l117 -140l-23 -19l-94 112l-94 -112l-23 19zM458 366h-297l306 304h-338v-640h388v-30h-418v700h441l-306 -304h224v-30z" />
    <glyph glyph-name="Edieresis" unicode="&#xcb;" 
d="M365 812h66v-58h-66v58zM187 812h66v-58h-66v58zM458 366h-297l306 304h-338v-640h388v-30h-418v700h441l-306 -304h224v-30z" />
    <glyph glyph-name="Igrave" unicode="&#xcc;" horiz-adv-x="228" 
d="M39 860l23 20l117 -140l-23 -19zM129 0h-30v700h30v-700z" />
    <glyph glyph-name="Iacute" unicode="&#xcd;" horiz-adv-x="228" 
d="M189 860l-117 -139l-23 19l117 140zM129 0h-30v700h30v-700z" />
    <glyph glyph-name="Icircumflex" unicode="&#xce;" horiz-adv-x="228" 
d="M114 864l117 -140l-23 -19l-94 112l-94 -112l-23 19zM129 0h-30v700h30v-700z" />
    <glyph glyph-name="Idieresis" unicode="&#xcf;" horiz-adv-x="228" 
d="M170 812h66v-58h-66v58zM-8 812h66v-58h-66v58zM129 0h-30v700h30v-700z" />
    <glyph glyph-name="Eth" unicode="&#xd0;" horiz-adv-x="593" 
d="M35 335v30h64v335h96q144 0 244 -106t100 -244t-100 -244t-244 -106h-96v335h-64zM195 30q131 0 222.5 96.5t91.5 223.5t-91.5 223.5t-222.5 96.5h-66v-305h104v-30h-104v-305h66z" />
    <glyph glyph-name="Ntilde" unicode="&#xd1;" horiz-adv-x="637" 
d="M368 722q-28 0 -53 24t-45 24q-16 0 -28 -13t-12 -35h-30q0 35 21.5 56.5t48.5 21.5q28 0 53 -24t45 -24q16 0 28 13t12 35h30q0 -35 -21.5 -56.5t-48.5 -21.5zM177 30h310l-358 619v-649h-30v700h35l374 -647v647h30v-700h-361v30z" />
    <glyph glyph-name="Ograve" unicode="&#xd2;" horiz-adv-x="620" 
d="M217 860l23 20l117 -140l-23 -19zM310 -10q-123 0 -178 75.5t-55 235.5v98q0 160 55 235.5t178 75.5t178 -75.5t55 -235.5v-98q0 -160 -55 -235.5t-178 -75.5zM310 680q-49 0 -84 -12.5t-63 -42.5t-42 -86.5t-14 -139.5v-98q0 -83 14 -139.5t42 -86.5t63 -42.5t84 -12.5
t84 12.5t63 42.5t42 86.5t14 139.5v98q0 83 -14 139.5t-42 86.5t-63 42.5t-84 12.5z" />
    <glyph glyph-name="Oacute" unicode="&#xd3;" horiz-adv-x="620" 
d="M403 860l-117 -139l-23 19l117 140zM310 -10q-123 0 -178 75.5t-55 235.5v98q0 160 55 235.5t178 75.5t178 -75.5t55 -235.5v-98q0 -160 -55 -235.5t-178 -75.5zM310 680q-49 0 -84 -12.5t-63 -42.5t-42 -86.5t-14 -139.5v-98q0 -83 14 -139.5t42 -86.5t63 -42.5
t84 -12.5t84 12.5t63 42.5t42 86.5t14 139.5v98q0 83 -14 139.5t-42 86.5t-63 42.5t-84 12.5z" />
    <glyph glyph-name="Ocircumflex" unicode="&#xd4;" horiz-adv-x="620" 
d="M310 864l117 -140l-23 -19l-94 112l-94 -112l-23 19zM310 -10q-123 0 -178 75.5t-55 235.5v98q0 160 55 235.5t178 75.5t178 -75.5t55 -235.5v-98q0 -160 -55 -235.5t-178 -75.5zM310 680q-49 0 -84 -12.5t-63 -42.5t-42 -86.5t-14 -139.5v-98q0 -83 14 -139.5t42 -86.5
t63 -42.5t84 -12.5t84 12.5t63 42.5t42 86.5t14 139.5v98q0 83 -14 139.5t-42 86.5t-63 42.5t-84 12.5z" />
    <glyph glyph-name="Otilde" unicode="&#xd5;" horiz-adv-x="620" 
d="M361 722q-28 0 -53 24t-45 24q-16 0 -28 -13t-12 -35h-30q0 35 21.5 56.5t48.5 21.5q28 0 53 -24t45 -24q16 0 28 13t12 35h30q0 -35 -21.5 -56.5t-48.5 -21.5zM310 -10q-123 0 -178 75.5t-55 235.5v98q0 160 55 235.5t178 75.5t178 -75.5t55 -235.5v-98
q0 -160 -55 -235.5t-178 -75.5zM310 680q-49 0 -84 -12.5t-63 -42.5t-42 -86.5t-14 -139.5v-98q0 -83 14 -139.5t42 -86.5t63 -42.5t84 -12.5t84 12.5t63 42.5t42 86.5t14 139.5v98q0 83 -14 139.5t-42 86.5t-63 42.5t-84 12.5z" />
    <glyph glyph-name="Odieresis" unicode="&#xd6;" horiz-adv-x="620" 
d="M366 812h66v-58h-66v58zM188 812h66v-58h-66v58zM310 -10q-123 0 -178 75.5t-55 235.5v98q0 160 55 235.5t178 75.5t178 -75.5t55 -235.5v-98q0 -160 -55 -235.5t-178 -75.5zM310 680q-49 0 -84 -12.5t-63 -42.5t-42 -86.5t-14 -139.5v-98q0 -83 14 -139.5t42 -86.5
t63 -42.5t84 -12.5t84 12.5t63 42.5t42 86.5t14 139.5v98q0 83 -14 139.5t-42 86.5t-63 42.5t-84 12.5z" />
    <glyph glyph-name="multiply" unicode="&#xd7;" horiz-adv-x="479" 
d="M81 387l22 21l136 -137l137 137l22 -21l-137 -137l137 -137l-22 -21l-137 137l-136 -137l-22 21l137 137z" />
    <glyph glyph-name="Oslash" unicode="&#xd8;" horiz-adv-x="620" 
d="M310 680q-49 0 -84 -12.5t-63 -42.5t-42 -86.5t-14 -139.5v-98q0 -180 70 -241l241 597q-41 23 -108 23zM170 -36l-27 11l23 56q-89 69 -89 270v98q0 160 55 235.5t178 75.5q72 0 119 -25l21 51l27 -11l-23 -56q89 -69 89 -270v-98q0 -160 -55 -235.5t-178 -75.5
q-72 0 -119 25zM443 640l-241 -597q41 -23 108 -23q49 0 84 12.5t63 42.5t42 86.5t14 139.5v98q0 180 -70 241z" />
    <glyph glyph-name="Ugrave" unicode="&#xd9;" horiz-adv-x="646" 
d="M556 700v-399q0 -160 -55 -235.5t-178 -75.5t-178 75.5t-55 235.5v399h30v-399q0 -83 14 -139.5t42 -86.5t63 -42.5t84 -12.5t84 12.5t63 42.5t42 86.5t14 139.5v399h30zM230 860l23 20l117 -140l-23 -19z" />
    <glyph glyph-name="Uacute" unicode="&#xda;" horiz-adv-x="646" 
d="M556 700v-399q0 -160 -55 -235.5t-178 -75.5t-178 75.5t-55 235.5v399h30v-399q0 -83 14 -139.5t42 -86.5t63 -42.5t84 -12.5t84 12.5t63 42.5t42 86.5t14 139.5v399h30zM416 860l-117 -139l-23 19l117 140z" />
    <glyph glyph-name="Ucircumflex" unicode="&#xdb;" horiz-adv-x="646" 
d="M556 700v-399q0 -160 -55 -235.5t-178 -75.5t-178 75.5t-55 235.5v399h30v-399q0 -83 14 -139.5t42 -86.5t63 -42.5t84 -12.5t84 12.5t63 42.5t42 86.5t14 139.5v399h30zM323 864l117 -140l-23 -19l-94 112l-94 -112l-23 19z" />
    <glyph glyph-name="Udieresis" unicode="&#xdc;" horiz-adv-x="646" 
d="M556 700v-399q0 -160 -55 -235.5t-178 -75.5t-178 75.5t-55 235.5v399h30v-399q0 -83 14 -139.5t42 -86.5t63 -42.5t84 -12.5t84 12.5t63 42.5t42 86.5t14 139.5v399h30zM379 812h66v-58h-66v58zM201 812h66v-58h-66v58z" />
    <glyph glyph-name="Yacute" unicode="&#xdd;" horiz-adv-x="546" 
d="M538 700l-250 -400v-300h-30v300l-250 400h35l230 -367l230 367h35zM370 860l-117 -139l-23 19l117 140z" />
    <glyph glyph-name="Thorn" unicode="&#xde;" horiz-adv-x="528" 
d="M99 700h30v-150h92q132 0 199 -48.5t67 -136.5t-67 -136.5t-199 -48.5h-92v-180h-30v700zM129 520v-310h92q236 0 236 155t-236 155h-92z" />
    <glyph glyph-name="germandbls" unicode="&#xdf;" horiz-adv-x="584" 
d="M252 700h58q50 0 76.5 -27t26.5 -68q0 -24 -18.5 -42.5t-45 -29.5t-53 -22.5t-45 -30t-18.5 -42.5q0 -48 31.5 -76.5t76.5 -43.5t90 -31.5t76.5 -53t31.5 -95.5q0 -67 -43.5 -109t-114.5 -42q-53 0 -104.5 14t-76.5 41l20 22q51 -47 157 -47q63 0 97.5 36.5t34.5 83.5
q0 50 -31.5 81t-76.5 46.5t-90 32t-76.5 51.5t-31.5 92q0 37 28 63t62 38t62 28.5t28 35.5q0 27 -17.5 46t-55.5 19h-58q-54 0 -90.5 -47.5t-36.5 -150.5v-472h-30v472q0 110 41.5 169t115.5 59z" />
    <glyph glyph-name="agrave" unicode="&#xe0;" horiz-adv-x="538" 
d="M176 764l23 20l117 -140l-23 -19zM148 30h326l-205 483l-218 -513h-32l250 590l250 -590h-371v30z" />
    <glyph glyph-name="aacute" unicode="&#xe1;" horiz-adv-x="538" 
d="M362 764l-117 -139l-23 19l117 140zM148 30h326l-205 483l-218 -513h-32l250 590l250 -590h-371v30z" />
    <glyph glyph-name="acircumflex" unicode="&#xe2;" horiz-adv-x="538" 
d="M269 784l117 -140l-23 -19l-94 112l-94 -112l-23 19zM148 30h326l-205 483l-218 -513h-32l250 590l250 -590h-371v30z" />
    <glyph glyph-name="atilde" unicode="&#xe3;" horiz-adv-x="538" 
d="M320 622q-28 0 -53 24t-45 24q-16 0 -28 -13t-12 -35h-30q0 35 21.5 56.5t48.5 21.5q28 0 53 -24t45 -24q16 0 28 13t12 35h30q0 -35 -21.5 -56.5t-48.5 -21.5zM148 30h326l-205 483l-218 -513h-32l250 590l250 -590h-371v30z" />
    <glyph glyph-name="adieresis" unicode="&#xe4;" horiz-adv-x="538" 
d="M325 712h66v-58h-66v58zM147 712h66v-58h-66v58zM148 30h326l-205 483l-218 -513h-32l250 590l250 -590h-371v30z" />
    <glyph glyph-name="aring" unicode="&#xe5;" horiz-adv-x="538" 
d="M269 746q-19 0 -32 -13.5t-13 -31.5q0 -19 13.5 -32t31.5 -13q19 0 32 13.5t13 31.5q0 19 -13.5 32t-31.5 13zM269 771q28 0 49 -20t21 -50q0 -28 -20 -49t-50 -21q-28 0 -49 20t-21 50q0 28 20 49t50 21zM148 30h326l-205 483l-218 -513h-32l250 590l250 -590h-371v30z
" />
    <glyph glyph-name="ae" unicode="&#xe6;" horiz-adv-x="758" 
d="M693 59q-55 -69 -180 -69t-179 71t-54 229v219l-223 -479h181v-30h-228l270 580h30v-102q49 112 203 112q145 0 197 -95l-245 -205h-47l253 211q-44 59 -158 59q-50 0 -84 -10.5t-62.5 -39t-42.5 -83t-14 -137.5t14 -137.5t42.5 -83t62.5 -39t84 -10.5q114 0 158 59z" />
    <glyph glyph-name="ccedilla" unicode="&#xe7;" horiz-adv-x="537" 
d="M256 -176q43 33 43 81h-29v58h66q0 -71 -13 -101t-47 -60zM70 290q0 158 54 229t179 71t180 -69l-22 -20q-44 59 -158 59q-50 0 -84 -10.5t-62.5 -39t-42.5 -83t-14 -137.5t14 -137.5t42.5 -83t62.5 -39t84 -10.5q114 0 158 59l22 -20q-55 -69 -180 -69t-179 71t-54 229z
" />
    <glyph glyph-name="egrave" unicode="&#xe8;" horiz-adv-x="548" 
d="M199 764l23 20l117 -140l-23 -19zM483 59q-55 -69 -180 -69t-179 71t-54 229t54 229t179 71q145 0 197 -95l-245 -205h-47l253 211q-44 59 -158 59q-50 0 -84 -10.5t-62.5 -39t-42.5 -83t-14 -137.5t14 -137.5t42.5 -83t62.5 -39t84 -10.5q114 0 158 59z" />
    <glyph glyph-name="eacute" unicode="&#xe9;" horiz-adv-x="548" 
d="M385 764l-117 -139l-23 19l117 140zM483 59q-55 -69 -180 -69t-179 71t-54 229t54 229t179 71q145 0 197 -95l-245 -205h-47l253 211q-44 59 -158 59q-50 0 -84 -10.5t-62.5 -39t-42.5 -83t-14 -137.5t14 -137.5t42.5 -83t62.5 -39t84 -10.5q114 0 158 59z" />
    <glyph glyph-name="ecircumflex" unicode="&#xea;" horiz-adv-x="548" 
d="M292 784l117 -140l-23 -19l-94 112l-94 -112l-23 19zM483 59q-55 -69 -180 -69t-179 71t-54 229t54 229t179 71q145 0 197 -95l-245 -205h-47l253 211q-44 59 -158 59q-50 0 -84 -10.5t-62.5 -39t-42.5 -83t-14 -137.5t14 -137.5t42.5 -83t62.5 -39t84 -10.5
q114 0 158 59z" />
    <glyph glyph-name="edieresis" unicode="&#xeb;" horiz-adv-x="548" 
d="M348 712h66v-58h-66v58zM170 712h66v-58h-66v58zM483 59q-55 -69 -180 -69t-179 71t-54 229t54 229t179 71q145 0 197 -95l-245 -205h-47l253 211q-44 59 -158 59q-50 0 -84 -10.5t-62.5 -39t-42.5 -83t-14 -137.5t14 -137.5t42.5 -83t62.5 -39t84 -10.5q114 0 158 59z
" />
    <glyph glyph-name="igrave" unicode="&#xec;" horiz-adv-x="220" 
d="M35 764l23 20l117 -140l-23 -19zM95 580h30v-580h-30v580z" />
    <glyph glyph-name="iacute" unicode="&#xed;" horiz-adv-x="220" 
d="M185 764l-117 -139l-23 19l117 140zM95 580h30v-580h-30v580z" />
    <glyph glyph-name="icircumflex" unicode="&#xee;" horiz-adv-x="220" 
d="M110 784l117 -140l-23 -19l-94 112l-94 -112l-23 19zM95 580h30v-580h-30v580z" />
    <glyph glyph-name="idieresis" unicode="&#xef;" horiz-adv-x="220" 
d="M166 712h66v-58h-66v58zM-12 712h66v-58h-66v58zM95 580h30v-580h-30v580z" />
    <glyph glyph-name="eth" unicode="&#xf0;" horiz-adv-x="583" 
d="M291 -10q-233 0 -233 250t233 250q55 0 94 -13l-108 128l-65 -55l-20 23l66 55l-55 66l23 20l55 -66l63 52l19 -23l-62 -53l166 -199q57 -69 57 -185q0 -250 -233 -250zM291 460q-203 0 -203 -220t203 -220t203 220t-203 220z" />
    <glyph glyph-name="ntilde" unicode="&#xf1;" 
d="M339 622q-28 0 -53 24t-45 24q-16 0 -28 -13t-12 -35h-30q0 35 21.5 56.5t48.5 21.5q28 0 53 -24t45 -24q16 0 28 13t12 35h30q0 -35 -21.5 -56.5t-48.5 -21.5zM95 0v580h30l326 -525v525h30v-580h-30l-326 526v-526h-30z" />
    <glyph glyph-name="ograve" unicode="&#xf2;" horiz-adv-x="606" 
d="M210 764l23 20l117 -140l-23 -19zM303 560q-50 0 -84 -10.5t-62.5 -39t-42.5 -83t-14 -137.5t14 -137.5t42.5 -83t62.5 -39t84 -10.5t84 10.5t62.5 39t42.5 83t14 137.5t-14 137.5t-42.5 83t-62.5 39t-84 10.5zM303 -10q-125 0 -179 71t-54 229t54 229t179 71t179 -71
t54 -229t-54 -229t-179 -71z" />
    <glyph glyph-name="oacute" unicode="&#xf3;" horiz-adv-x="606" 
d="M396 764l-117 -139l-23 19l117 140zM303 560q-50 0 -84 -10.5t-62.5 -39t-42.5 -83t-14 -137.5t14 -137.5t42.5 -83t62.5 -39t84 -10.5t84 10.5t62.5 39t42.5 83t14 137.5t-14 137.5t-42.5 83t-62.5 39t-84 10.5zM303 -10q-125 0 -179 71t-54 229t54 229t179 71t179 -71
t54 -229t-54 -229t-179 -71z" />
    <glyph glyph-name="ocircumflex" unicode="&#xf4;" horiz-adv-x="606" 
d="M303 784l117 -140l-23 -19l-94 112l-94 -112l-23 19zM303 560q-50 0 -84 -10.5t-62.5 -39t-42.5 -83t-14 -137.5t14 -137.5t42.5 -83t62.5 -39t84 -10.5t84 10.5t62.5 39t42.5 83t14 137.5t-14 137.5t-42.5 83t-62.5 39t-84 10.5zM303 -10q-125 0 -179 71t-54 229t54 229
t179 71t179 -71t54 -229t-54 -229t-179 -71z" />
    <glyph glyph-name="otilde" unicode="&#xf5;" horiz-adv-x="606" 
d="M354 622q-28 0 -53 24t-45 24q-16 0 -28 -13t-12 -35h-30q0 35 21.5 56.5t48.5 21.5q28 0 53 -24t45 -24q16 0 28 13t12 35h30q0 -35 -21.5 -56.5t-48.5 -21.5zM303 560q-50 0 -84 -10.5t-62.5 -39t-42.5 -83t-14 -137.5t14 -137.5t42.5 -83t62.5 -39t84 -10.5t84 10.5
t62.5 39t42.5 83t14 137.5t-14 137.5t-42.5 83t-62.5 39t-84 10.5zM303 -10q-125 0 -179 71t-54 229t54 229t179 71t179 -71t54 -229t-54 -229t-179 -71z" />
    <glyph glyph-name="odieresis" unicode="&#xf6;" horiz-adv-x="606" 
d="M359 712h66v-58h-66v58zM181 712h66v-58h-66v58zM303 560q-50 0 -84 -10.5t-62.5 -39t-42.5 -83t-14 -137.5t14 -137.5t42.5 -83t62.5 -39t84 -10.5t84 10.5t62.5 39t42.5 83t14 137.5t-14 137.5t-42.5 83t-62.5 39t-84 10.5zM303 -10q-125 0 -179 71t-54 229t54 229
t179 71t179 -71t54 -229t-54 -229t-179 -71z" />
    <glyph glyph-name="divide" unicode="&#xf7;" horiz-adv-x="486" 
d="M210 383h66v-58h-66v58zM87 235v30h312v-30h-312zM210 175h66v-58h-66v58z" />
    <glyph glyph-name="oslash" unicode="&#xf8;" horiz-adv-x="606" 
d="M303 560q-50 0 -84 -10.5t-62.5 -39t-42.5 -83t-14 -137.5q0 -191 83 -243l204 503q-31 10 -84 10zM178 -44l-27 11l21 52q-102 58 -102 271q0 158 54 229t179 71q56 0 95 -13l25 63l27 -11l-25 -63q58 -29 84.5 -96t26.5 -180q0 -158 -54 -229t-179 -71q-63 0 -105 16z
M414 539l-205 -505q38 -14 94 -14q50 0 84 10.5t62.5 39t42.5 83t14 137.5q0 201 -92 249z" />
    <glyph glyph-name="ugrave" unicode="&#xf9;" horiz-adv-x="586" 
d="M200 764l23 20l117 -140l-23 -19zM115 580v-290q0 -149 47.5 -209.5t130.5 -60.5t130.5 60.5t47.5 209.5v290h30v-290q0 -300 -208 -300t-208 300v290h30z" />
    <glyph glyph-name="uacute" unicode="&#xfa;" horiz-adv-x="586" 
d="M386 764l-117 -139l-23 19l117 140zM115 580v-290q0 -149 47.5 -209.5t130.5 -60.5t130.5 60.5t47.5 209.5v290h30v-290q0 -300 -208 -300t-208 300v290h30z" />
    <glyph glyph-name="ucircumflex" unicode="&#xfb;" horiz-adv-x="586" 
d="M293 784l117 -140l-23 -19l-94 112l-94 -112l-23 19zM115 580v-290q0 -149 47.5 -209.5t130.5 -60.5t130.5 60.5t47.5 209.5v290h30v-290q0 -300 -208 -300t-208 300v290h30z" />
    <glyph glyph-name="udieresis" unicode="&#xfc;" horiz-adv-x="586" 
d="M349 712h66v-58h-66v58zM171 712h66v-58h-66v58zM115 580v-290q0 -149 47.5 -209.5t130.5 -60.5t130.5 60.5t47.5 209.5v290h30v-290q0 -300 -208 -300t-208 300v290h30z" />
    <glyph glyph-name="yacute" unicode="&#xfd;" horiz-adv-x="534" 
d="M517 580l-235 -555v-225h-30v225l-235 555h32l218 -513l218 513h32zM360 764l-117 -139l-23 19l117 140z" />
    <glyph glyph-name="thorn" unicode="&#xfe;" horiz-adv-x="541" 
d="M483 322q0 -103 -74.5 -184t-191.5 -113l-92 -25v-200h-30v900h30v-154l92 30q45 14 80 14q91 0 138.5 -70.5t47.5 -197.5zM125 516v-486l92 25q97 26 166.5 100.5t69.5 166.5q0 123 -45.5 180.5t-122.5 57.5q-26 0 -68 -14z" />
    <glyph glyph-name="ydieresis" unicode="&#xff;" horiz-adv-x="534" 
d="M517 580l-235 -555v-225h-30v225l-235 555h32l218 -513l218 513h32zM323 712h66v-58h-66v58zM145 712h66v-58h-66v58z" />
    <glyph glyph-name="Amacron" unicode="&#x100;" horiz-adv-x="546" 
d="M117 30h368l-212 583l-223 -613h-32l255 701l255 -701h-411v30zM163 770v30h220v-30h-220z" />
    <glyph glyph-name="amacron" unicode="&#x101;" horiz-adv-x="538" 
d="M164 670v30h220v-30h-220zM148 30h326l-205 483l-218 -513h-32l250 590l250 -590h-371v30z" />
    <glyph glyph-name="Abreve" unicode="&#x102;" horiz-adv-x="546" 
d="M373 819q0 -43 -30 -71.5t-70 -28.5q-43 0 -71.5 30t-28.5 70h30q0 -30 21 -50t49 -20q30 0 50 21t20 49h30zM117 30h368l-212 583l-223 -613h-32l255 701l255 -701h-411v30z" />
    <glyph glyph-name="abreve" unicode="&#x103;" horiz-adv-x="538" 
d="M369 719q0 -43 -30 -71.5t-70 -28.5q-43 0 -71.5 30t-28.5 70h30q0 -30 21 -50t49 -20q30 0 50 21t20 49h30zM148 30h326l-205 483l-218 -513h-32l250 590l250 -590h-371v30z" />
    <glyph glyph-name="Aogonek" unicode="&#x104;" horiz-adv-x="546" 
d="M117 30h368l-212 583l-223 -613h-32l255 701l255 -701h-71q-41 -26 -41 -76q0 -38 26 -64t64 -26v-30q-50 0 -85 35t-35 85q0 43 27 76h-296v30z" />
    <glyph glyph-name="aogonek" unicode="&#x105;" horiz-adv-x="538" 
d="M148 30h326l-205 483l-218 -513h-32l250 590l250 -590h-73q-41 -26 -41 -76q0 -38 26.5 -64t63.5 -26v-30q-49 0 -84.5 35t-35.5 85q0 43 27 76h-254v30z" />
    <glyph glyph-name="Cacute" unicode="&#x106;" horiz-adv-x="587" 
d="M393 860l-117 -139l-23 19l117 140zM533 128q-27 -66 -76 -102t-147 -36q-123 0 -178 75.5t-55 235.5v98q0 160 55 235.5t178 75.5q98 0 147 -36t76 -102l-27 -13q-23 58 -65 89.5t-131 31.5q-49 0 -84 -12.5t-63 -42.5t-42 -86.5t-14 -139.5v-98q0 -83 14 -139.5
t42 -86.5t63 -42.5t84 -12.5q89 0 131 31.5t65 89.5z" />
    <glyph glyph-name="cacute" unicode="&#x107;" horiz-adv-x="537" 
d="M390 764l-117 -139l-23 19l117 140zM70 290q0 158 54 229t179 71t180 -69l-22 -20q-44 59 -158 59q-50 0 -84 -10.5t-62.5 -39t-42.5 -83t-14 -137.5t14 -137.5t42.5 -83t62.5 -39t84 -10.5q114 0 158 59l22 -20q-55 -69 -180 -69t-179 71t-54 229z" />
    <glyph glyph-name="Ccircumflex" unicode="&#x108;" horiz-adv-x="587" 
d="M312 864l117 -140l-23 -19l-94 112l-94 -112l-23 19zM533 128q-27 -66 -76 -102t-147 -36q-123 0 -178 75.5t-55 235.5v98q0 160 55 235.5t178 75.5q98 0 147 -36t76 -102l-27 -13q-23 58 -65 89.5t-131 31.5q-49 0 -84 -12.5t-63 -42.5t-42 -86.5t-14 -139.5v-98
q0 -83 14 -139.5t42 -86.5t63 -42.5t84 -12.5q89 0 131 31.5t65 89.5z" />
    <glyph glyph-name="ccircumflex" unicode="&#x109;" horiz-adv-x="537" 
d="M292 784l117 -140l-23 -19l-94 112l-94 -112l-23 19zM70 290q0 158 54 229t179 71t180 -69l-22 -20q-44 59 -158 59q-50 0 -84 -10.5t-62.5 -39t-42.5 -83t-14 -137.5t14 -137.5t42.5 -83t62.5 -39t84 -10.5q114 0 158 59l22 -20q-55 -69 -180 -69t-179 71t-54 229z" />
    <glyph glyph-name="Cdotaccent" unicode="&#x10a;" horiz-adv-x="587" 
d="M280 812h66v-58h-66v58zM533 128q-27 -66 -76 -102t-147 -36q-123 0 -178 75.5t-55 235.5v98q0 160 55 235.5t178 75.5q98 0 147 -36t76 -102l-27 -13q-23 58 -65 89.5t-131 31.5q-49 0 -84 -12.5t-63 -42.5t-42 -86.5t-14 -139.5v-98q0 -83 14 -139.5t42 -86.5t63 -42.5
t84 -12.5q89 0 131 31.5t65 89.5z" />
    <glyph glyph-name="cdotaccent" unicode="&#x10b;" horiz-adv-x="537" 
d="M269 712h66v-58h-66v58zM70 290q0 158 54 229t179 71t180 -69l-22 -20q-44 59 -158 59q-50 0 -84 -10.5t-62.5 -39t-42.5 -83t-14 -137.5t14 -137.5t42.5 -83t62.5 -39t84 -10.5q114 0 158 59l22 -20q-55 -69 -180 -69t-179 71t-54 229z" />
    <glyph glyph-name="Ccaron" unicode="&#x10c;" horiz-adv-x="587" 
d="M317 711l-117 140l23 19l94 -112l94 112l23 -19zM533 128q-27 -66 -76 -102t-147 -36q-123 0 -178 75.5t-55 235.5v98q0 160 55 235.5t178 75.5q98 0 147 -36t76 -102l-27 -13q-23 58 -65 89.5t-131 31.5q-49 0 -84 -12.5t-63 -42.5t-42 -86.5t-14 -139.5v-98
q0 -83 14 -139.5t42 -86.5t63 -42.5t84 -12.5q89 0 131 31.5t65 89.5z" />
    <glyph glyph-name="ccaron" unicode="&#x10d;" horiz-adv-x="537" 
d="M302 601l-117 140l23 19l94 -112l94 112l23 -19zM70 290q0 158 54 229t179 71t180 -69l-22 -20q-44 59 -158 59q-50 0 -84 -10.5t-62.5 -39t-42.5 -83t-14 -137.5t14 -137.5t42.5 -83t62.5 -39t84 -10.5q114 0 158 59l22 -20q-55 -69 -180 -69t-179 71t-54 229z" />
    <glyph glyph-name="Dcaron" unicode="&#x10e;" horiz-adv-x="593" 
d="M255 711l-117 140l23 19l94 -112l94 112l23 -19zM195 0h-96v700h96q144 0 244 -106t100 -244t-100 -244t-244 -106zM195 30q131 0 222.5 96.5t91.5 223.5t-91.5 223.5t-222.5 96.5h-66v-640h66z" />
    <glyph glyph-name="dcaron" unicode="&#x10f;" horiz-adv-x="553" 
d="M245 601l-117 140l23 19l94 -112l94 112l23 -19zM171 0h-76v580h76q148 0 236 -78t88 -212t-88 -212t-236 -78zM171 30q135 0 214.5 69t79.5 191t-79.5 191t-214.5 69h-46v-520h46z" />
    <glyph glyph-name="Dcroat" unicode="&#x110;" horiz-adv-x="593" 
d="M195 30q131 0 222.5 96.5t91.5 223.5t-91.5 223.5t-222.5 96.5h-66v-305h104v-30h-104v-305h66zM195 0h-96v335h-64v30h64v335h96q144 0 244 -106t100 -244t-100 -244t-244 -106z" />
    <glyph glyph-name="dcroat" unicode="&#x111;" horiz-adv-x="575" 
d="M36 284v30h81v266h76q148 0 236 -78t88 -212t-88 -212t-236 -78h-76v284h-81zM193 30q135 0 214.5 69t79.5 191t-79.5 191t-214.5 69h-46v-236h87v-30h-87v-254h46z" />
    <glyph glyph-name="Emacron" unicode="&#x112;" 
d="M193 770v30h220v-30h-220zM458 366h-297l306 304h-338v-640h388v-30h-418v700h441l-306 -304h224v-30z" />
    <glyph glyph-name="emacron" unicode="&#x113;" horiz-adv-x="548" 
d="M180 670v30h220v-30h-220zM483 59q-55 -69 -180 -69t-179 71t-54 229t54 229t179 71q145 0 197 -95l-245 -205h-47l253 211q-44 59 -158 59q-50 0 -84 -10.5t-62.5 -39t-42.5 -83t-14 -137.5t14 -137.5t42.5 -83t62.5 -39t84 -10.5q114 0 158 59z" />
    <glyph glyph-name="Ebreve" unicode="&#x114;" 
d="M402 819q0 -43 -30 -71.5t-70 -28.5q-43 0 -71.5 30t-28.5 70h30q0 -30 21 -50t49 -20q30 0 50 21t20 49h30zM458 366h-297l306 304h-338v-640h388v-30h-418v700h441l-306 -304h224v-30z" />
    <glyph glyph-name="ebreve" unicode="&#x115;" horiz-adv-x="548" 
d="M390 719q0 -43 -30 -71.5t-70 -28.5q-43 0 -71.5 30t-28.5 70h30q0 -30 21 -50t49 -20q30 0 50 21t20 49h30zM483 59q-55 -69 -180 -69t-179 71t-54 229t54 229t179 71q145 0 197 -95l-245 -205h-47l253 211q-44 59 -158 59q-50 0 -84 -10.5t-62.5 -39t-42.5 -83
t-14 -137.5t14 -137.5t42.5 -83t62.5 -39t84 -10.5q114 0 158 59z" />
    <glyph glyph-name="Edotaccent" unicode="&#x116;" 
d="M268 812h66v-58h-66v58zM458 366h-297l306 304h-338v-640h388v-30h-418v700h441l-306 -304h224v-30z" />
    <glyph glyph-name="edotaccent" unicode="&#x117;" horiz-adv-x="548" 
d="M269 712h66v-58h-66v58zM483 59q-55 -69 -180 -69t-179 71t-54 229t54 229t179 71q145 0 197 -95l-245 -205h-47l253 211q-44 59 -158 59q-50 0 -84 -10.5t-62.5 -39t-42.5 -83t-14 -137.5t14 -137.5t42.5 -83t62.5 -39t84 -10.5q114 0 158 59z" />
    <glyph glyph-name="Eogonek" unicode="&#x118;" 
d="M458 366h-297l306 304h-338v-640h388v-30h-24q-41 -26 -41 -76q0 -38 26 -64t64 -26v-30q-50 0 -85 35t-35 85q0 43 27 76h-350v700h441l-306 -304h224v-30z" />
    <glyph glyph-name="eogonek" unicode="&#x119;" horiz-adv-x="548" 
d="M340 -9q-12 -1 -37 -1q-125 0 -179 71t-54 229t54 229t179 71q145 0 197 -95l-245 -205h-47l253 211q-44 59 -158 59q-50 0 -84 -10.5t-62.5 -39t-42.5 -83t-14 -137.5t14 -137.5t42.5 -83t62.5 -39t84 -10.5q114 0 158 59l22 -20q-33 -42 -93 -59q-41 -26 -41 -76
q0 -38 26.5 -64t63.5 -26v-30q-49 0 -84.5 35t-35.5 85q0 36 21 67z" />
    <glyph glyph-name="Ecaron" unicode="&#x11a;" 
d="M301 711l-117 140l23 19l94 -112l94 112l23 -19zM458 366h-297l306 304h-338v-640h388v-30h-418v700h441l-306 -304h224v-30z" />
    <glyph glyph-name="ecaron" unicode="&#x11b;" horiz-adv-x="548" 
d="M302 601l-117 140l23 19l94 -112l94 112l23 -19zM483 59q-55 -69 -180 -69t-179 71t-54 229t54 229t179 71q145 0 197 -95l-245 -205h-47l253 211q-44 59 -158 59q-50 0 -84 -10.5t-62.5 -39t-42.5 -83t-14 -137.5t14 -137.5t42.5 -83t62.5 -39t84 -10.5q114 0 158 59z
" />
    <glyph glyph-name="Gcircumflex" unicode="&#x11c;" horiz-adv-x="615" 
d="M312 864l117 -140l-23 -19l-94 112l-94 -112l-23 19zM506 559q-23 58 -65 89.5t-131 31.5q-49 0 -84 -12.5t-63 -42.5t-42 -86.5t-14 -139.5v-98q0 -83 14 -139.5t42 -86.5t63 -42.5t84 -12.5q90 0 143 38.5t53 82.5v169h-123v30h159v-189q0 -67 -60.5 -114t-171.5 -47
q-123 0 -178 75.5t-55 235.5v98q0 160 55 235.5t178 75.5q99 0 148 -36.5t76 -103.5z" />
    <glyph glyph-name="gcircumflex" unicode="&#x11d;" horiz-adv-x="570" 
d="M292 784l117 -140l-23 -19l-94 112l-94 -112l-23 19zM328 390l133 111q-44 59 -158 59q-50 0 -84 -10.5t-62.5 -39t-42.5 -83t-14 -137.5t14 -137.5t42.5 -83t62.5 -39t84 -10.5q113 0 157 58v177h30v-264q0 -191 -175 -191h-117v30h117q75 0 110 39.5t35 150.5v15
q-54 -45 -157 -45q-125 0 -179 71t-54 229t54 229t179 71q145 0 197 -95l-125 -105h-47z" />
    <glyph glyph-name="Gbreve" unicode="&#x11e;" horiz-adv-x="615" 
d="M412 819q0 -43 -30 -71.5t-70 -28.5q-43 0 -71.5 30t-28.5 70h30q0 -30 21 -50t49 -20q30 0 50 21t20 49h30zM506 559q-23 58 -65 89.5t-131 31.5q-49 0 -84 -12.5t-63 -42.5t-42 -86.5t-14 -139.5v-98q0 -83 14 -139.5t42 -86.5t63 -42.5t84 -12.5q90 0 143 38.5
t53 82.5v169h-123v30h159v-189q0 -67 -60.5 -114t-171.5 -47q-123 0 -178 75.5t-55 235.5v98q0 160 55 235.5t178 75.5q99 0 148 -36.5t76 -103.5z" />
    <glyph glyph-name="gbreve" unicode="&#x11f;" horiz-adv-x="570" 
d="M403 719q0 -43 -30 -71.5t-70 -28.5q-43 0 -71.5 30t-28.5 70h30q0 -30 21 -50t49 -20q30 0 50 21t20 49h30zM328 390l133 111q-44 59 -158 59q-50 0 -84 -10.5t-62.5 -39t-42.5 -83t-14 -137.5t14 -137.5t42.5 -83t62.5 -39t84 -10.5q113 0 157 58v177h30v-264
q0 -191 -175 -191h-117v30h117q75 0 110 39.5t35 150.5v15q-54 -45 -157 -45q-125 0 -179 71t-54 229t54 229t179 71q145 0 197 -95l-125 -105h-47z" />
    <glyph glyph-name="Gdotaccent" unicode="&#x120;" horiz-adv-x="615" 
d="M280 812h66v-58h-66v58zM506 559q-23 58 -65 89.5t-131 31.5q-49 0 -84 -12.5t-63 -42.5t-42 -86.5t-14 -139.5v-98q0 -83 14 -139.5t42 -86.5t63 -42.5t84 -12.5q90 0 143 38.5t53 82.5v169h-123v30h159v-189q0 -67 -60.5 -114t-171.5 -47q-123 0 -178 75.5t-55 235.5
v98q0 160 55 235.5t178 75.5q99 0 148 -36.5t76 -103.5z" />
    <glyph glyph-name="gdotaccent" unicode="&#x121;" horiz-adv-x="570" 
d="M269 712h66v-58h-66v58zM328 390l133 111q-44 59 -158 59q-50 0 -84 -10.5t-62.5 -39t-42.5 -83t-14 -137.5t14 -137.5t42.5 -83t62.5 -39t84 -10.5q113 0 157 58v177h30v-264q0 -191 -175 -191h-117v30h117q75 0 110 39.5t35 150.5v15q-54 -45 -157 -45q-125 0 -179 71
t-54 229t54 229t179 71q145 0 197 -95l-125 -105h-47z" />
    <glyph glyph-name="Gcommaaccent" unicode="&#x122;" horiz-adv-x="615" 
d="M263 -176q43 33 43 81h-29v58h66q0 -71 -13 -101t-47 -60zM506 559q-23 58 -65 89.5t-131 31.5q-49 0 -84 -12.5t-63 -42.5t-42 -86.5t-14 -139.5v-98q0 -83 14 -139.5t42 -86.5t63 -42.5t84 -12.5q90 0 143 38.5t53 82.5v169h-123v30h159v-189q0 -67 -60.5 -114
t-171.5 -47q-123 0 -178 75.5t-55 235.5v98q0 160 55 235.5t178 75.5q99 0 148 -36.5t76 -103.5z" />
    <glyph glyph-name="gcommaaccent" unicode="&#x123;" horiz-adv-x="570" 
d="M351 777q-43 -33 -43 -81h29v-58h-66q0 71 13 101t47 60zM328 390l133 111q-44 59 -158 59q-50 0 -84 -10.5t-62.5 -39t-42.5 -83t-14 -137.5t14 -137.5t42.5 -83t62.5 -39t84 -10.5q113 0 157 58v177h30v-264q0 -191 -175 -191h-117v30h117q75 0 110 39.5t35 150.5v15
q-54 -45 -157 -45q-125 0 -179 71t-54 229t54 229t179 71q145 0 197 -95l-125 -105h-47z" />
    <glyph glyph-name="Hcircumflex" unicode="&#x124;" horiz-adv-x="618" 
d="M519 0h-30v350h-360v-350h-30v700h30v-320h360v320h30v-700zM309 864l117 -140l-23 -19l-94 112l-94 -112l-23 19z" />
    <glyph glyph-name="hcircumflex" unicode="&#x125;" horiz-adv-x="550" 
d="M455 0h-30v290h-300v-290h-30v580h30v-260h300v260h30v-580zM275 784l117 -140l-23 -19l-94 112l-94 -112l-23 19z" />
    <glyph glyph-name="Hbar" unicode="&#x126;" horiz-adv-x="618" 
d="M49 550v30h50v120h30v-120h360v120h30v-120h50v-30h-50v-550h-30v350h-360v-350h-30v550h-50zM489 550h-360v-170h360v170z" />
    <glyph glyph-name="hbar" unicode="&#x127;" horiz-adv-x="572" 
d="M56 410v30h50v140h30v-140h300v140h30v-140h50v-30h-50v-410h-30v290h-300v-290h-30v410h-50zM436 410h-300v-90h300v90z" />
    <glyph glyph-name="Itilde" unicode="&#x128;" horiz-adv-x="228" 
d="M163 722q-28 0 -53 24t-45 24q-16 0 -28 -13t-12 -35h-30q0 35 21.5 56.5t48.5 21.5q28 0 53 -24t45 -24q16 0 28 13t12 35h30q0 -35 -21.5 -56.5t-48.5 -21.5zM129 0h-30v700h30v-700z" />
    <glyph glyph-name="itilde" unicode="&#x129;" horiz-adv-x="220" 
d="M159 622q-28 0 -53 24t-45 24q-16 0 -28 -13t-12 -35h-30q0 35 21.5 56.5t48.5 21.5q28 0 53 -24t45 -24q16 0 28 13t12 35h30q0 -35 -21.5 -56.5t-48.5 -21.5zM95 580h30v-580h-30v580z" />
    <glyph glyph-name="Imacron" unicode="&#x12a;" horiz-adv-x="228" 
d="M4 770v30h220v-30h-220zM129 0h-30v700h30v-700z" />
    <glyph glyph-name="imacron" unicode="&#x12b;" horiz-adv-x="220" 
d="M0 670v30h220v-30h-220zM95 580h30v-580h-30v580z" />
    <glyph glyph-name="Ibreve" unicode="&#x12c;" horiz-adv-x="228" 
d="M214 819q0 -43 -30 -71.5t-70 -28.5q-43 0 -71.5 30t-28.5 70h30q0 -30 21 -50t49 -20q30 0 50 21t20 49h30zM129 0h-30v700h30v-700z" />
    <glyph glyph-name="ibreve" unicode="&#x12d;" horiz-adv-x="220" 
d="M210 719q0 -43 -30 -71.5t-70 -28.5q-43 0 -71.5 30t-28.5 70h30q0 -30 21 -50t49 -20q30 0 50 21t20 49h30zM95 580h30v-580h-30v580z" />
    <glyph glyph-name="Iogonek" unicode="&#x12e;" horiz-adv-x="229" 
d="M100 15v685h30v-700q-41 -26 -41 -76q0 -38 26.5 -64t63.5 -26v-30q-49 0 -84.5 35t-35.5 85q0 55 41 91z" />
    <glyph glyph-name="iogonek" unicode="&#x12f;" horiz-adv-x="220" 
d="M95 580h30v-580q-41 -26 -41 -76q0 -38 26 -64t64 -26v-30q-50 0 -85 35t-35 85q0 55 41 91v565z" />
    <glyph glyph-name="Idotaccent" unicode="&#x130;" horiz-adv-x="228" 
d="M81 812h66v-58h-66v58zM129 0h-30v700h30v-700z" />
    <glyph glyph-name="dotlessi" unicode="&#x131;" horiz-adv-x="220" 
d="M95 580h30v-580h-30v580z" />
    <glyph glyph-name="IJ" unicode="&#x132;" horiz-adv-x="715" 
d="M129 0h-30v700h30v-700zM267 151q44 -131 170 -131q85 0 118.5 48.5t33.5 133.5v498h30v-498q0 -212 -182 -212q-86 0 -132.5 43t-73.5 118h36z" />
    <glyph glyph-name="ij" unicode="&#x133;" horiz-adv-x="448" 
d="M95 580h30v-580h-30v580zM186 -200h-91v30h91q83 0 110 46.5t27 135.5v568h30v-568q0 -28 -1 -45t-5 -46t-15 -46.5t-28.5 -37t-47.5 -28.5t-70 -9z" />
    <glyph glyph-name="Jcircumflex" unicode="&#x134;" horiz-adv-x="504" 
d="M394 864l117 -140l-23 -19l-94 112l-94 -112l-23 19zM56 151q44 -131 170 -131q85 0 118.5 48.5t33.5 133.5v498h30v-498q0 -212 -182 -212q-86 0 -132.5 43t-73.5 118h36z" />
    <glyph glyph-name="jcircumflex" unicode="&#x135;" horiz-adv-x="432" 
d="M322 784l117 -140l-23 -19l-94 112l-94 -112l-23 19zM15 -39q27 -131 155 -131q83 0 110 46.5t27 135.5v568h30v-568q0 -28 -1 -45t-5 -46t-15 -46.5t-28.5 -37t-47.5 -28.5t-70 -9q-157 0 -191 161h36z" />
    <glyph glyph-name="Kcommaaccent" unicode="&#x136;" horiz-adv-x="572" 
d="M259 -176q43 33 43 81h-29v58h66q0 -71 -13 -101t-47 -60zM129 700v-700h-30v700h30zM540 700l-336 -334l368 -366h-43l-368 366l336 334h43z" />
    <glyph glyph-name="kcommaaccent" unicode="&#x137;" horiz-adv-x="515" 
d="M244 -176q43 33 43 81h-29v58h66q0 -71 -13 -101t-47 -60zM95 0v580h30v-580h-30zM465 0l-308 306l276 274h43l-276 -274l308 -306h-43z" />
    <glyph glyph-name="Lacute" unicode="&#x139;" horiz-adv-x="532" 
d="M297 860l-117 -139l-23 19l117 140zM517 30v-30h-418v700h30v-670h388z" />
    <glyph glyph-name="lacute" unicode="&#x13a;" horiz-adv-x="449" 
d="M283 764l-117 -139l-23 19l117 140zM429 30v-30h-334v580h30v-550h304z" />
    <glyph glyph-name="Lcommaaccent" unicode="&#x13b;" horiz-adv-x="531" 
d="M251 -176q43 33 43 81h-29v58h66q0 -71 -13 -101t-47 -60zM517 30v-30h-418v700h30v-670h388z" />
    <glyph glyph-name="lcommaaccent" unicode="&#x13c;" horiz-adv-x="449" 
d="M222 -176q43 33 43 81h-29v58h66q0 -71 -13 -101t-47 -60zM429 30v-30h-334v580h30v-550h304z" />
    <glyph glyph-name="Lcaron" unicode="&#x13d;" horiz-adv-x="532" 
d="M240 486q11 15 26.5 62t15.5 94h-29v58h66q0 -151 -54 -230zM517 30v-30h-418v700h30v-670h388z" />
    <glyph glyph-name="lcaron" unicode="&#x13e;" horiz-adv-x="458" 
d="M236 366q11 15 26.5 62t15.5 94h-29v58h66q0 -151 -54 -230zM429 30v-30h-334v580h30v-550h304z" />
    <glyph glyph-name="Ldot" unicode="&#x13f;" horiz-adv-x="532" 
d="M311 358h66v-58h-66v58zM517 30v-30h-418v700h30v-670h388z" />
    <glyph glyph-name="ldot" unicode="&#x140;" horiz-adv-x="459" 
d="M257 358h66v-58h-66v58zM429 30v-30h-334v580h30v-550h304z" />
    <glyph glyph-name="Lslash" unicode="&#x141;" horiz-adv-x="533" 
d="M61 254l-22 22l61 61v363h30v-333l49 49l22 -22l-71 -71v-293h388v-30h-418v293z" />
    <glyph glyph-name="lslash" unicode="&#x142;" horiz-adv-x="452" 
d="M59 254l-22 22l61 61v243h30v-213l49 49l22 -22l-71 -71v-293h304v-30h-334v293z" />
    <glyph glyph-name="Nacute" unicode="&#x143;" horiz-adv-x="637" 
d="M412 860l-117 -139l-23 19l117 140zM177 30h310l-358 619v-649h-30v700h35l374 -647v647h30v-700h-361v30z" />
    <glyph glyph-name="nacute" unicode="&#x144;" 
d="M383 764l-117 -139l-23 19l117 140zM95 0v580h30l326 -525v525h30v-580h-30l-326 526v-526h-30z" />
    <glyph glyph-name="Ncommaaccent" unicode="&#x145;" horiz-adv-x="637" 
d="M504 0l-375 649v-649h-30v700h35l374 -647v647h30v-700h-34zM270 -176q43 33 43 81h-29v58h66q0 -71 -13 -101t-47 -60z" />
    <glyph glyph-name="ncommaaccent" unicode="&#x146;" 
d="M244 -176q43 33 43 81h-29v58h66q0 -71 -13 -101t-47 -60zM95 0v580h30l326 -525v525h30v-580h-30l-326 526v-526h-30z" />
    <glyph glyph-name="Ncaron" unicode="&#x147;" horiz-adv-x="637" 
d="M313 711l-117 140l23 19l94 -112l94 112l23 -19zM177 30h310l-358 619v-649h-30v700h35l374 -647v647h30v-700h-361v30z" />
    <glyph glyph-name="ncaron" unicode="&#x148;" 
d="M289 601l-117 140l23 19l94 -112l94 112l23 -19zM95 0v580h30l326 -525v525h30v-580h-30l-326 526v-526h-30z" />
    <glyph glyph-name="napostrophe" unicode="&#x149;" horiz-adv-x="662" 
d="M181 0v580h30l326 -525v525h30v-580h-30l-326 526v-526h-30zM20 486q11 15 26.5 62t15.5 94h-29v58h66q0 -151 -54 -230z" />
    <glyph glyph-name="Eng" unicode="&#x14a;" horiz-adv-x="640" 
d="M99 700h30v-110q50 120 203 120q123 0 178 -75.5t55 -235.5v-100q0 -130 -58.5 -214.5t-143.5 -84.5h-97v30h97q71 0 121.5 79t50.5 190v100q0 83 -14 139.5t-42 86.5t-63 42.5t-84 12.5t-84 -12.5t-63 -42.5t-42 -86.5t-14 -139.5v-399h-30v700z" />
    <glyph glyph-name="eng" unicode="&#x14b;" horiz-adv-x="596" 
d="M95 580h30v-106q49 116 178 116q208 0 208 -300v-191q0 -130 -58.5 -214.5t-143.5 -84.5h-97v30h97q71 0 121.5 79t50.5 190v191q0 149 -47.5 209.5t-130.5 60.5t-130.5 -60.5t-47.5 -209.5v-290h-30v580z" />
    <glyph glyph-name="Omacron" unicode="&#x14c;" horiz-adv-x="620" 
d="M310 -10q-123 0 -178 75.5t-55 235.5v98q0 160 55 235.5t178 75.5t178 -75.5t55 -235.5v-98q0 -160 -55 -235.5t-178 -75.5zM310 680q-49 0 -84 -12.5t-63 -42.5t-42 -86.5t-14 -139.5v-98q0 -83 14 -139.5t42 -86.5t63 -42.5t84 -12.5t84 12.5t63 42.5t42 86.5t14 139.5
v98q0 83 -14 139.5t-42 86.5t-63 42.5t-84 12.5zM200 770v30h220v-30h-220z" />
    <glyph glyph-name="omacron" unicode="&#x14d;" horiz-adv-x="606" 
d="M303 560q-50 0 -84 -10.5t-62.5 -39t-42.5 -83t-14 -137.5t14 -137.5t42.5 -83t62.5 -39t84 -10.5t84 10.5t62.5 39t42.5 83t14 137.5t-14 137.5t-42.5 83t-62.5 39t-84 10.5zM303 -10q-125 0 -179 71t-54 229t54 229t179 71t179 -71t54 -229t-54 -229t-179 -71zM193 670
v30h220v-30h-220z" />
    <glyph glyph-name="Obreve" unicode="&#x14e;" horiz-adv-x="620" 
d="M410 819q0 -43 -30 -71.5t-70 -28.5q-43 0 -71.5 30t-28.5 70h30q0 -30 21 -50t49 -20q30 0 50 21t20 49h30zM310 -10q-123 0 -178 75.5t-55 235.5v98q0 160 55 235.5t178 75.5t178 -75.5t55 -235.5v-98q0 -160 -55 -235.5t-178 -75.5zM310 680q-49 0 -84 -12.5
t-63 -42.5t-42 -86.5t-14 -139.5v-98q0 -83 14 -139.5t42 -86.5t63 -42.5t84 -12.5t84 12.5t63 42.5t42 86.5t14 139.5v98q0 83 -14 139.5t-42 86.5t-63 42.5t-84 12.5z" />
    <glyph glyph-name="obreve" unicode="&#x14f;" horiz-adv-x="606" 
d="M403 719q0 -43 -30 -71.5t-70 -28.5q-43 0 -71.5 30t-28.5 70h30q0 -30 21 -50t49 -20q30 0 50 21t20 49h30zM303 560q-50 0 -84 -10.5t-62.5 -39t-42.5 -83t-14 -137.5t14 -137.5t42.5 -83t62.5 -39t84 -10.5t84 10.5t62.5 39t42.5 83t14 137.5t-14 137.5t-42.5 83
t-62.5 39t-84 10.5zM303 -10q-125 0 -179 71t-54 229t54 229t179 71t179 -71t54 -229t-54 -229t-179 -71z" />
    <glyph glyph-name="Ohungarumlaut" unicode="&#x150;" horiz-adv-x="620" 
d="M347 860l-117 -139l-23 19l117 140zM467 860l-117 -139l-23 19l117 140zM310 -10q-123 0 -178 75.5t-55 235.5v98q0 160 55 235.5t178 75.5t178 -75.5t55 -235.5v-98q0 -160 -55 -235.5t-178 -75.5zM310 680q-49 0 -84 -12.5t-63 -42.5t-42 -86.5t-14 -139.5v-98
q0 -83 14 -139.5t42 -86.5t63 -42.5t84 -12.5t84 12.5t63 42.5t42 86.5t14 139.5v98q0 83 -14 139.5t-42 86.5t-63 42.5t-84 12.5z" />
    <glyph glyph-name="ohungarumlaut" unicode="&#x151;" horiz-adv-x="606" 
d="M347 764l-117 -139l-23 19l117 140zM467 764l-117 -139l-23 19l117 140zM303 560q-50 0 -84 -10.5t-62.5 -39t-42.5 -83t-14 -137.5t14 -137.5t42.5 -83t62.5 -39t84 -10.5t84 10.5t62.5 39t42.5 83t14 137.5t-14 137.5t-42.5 83t-62.5 39t-84 10.5zM303 -10
q-125 0 -179 71t-54 229t54 229t179 71t179 -71t54 -229t-54 -229t-179 -71z" />
    <glyph glyph-name="OE" unicode="&#x152;" horiz-adv-x="935" 
d="M817 366h-297l306 304h-338v-640h388v-30h-418v34q-53 -44 -148 -44q-123 0 -178 75.5t-55 235.5v98q0 160 55 235.5t178 75.5q95 0 148 -44v34h441l-306 -304h224v-30zM458 76v548q-47 56 -148 56q-49 0 -84 -12.5t-63 -42.5t-42 -86.5t-14 -139.5v-98q0 -83 14 -139.5
t42 -86.5t63 -42.5t84 -12.5q101 0 148 56z" />
    <glyph glyph-name="oe" unicode="&#x153;" horiz-adv-x="984" 
d="M919 59q-55 -69 -180 -69q-92 0 -144.5 37.5t-73.5 118.5q-21 -81 -73.5 -118.5t-144.5 -37.5q-125 0 -179 71t-54 229t54 229t179 71q92 0 144.5 -37.5t73.5 -118.5q21 81 73.5 118.5t144.5 37.5q145 0 197 -95l-245 -205h-47l253 211q-44 59 -158 59q-50 0 -84 -10.5
t-62.5 -39t-42.5 -83t-14 -137.5t14 -137.5t42.5 -83t62.5 -39t84 -10.5q114 0 158 59zM303 560q-50 0 -84 -10.5t-62.5 -39t-42.5 -83t-14 -137.5t14 -137.5t42.5 -83t62.5 -39t84 -10.5t84 10.5t62.5 39t42.5 83t14 137.5t-14 137.5t-42.5 83t-62.5 39t-84 10.5z" />
    <glyph glyph-name="Racute" unicode="&#x154;" horiz-adv-x="550" 
d="M386 860l-117 -139l-23 19l117 140zM177 30h276l-121 332l56 32q69 38 69 121q0 155 -236 155h-92v-670h-30v700h122q132 0 199 -48.5t67 -136.5q0 -100 -84 -147l-34 -19l127 -349h-319v30z" />
    <glyph glyph-name="racute" unicode="&#x155;" horiz-adv-x="516" 
d="M346 764l-117 -139l-23 19l117 140zM339 291l136 -291h-33l-140 300q2 1 17.5 8.5t21.5 11t20 12.5t21 17.5t15.5 20t12.5 26t4 31.5q0 63 -60 93t-149 30h-80v-550h-30v580h110q118 0 178.5 -41t60.5 -112q0 -46 -31 -81.5t-74 -54.5z" />
    <glyph glyph-name="Rcommaaccent" unicode="&#x156;" horiz-adv-x="550" 
d="M464 0l-132 362l56 32q69 38 69 121q0 155 -236 155h-92v-670h-30v700h122q132 0 199 -48.5t67 -136.5q0 -100 -84 -147l-34 -19l127 -349h-32zM251 -176q43 33 43 81h-29v58h66q0 -71 -13 -101t-47 -60z" />
    <glyph glyph-name="rcommaaccent" unicode="&#x157;" horiz-adv-x="516" 
d="M222 -176q43 33 43 81h-29v58h66q0 -71 -13 -101t-47 -60zM339 291l136 -291h-33l-140 300q2 1 17.5 8.5t21.5 11t20 12.5t21 17.5t15.5 20t12.5 26t4 31.5q0 63 -60 93t-149 30h-80v-550h-30v580h110q118 0 178.5 -41t60.5 -112q0 -46 -31 -81.5t-74 -54.5z" />
    <glyph glyph-name="Rcaron" unicode="&#x158;" horiz-adv-x="550" 
d="M271 711l-117 140l23 19l94 -112l94 112l23 -19zM177 30h276l-121 332l56 32q69 38 69 121q0 155 -236 155h-92v-670h-30v700h122q132 0 199 -48.5t67 -136.5q0 -100 -84 -147l-34 -19l127 -349h-319v30z" />
    <glyph glyph-name="rcaron" unicode="&#x159;" horiz-adv-x="516" 
d="M253 601l-117 140l23 19l94 -112l94 112l23 -19zM339 291l136 -291h-33l-140 300q2 1 17.5 8.5t21.5 11t20 12.5t21 17.5t15.5 20t12.5 26t4 31.5q0 63 -60 93t-149 30h-80v-550h-30v580h110q118 0 178.5 -41t60.5 -112q0 -46 -31 -81.5t-74 -54.5z" />
    <glyph glyph-name="Sacute" unicode="&#x15a;" horiz-adv-x="561" 
d="M393 860l-117 -139l-23 19l117 140zM78 527q0 97 49 140t159 43q77 0 124 -40t68 -122l-93 -70h-49l108 81q-21 67 -60.5 94t-97.5 27q-40 0 -67.5 -5t-55 -19.5t-41.5 -46.5t-14 -82q0 -44 40.5 -78t98.5 -58t116.5 -49t99 -64t40.5 -90q0 -100 -49.5 -149t-169.5 -49
q-98 0 -154 39.5t-77 122.5l28 12q20 -81 68.5 -112.5t134.5 -31.5q96 0 142.5 37t46.5 131q0 44 -40.5 78t-99 58t-116.5 49t-98.5 64t-40.5 90z" />
    <glyph glyph-name="sacute" unicode="&#x15b;" horiz-adv-x="517" 
d="M357 764l-117 -139l-23 19l117 140zM248 592q124 0 176 -55l-20 -22q-48 47 -152 47q-156 0 -156 -124q0 -48 38 -76.5t92.5 -43.5t109 -31.5t92.5 -53t38 -95.5q0 -69 -57 -110t-165 -41q-53 0 -104.5 14t-76.5 41l20 22q51 -47 157 -47q97 0 146.5 36t49.5 84
q0 50 -38 81t-92.5 46.5t-109 32t-92.5 51.5t-38 92q0 77 51.5 114.5t130.5 37.5z" />
    <glyph glyph-name="Scircumflex" unicode="&#x15c;" horiz-adv-x="563" 
d="M270 864l117 -140l-23 -19l-94 112l-94 -112l-23 19zM79 527q0 97 49 140t159 43q77 0 124 -40t68 -122l-93 -70h-49l108 81q-21 67 -60.5 94t-97.5 27q-40 0 -67.5 -5t-55 -19.5t-41.5 -46.5t-14 -82q0 -44 40.5 -78t98.5 -58t116.5 -49t99 -64t40.5 -90
q0 -100 -49.5 -149t-169.5 -49q-98 0 -154 39.5t-77 122.5l28 12q20 -81 68.5 -112.5t134.5 -31.5q96 0 142.5 37t46.5 131q0 44 -40.5 78t-99 58t-116.5 49t-98.5 64t-40.5 90z" />
    <glyph glyph-name="scircumflex" unicode="&#x15d;" horiz-adv-x="517" 
d="M250 784l117 -140l-23 -19l-94 112l-94 -112l-23 19zM248 592q124 0 176 -55l-20 -22q-48 47 -152 47q-156 0 -156 -124q0 -48 38 -76.5t92.5 -43.5t109 -31.5t92.5 -53t38 -95.5q0 -69 -57 -110t-165 -41q-53 0 -104.5 14t-76.5 41l20 22q51 -47 157 -47q97 0 146.5 36
t49.5 84q0 50 -38 81t-92.5 46.5t-109 32t-92.5 51.5t-38 92q0 77 51.5 114.5t130.5 37.5z" />
    <glyph glyph-name="Scedilla" unicode="&#x15e;" horiz-adv-x="561" 
d="M225 -176q43 33 43 81h-29v58h66q0 -71 -13 -101t-47 -60zM78 527q0 97 49 140t159 43q77 0 124 -40t68 -122l-93 -70h-49l108 81q-21 67 -60.5 94t-97.5 27q-40 0 -67.5 -5t-55 -19.5t-41.5 -46.5t-14 -82q0 -44 40.5 -78t98.5 -58t116.5 -49t99 -64t40.5 -90
q0 -100 -49.5 -149t-169.5 -49q-98 0 -154 39.5t-77 122.5l28 12q20 -81 68.5 -112.5t134.5 -31.5q96 0 142.5 37t46.5 131q0 44 -40.5 78t-99 58t-116.5 49t-98.5 64t-40.5 90z" />
    <glyph glyph-name="scedilla" unicode="&#x15f;" horiz-adv-x="517" 
d="M205 -176q43 33 43 81h-29v58h66q0 -71 -13 -101t-47 -60zM247 592q124 0 176 -55l-20 -22q-48 47 -152 47q-156 0 -156 -124q0 -48 38 -76.5t92.5 -43.5t109 -31.5t92.5 -53t38 -95.5q0 -69 -57 -110t-165 -41q-53 0 -104.5 14t-76.5 41l20 22q51 -47 157 -47
q97 0 146.5 36t49.5 84q0 50 -38 81t-92.5 46.5t-109 32t-92.5 51.5t-38 92q0 77 51.5 114.5t130.5 37.5z" />
    <glyph glyph-name="Scaron" unicode="&#x160;" horiz-adv-x="561" 
d="M274 711l-117 140l23 19l94 -112l94 112l23 -19zM78 527q0 97 49 140t159 43q77 0 124 -40t68 -122l-93 -70h-49l108 81q-21 67 -60.5 94t-97.5 27q-40 0 -67.5 -5t-55 -19.5t-41.5 -46.5t-14 -82q0 -44 40.5 -78t98.5 -58t116.5 -49t99 -64t40.5 -90q0 -100 -49.5 -149
t-169.5 -49q-98 0 -154 39.5t-77 122.5l28 12q20 -81 68.5 -112.5t134.5 -31.5q96 0 142.5 37t46.5 131q0 44 -40.5 78t-99 58t-116.5 49t-98.5 64t-40.5 90z" />
    <glyph glyph-name="scaron" unicode="&#x161;" horiz-adv-x="517" 
d="M242 601l-117 140l23 19l94 -112l94 112l23 -19zM248 592q124 0 176 -55l-20 -22q-48 47 -152 47q-156 0 -156 -124q0 -48 38 -76.5t92.5 -43.5t109 -31.5t92.5 -53t38 -95.5q0 -69 -57 -110t-165 -41q-53 0 -104.5 14t-76.5 41l20 22q51 -47 157 -47q97 0 146.5 36
t49.5 84q0 50 -38 81t-92.5 46.5t-109 32t-92.5 51.5t-38 92q0 77 51.5 114.5t130.5 37.5z" />
    <glyph glyph-name="Tcommaaccent" unicode="&#x162;" horiz-adv-x="528" 
d="M217 -176q43 33 43 81h-29v58h66q0 -71 -13 -101t-47 -60zM514 700v-30h-235v-670h-30v670h-235v30h500z" />
    <glyph glyph-name="tcommaaccent" unicode="&#x163;" horiz-adv-x="488" 
d="M200 -176q43 33 43 81h-29v58h66q0 -71 -13 -101t-47 -60zM469 580v-30h-210v-550h-30v550h-210v30h450z" />
    <glyph glyph-name="Tcaron" unicode="&#x164;" horiz-adv-x="530" 
d="M266 711l-117 140l23 19l94 -112l94 112l23 -19zM515 700v-30h-235v-670h-30v670h-235v30h500z" />
    <glyph glyph-name="tcaron" unicode="&#x165;" horiz-adv-x="490" 
d="M245 601l-117 140l23 19l94 -112l94 112l23 -19zM470 580v-30h-210v-550h-30v550h-210v30h450z" />
    <glyph glyph-name="Tbar" unicode="&#x166;" horiz-adv-x="530" 
d="M515 700v-30h-235v-188h128v-30h-128v-452h-30v452h-128v30h128v188h-235v30h500z" />
    <glyph glyph-name="tbar" unicode="&#x167;" horiz-adv-x="490" 
d="M470 580v-30h-210v-180h128v-30h-128v-340h-30v340h-128v30h128v180h-210v30h450z" />
    <glyph glyph-name="Utilde" unicode="&#x168;" horiz-adv-x="646" 
d="M556 700v-399q0 -160 -55 -235.5t-178 -75.5t-178 75.5t-55 235.5v399h30v-399q0 -83 14 -139.5t42 -86.5t63 -42.5t84 -12.5t84 12.5t63 42.5t42 86.5t14 139.5v399h30zM372 722q-28 0 -53 24t-45 24q-16 0 -28 -13t-12 -35h-30q0 35 21.5 56.5t48.5 21.5q28 0 53 -24
t45 -24q16 0 28 13t12 35h30q0 -35 -21.5 -56.5t-48.5 -21.5z" />
    <glyph glyph-name="utilde" unicode="&#x169;" horiz-adv-x="586" 
d="M115 580v-290q0 -149 47.5 -209.5t130.5 -60.5t130.5 60.5t47.5 209.5v290h30v-290q0 -300 -208 -300t-208 300v290h30zM342 622q-28 0 -53 24t-45 24q-16 0 -28 -13t-12 -35h-30q0 35 21.5 56.5t48.5 21.5q28 0 53 -24t45 -24q16 0 28 13t12 35h30q0 -35 -21.5 -56.5
t-48.5 -21.5z" />
    <glyph glyph-name="Umacron" unicode="&#x16a;" horiz-adv-x="646" 
d="M556 700v-399q0 -160 -55 -235.5t-178 -75.5t-178 75.5t-55 235.5v399h30v-399q0 -83 14 -139.5t42 -86.5t63 -42.5t84 -12.5t84 12.5t63 42.5t42 86.5t14 139.5v399h30zM213 770v30h220v-30h-220z" />
    <glyph glyph-name="umacron" unicode="&#x16b;" horiz-adv-x="586" 
d="M183 670v30h220v-30h-220zM115 580v-290q0 -149 47.5 -209.5t130.5 -60.5t130.5 60.5t47.5 209.5v290h30v-290q0 -300 -208 -300t-208 300v290h30z" />
    <glyph glyph-name="Ubreve" unicode="&#x16c;" horiz-adv-x="646" 
d="M556 700v-399q0 -160 -55 -235.5t-178 -75.5t-178 75.5t-55 235.5v399h30v-399q0 -83 14 -139.5t42 -86.5t63 -42.5t84 -12.5t84 12.5t63 42.5t42 86.5t14 139.5v399h30zM423 819q0 -43 -30 -71.5t-70 -28.5q-43 0 -71.5 30t-28.5 70h30q0 -30 21 -50t49 -20q30 0 50 21
t20 49h30z" />
    <glyph glyph-name="ubreve" unicode="&#x16d;" horiz-adv-x="586" 
d="M391 719q0 -43 -30 -71.5t-70 -28.5q-43 0 -71.5 30t-28.5 70h30q0 -30 21 -50t49 -20q30 0 50 21t20 49h30zM115 580v-290q0 -149 47.5 -209.5t130.5 -60.5t130.5 60.5t47.5 209.5v290h30v-290q0 -300 -208 -300t-208 300v290h30z" />
    <glyph glyph-name="Uring" unicode="&#x16e;" horiz-adv-x="646" 
d="M556 700v-399q0 -160 -55 -235.5t-178 -75.5t-178 75.5t-55 235.5v399h30v-399q0 -83 14 -139.5t42 -86.5t63 -42.5t84 -12.5t84 12.5t63 42.5t42 86.5t14 139.5v399h30zM323 838q-19 0 -32 -13.5t-13 -31.5q0 -19 13.5 -32t31.5 -13q19 0 32 13.5t13 31.5q0 19 -13.5 32
t-31.5 13zM323 863q28 0 49 -20t21 -50q0 -28 -20 -49t-50 -21q-28 0 -49 20t-21 50q0 28 20 49t50 21z" />
    <glyph glyph-name="uring" unicode="&#x16f;" horiz-adv-x="586" 
d="M300 746q-19 0 -32 -13.5t-13 -31.5q0 -19 13.5 -32t31.5 -13q19 0 32 13.5t13 31.5q0 19 -13.5 32t-31.5 13zM300 771q28 0 49 -20t21 -50q0 -28 -20 -49t-50 -21q-28 0 -49 20t-21 50q0 28 20 49t50 21zM115 580v-290q0 -149 47.5 -209.5t130.5 -60.5t130.5 60.5
t47.5 209.5v290h30v-290q0 -300 -208 -300t-208 300v290h30z" />
    <glyph glyph-name="Uhungarumlaut" unicode="&#x170;" horiz-adv-x="646" 
d="M556 700v-399q0 -160 -55 -235.5t-178 -75.5t-178 75.5t-55 235.5v399h30v-399q0 -83 14 -139.5t42 -86.5t63 -42.5t84 -12.5t84 12.5t63 42.5t42 86.5t14 139.5v399h30zM360 860l-117 -139l-23 19l117 140zM480 860l-117 -139l-23 19l117 140z" />
    <glyph glyph-name="uhungarumlaut" unicode="&#x171;" horiz-adv-x="586" 
d="M328 764l-117 -139l-23 19l117 140zM448 764l-117 -139l-23 19l117 140zM115 580v-290q0 -149 47.5 -209.5t130.5 -60.5t130.5 60.5t47.5 209.5v290h30v-290q0 -300 -208 -300t-208 300v290h30z" />
    <glyph glyph-name="Uogonek" unicode="&#x172;" horiz-adv-x="647" 
d="M173 700l382 1v-399q0 -132 -36.5 -206t-116.5 -96q-41 -26 -41 -76q0 -38 26.5 -64t63.5 -26v-30q-49 0 -84.5 35t-35.5 85q0 36 21 67q-9 -1 -29 -1q-123 0 -178 75.5t-55 235.5v399h30v-399q0 -83 14 -139.5t42 -86.5t63 -42.5t84 -12.5t84 12.5t63 42.5t42 86.5
t14 139.5v369h-353v30z" />
    <glyph glyph-name="uogonek" unicode="&#x173;" horiz-adv-x="590" 
d="M115 580l1 -290q0 -149 47.5 -209.5t130.5 -60.5t130.5 60.5t47.5 209.5v290h30v-290q0 -246 -140 -290q-41 -26 -41 -76q0 -38 26.5 -64t63.5 -26v-30q-49 0 -84.5 35t-35.5 85q0 37 20 66h-18q-208 0 -208 300v290h30z" />
    <glyph glyph-name="Wcircumflex" unicode="&#x174;" horiz-adv-x="803" 
d="M786 700l-255 -701l-130 356l-129 -356l-255 701h32l223 -613l129 356l130 -356l223 613h32zM401 864l117 -140l-23 -19l-94 112l-94 -112l-23 19z" />
    <glyph glyph-name="wcircumflex" unicode="&#x175;" horiz-adv-x="837" 
d="M819 580l-250 -590l-150 355l-151 -355l-250 590h32l218 -513l151 355l150 -355l218 513h32zM418 764l117 -140l-23 -19l-94 112l-94 -112l-23 19z" />
    <glyph glyph-name="Ycircumflex" unicode="&#x176;" horiz-adv-x="546" 
d="M538 700l-250 -400v-300h-30v300l-250 400h35l230 -367l230 367h35zM273 864l117 -140l-23 -19l-94 112l-94 -112l-23 19z" />
    <glyph glyph-name="ycircumflex" unicode="&#x177;" horiz-adv-x="534" 
d="M517 580l-235 -555v-225h-30v225l-235 555h32l218 -513l218 513h32zM267 764l117 -140l-23 -19l-94 112l-94 -112l-23 19z" />
    <glyph glyph-name="Ydieresis" unicode="&#x178;" horiz-adv-x="546" 
d="M538 700l-250 -400v-300h-30v300l-250 400h35l230 -367l230 367h35zM329 812h66v-58h-66v58zM151 812h66v-58h-66v58z" />
    <glyph glyph-name="Zacute" unicode="&#x179;" horiz-adv-x="480" 
d="M374 860l-117 -139l-23 19l117 140zM439 0h-408l356 670h-330v30h380l-356 -670h358v-30z" />
    <glyph glyph-name="zacute" unicode="&#x17a;" horiz-adv-x="462" 
d="M350 764l-117 -139l-23 19l117 140zM361 550h-312v30h364l-318 -550h322v-30h-374z" />
    <glyph glyph-name="Zdotaccent" unicode="&#x17b;" horiz-adv-x="480" 
d="M213 812h66v-58h-66v58zM439 0h-408l356 670h-330v30h380l-356 -670h358v-30z" />
    <glyph glyph-name="zdotaccent" unicode="&#x17c;" horiz-adv-x="462" 
d="M188 712h66v-58h-66v58zM361 550h-312v30h364l-318 -550h322v-30h-374z" />
    <glyph glyph-name="Zcaron" unicode="&#x17d;" horiz-adv-x="480" 
d="M241 711l-117 140l23 19l94 -112l94 112l23 -19zM439 0h-408l356 670h-330v30h380l-356 -670h358v-30z" />
    <glyph glyph-name="zcaron" unicode="&#x17e;" horiz-adv-x="462" 
d="M227 601l-117 140l23 19l94 -112l94 112l23 -19zM361 550h-312v30h364l-318 -550h322v-30h-374z" />
    <glyph glyph-name="florin" unicode="&#x192;" horiz-adv-x="370" 
d="M115 290v-190q0 -158 -54.5 -229t-178.5 -71v30q50 0 84 10.5t62.5 39t42.5 83t14 137.5v190q0 158 54.5 229t178.5 71v-30q-98 0 -148 -49.5t-55 -190.5h196v-30h-196z" />
    <glyph glyph-name="Oslashacute" unicode="&#x1fe;" horiz-adv-x="620" 
d="M403 860l-117 -139l-23 19l117 140zM310 680q-49 0 -84 -12.5t-63 -42.5t-42 -86.5t-14 -139.5v-98q0 -180 70 -241l241 597q-41 23 -108 23zM170 -36l-27 11l23 56q-89 69 -89 270v98q0 160 55 235.5t178 75.5q72 0 119 -25l21 51l27 -11l-23 -56q89 -69 89 -270v-98
q0 -160 -55 -235.5t-178 -75.5q-72 0 -119 25zM443 640l-241 -597q41 -23 108 -23q49 0 84 12.5t63 42.5t42 86.5t14 139.5v98q0 180 -70 241z" />
    <glyph glyph-name="oslashacute" unicode="&#x1ff;" horiz-adv-x="606" 
d="M396 764l-117 -139l-23 19l117 140zM303 560q-50 0 -84 -10.5t-62.5 -39t-42.5 -83t-14 -137.5q0 -191 83 -243l204 503q-31 10 -84 10zM178 -44l-27 11l21 52q-102 58 -102 271q0 158 54 229t179 71q56 0 95 -13l25 63l27 -11l-25 -63q58 -29 84.5 -96t26.5 -180
q0 -158 -54 -229t-179 -71q-63 0 -105 16zM414 539l-205 -505q38 -14 94 -14q50 0 84 10.5t62.5 39t42.5 83t14 137.5q0 201 -92 249z" />
    <glyph glyph-name="Scommaaccent" unicode="&#x218;" horiz-adv-x="561" 
d="M225 -176q43 33 43 81h-29v58h66q0 -71 -13 -101t-47 -60zM78 527q0 97 49 140t159 43q77 0 124 -40t68 -122l-93 -70h-49l108 81q-21 67 -60.5 94t-97.5 27q-40 0 -67.5 -5t-55 -19.5t-41.5 -46.5t-14 -82q0 -44 40.5 -78t98.5 -58t116.5 -49t99 -64t40.5 -90
q0 -100 -49.5 -149t-169.5 -49q-98 0 -154 39.5t-77 122.5l28 12q20 -81 68.5 -112.5t134.5 -31.5q96 0 142.5 37t46.5 131q0 44 -40.5 78t-99 58t-116.5 49t-98.5 64t-40.5 90z" />
    <glyph glyph-name="scommaaccent" unicode="&#x219;" horiz-adv-x="517" 
d="M205 -176q43 33 43 81h-29v58h66q0 -71 -13 -101t-47 -60zM247 592q124 0 176 -55l-20 -22q-48 47 -152 47q-156 0 -156 -124q0 -48 38 -76.5t92.5 -43.5t109 -31.5t92.5 -53t38 -95.5q0 -69 -57 -110t-165 -41q-53 0 -104.5 14t-76.5 41l20 22q51 -47 157 -47
q97 0 146.5 36t49.5 84q0 50 -38 81t-92.5 46.5t-109 32t-92.5 51.5t-38 92q0 77 51.5 114.5t130.5 37.5z" />
    <glyph glyph-name="uni021A" unicode="&#x21a;" horiz-adv-x="528" 
d="M217 -176q43 33 43 81h-29v58h66q0 -71 -13 -101t-47 -60zM514 700v-30h-235v-670h-30v670h-235v30h500z" />
    <glyph glyph-name="uni021B" unicode="&#x21b;" horiz-adv-x="488" 
d="M200 -176q43 33 43 81h-29v58h66q0 -71 -13 -101t-47 -60zM469 580v-30h-210v-550h-30v550h-210v30h450z" />
    <glyph glyph-name="uni02BB" unicode="&#x2bb;" horiz-adv-x="553" 
d="M323 777q-43 -33 -43 -81h29v-58h-66q0 71 13 101t47 60z" />
    <glyph glyph-name="circumflex" unicode="&#x2c6;" horiz-adv-x="324" 
d="M162 784l117 -140l-23 -19l-94 112l-94 -112l-23 19z" />
    <glyph glyph-name="caron" unicode="&#x2c7;" horiz-adv-x="324" 
d="M162 625l-117 140l23 19l94 -112l94 112l23 -19z" />
    <glyph glyph-name="breve" unicode="&#x2d8;" horiz-adv-x="300" 
d="M250 671q0 -43 -30 -71.5t-70 -28.5q-43 0 -71.5 30t-28.5 70h30q0 -30 21 -50t49 -20q30 0 50 21t20 49h30z" />
    <glyph glyph-name="dotaccent" unicode="&#x2d9;" horiz-adv-x="156" 
d="M45 712h66v-58h-66v58z" />
    <glyph glyph-name="ring" unicode="&#x2da;" horiz-adv-x="230" 
d="M115 746q-19 0 -32 -13.5t-13 -31.5q0 -19 13.5 -32t31.5 -13q19 0 32 13.5t13 31.5q0 19 -13.5 32t-31.5 13zM115 771q28 0 49 -20t21 -50q0 -28 -20 -49t-50 -21q-28 0 -49 20t-21 50q0 28 20 49t50 21z" />
    <glyph glyph-name="ogonek" unicode="&#x2db;" horiz-adv-x="290" 
d="M166 0q-41 -26 -41 -76q0 -38 26.5 -64t63.5 -26v-30q-49 0 -84.5 35t-35.5 85q0 64 53 100z" />
    <glyph glyph-name="tilde" unicode="&#x2dc;" horiz-adv-x="328" 
d="M213 622q-28 0 -53 24t-45 24q-16 0 -28 -13t-12 -35h-30q0 35 21.5 56.5t48.5 21.5q28 0 53 -24t45 -24q16 0 28 13t12 35h30q0 -35 -21.5 -56.5t-48.5 -21.5z" />
    <glyph glyph-name="hungarumlaut" unicode="&#x2dd;" horiz-adv-x="350" 
d="M185 764l-117 -139l-23 19l117 140zM305 764l-117 -139l-23 19l117 140z" />
    <glyph glyph-name="endash" unicode="&#x2013;" horiz-adv-x="478" 
d="M83 235v30h312v-30h-312z" />
    <glyph glyph-name="emdash" unicode="&#x2014;" horiz-adv-x="583" 
d="M83 235v30h417v-30h-417z" />
    <glyph glyph-name="quoteleft" unicode="&#x2018;" horiz-adv-x="229" 
d="M157 694q-11 -15 -26.5 -62t-15.5 -94h29v-58h-66q0 151 54 230z" />
    <glyph glyph-name="quoteright" unicode="&#x2019;" horiz-adv-x="221" 
d="M74 486q11 15 26.5 62t15.5 94h-29v58h66q0 -151 -54 -230z" />
    <glyph glyph-name="quotesinglbase" unicode="&#x201a;" horiz-adv-x="232" 
d="M70 -154q11 15 26.5 62t15.5 94h-29v58h66q0 -151 -54 -230z" />
    <glyph glyph-name="quotedblleft" unicode="&#x201c;" horiz-adv-x="349" 
d="M157 694q-11 -15 -26.5 -62t-15.5 -94h29v-58h-66q0 151 54 230zM277 694q-11 -15 -26.5 -62t-15.5 -94h29v-58h-66q0 151 54 230z" />
    <glyph glyph-name="quotedblright" unicode="&#x201d;" horiz-adv-x="341" 
d="M74 486q11 15 26.5 62t15.5 94h-29v58h66q0 -151 -54 -230zM194 486q11 15 26.5 62t15.5 94h-29v58h66q0 -151 -54 -230z" />
    <glyph glyph-name="quotedblbase" unicode="&#x201e;" horiz-adv-x="352" 
d="M70 -154q11 15 26.5 62t15.5 94h-29v58h66q0 -151 -54 -230zM190 -154q11 15 26.5 62t15.5 94h-29v58h66q0 -151 -54 -230z" />
    <glyph glyph-name="dagger" unicode="&#x2020;" horiz-adv-x="356" 
d="M53 538v24h113v138h24v-138h113v-24h-113v-418h-24v418h-113z" />
    <glyph glyph-name="daggerdbl" unicode="&#x2021;" horiz-adv-x="388" 
d="M319 282v-24h-113v-138h-24v138h-113v24h113v256h-113v24h113v138h24v-138h113v-24h-113v-256h113z" />
    <glyph glyph-name="bullet" unicode="&#x2022;" horiz-adv-x="408" 
d="M89 460h230v-230h-230v230zM289 260v170h-170v-170h170z" />
    <glyph glyph-name="ellipsis" unicode="&#x2026;" horiz-adv-x="524" 
d="M79 58h66v-58h-66v58zM229 58h66v-58h-66v58zM379 58h66v-58h-66v58z" />
    <glyph glyph-name="perthousand" unicode="&#x2030;" horiz-adv-x="829" 
d="M673 289q-30 0 -50 -21t-20 -49q0 -30 21 -50t49 -20q30 0 50 21t20 49q0 30 -21 50t-49 20zM573 219q0 43 30 71.5t70 28.5q43 0 71.5 -30t28.5 -70q0 -43 -30 -71.5t-70 -28.5q-43 0 -71.5 30t-28.5 70zM423 289q-30 0 -50 -21t-20 -49q0 -30 21 -50t49 -20q30 0 50 21
t20 49q0 30 -21 50t-49 20zM323 219q0 43 30 71.5t70 28.5q43 0 71.5 -30t28.5 -70q0 -43 -30 -71.5t-70 -28.5q-43 0 -71.5 30t-28.5 70zM161 551q-30 0 -50 -21t-20 -49q0 -30 21 -50t49 -20q30 0 50 21t20 49q0 30 -21 50t-49 20zM61 481q0 43 30 71.5t70 28.5
q43 0 71.5 -30t28.5 -70q0 -43 -30 -71.5t-70 -28.5q-43 0 -71.5 30t-28.5 70zM140 177l-21 21l325 325l21 -21z" />
    <glyph glyph-name="guilsinglleft" unicode="&#x2039;" horiz-adv-x="312" 
d="M61 350l140 117l19 -23l-112 -94l112 -94l-19 -23z" />
    <glyph glyph-name="guilsinglright" unicode="&#x203a;" horiz-adv-x="312" 
d="M251 350l-140 -117l-19 23l112 94l-112 94l19 23z" />
    <glyph glyph-name="Euro" unicode="&#x20ac;" horiz-adv-x="620" 
d="M558 128q-27 -66 -76 -102t-147 -36q-120 0 -175.5 72t-57.5 223h-44v30h44v84v26h-44v30h46q9 130 64.5 192.5t166.5 62.5q98 0 147 -36t76 -102l-27 -13q-23 58 -65 89.5t-131 31.5q-91 0 -141.5 -49t-59.5 -176h258v-30h-260v-26v-84h260v-30h-260q3 -151 54 -208
t149 -57q89 0 131 31.5t65 89.5z" />
    <glyph glyph-name="afii61352" unicode="&#x2116;" horiz-adv-x="944" 
d="M601 30h288v-30h-288v30zM745 418q-49 0 -71.5 -25.5t-22.5 -102.5q0 -78 22.5 -103t71.5 -25t71.5 25.5t22.5 102.5q0 78 -22.5 103t-71.5 25zM745 132q-66 0 -95 38.5t-29 119.5q0 82 29.5 120t94.5 38q66 0 95 -38.5t29 -119.5q0 -82 -29.5 -120t-94.5 -38zM509 0
l-375 649v-649h-30v700h35l374 -647v647h30v-700h-34z" />
    <glyph glyph-name="uni2117" unicode="&#x2117;" horiz-adv-x="610" 
d="M305 560q-50 0 -84 -10.5t-62.5 -39t-42.5 -83t-14 -137.5t14 -137.5t42.5 -83t62.5 -39t84 -10.5t84 10.5t62.5 39t42.5 83t14 137.5t-14 137.5t-42.5 83t-62.5 39t-84 10.5zM305 -10q-125 0 -179 71t-54 229t54 229t179 71t179 -71t54 -229t-54 -229t-179 -71zM389 342
q0 70 -110 70h-38v-274h-30v304h68q40 0 67 -8q73 -22 73 -92q0 -55 -45 -80l-35 -19l-15 26l35 20q30 17 30 53z" />
    <glyph glyph-name="trademark" unicode="&#x2122;" horiz-adv-x="673" 
d="M301 700v-30h-100v-270h-30v270h-100v30h230zM361 630v-230l-30 1v300h30l93 -200l93 199h30v-300l-30 -1v230l-93 -199z" />
  </font>
</defs>
</svg>
