<?xml version="1.0" standalone="no"?>
<!DOCTYPE svg PUBLIC "-//W3C//DTD SVG 1.1//EN" "http://www.w3.org/Graphics/SVG/1.1/DTD/svg11.dtd" >
<svg xmlns="http://www.w3.org/2000/svg" xmlns:xlink="http://www.w3.org/1999/xlink" version="1.1">
<metadata>
Created by FontForge 20170731 at Tue Aug 31 03:37:31 2021
 By Aleksey,,,
Copyright 2008-2021 The Grey Qo Project Authors (https://github.com/googlefonts/grey-qo)
</metadata>
<defs>
<font id="GreyQo-Regular" horiz-adv-x="0" >
  <font-face 
    font-family="Grey Qo"
    font-weight="400"
    font-stretch="normal"
    units-per-em="1000"
    panose-1="0 0 0 0 0 0 0 0 0 0"
    ascent="800"
    descent="-200"
    x-height="266"
    cap-height="550"
    bbox="-357 -473 1169 793"
    underline-thickness="16"
    underline-position="-135"
    unicode-range="U+000D-FB02"
  />
<missing-glyph horiz-adv-x="370" 
d="M50 0v534h270v-534h-270zM183 307l76 173h-153zM272 104v337l-74 -170zM94 106l73 165l-73 168v-333zM103 53h160l-80 183z" />
    <glyph glyph-name="fi" unicode="fi" horiz-adv-x="352" 
d="M283 -1q-13 0 -22.5 7.5t-12.5 24.5q-1 9 5.5 32t17.5 52t22.5 55.5t19.5 41.5q-23 -5 -51.5 -13t-55.5 -17t-46.5 -20t-23.5 -22l-46 -135q-21 -62 -45 -120.5t-53.5 -106t-69.5 -78.5q-27 -20 -67 -37.5t-77 -17.5q-32 0 -56 19t-24 67q0 29 11 60t27.5 59t33.5 50
t30 33q5 5 5.5 1t-1.5 -6q-15 -21 -32 -52t-28.5 -64.5t-11.5 -62.5v-8.5t1 -8.5q6 -35 23.5 -49.5t39.5 -14.5q20 0 41.5 10t40.5 26q32 27 58.5 68t48.5 84t38.5 83t26.5 66l54 148q-10 -3 -17.5 -5.5t-16.5 -4.5q-3 -1 -5 -1h-4q-8 0 -8 5q0 2 1.5 4.5t2.5 5.5
q5 8 13.5 17t15.5 10l33 9q18 53 36.5 115t42 124t55.5 112q22 35 46.5 50.5t45.5 15.5q20 0 33 -14t13 -38v-8t-1 -8q-7 -42 -31 -88.5t-57 -92.5t-67 -87.5t-61 -72.5q8 2 27 5.5t43 7.5t46 7.5t34 5.5q9 7 23 13.5t23 7.5q5 3 5 0q-8 -10 -20.5 -32t-25.5 -49.5
t-23 -54.5t-14 -45q-1 -5 -1.5 -10t-0.5 -10q0 -29 17 -29q11 0 25 13q19 16 37 34.5t40 46.5l4 -2l3 -3q-5 -6 -20.5 -23.5t-33 -36t-28.5 -27.5t-24.5 -15t-26.5 -6zM165 221q0 -4 6 0.5t19 20.5q8 9 29.5 36.5t48.5 66t53.5 81.5t42.5 82q8 18 11 31.5t3 23.5
q0 26 -19 26q-15 0 -36 -17t-40 -49q-24 -40 -44 -89.5t-36.5 -99t-30.5 -90.5q-3 -8 -5 -14t-2 -9zM348 283q-9 0 -9 12q0 14 15.5 23.5t34 15.5t27.5 7h5q6 0 6 -2q0 -4 -14 -15l-24 -19l-12 -8t-11 -7q-12 -7 -18 -7z" />
    <glyph glyph-name="fl" unicode="fl" horiz-adv-x="423" 
d="M-222 -355q-32 0 -56 19t-24 67q0 29 11 60t27.5 59t33.5 50t30 33q5 5 5.5 1t-1.5 -6q-15 -21 -32 -52t-28.5 -64.5t-11.5 -62.5v-8.5t1 -8.5q6 -35 23.5 -49.5t39.5 -14.5q20 0 41.5 10t40.5 26q32 27 58.5 68t48.5 84t38.5 83.5t26.5 65.5l54 148q-10 -3 -17.5 -5.5
t-16.5 -4.5q-3 -1 -5 -1h-4q-8 0 -8 5q0 2 1.5 4.5t2.5 5.5q5 8 13.5 17t15.5 10l33 9q18 53 36.5 115t42 124t55.5 112q22 35 46.5 50.5t45.5 15.5q20 0 33 -14t13 -38v-8t-1 -8q-7 -42 -31 -88.5t-57 -92.5t-67 -87.5t-61 -72.5q17 5 34.5 7.5t29.5 3.5q2 0 4.5 0.5
t3.5 0.5q8 0 9.5 -1.5t1.5 -2.5q0 -4 -7 -6q-17 -3 -41.5 -11t-45.5 -20.5t-27 -31.5l-46 -135q-30 -94 -69.5 -176t-98.5 -129q-27 -20 -67 -37.5t-77 -17.5zM165 221q0 -4 6 0.5t19 20.5q8 9 29.5 36.5t48.5 66t53.5 81.5t42.5 82q8 18 11 31.5t3 23.5q0 26 -19 26
q-15 0 -36 -17t-40 -49q-24 -40 -44 -89.5t-36.5 -99t-30.5 -90.5q-3 -8 -5 -14t-2 -9zM329 -7q-31 0 -44 21t-13 52q0 18 3.5 38.5t8.5 41.5q7 30 21.5 72t33 89t38.5 92.5t39.5 83.5t35.5 61q24 35 49.5 50.5t45.5 15.5t32.5 -12.5t12.5 -35.5q0 -9 -3 -20
q-9 -42 -35.5 -88.5t-61.5 -92.5t-71 -87.5t-65 -72.5q-24 -26 -33 -69.5t-9 -78.5q0 -24 7.5 -34t20.5 -10q9 0 20 4.5t22 11.5q41 25 71.5 60.5t57.5 73.5q0 1 5.5 -1t3.5 -4q-30 -40 -63 -81.5t-80 -65.5q-28 -14 -50 -14zM349 221q0 -4 6 0.5t19 20.5q8 9 31 36.5
t52.5 66t57.5 81t46 82.5q17 35 17 58q0 22 -18 22q-14 0 -36.5 -16.5t-42.5 -48.5q-25 -40 -47.5 -89.5t-41.5 -99t-36 -90.5q-7 -17 -7 -23z" />
    <glyph glyph-name="f_f" unicode="ff" horiz-adv-x="402" 
d="M-21 -355q-27 0 -45 11q-9 6 -9 11q0 4 6 4q4 0 10 -3q11 -8 31 -8q26 0 56.5 13.5t50.5 30.5q32 27 58.5 68t48.5 84t38.5 83t26.5 66l69 188v1q-42 -7 -83 -15.5t-69 -18t-32 -20.5l-46 -135q-21 -62 -45 -120.5t-53.5 -106t-69.5 -78.5q-27 -20 -67 -37.5t-77 -17.5
q-32 0 -56 19t-24 67q0 29 11 60t27.5 59t33.5 50t30 33q5 5 5.5 1t-1.5 -6q-15 -21 -32 -52t-28.5 -64.5t-11.5 -62.5v-8.5t1 -8.5q6 -35 23.5 -49.5t39.5 -14.5q20 0 41.5 10t40.5 26q32 27 58.5 68t48.5 84t38.5 83t26.5 66l54 148q-10 -3 -17.5 -5.5t-16.5 -4.5
q-3 -1 -5 -1h-4q-8 0 -8 5q0 2 1.5 4.5t2.5 5.5q5 8 13.5 17t15.5 10l33 9q18 53 36.5 115t42 124t55.5 112q22 35 46.5 50.5t45.5 15.5q20 0 33 -14t13 -38v-8t-1 -8q-7 -42 -31 -88.5t-57 -92.5t-67 -87.5t-61 -72.5q35 5 75.5 9t78.5 6q17 51 34.5 109t39.5 115t52 104
q22 35 46.5 50.5t45.5 15.5q20 0 33 -14t13 -38v-8t-1 -8q-6 -39 -27 -81.5t-50.5 -85t-61.5 -82.5t-61 -73q21 1 35 2t18 1q2 0 4.5 0.5t3.5 0.5q8 0 9.5 -1.5t1.5 -2.5q0 -4 -7 -6q-8 -2 -29.5 -5t-50.5 -7l-1 -1q-12 -13 -23 -33t-15 -28l-46 -135q-21 -62 -45 -120.5
t-53.5 -106t-69.5 -78.5q-27 -20 -67.5 -37.5t-76.5 -17.5zM165 221q0 -4 6 0.5t19 20.5q8 9 29.5 36.5t48.5 66t53.5 81.5t42.5 82q8 18 11 31.5t3 23.5q0 26 -19 26q-15 0 -36 -17t-40 -49q-24 -40 -44 -89.5t-36.5 -99t-30.5 -90.5q-3 -8 -5 -14t-2 -9zM366 221
q0 -4 6 0.5t19 20.5q8 9 29.5 36.5t48.5 66t53.5 81.5t42.5 82q8 18 11 31.5t3 23.5q0 26 -19 26q-15 0 -36 -17t-40 -49q-24 -40 -44 -89.5t-36.5 -99t-30.5 -90.5q-3 -8 -5 -14t-2 -9z" />
    <glyph glyph-name="f_f_i" unicode="ffi" horiz-adv-x="553" 
d="M-21 -355q-27 0 -45 11q-9 6 -9 11q0 4 6 4q4 0 10 -3q11 -8 31 -8q26 0 56.5 13.5t50.5 30.5q32 27 58.5 68t48.5 84t38.5 83t26.5 66l69 188v1q-42 -7 -83 -15.5t-69 -18t-32 -20.5l-46 -135q-21 -62 -45 -120.5t-53.5 -106t-69.5 -78.5q-27 -20 -67 -37.5t-77 -17.5
q-32 0 -56 19t-24 67q0 29 11 60t27.5 59t33.5 50t30 33q5 5 5.5 1t-1.5 -6q-15 -21 -32 -52t-28.5 -64.5t-11.5 -62.5v-8.5t1 -8.5q6 -35 23.5 -49.5t39.5 -14.5q20 0 41.5 10t40.5 26q32 27 58.5 68t48.5 84t38.5 83t26.5 66l54 148q-10 -3 -17.5 -5.5t-16.5 -4.5
q-3 -1 -5 -1h-4q-8 0 -8 5q0 2 1.5 4.5t2.5 5.5q5 8 13.5 17t15.5 10l33 9q18 53 36.5 115t42 124t55.5 112q22 35 46.5 50.5t45.5 15.5q20 0 33 -14t13 -38v-8t-1 -8q-7 -42 -31 -88.5t-57 -92.5t-67 -87.5t-61 -72.5q35 5 75.5 9t78.5 6q17 51 34.5 109t39.5 115t52 104
q22 35 46.5 50.5t45.5 15.5q20 0 33 -14t13 -38v-8t-1 -8q-6 -39 -27 -81.5t-50.5 -85t-61.5 -82.5t-61 -73q21 1 35 2t18 1q2 0 4.5 0.5t3.5 0.5q8 0 9.5 -1.5t1.5 -2.5q0 -4 -7 -6q-8 -2 -29.5 -5t-50.5 -7l-1 -1q-12 -13 -23 -33t-15 -28l-46 -135q-21 -62 -45 -120.5
t-53.5 -106t-69.5 -78.5q-27 -20 -67.5 -37.5t-76.5 -17.5zM165 221q0 -4 6 0.5t19 20.5q8 9 29.5 36.5t48.5 66t53.5 81.5t42.5 82q8 18 11 31.5t3 23.5q0 26 -19 26q-15 0 -36 -17t-40 -49q-24 -40 -44 -89.5t-36.5 -99t-30.5 -90.5q-3 -8 -5 -14t-2 -9zM366 221
q0 -4 6 0.5t19 20.5q8 9 29.5 36.5t48.5 66t53.5 81.5t42.5 82q8 18 11 31.5t3 23.5q0 26 -19 26q-15 0 -36 -17t-40 -49q-24 -40 -44 -89.5t-36.5 -99t-30.5 -90.5q-3 -8 -5 -14t-2 -9zM549 283q-9 0 -9 12q0 14 15.5 23.5t34 15.5t27.5 7h5q6 0 6 -2q0 -4 -14 -15l-24 -19
l-12 -8t-11 -7q-12 -7 -18 -7zM484 -1q-13 0 -22.5 7.5t-12.5 24.5q-1 9 6.5 35.5t20 58t24.5 58.5t18 37q6 8 24 17.5t29 10.5q5 3 5 0q-8 -10 -20.5 -32t-25.5 -49.5t-23 -54.5t-14 -45q-1 -5 -1.5 -10t-0.5 -10q0 -29 17 -29q11 0 25 13q19 16 37 34.5t40 46.5l4 -2l3 -3
q-5 -6 -20.5 -23.5t-33 -36t-28.5 -27.5t-24.5 -15t-26.5 -6z" />
    <glyph glyph-name="f_f_l" unicode="ffl" horiz-adv-x="624" 
d="M-21 -355q-27 0 -45 11q-9 6 -9 11q0 4 6 4q4 0 10 -3q11 -8 31 -8q26 0 56.5 13.5t50.5 30.5q32 27 58.5 68t48.5 84t38.5 83t26.5 66l69 188v1q-42 -7 -83 -15.5t-69 -18t-32 -20.5l-46 -135q-21 -62 -45 -120.5t-53.5 -106t-69.5 -78.5q-27 -20 -67 -37.5t-77 -17.5
q-32 0 -56 19t-24 67q0 29 11 60t27.5 59t33.5 50t30 33q5 5 5.5 1t-1.5 -6q-15 -21 -32 -52t-28.5 -64.5t-11.5 -62.5v-8.5t1 -8.5q6 -35 23.5 -49.5t39.5 -14.5q20 0 41.5 10t40.5 26q32 27 58.5 68t48.5 84t38.5 83t26.5 66l54 148q-10 -3 -17.5 -5.5t-16.5 -4.5
q-3 -1 -5 -1h-4q-8 0 -8 5q0 2 1.5 4.5t2.5 5.5q5 8 13.5 17t15.5 10l33 9q18 53 36.5 115t42 124t55.5 112q22 35 46.5 50.5t45.5 15.5q20 0 33 -14t13 -38v-8t-1 -8q-7 -42 -31 -88.5t-57 -92.5t-67 -87.5t-61 -72.5q35 5 75.5 9t78.5 6q17 51 34.5 109t39.5 115t52 104
q22 35 46.5 50.5t45.5 15.5q20 0 33 -14t13 -38v-8t-1 -8q-6 -39 -27 -81.5t-50.5 -85t-61.5 -82.5t-61 -73q21 1 35 2t18 1q2 0 4.5 0.5t3.5 0.5q8 0 9.5 -1.5t1.5 -2.5q0 -4 -7 -6q-8 -2 -29.5 -5t-50.5 -7l-1 -1q-12 -13 -23 -33t-15 -28l-46 -135q-21 -62 -45 -120.5
t-53.5 -106t-69.5 -78.5q-27 -20 -67.5 -37.5t-76.5 -17.5zM165 221q0 -4 6 0.5t19 20.5q8 9 29.5 36.5t48.5 66t53.5 81.5t42.5 82q8 18 11 31.5t3 23.5q0 26 -19 26q-15 0 -36 -17t-40 -49q-24 -40 -44 -89.5t-36.5 -99t-30.5 -90.5q-3 -8 -5 -14t-2 -9zM366 221
q0 -4 6 0.5t19 20.5q8 9 29.5 36.5t48.5 66t53.5 81.5t42.5 82q8 18 11 31.5t3 23.5q0 26 -19 26q-15 0 -36 -17t-40 -49q-24 -40 -44 -89.5t-36.5 -99t-30.5 -90.5q-3 -8 -5 -14t-2 -9zM530 -7q-31 0 -44 21t-13 52q0 18 3.5 38.5t8.5 41.5q7 30 21.5 72t33 89t38.5 92.5
t39.5 83.5t35.5 61q24 35 49.5 50.5t45.5 15.5t32.5 -12.5t12.5 -35.5q0 -9 -3 -20q-9 -42 -35.5 -88.5t-61.5 -92.5t-71 -87.5t-65 -72.5q-24 -26 -33 -69.5t-9 -78.5q0 -24 7.5 -34t20.5 -10q9 0 20 4.5t22 11.5q41 25 71.5 60.5t57.5 73.5q0 1 5.5 -1t3.5 -4
q-30 -40 -63 -81.5t-80 -65.5q-28 -14 -50 -14zM550 221q0 -4 6 0.5t19 20.5q8 9 31 36.5t52.5 66t57.5 81t46 82.5q17 35 17 58q0 22 -18 22q-14 0 -36.5 -16.5t-42.5 -48.5q-25 -40 -47.5 -89.5t-41.5 -99t-36 -90.5q-7 -17 -7 -23z" />
    <glyph glyph-name=".notdef" horiz-adv-x="370" 
d="M50 0v534h270v-534h-270zM183 307l76 173h-153zM272 104v337l-74 -170zM94 106l73 165l-73 168v-333zM103 53h160l-80 183z" />
    <glyph glyph-name=".null" 
 />
    <glyph glyph-name="nonmarkingreturn" horiz-adv-x="333" 
 />
    <glyph glyph-name="CR" unicode="&#xd;" horiz-adv-x="600" 
 />
    <glyph glyph-name="space" unicode=" " horiz-adv-x="203" 
 />
    <glyph glyph-name="exclam" unicode="!" horiz-adv-x="187" 
d="M96 89q-4 0 -6 7q9 33 43 103q13 26 33.5 71.5t48.5 109.5q-4 4 -4 13q0 5 1 8q3 11 17 27q14 15 26 15q10 0 10 -12q0 -6 -3 -15q-7 -24 -20 -55t-34 -69q-16 -31 -33.5 -61.5t-34.5 -61.5q-6 -11 -13 -26.5t-15 -35.5q-7 -18 -16 -18zM47 -24q-7 1 -12 11q-5 7 -5 12
q0 10 17 22q11 8 17.5 9.5t16.5 1.5q9 0 7 -8q-9 -32 -41 -48z" />
    <glyph glyph-name="quotedbl" unicode="&#x22;" horiz-adv-x="187" 
d="M208 280q-5 0 -5 5l10 28t9 29q8 26 12.5 52t8.5 52q2 5 1 3.5t0 2.5q3 6 4 3v2q0 4 3.5 7t7.5 7q13 8 22 8q16 0 16 -15q0 -6 -1 -10q-4 -13 -18 -47.5t-40 -90.5q-8 -16 -15.5 -26t-14.5 -10zM134 280q-3 0 -5 5l10 28t9 29q8 26 13 52t9 52q1 5 0.5 3.5t-0.5 2.5
q3 6 4 3v2q0 4 3.5 7t7.5 7q13 8 22 8q16 0 16 -15q0 -6 -1 -10q-4 -13 -18.5 -47.5t-40.5 -90.5q-7 -16 -14.5 -26t-14.5 -10z" />
    <glyph glyph-name="numbersign" unicode="#" horiz-adv-x="485" 
d="M198 56q-12 0 -12 18q0 13 6 34q14 48 43 106q-174 -56 -175 -56q-11 0 -11 6q0 7 19 18q15 11 24 12l154 45q4 10 12.5 28t22.5 46q-123 -38 -130 -38q-10 0 -10 6t5.5 10t12.5 8q24 11 70 22q26 7 43.5 12t27.5 8l40 71q31 50 51 65h16l-71 -123q17 1 49 9q20 5 33 8.5
t20 4.5q15 23 29.5 46.5t30.5 46.5q50 76 68 76q14 0 11 -10q0 -1 -3 -3q-12 -13 -25 -31t-27 -40q-11 -19 -22.5 -36.5t-22.5 -35.5l17.5 2.5t26.5 4.5q32 6 47 6q16 0 14 -7q-1 -1 -4 -3t-9 -4q-58 -18 -108 -30q-6 -12 -15.5 -28.5t-23.5 -38.5q20 3 72 19q51 14 72 14
q11 0 11 -5q0 -3 -3.5 -6t-7.5 -5q-7 -4 -63 -16q-54 -12 -93 -30q-10 -19 -17 -37t-12 -35q-7 -22 -7 -42q0 -24 14 -36q-11 -17 -23 -17q-5 0 -10 3q-17 11 -17 39q0 21 7 45q9 30 26 68q-40 -10 -105 -30q-11 -22 -20 -43t-15 -42q-4 -14 -6.5 -29t-3.5 -32l-1 -3
q-4 -15 -22 -15zM280 248q18 5 44.5 12t60.5 17q7 14 17.5 32t23.5 42q-14 -1 -41 -7.5t-66 -20.5q-15 -25 -39 -75z" />
    <glyph glyph-name="dollar" unicode="$" horiz-adv-x="437" 
d="M95 -211q-5 1 -10 12q-1 5 -1.5 11.5t-0.5 13.5q0 24 6 52q2 15 9.5 38.5t18.5 56.5q-39 2 -62.5 19t-30.5 36q-4 9 -4 21q0 16 8 27.5t19 15.5h2q4 0 3.5 -4.5t-2.5 -6.5q-8 -12 -8 -26q0 -8 3 -16q11 -22 33.5 -31.5t47.5 -9.5q7 17 15 40q14 35 29.5 75t33.5 85
q-32 16 -59 31t-43.5 35.5t-16.5 53.5q0 8 1 16t3 17q8 33 40.5 68t78.5 61t95 32q19 3 35 3q58 128 72 138q12 9 18 9t8 -5v-3q0 -5 -5 -18q-10 -19 -23 -48t-31 -68l-3 -7q58 -7 83 -38t25 -64q0 -29 -17 -51q-7 -9 -12 -9q-7 0 -2 12q12 26 12 45q0 36 -32 52t-73 18
q-60 -133 -109 -247q14 -7 26.5 -14.5t23.5 -16.5q19 -16 27.5 -35.5t8.5 -39.5q0 -55 -45 -92q-24 -21 -64.5 -38t-79.5 -21q-9 -23 -12 -34q-18 -51 -24 -85q-1 -7 -1 -13v-11q4 -9 14 -8q3 2 3 -2v-1q0 -4 -7 -13t-12 -14q-8 -5 -12 -4zM117 344q0 -26 15 -43.5t39 -31
t51 -25.5l1 2q29 70 54 128t45 105q-15 -1 -28 -3q-55 -7 -94.5 -29t-61 -49.5t-21.5 -53.5zM166 26q-6 -15 -10 -27q34 5 67 19.5t54.5 37t21.5 49.5q0 21 -14.5 38.5t-54.5 40.5q-36 -85 -64 -158z" />
    <glyph glyph-name="percent" unicode="%" horiz-adv-x="357" 
d="M96 44q-9 0 -9 9q0 2 0.5 4.5t1.5 5.5q13 46 95 131q22 22 58 55.5t88 79.5q39 35 59 55t21 24q1 2 1 5v4q0 15 -18 19q-6 2 -66 3q6 -9 6 -19q0 -3 -0.5 -6t-1.5 -6q-10 -36 -58 -61q-40 -21 -80 -21q-35 0 -35 25q0 6 3 15q17 58 79 83q3 -1 3 -5q0 -8 -17 -18
q-12 -7 -24 -26.5t-15 -31.5q-1 -3 -1.5 -5.5t-0.5 -4.5q0 -16 20 -16q23 0 57 20q34 19 40 41q1 4 1 10q0 11 -7 19q-10 10 -29 10q-4 0 -7.5 -0.5t-7.5 -0.5q-8 0 -7 6q4 12 26 12q8 0 15.5 -0.5t15.5 -0.5q28 0 57 3t57 3q60 0 52 -31q-7 -28 -173 -171
q-164 -143 -173 -172q-1 -2 -1 -5v-5q0 -7 -1 -11q-6 -25 -24 -25zM228 61q-35 0 -35 26q0 3 0.5 6.5t1.5 7.5q17 58 80 82l3 -2q6 12 40 12q12 0 21.5 -3.5t16.5 -8.5q12 -9 12 -24q0 -3 -0.5 -6t-1.5 -7q-11 -38 -58 -62q-40 -21 -80 -21zM240 78q24 0 58 19q33 20 39 42
q1 3 1 8q0 11 -8 19q-11 11 -28 11q-6 0 -11.5 -3t-9.5 -3t-4 3q-2 -2 -6.5 -5.5t-10.5 -7.5q-9 -6 -22 -25q-7 -10 -11 -18t-6 -15q-1 -3 -1.5 -5.5t-0.5 -4.5q0 -15 21 -15z" />
    <glyph glyph-name="ampersand" unicode="&#x26;" horiz-adv-x="463" 
d="M51 -196q-35 0 -60.5 22.5t-25.5 49.5q0 13 8 26q2 5 6.5 4t1.5 -6q-6 -10 -6 -19q0 -17 18 -27.5t46 -6.5q46 6 78.5 34t56 70.5t39.5 88.5q-2 -1 -6 -1q-4 -1 -8 -1h-9q-46 0 -75 30t-29 74q0 37 24 79t79 79q23 16 49.5 31.5t53.5 31.5q12 49 35 87.5t66 43.5
q18 2 32.5 -6t14.5 -24q0 -9 -9.5 -20t-24.5 -21q-22 -16 -41.5 -29t-39.5 -27q-9 -23 -18.5 -52t-20.5 -64h109q29 0 40 4t15 8q2 2 3.5 1.5t1.5 -2.5q-2 -21 -19.5 -28.5t-35.5 -9.5q-9 -35 -35 -71.5t-60.5 -65.5t-71.5 -42q-13 -46 -31 -91t-41.5 -80t-54.5 -54
q-28 -16 -55 -16zM333 387q17 11 33.5 21.5t31.5 21.5q14 11 20 21t6 18q0 15 -15 15q-8 0 -19 -7t-22 -24q-8 -12 -16.5 -28.5t-18.5 -37.5zM220 63q13 38 22.5 75.5t18.5 65.5l6 25q-27 -2 -48.5 -11.5t-31.5 -33.5q-5 -13 -5 -23q0 -17 11 -28q2 -1 -1.5 -2.5t-5.5 0.5
q-15 13 -15 37q0 32 27 57.5t68 25.5h5l16 90q-24 -17 -47 -36t-45 -40q-33 -32 -47.5 -63.5t-14.5 -57.5q0 -35 22.5 -58t56.5 -23h8zM239 66q35 8 63 33t47.5 58.5t26.5 66.5q-20 1 -45 3.5t-51 2.5l-2 -9q-8 -29 -17.5 -70t-21.5 -85z" />
    <glyph glyph-name="quotesingle" unicode="'" horiz-adv-x="115" 
d="M109 235q13 21 24 40t21 37q32 53 36 70q1 3 1 8q0 11 -10 25q12 27 33 27t21 -20q0 -3 -0.5 -6.5t-1.5 -7.5q-8 -26 -53 -94q-23 -37 -40.5 -57t-30.5 -22z" />
    <glyph glyph-name="parenleft" unicode="(" horiz-adv-x="250" 
d="M97 -2q-30 0 -30 69q0 19 2 35.5t5 31.5l4 16q50 179 180 306q15 15 27 25.5l20 17.5q6 4 9 4q2 -1 2 -4q-3 -11 -31 -39q-56 -58 -93.5 -118t-57.5 -130q-20 -71 -20 -112q0 -49 27 -63q-15 -39 -44 -39z" />
    <glyph glyph-name="parenright" unicode=")" horiz-adv-x="298" 
d="M44 0q-3 0 -3 3q0 5 15 21q10 8 24 19.5t32 27.5q96 87 135 229q12 42 12 80q0 74 -45 96q16 40 43 40q48 0 48 -82q0 -23 -3.5 -48t-10.5 -52q-4 -13 -9 -26l-10 -26q-33 -82 -83 -146.5t-121 -124.5q-14 -11 -24 -11z" />
    <glyph glyph-name="asterisk" unicode="*" horiz-adv-x="334" 
d="M209 177l-2 3q-5 0 -6 3q-1 5 1.5 18t6 26.5t4.5 17.5q3 14 7.5 26.5t9.5 24.5q-36 -15 -102 -51q-13 -8 -17 -8t-4 3q0 7 14 18t37.5 30t56.5 47q-22 17 -36 30q-9 14 -33 33q-3 2 -4.5 3.5l-1.5 1.5q2 5 11 5q27 0 100 -39l63 111q4 8 8 8t4 -9q0 -3 -0.5 -6.5
t-1.5 -8.5q-3 -11 -6 -24.5t-8 -29.5q-4 -11 -7 -20.5t-6 -17.5q63 17 126 17q6 0 4 -5l-5 -8q-22 -6 -54.5 -15.5t-76.5 -23.5q10 -13 25.5 -32.5t36.5 -45.5q2 -3 0 -6q-1 -9 -11 -9q-17 0 -78 47q-6 -15 -11.5 -27.5t-11.5 -23.5z" />
    <glyph glyph-name="plus" unicode="+" horiz-adv-x="318" 
d="M117 -13q-3 0 -3 6t1 9q2 7 4.5 13t5.5 10q27 43 41.5 68.5t17.5 33.5l-98 -1q-3 4 -1 8q1 8 13 16q11 6 19 6l81 -2q3 5 12.5 20t25.5 41q4 6 9.5 15.5t12.5 20.5q12 18 32 18q9 0 6 -7q-4 -14 -19.5 -41t-41.5 -68q17 1 35 1.5t36 0.5q45 0 43 -11q-3 -8 -35 -11
l-40 -2.5t-56 -4.5q-7 -13 -19.5 -32t-29.5 -45q-20 -29 -33.5 -45.5t-18.5 -16.5z" />
    <glyph glyph-name="comma" unicode="," horiz-adv-x="152" 
d="M52 -100q-3 0 -3 6t3 12q18 30 24 43.5t6 20.5q0 8 -4 15t-5 27q7 14 15.5 20t16.5 6q10 0 16 -7.5t3 -18.5q-3 -10 -7 -20.5t-21 -36.5q-7 -11 -16 -27.5t-19 -31.5q-5 -8 -9 -8z" />
    <glyph glyph-name="hyphen" unicode="-" horiz-adv-x="273" 
d="M112 158q-24 0 -35 4q7 30 45 30q45 0 89.5 -1t89.5 -1l-1 -2q2 0 2 -5q-2 -7 -20 -8q-16 -3 -52 -6q-43 -6 -72 -8.5t-46 -2.5z" />
    <glyph glyph-name="period" unicode="." horiz-adv-x="152" 
d="M95 -5q-8 0 -14 9q-5 8 -5 13q0 7 5 12t12 10q16 12 28 12t12 -11q0 -15 -21 -36q-9 -9 -17 -9z" />
    <glyph glyph-name="slash" unicode="/" horiz-adv-x="508" 
d="M7 -106q-12 0 -12 12q0 7 3 14q11 36 42 82q29 42 123 141q32 34 69.5 71.5l80.5 80.5q149 146 230.5 220t94.5 74q18 0 18 -12q0 -7 -3.5 -12t-10.5 -12q-16 -13 -39 -34t-54 -49q-115 -104 -211.5 -196.5t-173.5 -173.5q-25 -25 -41 -42.5t-24 -25.5q-19 -21 -33.5 -39
t-24.5 -34q-5 -7 -8 -14t-5 -12q-1 -3 -1 -8q0 -7 5 -12q1 -1 1 -4q-2 -6 -11.5 -10.5t-14.5 -4.5z" />
    <glyph glyph-name="zero" unicode="0" horiz-adv-x="458" 
d="M165 -15q-61 0 -86.5 29t-25.5 75q0 40 17 89q-4 3 -8 6.5t-8 7.5q-12 11 -20.5 24t-10.5 26q-1 5 -1 8.5v7.5q0 39 24 68t61 48t78.5 29.5t76.5 13.5q11 6 21.5 11t20.5 9h2q5 0 11 -5t-1 -13q41 -4 69.5 -23t41.5 -48q14 -33 14 -69q0 -57 -27 -105
q-23 -44 -60.5 -87.5t-85 -72.5t-103.5 -29zM161 2q35 0 69 18.5t64 48t53.5 62t36.5 60.5q25 54 25 102q0 46 -23 75t-64 29q-16 0 -36 -6q-28 -17 -70 -59t-79 -110q-15 -27 -24 -51q9 -8 12 -12q1 -5 -4 -5q-6 0 -9 2q-3 0 -4 1q-7 -20 -10 -38.5t-3 -34.5
q0 -38 17.5 -60t48.5 -22zM78 199l6 13q23 50 55 93t69 74q-35 -9 -73.5 -24.5t-64.5 -38t-26 -52.5q0 -13 7 -28.5t23 -32.5q1 -3 4 -4z" />
    <glyph glyph-name="one" unicode="1" horiz-adv-x="211" 
d="M52 0q-9 0 -10.5 6t-0.5 13q2 6 2 7q23 79 58 153t60 152q-52 -45 -74 -59.5t-24 -16.5q-4 -4 -6.5 -2t-2.5 4q0 3 1 7.5t2 5.5q6 5 23 20t38.5 34t40 36t27.5 25l11 20q4 8 11 15q5 3 13 3t14.5 -3t5.5 -8q-15 -34 -35 -76t-41 -88t-40 -93t-32 -92q-1 -3 -1 -7t1 -6
t1 -7v-3.5t-1 -5.5q-2 -10 -14.5 -22t-26.5 -12z" />
    <glyph glyph-name="two" unicode="2" horiz-adv-x="297" 
d="M236 -31q-7 -5 -7 3v9q0 5 -0.5 10.5t-3.5 10.5q-10 16 -36 22t-58 6q-10 0 -20.5 -0.5t-21.5 -1.5q-10 -1 -27 -6t-33 -11q-1 0 -11.5 -4t-20.5 -7.5t-11 -3.5q-16 0 -16 7q0 8 15.5 19.5t22.5 15.5l9 6l3 1l1 1q18 12 47.5 39t61 63t56 75t32.5 75q2 9 3 18t1 18
q0 23 -10 40t-39 17h-7.5t-8.5 -1q-15 -2 -28 -15t-18 -27q-5 -15 -20 -15q-12 0 -12 16q0 4 3.5 15t4.5 15q3 11 5.5 21.5t3.5 18.5t8 8q9 0 7 -7q-1 -7 -3 -16.5t-1 -16.5q11 10 23 19.5t29 14.5q9 3 17.5 4t15.5 1q38 0 60 -25.5t22 -61.5q0 -25 -10 -49q-14 -35 -42 -72
t-58 -69q-28 -31 -53.5 -54t-37.5 -34q35 3 68 3q20 0 40.5 -0.5t41.5 -0.5q15 0 22 -10.5t7 -21.5q0 -14 -3.5 -28.5t-7.5 -28.5z" />
    <glyph glyph-name="three" unicode="3" horiz-adv-x="272" 
d="M61 -6q-38 0 -56.5 22t-24.5 41q2 3 6 5l4 2q5 -7 7.5 -13.5t8.5 -12.5q6 -7 17.5 -11.5t33.5 -4.5q40 0 71.5 22.5t50 54.5t18.5 61q0 25 -15.5 42t-50.5 17q-10 0 -19 -2.5t-19 -4.5q-6 5 -6 8v9q23 14 53 31t52 39.5t22 51.5q0 17 -12 29.5t-37 12.5
q-22 0 -37.5 -13.5t-20.5 -27.5q-5 -15 -21 -15q-12 0 -12 15q0 5 3.5 15.5t4.5 14.5q4 11 6.5 21.5t3.5 19.5q0 8 7 8t7 -6t-2 -17t-1 -18q14 14 38.5 26t48.5 12t39 -14q12 -10 17.5 -23t5.5 -27q0 -22 -11 -43t-27 -35q-11 -10 -24.5 -20t-25.5 -16q-5 -2 -5 -5
q1 -1 15 -1q38 0 55 -22t17 -52q0 -4 -0.5 -9t-1.5 -10q-6 -43 -33 -79t-66.5 -57t-83.5 -21z" />
    <glyph glyph-name="four" unicode="4" horiz-adv-x="289" 
d="M112 0q-9 0 -10.5 6t-0.5 13q2 6 2 7q9 30 22.5 61t26.5 60l-68 -4q-23 -1 -43 -4t-28 -6q-6 -3 -11 -3q-7 0 -7 9q0 6 3 12q10 7 29 26.5t42 45t45.5 51t39.5 45.5t22 29l-1 1q-2 8 -2 13q0 8 5 14q6 8 25 24l32 30q2 2 6 3.5t7 1.5q12 0 4 -11q-22 -28 -48.5 -64.5
t-52.5 -72.5t-46 -65t-30 -43l91 6q8 17 23 49t30.5 65t25.5 53q7 12 13 12q4 0 6.5 -5t2.5 -11q0 -7 -3 -13q-19 -34 -35.5 -73t-33.5 -77q14 1 22 1.5t17 0.5q17 0 27.5 -3t10.5 -15q0 -4 -2.5 -10.5t-5.5 -13.5t-6.5 -15t-6.5 -16h-9q1 3 1 6v5q0 16 -11.5 21t-25.5 5
q-7 0 -13.5 -0.5t-12.5 -1.5q-7 -19 -14.5 -43.5t-12.5 -42.5q-1 -3 -1 -7t1 -6t1 -7v-3.5t-1 -5.5q-3 -10 -15 -22t-26 -12z" />
    <glyph glyph-name="five" unicode="5" horiz-adv-x="308" 
d="M66 -11q-37 0 -59 15t-29 32q-2 6 -2 11q0 17 14.5 32t25.5 17h3q5 0 4.5 -5t-2.5 -7q-6 -10 -6 -21q0 -9 3 -15q8 -17 26.5 -25t40.5 -8q28 0 56.5 11t48 30.5t19.5 44.5q0 17 -14 30.5t-51 37.5q-5 4 -19 14.5t-26.5 25t-14.5 28.5q-1 10 8.5 34.5t17.5 44.5q2 5 7 15
t9.5 20t4.5 13q0 1 -0.5 1h-0.5l-6 10t-5 10q-2 6 -2 9q0 14 20 14q9 0 13 2t9 7q3 3 12 10.5t13 1.5q1 -1 1 -4t-3 -11q20 -3 45 -3q35 0 69.5 4t44.5 7q8 -1 8 -7q0 -4 -3.5 -7t-7.5 -5q-12 -3 -34.5 -6.5t-48 -7.5t-47.5 -8t-34 -7q-15 -4 -21.5 -16t-11.5 -24
q-3 -6 -8 -21t-9.5 -29t-4.5 -19q0 -7 11 -18.5t27 -25t31.5 -24.5t24.5 -16q18 -11 26 -27t8 -33q0 -22 -11 -44t-30 -38q-23 -19 -64 -34.5t-76 -15.5z" />
    <glyph glyph-name="six" unicode="6" horiz-adv-x="283" 
d="M77 -6q-32 0 -44 23t-12 53q0 20 4 40.5t9 35.5l-12 -9t-14 -6q-7 0 -6 11l33 33q8 8 15.5 15t12.5 11q19 30 36 58.5t38 56.5q20 27 47.5 54t67.5 53q3 2 10.5 3t11.5 1q10 0 10 -7q0 -4 -8 -7q-19 -6 -43 -30.5t-48 -57.5t-44 -64.5t-32 -51.5q33 19 76 19q26 0 46 -11
t20 -38q0 -17 -10 -40q-9 -22 -27 -47t-41.5 -47.5t-48 -36.5t-47.5 -14zM79 30q18 0 50 17t57 45q14 15 23.5 31.5t9.5 30.5q0 18 -18 30q-7 5 -18 6.5t-23 1.5q-19 0 -39 -5t-31 -13q-16 -28 -27.5 -54.5t-12.5 -59.5q0 -30 29 -30z" />
    <glyph glyph-name="seven" unicode="7" horiz-adv-x="271" 
d="M43 -8q-11 0 -11 9q0 5 2 11l3 6q18 40 43.5 86t52.5 92q26 44 52 84t47 73q-10 -4 -19 -4.5t-13 0.5q-14 3 -29.5 8t-31.5 9q-13 5 -28 9t-29 5q-11 1 -15.5 -6.5t-4.5 -19.5q0 -13 6 -27.5t10 -21.5q2 -2 2 -5q0 -4 -4 -6t-8 2q-12 14 -20 37.5t-8 45.5q0 25 10 39
q6 7 21 7q11 0 26 -3.5t31 -8.5l51 -16q12 -3 23 -5.5t18 -2.5q15 0 22.5 12.5t14.5 22.5q12 3 18 -10.5t6 -21.5q0 -4 -4 -12t-9 -16l-15 -21q-25 -40 -55 -91.5t-58 -103.5t-47 -95q-4 -7 -2.5 -10t0.5 -10q0 -3 -3 -9q-4 -9 -18 -20.5t-27 -11.5z" />
    <glyph glyph-name="eight" unicode="8" horiz-adv-x="293" 
d="M62 -26q-46 0 -65.5 26t-19.5 56t14 50v0.5t1 0.5q15 29 44 60t65 61v1q-22 26 -22 58q0 30 17 57.5t42 46.5q20 14 43 22.5t44 8.5q23 0 40 -10.5t22 -33.5q1 -2 1 -5v-5q0 -4 -0.5 -8t-1.5 -8q48 25 80 35h3q7 0 7 -6t-5 -7q-39 -13 -94 -48t-111 -80q14 -10 29 -20.5
t26 -24.5q9 -10 14.5 -24.5t5.5 -32.5q0 -16 -4 -32q-7 -28 -30.5 -57.5t-54.5 -51t-63 -27.5q-7 -1 -14 -1.5t-13 -0.5zM144 262q61 44 121 78q4 9 4 20q0 18 -14.5 27.5t-34.5 9.5q-28 0 -56.5 -18.5t-37.5 -56.5q-1 -4 -1.5 -8t-0.5 -8q0 -11 4.5 -22t15.5 -22zM68 8
q7 0 13.5 0.5t13.5 1.5q53 9 82 40t30 62q2 23 -9 38t-28 28q-12 8 -24.5 15.5t-23.5 15.5l-13 -11q-11 -9 -29 -25.5t-36.5 -37.5t-31.5 -43.5t-13 -43.5v-6t1 -6v-2q10 -14 28.5 -20t39.5 -6z" />
    <glyph glyph-name="nine" unicode="9" horiz-adv-x="271" 
d="M90 -4q-31 0 -52 22.5t-32 52.5q-8 22 -11 44t-2 36q2 7 7.5 8.5t4.5 -6.5q5 -53 27 -80t51 -27q23 0 46.5 16t44.5 49q15 24 28.5 53.5t23.5 57.5q-1 0 -2.5 -0.5t-3.5 -0.5q-19 -13 -45 -21t-50 -8q-6 0 -12 0.5t-11 1.5q-24 5 -34.5 18.5t-10.5 31.5q0 26 17.5 57.5
t44.5 60.5t56.5 47.5t53.5 18.5q32 0 44 -23.5t12 -52.5q0 -24 -5 -47.5t-10 -37.5l-2 -2q-4 -13 -8 -24.5t-6 -15.5q-8 -21 -20.5 -55.5t-29.5 -69.5q-16 -34 -38 -63t-51 -37q-12 -4 -25 -4zM148 230q23 0 47 5.5t35 13.5q8 12 18.5 43t10.5 58q0 17 -7 29t-25 12t-49 -17
t-57 -44q-14 -16 -23.5 -32.5t-9.5 -30.5q0 -19 17 -29q7 -4 18.5 -6t24.5 -2z" />
    <glyph glyph-name="colon" unicode=":" horiz-adv-x="152" 
d="M165 155q-6 0 -14 9q-4 5 -4 12q0 12 17 22q17 13 29 13q11 0 11 -11q0 -14 -22 -36q-9 -9 -17 -9zM95 -5q-8 0 -14 9q-5 8 -5 13q0 7 5 12t12 10q16 12 28 12t12 -11q0 -15 -21 -36q-9 -9 -17 -9z" />
    <glyph glyph-name="semicolon" unicode=";" horiz-adv-x="152" 
d="M165 155q-6 0 -14 9q-4 5 -4 12q0 12 17 22q17 13 29 13q11 0 11 -11q0 -14 -22 -36q-9 -9 -17 -9zM52 -100q-3 0 -3 6t3 12q18 30 24 43.5t6 20.5q0 8 -4 15t-5 27q7 14 15.5 20t16.5 6q10 0 16 -7.5t3 -18.5q-3 -10 -7 -20.5t-21 -36.5q-7 -11 -16 -27.5t-19 -31.5
q-5 -8 -9 -8z" />
    <glyph glyph-name="less" unicode="&#x3c;" horiz-adv-x="196" 
d="M135 37q-5 0 -9 5q-8 11 -23 31.5t-41 48.5q-9 10 -9 19t9 18l32 32t39 39.5t36 36.5l22 22q12 11 20 11q5 0 5 -5q0 -8 -13 -22q-13 -16 -39.5 -43.5t-65.5 -65.5q53 -104 50 -113q-5 -14 -13 -14z" />
    <glyph glyph-name="equal" unicode="=" horiz-adv-x="310" 
d="M183 177q-32 0 -42 7q6 29 29 29q12 0 30 -1t42 -3q2 0 14 -1t26 -2.5t24.5 -4t10.5 -5.5q0 -4 -14 -7l-39 -6q-46 -6 -81 -6zM141 80q-31 0 -42 6q6 30 29 30q12 0 30 -1t42 -3q1 0 12.5 -1t26.5 -2.5t26 -4t11 -5.5q0 -4 -15 -7l-39 -6q-46 -6 -81 -6z" />
    <glyph glyph-name="greater" unicode="&#x3e;" horiz-adv-x="267" 
d="M108 36q-5 0 -5 5q0 8 13 22q14 16 40 43.5t65 66.5q-53 103 -50 112q5 14 13 14q5 0 9 -5q8 -10 23.5 -30.5t40.5 -49.5q9 -10 9 -19t-9 -18l-32 -32t-39 -39.5t-36 -36.5t-23 -22q-11 -11 -19 -11z" />
    <glyph glyph-name="question" unicode="?" horiz-adv-x="403" 
d="M150 101q-8 0 -8 9q-3 45 20.5 73t63 49.5t85.5 46.5q60 32 80.5 53t20.5 46q0 22 -19 37.5t-48.5 24t-62.5 8.5q-38 0 -74.5 -12.5t-55.5 -39.5q-7 -8 -7 -21q0 -9 4 -17q2 -2 2 -6q0 -5 -5 -5q-10 0 -17 8t-7 20q0 14 9 29q11 17 34.5 33.5t59.5 26.5q13 4 27 5.5
t28 1.5q40 0 77.5 -10.5t58.5 -25.5q33 -25 33 -64q0 -22 -13 -46.5t-42 -45.5q-22 -16 -53.5 -32.5t-64.5 -33t-60.5 -32.5t-43 -32.5t-11.5 -33.5v-3q0 -5 -3.5 -8t-7.5 -3zM95 -5q-8 0 -14 9q-5 8 -5 13q0 7 5 12t12 10q16 12 28 12t12 -11q0 -15 -21 -36q-9 -9 -17 -9z
" />
    <glyph glyph-name="at" unicode="@" horiz-adv-x="596" 
d="M254 -70q-82 0 -124 52q-26 34 -26 78q0 26 9 57q14 51 47 93.5t77.5 76.5t92.5 57h-9.5t-13.5 -1q-10 -1 -17.5 -1h-12.5q-16 0 -16 7q0 11 36 15t101 4l3 0.5t10 1.5q32 8 62 12t57 4q118 0 118 -71q0 -7 -1.5 -15t-3.5 -17q-8 -26 -28 -55q3 -8 4 -17t1 -18t-1 -18
t-4 -18q-27 -95 -151 -165q-112 -62 -210 -62zM604 247q9 18 12 31q5 17 5 29q0 58 -97 58q-35 0 -76 -9q107 -30 156 -109zM243 -47q89 0 196 58q121 65 143 147q2 8 3.5 16t1.5 15q-16 -23 -35.5 -47t-42.5 -47q-63 -68 -99 -68q-18 0 -26.5 17t-8.5 47q0 25 6 47
q-119 -117 -151 -117q-20 0 -20 18q0 3 0.5 6t1.5 7q13 44 92 122q83 81 126 81q11 0 17 -7t6 -18q0 -6 -1 -10q-3 -9 -8 -9q-2 0 -6 7q-3 5 -15 5q-19 0 -36 -9q-21 -11 -42 -27.5t-43 -37.5q-50 -48 -60 -83q-2 -8 -2 -10q0 -9 8 -9q21 0 85 64q56 56 77 89q8 7 17 7
q6 0 7 -5q-5 -6 -9 -16t-9 -24q-5 -18 -7 -35t-2 -33q0 -37 20 -37q26 0 85 63q25 27 42.5 49.5t28.5 41.5q-34 106 -197 129q-40 -12 -77.5 -35t-73.5 -56q-74 -70 -95 -144q-8 -29 -8 -51q0 -33 17 -59q27 -42 94 -42z" />
    <glyph glyph-name="A" unicode="A" horiz-adv-x="591" 
d="M153 167q-15 0 -24 5q-4 1 -4 4q0 2 2.5 3t6.5 -1q6 -2 9 -2q13 0 27 10t24.5 27t10.5 38q0 12 -5 27q-5 14 -14 27.5t-15 26.5q-8 17 -11.5 31t-3.5 27q0 32 20 50.5t51.5 29t66.5 15.5t64 9q25 3 60.5 8.5t74.5 12t74.5 14.5t61 16t32.5 16q2 2 4 2q3 0 3.5 -3t-2.5 -6
q-11 -12 -46 -24t-82.5 -23t-98.5 -21t-96 -19t-73 -17q-91 -25 -91 -83q0 -23 13 -44.5t25.5 -42.5t12.5 -43q0 -31 -25.5 -50.5t-51.5 -19.5zM141 -14q-42 0 -70 19.5t-42 50.5t-14 67q0 24 6 46q3 20 14 20q3 0 3 -4t-2.5 -10.5t-1.5 -8.5q3 -72 34 -105.5t76 -33.5
q64 0 135 57q26 21 52.5 50.5t52.5 63.5q-12 -2 -23.5 -5t-22.5 -6q-14 -4 -26 -7t-21 -4q-4 -1 -8 -1h-7q-11 0 -12 4t2 8q6 8 17.5 15.5t21.5 8.5q21 3 47 7.5t54 8.5q38 52 74 105t66 94q11 14 20.5 26t19.5 24q13 16 36 20q5 6 20 20.5t27 19.5q4 2 5 2q5 0 5.5 -4.5
t-1.5 -6.5q-9 -7 -19 -20.5t-16 -26.5q-27 -59 -50 -121t-43 -125q22 -1 33.5 -11.5t11.5 -21.5q0 -14 -8.5 -15.5t-4.5 6.5q2 3 2 8q0 8 -11 13t-28 6q-7 -22 -15.5 -56t-13.5 -65q-1 -9 -1.5 -16.5t-0.5 -13.5q0 -23 7 -33t18 -10q14 0 31.5 11.5t34.5 27.5t28 30
q2 2 11 14t20 25.5t17 21.5q1 2 5.5 0.5t2.5 -3.5q-24 -34 -51 -67q-13 -15 -34.5 -38t-46.5 -40.5t-49 -17.5q-3 0 -6 0.5t-6 1.5q-16 4 -23 20t-7 38q0 11 2 24t5 26q7 27 18 58.5t23 61.5q-3 0 -5.5 -0.5t-5.5 -0.5q-25 -2 -50 -6.5t-40 -7.5q-38 -55 -81 -105
t-90.5 -81.5t-100.5 -31.5zM431 231q25 2 47.5 3t42.5 1q8 18 14.5 33.5t10.5 27.5q17 44 31 82t14 45q0 3 -12 1t-29 -22q-27 -32 -57 -77.5t-62 -93.5z" />
    <glyph glyph-name="B" unicode="B" horiz-adv-x="554" 
d="M73 -30q-23 0 -33.5 9t-10.5 21q0 7 2 11q9 21 40 28q3 1 6.5 1h7.5q24 0 61.5 -7t75 -14.5t60.5 -9.5q5 0 10.5 -0.5t9.5 -0.5q67 0 110 23t64 58t21 69q0 40 -34 70t-117 30h-21t-23 -2l-61 -149q-10 -26 -23.5 -29.5t-23.5 -10.5q-17 -11 -22.5 -8t1.5 6q8 3 23.5 21
t34.5 61l45 105q-23 -3 -23 2q0 7 14 19q5 5 10.5 6.5t11.5 2.5l62 144q1 3 6 14t10 23t6 17q-10 1 -21.5 1.5t-22.5 0.5q-42 0 -83.5 -6t-73.5 -15.5t-47 -20.5q-51 -39 -51 -87q0 -27 19 -62q14 -24 31 -44t37 -40q3 -3 0 -6t-5 0q-22 23 -46.5 44.5t-41 47.5t-16.5 62
q0 60 33 93.5t88 49.5q21 6 58.5 10.5t80.5 4.5q33 0 64 -3q2 9 5 18t12 17q13 7 32.5 20.5t40.5 33.5q2 2 2.5 -1t-0.5 -5q-1 -8 -7.5 -21.5t-12.5 -19.5q-12 -10 -20 -22t-15 -25q55 -10 94 -33.5t39 -67.5q0 -39 -34 -75.5t-92 -49.5q-14 -3 -14 -6q0 -2 12 -4
q69 -9 101 -42t32 -74q0 -38 -28 -75.5t-84 -62t-142 -24.5q-24 0 -54.5 1.5t-57.5 4t-43 5.5q-16 4 -28.5 5t-21.5 1q-37 0 -37 -15q0 -5 7 -9.5t17 -4.5q9 0 18 3q1 0 1.5 0.5t1.5 0.5q3 0 3 -3q0 -6 -6 -8q-7 -1 -13 -1.5t-11 -0.5zM329 281q55 0 92.5 18t56.5 45.5
t19 53.5q0 34 -28 52.5t-70 25.5q-11 -21 -21.5 -42.5t-19.5 -43.5l-45 -108q4 -1 8 -1h8z" />
    <glyph glyph-name="C" unicode="C" horiz-adv-x="421" 
d="M220 -39q-49 0 -89 18.5t-64 55.5t-24 93q0 37 12 82q17 59 50.5 112.5t81 95.5t104.5 66t120 24q8 0 15.5 -0.5t15.5 -1.5q15 -1 27 -4.5t18 -10.5q8 10 12 21t11 16q8 7 17 7q15 0 15 -12q0 -4 -3 -9q-33 -41 -53.5 -80t-37.5 -86q-3 -8 -10 -8q-4 0 -7 3.5t0 9.5
l27 63q9 21 9 34q0 23 -22 31q-24 10 -52 10q-40 0 -78 -20t-72 -53.5t-61.5 -73.5t-47 -79.5t-28.5 -72.5q-13 -43 -13 -81q0 -64 36.5 -94.5t92.5 -30.5q60 0 132 32q47 21 77.5 51t66.5 74q3 4 8 4q7 0 2 -8q-37 -51 -71 -87t-79 -58q-69 -33 -138 -33z" />
    <glyph glyph-name="D" unicode="D" horiz-adv-x="564" 
d="M8 -14q-7 0 -1 10q3 5 15 21t37 16q8 0 16.5 -1t18.5 -1q19 0 25 4.5t16 16.5q2 3 12.5 26t26.5 60t35 81t37.5 88t35 82.5t26.5 63.5q-14 5 -38 11t-51.5 10.5t-52.5 4.5q-13 0 -24.5 -1.5t-19.5 -5.5q-67 -31 -67 -91q0 -22 9 -48t22 -49.5t29 -47.5q2 -4 -1 -6t-5 2
q-16 24 -34 47.5t-30.5 49t-12.5 54.5q0 5 0.5 10.5t1.5 11.5q11 59 49.5 84t96.5 28q19 1 46.5 -3t54.5 -10t43 -12q20 44 48.5 69.5t71.5 25.5q7 0 15 -3t11 -9q1 -1 1 -3q0 -4 -4.5 -5t-6.5 3q0 1 -4.5 3t-11.5 2q-25 0 -43 -14.5t-29.5 -36t-19.5 -42.5q44 -15 87 -41.5
t79 -62t57.5 -79t21.5 -93.5q0 -44 -26 -82.5t-72.5 -67.5t-107.5 -45.5t-131 -17.5q-54 -1 -108 2.5t-105 4.5q-27 0 -37 -13q-1 -1 -2 -1zM269 11q84 1 148 25.5t100.5 66t36.5 94.5q0 40 -19.5 79.5t-51.5 74t-70 59.5t-75 35q-43 -102 -73.5 -172t-50 -115t-31.5 -71.5
t-19 -40.5t-12 -22q8 -1 27.5 -4.5t43.5 -6t46 -2.5z" />
    <glyph glyph-name="E" unicode="E" horiz-adv-x="450" 
d="M265 -24q-26 0 -51 5.5t-48 18.5q-21 12 -32 35t-11 42q0 29 14.5 71.5t36.5 90.5q-12 -3 -22.5 -5.5t-18.5 -3.5q-2 0 -4.5 -0.5t-4.5 -0.5q-14 0 -14 8q0 3 2 6.5t3 5.5q5 8 17 15t22 8q8 1 18 3t20 3q27 56 53.5 108.5t39.5 88.5l-122 -4q-55 -1 -81.5 -17.5
t-26.5 -57.5q0 -23 8.5 -47t15.5 -44q0 -1 0.5 -1.5t0.5 -1.5q0 -8 -6 -8t-13 19q-4 14 -10 36t-9 37q-2 9 -3 18t-1 16q0 39 21.5 59t55.5 27t70 7q26 0 50.5 -2t43.5 -4t19.5 6t6.5 20q3 13 14 13q6 0 11.5 -5.5t5.5 -16.5q0 -10 -4 -19l192 -1l6 -2q2 -7 1 -11
q0 -3 -17 -13.5t-40 -27.5t-42 -41q-8 -8 -15 -8q-2 0 -2 2q0 5 7 13q1 2 7 9t15 19q5 7 7.5 11t2.5 7q0 8 -36 8q-16 0 -30.5 1t-29.5 1h-15t-16 -2q-4 -1 -7 -2.5t-7 -7.5q-13 -17 -37 -67t-48 -108l29 5q29 5 57 7t53 2h18t17 -1q22 -1 31.5 -11.5t9.5 -21.5q0 -7 -3 -13
t-8 -5.5t-1 6.5q3 6 3 10q0 9 -11.5 12.5t-29.5 3.5q-25 0 -58 -5t-59.5 -10.5t-34.5 -7.5l-27 -6q-19 -49 -31 -90.5t-12 -60.5q0 -30 21.5 -49t54.5 -28.5t67 -9.5q47 0 94.5 18.5t77.5 55.5q3 5 6 5q1 0 1 -3q0 -2 -2 -7t-7 -11q-9 -10 -19 -19t-21 -17
q-37 -26 -84.5 -42t-94.5 -16z" />
    <glyph glyph-name="F" unicode="F" horiz-adv-x="421" 
d="M170 -21q-35 0 -58.5 21t-37 53t-19.5 66.5t-6 62.5q0 6 6 6q4 0 6 -6q2 -11 2.5 -22.5t1.5 -22.5q8 -43 32 -75.5t73 -32.5q39 0 65 29t42 61t31 67.5t28 71.5l-11 -2q-15 -3 -37.5 -9t-44 -11.5t-35.5 -5.5q-4 0 -9 1.5t-5 6.5q0 12 17 22.5t27 11.5q28 5 55 9.5
t55 8.5q27 79 50 153l6 23l-41 3q-23 2 -47 3t-48 1t-52.5 -4t-49.5 -19t-21 -47q0 -27 11 -52t11 -52q0 -31 -23 -49.5t-53 -18.5q-4 0 -14 2t-19 6t-9 9q0 3 3 3q4 0 8 -4t14 -4q29 0 48.5 25.5t19.5 52.5q0 25 -10 50t-10 56q0 50 31 66.5t74 16.5q25 0 50 -3l50 -6
q20 -3 41 -5.5t42 -4.5q4 14 7.5 25t4.5 13q10 12 26 12q8 0 10.5 -5t2.5 -12q-1 -18 -8 -36q29 -2 59 -3t59 -1q10 0 28.5 0.5t36 3.5t25.5 9q4 2 5 2q5 0 5 -7q0 -10 -20.5 -16t-48 -9t-51 -3.5t-30.5 -0.5h-38.5t-39.5 1q-7 -13 -14.5 -26t-13.5 -28l-45 -117q47 6 93 6
q12 0 27 -1.5t26.5 -8.5t11.5 -23q0 -5 -3 -12t-8 -7q-3 0 -3 3q0 2 2 5.5t2 7.5q0 12 -16 14t-24 2q-30 0 -60 -5t-60 -11q-8 -22 -17 -44l-18 -44q-9 -23 -22.5 -56t-30 -63.5t-34.5 -47.5q-29 -29 -66 -29z" />
    <glyph glyph-name="G" unicode="G" horiz-adv-x="561" 
d="M198 -278q-37 0 -65.5 20.5t-28.5 69.5q0 32 12.5 62.5t29 54t29.5 34.5q4 3 6 0t0 -5q-12 -16 -24 -41t-20 -53t-8 -53q0 -5 0.5 -9.5t1.5 -9.5q5 -31 21 -44t37 -13q22 0 45.5 12t41.5 28q28 26 59 73.5t59.5 104.5t50.5 112.5t31 98.5q-19 -25 -51 -50.5t-62.5 -45.5
t-46.5 -28q-46 -23 -85 -33.5t-71 -10.5q-63 0 -97.5 35t-34.5 90q0 44 23 96.5t72 106.5q45 50 103.5 91.5t126 66.5t139.5 25q37 0 52 -16q8 10 12 21t11 16q8 7 17 7q15 0 15 -11q0 -5 -4 -10q-32 -41 -52.5 -80t-37.5 -86q-3 -8 -10 -8q-4 0 -7 3.5t0 9.5q4 9 11 26.5
t16 36.5q9 21 9 34q0 23 -19 30t-46 7q-62 0 -119.5 -27.5t-105 -70.5t-80.5 -88q-34 -48 -49.5 -89t-15.5 -73q0 -52 33 -80.5t85 -28.5q48 0 105 26q15 7 40 23.5t51.5 37.5t46.5 44t24 43q-11 4 -35 4q-38 0 -78 -8q-11 -2 -15 -6.5t-4 -9.5t3 -10t5 -8v-1q0 -3 -2 -6.5
t-4 -0.5q-7 5 -17.5 18.5t-16.5 23.5q-5 8 -5 14q0 15 21 15q6 0 21.5 -0.5t35.5 -0.5q30 0 66.5 0.5t69.5 1t54.5 1l21.5 0.5q4 -1 3.5 -5t-2.5 -7q-11 0 -24.5 -0.5t-28 -12t-29.5 -45.5q-22 -50 -42.5 -110t-45 -119.5t-59.5 -109t-86 -78.5q-17 -10 -39 -16t-44 -6z" />
    <glyph glyph-name="H" unicode="H" horiz-adv-x="597" 
d="M514 -11q-23 0 -32.5 13.5t-9.5 35.5q0 16 4 35t10 39q10 34 23 64t27 59q-54 -4 -108 -13t-107 -20l-23 -5q-8 -20 -17.5 -39.5t-17.5 -37.5q-13 -26 -32 -55t-43.5 -49t-54.5 -20q-36 0 -60 25t-36 63.5t-12 77.5v10t1 9q2 5 6.5 8t3.5 -5q1 -27 9.5 -58t28.5 -52.5
t53 -21.5q21 0 41 8.5t39 29.5q36 43 65 103q-4 -1 -8.5 -1.5t-8.5 -0.5t-7 -0.5t-5 -0.5q-19 0 -19 9q0 5 6 11q8 8 24 15t30 8q5 0 7 1q22 48 38 91.5t25 67.5q10 26 14.5 39.5t5.5 15.5v5q0 30 7.5 43t20.5 23l-6 -2q-36 -12 -75.5 -24t-73.5 -23t-57 -19
q-69 -25 -69 -84q0 -24 11.5 -47t23 -45.5t11.5 -45.5q0 -31 -20.5 -49t-42.5 -18q-12 0 -21 6q-4 3 -2 6.5t6 0.5q2 -2 8 -2q14 0 28 21t14 52q0 26 -9 46.5t-18.5 42.5t-9.5 52q0 33 16 52.5t40.5 30.5t51.5 16.5t49 9.5q14 2 36.5 7.5t47 13t45 16t29.5 16.5q5 3 7 3
q5 0 5 -6q0 -4 -5 -12q1 0 3 2q7 6 14 12.5t14 15.5q4 2 5 2q6 0 3.5 -10t-8 -21.5t-10.5 -15.5q-7 -7 -15 -18.5t-21 -41.5q-9 -19 -19 -45t-24 -58l-49 -120q58 7 116 14.5t116 8.5l17 37q20 44 33.5 75t13.5 38q-2 0 -6 2t-4 8q0 5 9 23.5t20 39t16 29.5q6 6 24 13t30 12
q4 2 6 2q5 0 5 -4.5t-2 -6.5q-9 -7 -19.5 -20.5t-17.5 -26.5q-28 -53 -52.5 -109t-45.5 -112q7 0 14 -0.5t15 -0.5q31 -1 45 -11.5t14 -21.5q0 -6 -5 -13q-4 -6 -10.5 -5.5t-2.5 6.5q4 5 4 10q0 9 -15 12.5t-38 3.5h-14t-15 -1l-6 -18q-7 -20 -16.5 -50.5t-17 -61
t-7.5 -53.5q0 -15 4.5 -24.5t14.5 -9.5q12 0 30 11t38 28t35 34q2 2 13.5 15t25 28.5t19.5 23.5q1 1 2 -1q2 -4 -1 -8l-53 -64q-7 -9 -22.5 -25.5t-34.5 -33.5t-39 -28.5t-37 -11.5z" />
    <glyph glyph-name="I" unicode="I" horiz-adv-x="322" 
d="M131 -37q-31 0 -53 17.5t-36 45.5t-21 58.5t-7 55.5q0 4 1 10.5t6 6.5q2 0 2 -3q0 -8 2 -17.5t4 -18.5q5 -23 16.5 -46t30.5 -38t46 -15q24 0 43 10t34 28q32 39 56.5 95.5t44.5 116.5t35 108q1 3 5 15.5l8 25t4 14.5q1 18 2 34.5t15 29.5q-36 -12 -72.5 -23.5
t-71.5 -25.5q-22 -9 -39 -25t-17 -42q0 -20 9.5 -39l18.5 -37t9 -38t-14.5 -37t-35.5 -17q-4 0 -12 2t-8 6q0 3 3 3q1 0 3 -1.5t5 -1.5q12 0 19.5 11.5t11.5 25.5t4 23q0 23 -10.5 43.5t-21 40.5t-10.5 41q0 27 20 43t52 25.5t67 15.5t66.5 12.5t49.5 17.5q7 4 19 17.5
t16 13.5q3 0 3 -6q0 -8 -5 -21.5t-11 -19.5q-12 -13 -19 -28t-14 -32q-10 -25 -19 -51l-18 -52q-23 -63 -44.5 -126.5t-48.5 -125.5q-10 -24 -27.5 -53t-41.5 -50.5t-54 -21.5z" />
    <glyph glyph-name="J" unicode="J" horiz-adv-x="409" 
d="M122 -155q-44 0 -78.5 28t-34.5 87q0 56 21.5 99t47.5 74q17 19 36 30.5t26 15.5q7 3 5.5 -3.5t-5.5 -15.5t-6 -14q-2 -4 -8.5 -8t-11.5 -4q-8 0 -9 8q-34 -32 -46.5 -69.5t-12.5 -72.5q0 -57 26.5 -83t63.5 -26q36 0 75 20.5t68 57.5q31 39 61 97.5t56.5 125t48 131
t35.5 115.5q3 8 3 13q0 26 4.5 38.5t14.5 22.5l-143 -49q-56 -19 -56 -69q0 -23 14.5 -48t20.5 -46q2 -4 2 -8.5v-8.5q0 -25 -16.5 -40t-34.5 -15q-9 0 -17 5q-4 2 -2.5 4.5t5.5 0.5q11 -7 25.5 11t14.5 46q0 12 -3 24t-12 30.5t-14 28.5q-7 13 -9.5 23.5t-2.5 19.5
q0 23 15 38t38 24t47 13.5t42 7.5q13 2 33.5 6t42.5 10.5t37 13.5l2 2q7 7 13.5 13t14.5 15q8 5 8 -4q0 -8 -5.5 -22.5t-10.5 -18.5q-7 -7 -14.5 -18.5t-18.5 -41.5q-21 -54 -44.5 -123.5t-51 -142.5t-62 -140t-77.5 -118t-97 -76q-31 -14 -64 -14z" />
    <glyph glyph-name="K" unicode="K" horiz-adv-x="644" 
d="M590 -44q-18 0 -37 10q-27 15 -54.5 45t-52.5 66.5t-45 70t-33 56t-17 23.5q-12 -10 -31 -27.5t-45 -46.5l-26 -63q-11 -27 -28.5 -55.5t-41 -48.5t-52.5 -20q-13 0 -27 5t-29 16q-23 17 -37 48t-20 63.5t-5 52.5q2 5 6.5 8t3.5 -5q3 -27 13 -57.5t31 -52.5t54 -22
q21 0 41 8t37 30q24 30 46 74.5t39.5 92.5t30.5 89t20 63l17 56v5q0 25 4 37t13 22q-40 -13 -80.5 -27t-63.5 -23q-56 -19 -56 -68q0 -24 14.5 -48.5t20.5 -45.5q2 -4 2 -8.5v-9.5q0 -25 -16.5 -40t-34.5 -15q-9 0 -17 5q-4 2 -2.5 4.5t5.5 0.5q11 -6 25.5 11.5t14.5 45.5
q0 12 -3 24t-12 30.5t-14 29.5q-7 13 -9.5 23.5t-2.5 19.5q0 23 15 38t38 24t47 13.5t42 7.5q12 2 32.5 6t42 10t36.5 12l2 2l2 2q12 10 28 27q8 5 8 -4q0 -8 -5.5 -22t-10.5 -19q-7 -6 -14.5 -17.5t-18.5 -41.5l-38 -103q-9 -25 -23.5 -68.5t-31.5 -89.5q53 60 113.5 123
t119.5 119t105 93q21 17 50 34.5t61 29.5t61 12q24 0 45.5 -10.5t35.5 -36.5v-4q0 -6 -4 -6t-8 7q-10 18 -24 25.5t-31 7.5q-19 0 -39.5 -8t-37.5 -19q-35 -22 -79.5 -56.5t-89.5 -73.5t-85 -75t-67.5 -62.5t-35.5 -34.5q7 -13 23.5 -38.5t35 -52t30.5 -43.5
q12 -16 29.5 -39.5t39 -46.5t44.5 -36q6 -3 12 -5t12 -2q11 0 18 6.5t7 22.5q0 21 -10 46t-21 44q-2 4 -2 5q0 3 2 3q5 0 8 -6q9 -13 17 -30.5t13 -32.5q7 -17 7 -34q0 -24 -14.5 -39.5t-37.5 -15.5z" />
    <glyph glyph-name="L" unicode="L" horiz-adv-x="602" 
d="M477 -67q-69 0 -139 28.5t-136 62.5q-7 -13 -12 -24.5t-10 -19.5q-27 -46 -63 -46q-33 0 -61 38q-16 23 -26 52t-10 54q0 23 8.5 38t27.5 15q20 0 57 -19t85 -46q36 89 68 180t71 179q12 27 32 54.5t46 46t55 18.5q22 0 46 -15q24 -16 37.5 -47.5t19 -64t4.5 -52.5
q-1 -4 -6 -7.5t-4 3.5q-2 28 -12.5 58.5t-31 52.5t-54.5 22q-25 0 -50 -22.5t-48 -59.5q-23 -39 -46 -89.5t-43 -102t-37 -95t-28 -68.5q45 -24 95.5 -48t101.5 -40t98 -16q30 1 50 18t15 51q-3 14 -11.5 23t-7.5 13q2 5 5.5 4t6.5 -3q33 -24 33 -52q0 -26 -26.5 -46.5
t-64.5 -25.5q-9 -1 -17.5 -1.5t-17.5 -0.5zM116 -53q13 0 26 12t23 31q8 14 20 43q-18 9 -34.5 18t-33.5 16q-22 11 -35 11q-17 0 -17 -23q0 -4 0.5 -9.5t1.5 -12.5q6 -46 19.5 -66t29.5 -20z" />
    <glyph glyph-name="M" unicode="M" horiz-adv-x="724" 
d="M133 -22q-28 0 -56 21q-24 18 -38.5 50.5t-20.5 65.5t-5 54q2 5 7 8.5t3 -4.5q3 -28 13.5 -60t32.5 -54.5t56 -22.5q22 0 42.5 8.5t38.5 30.5q25 30 46 74.5t37.5 89t26.5 74.5q9 27 13 41t5 17v5q0 28 4.5 41t15.5 22t28 23q13 11 28 28q8 5 8 -3q0 -9 -5.5 -23.5
t-10.5 -19.5q-7 -6 -13.5 -15t-14.5 -29q3 -38 20.5 -85.5t39 -93.5t35.5 -81q28 35 64 77.5t73 85.5t66.5 78.5t43.5 55.5l4 16t9 26q4 11 11 21.5t20 12.5q6 7 21 21.5t28 20.5q4 2 6 2q5 0 5 -4.5t-2 -6.5q-9 -7 -19.5 -21t-16.5 -28q-29 -64 -54.5 -132.5t-46.5 -136.5
q-6 -20 -14 -50t-14 -60.5t-6 -54.5q0 -19 5 -30.5t17 -11.5q6 0 16 5q41 20 75 59.5t62 75.5q0 1 0.5 0.5t0.5 -1.5q2 -5 0 -8q-26 -35 -55.5 -71.5t-64.5 -62.5q-39 -29 -64 -29q-19 0 -28.5 17t-9.5 45q0 30 9 64q14 53 36 105.5t45 122.5q15 44 19 62q-19 -28 -49.5 -67
t-64.5 -80t-63.5 -78.5t-46.5 -62.5q7 -20 7 -36q0 -9 -2 -17.5t-5 -16.5q-9 -23 -21 -34.5t-23 -11.5q-19 0 -19 29q0 14 6 33.5t19 44.5q-17 53 -48 108.5t-51 116.5l-20 -58q-10 -27 -23 -60.5t-25 -63t-19 -45.5q-10 -23 -28.5 -53t-43.5 -52.5t-57 -22.5zM85 156
q-12 0 -24 5q-4 1 -4 5q0 2 2.5 3t5.5 -1q6 -2 10 -2q13 0 28 10.5t25.5 28t10.5 39.5q0 6 -1 13t-4 14q-5 15 -14 29t-16 28q-16 33 -16 60q0 33 21 52.5t54 30t69 15.5t66 9q43 6 84.5 12t73 15t43.5 22q2 2 4 2q3 0 3.5 -3t-2.5 -6q-14 -15 -48.5 -27t-78.5 -22t-89 -19
t-81 -19q-94 -25 -94 -86q0 -20 9 -38.5t20.5 -35.5t17.5 -35q5 -15 5 -26q0 -33 -26 -53t-54 -20z" />
    <glyph glyph-name="N" unicode="N" horiz-adv-x="665" 
d="M555 -43q-9 0 -16.5 11t-9.5 26q-1 8 -1.5 16.5t-0.5 17.5q0 13 1.5 27t5.5 30q-27 40 -54.5 83.5t-57.5 82.5t-65 67q-4 3 -6.5 0l-2.5 -3q-6 -15 -17.5 -45.5t-28 -69t-35.5 -78t-40.5 -73.5t-42.5 -56q-30 -30 -68 -30q-24 0 -46.5 14t-38.5 39q-15 25 -21.5 55
t-8.5 52q1 8 8 6q5 -24 11 -43t22 -37q32 -36 74 -36q35 0 67 26q26 21 45.5 53t35.5 63q8 18 20.5 48t23.5 60.5t16 48.5q2 4 2 7.5v7.5q0 18 -9 30q-20 22 -45.5 47t-54.5 45.5t-60 26.5q-4 1 -9 1.5t-10 0.5q-26 0 -44.5 -19.5t-18.5 -66.5q0 -19 8.5 -39t19 -39.5
t15.5 -36.5q3 -12 3 -22q0 -31 -20.5 -49t-41.5 -18q-13 0 -22 6q-4 3 -2 6t6 0q9 -5 21 3t20.5 26.5t8.5 42.5q0 15 -4 28q-4 14 -11 27.5t-12 27.5q-10 29 -10 56q0 47 29.5 75t73.5 28q33 0 69 -21t68.5 -49.5t54.5 -49.5q3 10 3.5 14t2 10t6 21.5t14.5 48.5q4 16 15 16
q5 0 8.5 -5.5t1.5 -16.5q-4 -16 -11.5 -43t-20.5 -61q59 -62 96.5 -115.5t56.5 -87t22 -37.5q3 15 12.5 51t22 83t27 95.5t27.5 88.5v2q0 4 -3 9t-2 8q7 23 17.5 40.5t19.5 34.5q5 7 13 7q15 0 18 -13q-10 -19 -26 -60t-33.5 -93.5t-33.5 -106t-27 -98.5t-13 -69
q8 -16 15.5 -41t7.5 -52q0 -26 -8 -46.5t-22 -20.5z" />
    <glyph glyph-name="O" unicode="O" horiz-adv-x="469" 
d="M216 -18q-70 0 -100.5 35t-30.5 89q0 50 21 107q-22 17 -37.5 36t-17.5 40q-1 5 -1 10.5v9.5q0 46 28 80t72 57t92.5 35.5t89.5 15.5q12 8 34 18.5t47 18.5t44 8q17 0 26.5 -7.5t7.5 -25.5q-1 -6 -6 -7t-5 5q0 19 -17 19q-13 0 -30.5 -8.5t-33.5 -18.5
q72 -10 104.5 -57.5t32.5 -107.5q0 -67 -34 -129q-21 -39 -50 -78.5t-65 -72.5t-79 -52.5t-92 -19.5zM213 -3q42 0 82.5 22.5t76.5 58t64 75t44 73.5t23 65t7 59q0 56 -27.5 91.5t-77.5 35.5q-10 0 -22 -1.5t-24 -5.5q-34 -21 -84 -71t-94 -133q-9 -17 -16.5 -33t-12.5 -32
q23 -16 45 -27t38 -20q2 -2 2 -4q0 -3 -2 -5.5t-4 -1.5q-14 6 -37 17t-48 26q-15 -48 -15 -87q0 -47 21 -74.5t61 -27.5zM114 232l8 19q27 64 67.5 116.5t86.5 90.5q-32 -7 -67.5 -20t-67 -30.5t-51.5 -40.5t-20 -51q0 -33 37 -76z" />
    <glyph glyph-name="P" unicode="P" horiz-adv-x="455" 
d="M137 -16q-13 0 -27 5t-29 16q-24 17 -37.5 48.5t-19 63.5t-4.5 52q1 5 5.5 8t3.5 -4q3 -27 12.5 -59.5t29.5 -56t53 -23.5q21 0 40.5 8.5t37.5 30.5q23 28 43 67.5t36 81.5q-13 12 -19 27q-1 2 -1 6q0 3 2 3q3 0 9 -7q5 -7 15 -14q17 44 29.5 83t19.5 61q3 9 10 29.5
t7 30.5q0 26 4 38q-31 1 -59.5 -1t-48.5 -5q-43 -6 -82 -23.5t-64 -44t-25 -60.5q0 -21 12 -44.5t40 -49.5l22 -18t19 -18q2 -2 -0.5 -4t-5.5 -1q-10 5 -28.5 17.5t-38.5 31.5t-34 44.5t-14 58.5q0 42 28 69.5t72.5 43t94.5 22t95 6.5q8 0 16 -0.5t15 -0.5q5 5 12 10.5
t16 12.5q13 10 27 27q9 6 9 -4q0 -9 -6 -23t-11 -18l-8 -8l16 -2t15 -3q81 -13 116.5 -48t35.5 -76q0 -35 -22.5 -70t-61.5 -61.5t-90 -36.5q-10 -1 -21.5 -2.5t-24.5 -1.5q-19 0 -38 3t-35 10q-10 -27 -20 -53.5t-21 -49.5q-11 -26 -28.5 -55t-41 -49t-52.5 -20zM369 217
q11 0 21 1.5t20 2.5q38 7 69.5 29.5t50.5 54t19 63.5q0 35 -27 64t-91 40q-8 2 -16.5 3t-17.5 2q-2 -6 -5.5 -13.5t-6.5 -16.5q-7 -19 -16.5 -44.5t-20.5 -58.5l-42 -117q14 -5 30.5 -7.5t32.5 -2.5z" />
    <glyph glyph-name="Q" unicode="Q" horiz-adv-x="469" 
d="M219 -19q-70 0 -101 34.5t-31 88.5q0 33 10 70.5t27 77.5q29 64 69 117t87 91q-8 -1 -16.5 -3.5t-16.5 -4.5q-13 -4 -23 -4q-12 0 -12 7q0 8 11 17t24 13q46 12 89 15q13 8 35 18t46.5 18t43.5 8q17 0 26.5 -7t7.5 -26q-1 -6 -6 -6.5t-5 4.5q0 20 -17 20q-13 0 -30.5 -9
t-33.5 -19q72 -10 104.5 -57.5t32.5 -108.5q0 -67 -34 -129q-21 -40 -50 -79.5t-65.5 -72.5t-79.5 -53t-92 -20zM213 -3q42 0 82.5 22.5t76.5 58t64 75t44 73.5q30 66 30 123t-27.5 93t-77.5 36q-20 0 -46 -8q-34 -21 -84 -71t-94 -133q-25 -48 -37.5 -90.5t-12.5 -76.5
q0 -47 21 -74.5t61 -27.5zM509 -313q-51 0 -98 21t-91 54.5t-86.5 72t-84.5 73.5q-29 24 -56 24q-17 0 -25 -14q-3 -6 -6 -18t-2 -24v-2q0 -11 -7 -11q-5 0 -5 13q1 29 9 55.5t22.5 42.5t34.5 11q19 -4 48.5 -29.5t66.5 -61.5t80 -74t91 -68.5t98 -44.5q12 -4 26 -4
q32 0 51 19.5t19 45.5q0 18 -8 33q0 1 -0.5 1.5l-0.5 0.5q0 4 4.5 3.5t6.5 -2.5q20 -28 20 -52q0 -25 -18.5 -39.5t-43.5 -20t-45 -5.5z" />
    <glyph glyph-name="R" unicode="R" horiz-adv-x="579" 
d="M135 -13q-13 0 -27 5t-29 16q-23 18 -37 49t-19.5 63.5t-4.5 52.5q1 5 6 8t3 -5q3 -27 12.5 -59.5t30 -55.5t53.5 -23q21 0 40.5 8.5t36.5 29.5q26 31 48 76.5t39 91.5l-7 9q-12 17 -32 12q-4 -1 4.5 6t19.5 15.5t13 9.5q6 0 16 -12q11 32 19.5 58t13.5 42l10 30t7 31
q0 25 4 37q-31 1 -59.5 -1t-48.5 -5q-43 -6 -82 -23.5t-63.5 -43.5t-24.5 -60q0 -21 12 -44.5t40 -49.5q11 -10 21.5 -19t18.5 -17q2 -2 -0.5 -4.5t-4.5 -1.5q-10 6 -29 18t-38.5 31.5t-33.5 45t-14 58.5q0 42 27.5 69t71 42.5t93.5 22t94 6.5h17.5t16.5 -1l28 23
q7 6 13.5 12t13.5 15q9 6 9 -4q0 -8 -5.5 -22t-10.5 -19l-9 -8l31 -4q82 -10 117 -46t35 -77q0 -34 -17 -64.5t-44.5 -53t-60.5 -35.5t-65 -13q-13 0 -26.5 2.5t-24.5 8.5q26 -34 55.5 -73t57.5 -70.5t50 -44.5q14 -7 25 -7q10 0 17 6.5t7 22.5q0 21 -10 45.5t-21 44.5
q-2 4 -2 5q0 3 2 3q5 0 8 -6q9 -13 17 -30.5t13 -32.5q7 -17 7 -34q0 -24 -14.5 -39.5t-37.5 -15.5q-18 0 -37 10q-32 17 -63.5 54.5t-62 82.5t-61.5 84q-21 -59 -45 -113q-11 -26 -28.5 -55.5t-41 -49.5t-53.5 -20zM402 221q37 0 70.5 23t54.5 58t21 70q-1 35 -28 64
t-91 40q-8 2 -16.5 2.5t-17.5 1.5l-12 -29q-8 -20 -16.5 -45.5t-20.5 -57.5q-6 -16 -13 -37t-16 -45l15 -19l4 -2q16 -13 32.5 -18.5t33.5 -5.5z" />
    <glyph glyph-name="S" unicode="S" horiz-adv-x="337" 
d="M116 -27q-43 0 -68.5 17.5t-33.5 37.5q-4 9 -4 21q0 16 8 27.5t19 15.5h2q4 0 3.5 -4.5t-2.5 -6.5q-8 -12 -8 -26q0 -8 3 -16q11 -22 34.5 -31.5t52.5 -9.5q38 0 76.5 14t64.5 38.5t26 54.5q0 23 -16.5 41.5t-63.5 43.5q-34 19 -65 34.5t-50 36.5t-19 57q0 8 1 16t3 17
q8 33 40.5 68t79 61t94.5 32q23 3 41 3q50 0 80 -16t44 -39.5t14 -48.5q0 -29 -17 -51q-7 -9 -12 -9q-7 0 -2 12q12 26 12 45q0 27 -18 42.5t-46.5 22t-59.5 6.5q-24 0 -45 -3q-55 -7 -94.5 -29t-61 -49.5t-21.5 -53.5q0 -29 19.5 -48.5t48.5 -34t60 -28.5t54 -33
q19 -16 27.5 -35.5t8.5 -39.5q0 -55 -45 -92q-18 -15 -46 -29t-59 -22.5t-59 -8.5z" />
    <glyph glyph-name="T" unicode="T" horiz-adv-x="379" 
d="M170 -29q-32 0 -55 18.5t-37.5 48.5t-21.5 65.5t-7 70.5q0 6 6 6t6 -6q1 -15 4 -40.5t13.5 -51.5t32.5 -43.5t59 -17.5q39 0 64.5 29t40.5 61q32 71 57 150.5t47 153.5l6 20q1 5 2.5 11t2.5 12q-52 8 -104 15t-95 7q-81 0 -114.5 -28.5t-33.5 -72.5q0 -34 16 -72t41 -76
q1 -1 1 -2q0 -2 -3 -3.5t-5 0.5q-19 30 -37.5 54.5t-30.5 50.5t-12 58q0 44 24.5 72t65.5 41.5t92 13.5q52 0 106.5 -8t95.5 -16q2 9 4.5 17t4.5 12q5 5 12 9t13 4q14 0 14 -18q0 -19 -4 -32q1 -1 4 -1q38 -7 77.5 -15.5t79.5 -8.5h1q5 0 10 3.5t5 9.5q0 7 -9 14q-4 4 -4 8
t7 1q20 -9 20 -28q0 -16 -15.5 -29t-42.5 -10q-28 3 -66 9.5t-81 13.5q-7 -13 -13 -24t-11 -25q-22 -63 -35 -100.5t-21 -59.5t-14 -38t-14 -37q-16 -46 -35.5 -91.5t-46.5 -75t-67 -29.5z" />
    <glyph glyph-name="U" unicode="U" horiz-adv-x="554" 
d="M67 145q-13 0 -22 6q-4 2 -2 5.5t6 0.5q9 -5 21 3t20.5 26.5t8.5 41.5q0 15 -4 28q-4 15 -10.5 28.5t-11.5 27.5q-6 17 -8.5 31t-2.5 27q0 32 16 52t40.5 30.5t51.5 16t49 9.5q14 2 36.5 7.5t47 13t45 16t29.5 16.5q5 3 7 3q5 0 5 -6t-7 -14.5t-24 -14.5
q-36 -12 -75.5 -24t-73.5 -22.5t-57 -19.5q-69 -24 -69 -84q0 -19 8.5 -39.5t19 -39.5t15.5 -36q3 -12 3 -22q0 -31 -20.5 -49t-41.5 -18zM241 -12q-43 0 -59 26.5t-16 61.5q0 26 6 52t13 45q26 72 55 142t55 139q2 6 10 9t17 3t16 -3.5t7 -11.5q0 -9 -11 -20q-6 -6 -10 -12
t-8 -13q-7 -13 -26.5 -50t-40 -89t-32.5 -112q-6 -27 -6 -49q0 -36 14 -54t38 -18t56.5 20t67.5 61q17 21 37.5 54.5t40.5 72.5t37 76t27 64q2 4 3 7.5t2 6.5q5 15 8 29t10 36q3 11 6.5 23t23.5 12q6 6 25 17t32 15q2 1 4 1q6 0 5.5 -5t-2.5 -6q-13 -3 -24.5 -14t-17.5 -24
q-57 -124 -98 -260q-11 -38 -20 -79.5t-9 -71.5q0 -22 5.5 -35.5t18.5 -13.5q14 0 37 17t56 57l55 67q0 1 0.5 0.5t0.5 -1.5q2 -5 0 -8l-24 -32t-26 -32q-7 -9 -23.5 -26t-36 -34.5t-38.5 -29t-32 -9.5q-22 3 -31.5 20t-9.5 41q0 10 1 20.5t3 20.5q7 36 19.5 72.5t25.5 71.5
q-20 -35 -47.5 -77.5t-59 -81t-65 -63.5t-65.5 -25z" />
    <glyph glyph-name="V" unicode="V" horiz-adv-x="424" 
d="M247 -56q-16 0 -16 23q0 14 7.5 36.5t26.5 53.5q-9 44 -21.5 79.5t-22.5 68t-14 67.5q-1 18 -2.5 33t-1.5 28q0 39 7 56.5t17 28.5t20 27q-31 -7 -58 -12t-40 -9q-99 -25 -99 -90q0 -25 14 -48.5t27.5 -46t13.5 -47.5q0 -22 -13 -39.5t-32 -27t-38 -9.5q-7 0 -13.5 1
t-12.5 4q-4 1 -4 5q0 7 9 2q6 -2 10 -2q14 0 29.5 11t26.5 29.5t11 41.5q0 7 -1 14.5t-4 14.5q-6 16 -15.5 30t-16.5 29q-18 39 -18 67q0 33 20.5 53.5t52.5 31t68.5 15t69.5 7.5h12t13 1q0 1 0.5 1t0.5 1q2 7 9 8.5t5 -5.5q-1 -1 -1 -3q34 3 67.5 8t52.5 11q3 1 9 1
q10 0 10 -5q0 -7 -16 -11q-23 -7 -58.5 -14t-72.5 -15q-16 -58 -16 -119q0 -64 14 -127t33 -119q28 33 65.5 70.5t77 79.5t73 86t54.5 89.5t21 91.5v11t-1 11v1q0 6 7 8.5t9 -3.5q4 -12 6 -23.5t2 -23.5q0 -48 -25.5 -97t-65.5 -95.5t-82.5 -88t-78 -75t-52.5 -56.5
q4 -15 4 -29q0 -23 -11 -45q-13 -25 -27 -38t-25 -13z" />
    <glyph glyph-name="W" unicode="W" horiz-adv-x="723" 
d="M184 -21q-8 0 -13 3t-2 10q22 50 46.5 110.5t42.5 126t18 128.5q0 49 -13 89q-10 31 -30 44.5t-46 13.5q-34 0 -69 -20t-59 -51t-24 -65q0 -7 1 -14t4 -14q8 -19 24.5 -35.5t34 -31.5t28.5 -30q9 -12 13 -24t4 -23q0 -28 -19 -45t-39 -13q-5 2 -4.5 5.5t5.5 2.5
q11 -3 20 10.5t9 33.5q0 15 -6 31.5t-21 32.5q-10 12 -21 23t-21 23q-19 23 -28 44.5t-9 41.5q0 39 25.5 70t65 49t80.5 18q32 0 61.5 -13t48.5 -43q14 -22 20 -50.5t6 -60.5q0 -46 -10 -97t-26 -100q32 46 71 98t80 98t76.5 75t59.5 29h1q26 0 36.5 -30t10.5 -76
q0 -36 -5 -79t-12.5 -85t-15.5 -78q17 17 34.5 32.5t27.5 26.5q43 44 88 92.5t80.5 100.5t47.5 104q3 12 3 28q0 13 -3.5 24t-11.5 17q-3 2 -3 4q0 3 4.5 4.5t8.5 -0.5q24 -13 33.5 -32t9.5 -39q0 -34 -17.5 -68t-34.5 -58q-26 -35 -61.5 -69t-71 -65t-62.5 -57
q-14 -13 -37.5 -39.5t-46.5 -54.5l-8 -33q-6 -21 -16 -34q-6 -7 -20 -11t-23 -4q-5 0 -11.5 2.5t-6.5 10.5q0 7 7 18.5t15.5 23.5t12.5 17q5 7 12 30t14.5 56t14 70t9.5 71q1 11 1.5 21t0.5 18q0 71 -36 71q-30 0 -86 -50q-39 -35 -78.5 -83.5t-71.5 -97t-50 -84.5
q-10 -24 -18.5 -44.5t-16.5 -36.5q-6 -7 -15 -10.5t-17 -3.5z" />
    <glyph glyph-name="X" unicode="X" horiz-adv-x="625" 
d="M132 -14q-39 0 -65 19.5t-39 50.5t-13 66t13 71q2 2 5 2t2.5 -5t-0.5 -10q1 -56 15.5 -89t39 -47.5t51.5 -14.5q40 0 76 18.5t67.5 48t59 64t50.5 66.5q-18 50 -32.5 97t-25 83.5t-16.5 54.5q-7 0 -15.5 8t-15.5 27q-36 -2 -69 -2.5t-50 -2.5q-69 -6 -69 -65
q0 -19 8.5 -41.5t19 -44.5t15.5 -41q3 -12 3 -23q0 -26 -15 -39t-33 -13q-20 0 -36 14q-4 4 -2 7t6 -2q7 -5 12 -5q13 0 25 17.5t12 45.5q0 14 -3 29q-4 16 -11 31t-12 30q-6 18 -8.5 33t-2.5 27q0 44 28 58t63 14q17 0 34.5 -2t32.5 -4q8 -1 20.5 -1.5t26.5 -0.5q-2 6 -2 9
q6 11 25 11q8 0 15.5 -3.5t9.5 -9.5q0 -3 2 -7q20 2 36.5 4.5t24.5 7.5q3 2 7 2q8 0 8 -6q0 -5 -7 -9q-9 -5 -26.5 -8.5t-38.5 -5.5q11 -38 31.5 -105t47.5 -136q38 54 75.5 111t80.5 106q17 20 38.5 34.5t44.5 25.5q4 2 6 2q5 0 5.5 -4.5t-1.5 -6.5q-9 -7 -19 -20.5
t-16 -26.5q-10 -22 -20.5 -38.5t-32.5 -18.5q-5 0 -20.5 -14t-26.5 -26q-25 -28 -51 -66.5t-54 -79.5q21 -52 45 -96t49.5 -71t52.5 -27q31 0 58.5 17.5t64.5 69.5q1 2 4 2q2 0 3 -2.5t-1 -5.5q-17 -23 -38.5 -53t-45.5 -53q-32 -29 -61 -29q-23 0 -43.5 17.5t-39.5 47.5
t-37 69t-34 81q-39 -55 -82 -105t-90 -81.5t-99 -31.5z" />
    <glyph glyph-name="Y" unicode="Y" horiz-adv-x="388" 
d="M-8 -290q-44 0 -75.5 25t-47.5 65t-16 85q0 15 1.5 30t5.5 30q4 4 7 4t3 -6t1 -12q7 -63 25.5 -97.5t45.5 -48.5t57 -14q8 0 15.5 0.5t14.5 1.5q37 5 82.5 40t88.5 84q35 41 64 86.5t55 94.5q-13 -10 -27 -15.5t-13 1.5q4 23 7 57t3 74q0 38 -4 78t-14 77q-16 59 -48 101
t-85 42q-33 0 -54.5 -21.5t-21.5 -53.5q0 -14 5 -28.5t15 -28.5q18 -22 47.5 -40t49.5 -36q15 -13 21.5 -25.5t6.5 -23.5q0 -17 -12 -26.5t-27 -6.5q-4 1 -5 4t3 1h3q11 0 11 16q0 13 -10 32t-34 38q-12 9 -27.5 17.5t-26.5 17.5q-29 23 -42 46.5t-13 44.5q0 38 35 64t82 26
q44 0 87.5 -27.5t70.5 -92.5q21 -52 28 -111t7 -109q0 -17 -0.5 -32.5t-1.5 -28.5q26 50 50.5 101t50.5 100q9 17 25 46t35.5 59t40 53t39.5 29q2 1 5 1t3 -3q0 -4 -4 -8q-10 -11 -10 -21t-5 -21.5t-31 -28.5q-10 -7 -33 -43t-53 -90t-63 -115t-64 -119t-56 -103t-39 -65
q-31 -44 -67.5 -83.5t-78.5 -63.5t-88 -24z" />
    <glyph glyph-name="Z" unicode="Z" horiz-adv-x="577" 
d="M430 -69q-54 0 -113 18.5t-117.5 44.5t-112.5 47l-41 -46q3 -3 6 -5t5 -4q3 -3 3 -6q0 -8 -9 -2l-12 8l-15 -19q-9 -10 -15 -10q-9 0 -9 13q0 12 9 24q1 2 4.5 5t4.5 4q-11 11 -22 27.5t-11 30.5q0 11 7 18.5t25 11.5q4 1 8 1.5t8 0.5q7 0 14.5 -1t15.5 -4l31 -10
l130 130q-6 -1 -11.5 -2.5t-10.5 -2.5q-11 -2 -20.5 -4t-16.5 -2h-2q-14 0 -14 9q0 3 2 6.5t3 6.5q5 8 15.5 14.5t17.5 6.5q16 1 35.5 3t39.5 3q46 45 85 85t63.5 65.5t24.5 28.5v3q-26 2 -63.5 8.5t-61.5 11.5q-38 8 -70.5 14t-57.5 6q-31 0 -47.5 -14t-16.5 -53
q0 -42 22 -120v-2q0 -4 -5 -4.5t-7 3.5q-26 64 -37.5 107.5t-11.5 71.5q0 34 15.5 47t41.5 13q27 0 62 -10t75.5 -23.5t82.5 -25t82 -14.5q7 20 25 33t37.5 23.5t32.5 23.5q5 5 11 9t13 4q6 0 11 -3t5 -17q0 -7 -6 -18t-15 -16q-30 -17 -45.5 -32.5t-41.5 -38.5
q-46 -40 -91 -82t-89 -84q26 0 48.5 -1.5t41.5 -5.5q14 -4 19.5 -13t5.5 -20t-5 -21q-3 -7 -6.5 -6t0.5 8t4 12q0 12 -16 16.5t-38 4.5q-26 0 -53 -3.5t-36 -4.5q-36 -35 -70.5 -70.5t-66.5 -70.5q40 -15 85 -34t92 -35.5t93 -25.5q14 -3 27 -4t25 -1q63 0 96 28t33 60
q0 4 -0.5 7t-1.5 7q-1 3 -1 6v4q0 9 4 9t8 -9q5 -12 5 -25q0 -23 -12.5 -48t-33.5 -45t-47 -27q-25 -7 -55 -7zM26 11l39 39q-6 3 -13 5.5t-14 5.5q-4 1 -7 1.5t-6 0.5q-17 0 -17 -16q0 -18 18 -36z" />
    <glyph glyph-name="bracketleft" unicode="[" horiz-adv-x="296" 
d="M91 -13q-31 0 -49 5t-18 17q0 5 1.5 9.5t2.5 11.5q24 82 120 224q101 149 172 196q20 12 48 12q72 0 73 -14v-2q0 -2 -0.5 -4.5t-1.5 -5.5h-6q-2 -1 -5 -1q-13 0 -25 1.5t-25 1.5q-23 0 -30 -4q-6 -3 -17 -12.5t-28 -26.5q-30 -31 -63.5 -72t-70.5 -94
q-40 -58 -65.5 -102t-33.5 -74q-3 -10 -3 -18q0 -30 43 -30q12 0 24.5 1.5t24.5 1.5q20 0 17 -10q-1 -7 -24 -9t-61 -2z" />
    <glyph glyph-name="backslash" unicode="\" horiz-adv-x="406" 
d="M379 -85q-3 0 -9.5 4t-5.5 8q0 1 3 4q5 2 8 11q1 3 1 9q0 54 -112 241l-162 250q-4 7 -4 13q0 8 6 12t14 4q16 0 114 -165q39 -65 66.5 -112.5t43.5 -78.5q12 -23 19.5 -36.5t8.5 -17.5q8 -16 13 -30.5t9 -27.5q6 -27 6 -47q0 -14 -3 -26q-5 -15 -16 -15z" />
    <glyph glyph-name="bracketright" unicode="]" horiz-adv-x="374" 
d="M96 -13q-35 0 -54.5 3.5t-18.5 10.5q0 2 0.5 4.5t0.5 7.5h12q12 0 23.5 -1t22.5 -1q27 0 34 3q8 4 18.5 13.5t26.5 25.5q30 31 63.5 72.5t70.5 93.5q41 59 65.5 103t33.5 74q3 11 3 18q0 30 -42 30q-12 0 -24 -1.5t-24 -1.5q-23 0 -19 10q2 7 21.5 9t52.5 2h11
q67 0 67 -24q0 -3 -1.5 -7.5t-3.5 -12.5q-23 -80 -119 -223q-101 -149 -171 -196q-19 -12 -49 -12z" />
    <glyph glyph-name="asciicircum" unicode="^" horiz-adv-x="311" 
d="M231 500q-5 0 -3 5t18.5 16.5t45.5 29.5q60 39 71 40q5 -1 13.5 -11.5t21.5 -28.5q13 -19 19.5 -30t4.5 -15q-1 -6 -7 -6q-4 0 -12.5 7.5t-23.5 20.5l-22 21l-7 7t-5 4q-98 -60 -114 -60z" />
    <glyph glyph-name="underscore" unicode="_" horiz-adv-x="488" 
d="M73 -99q-61 0 -73 4q7 30 45 30q41 0 82 -1.5t81 -1.5q12 0 57 -1t122 -3l60 -1h33q8 -1 8 -5q0 -8 -27 -11q-5 -1 -25 -2t-54 -2l-158 -3q-49 -1 -87 -2t-64 -1z" />
    <glyph glyph-name="grave" unicode="`" horiz-adv-x="119" 
d="M121 326q0 -5 -19.5 7t-42.5 25q-14 8 -23 12.5t-20 11.5q-14 9 -14 17q0 15 14 15q5 0 9 -3l39 -33q34 -27 45.5 -37t11.5 -15z" />
    <glyph glyph-name="a" unicode="a" horiz-adv-x="300" 
d="M216 -9q-28 0 -28 43q0 27 8 51.5t15 49.5q-16 -17 -30.5 -33t-31.5 -32q-16 -15 -33 -29.5t-34 -25.5q-31 -20 -47 -20t-16 19q0 22 17 59q10 22 27.5 48t36.5 51q18 22 42.5 45t53.5 39t58 16q23 0 38.5 -10.5t15.5 -33.5q0 -24 -9 -29q-3 -3 -4 -2l-1 1q-1 10 -9 20.5
t-20 14.5q-13 4 -29 4q-37 0 -69.5 -21.5t-55.5 -50.5q-19 -25 -30.5 -51.5t-11.5 -46.5q0 -30 16 -30q10 0 22 9t20 16q29 26 54.5 57.5t35.5 44.5q2 2 11.5 6.5t20.5 7.5l21 5q6 0 6 -1q-6 -8 -16.5 -33t-18.5 -53.5t-8 -48.5q0 -16 6 -21q3 -3 8 -3q8 0 17 5.5t19 12.5
q35 26 66.5 64t53.5 68l2 -2q2 -5 0 -8q-13 -17 -27 -35.5t-28 -36.5q-15 -17 -30.5 -33.5t-32.5 -30.5q-20 -16 -38.5 -26t-32.5 -10z" />
    <glyph glyph-name="b" unicode="b" horiz-adv-x="257" 
d="M48 -25q-7 0 -7.5 5t4.5 5q26 2 49.5 10.5t47.5 27.5q28 24 55.5 59.5t40.5 60.5q6 12 11.5 28.5t5.5 29.5q0 20 -16 20q-11 0 -32 -12q-30 -19 -58 -52t-39 -66q-1 -5 -2.5 -10.5t-1.5 -10.5q0 -19 10 -27q-16 -22 -32 -22q-11 0 -19 10t-8 26q0 23 7.5 48t17.5 50
l100 237q4 8 8 22t4 27q0 11 -4.5 18.5t-17.5 7.5q-11 0 -24 -4t-24 -9q0 2 2 5.5t3 4.5q4 2 24.5 9.5t38.5 14.5q16 6 33 16l10 5t11 4h2q9 0 9 -13q0 -7 -2.5 -18t-6.5 -22q-8 -22 -18 -42.5t-12 -25.5l-94 -207q-3 -7 -8 -25t-8.5 -33l-3.5 -15q26 39 57.5 73t68.5 53
q32 15 48 15q13 0 19 -8q8 -10 8 -24q0 -20 -11 -46.5t-25 -50t-24 -35.5q-37 -46 -88 -80t-109 -34z" />
    <glyph glyph-name="c" unicode="c" horiz-adv-x="219" 
d="M99 -7q-31 0 -43.5 14.5t-12.5 36.5t9.5 46.5t22.5 45.5q31 49 76.5 86.5t87.5 46.5q4 1 7 1.5t6 0.5q26 0 26 -30q0 -10 -3 -18.5t-6 -11.5q-3 -4 -4 -4q-3 24 -20 28q-10 3 -21 3q-29 0 -54 -17.5t-42.5 -43t-27.5 -50.5q-11 -28 -11 -52q0 -22 10.5 -36.5t35.5 -14.5
q39 0 73.5 24.5t63.5 59.5t50 64q1 1 2 -1q3 -3 0 -8q-9 -13 -19 -26t-21 -27q-22 -28 -50 -55t-61.5 -44.5t-73.5 -17.5z" />
    <glyph glyph-name="d" unicode="d" horiz-adv-x="302" 
d="M216 -9q-13 0 -21 10.5t-8 32.5q0 27 8 51t16 49q-16 -17 -31 -33t-31 -31q-16 -16 -33 -30.5t-34 -25.5q-31 -20 -47 -20t-16 20q0 22 17 58q10 22 27.5 48t36.5 50q18 23 40 46t47 38.5t50 13.5q4 0 13 -3q8 24 17 46t19 44q27 60 56.5 110t58 79.5t52.5 29.5
q9 0 18 -6q14 -10 14 -32q0 -23 -12 -53.5t-30 -61t-34.5 -56t-25.5 -38.5q-37 -53 -71.5 -95.5t-46.5 -55.5l-5 -8l-18 -68l-7 -31.5t-3 -22.5q0 -15 6 -21q2 -2 8 -2q8 0 17.5 5t19.5 12q35 26 66.5 63.5t52.5 67.5q1 1 3 -1q3 -5 0 -8q-13 -17 -27 -35.5t-29 -36.5
q-14 -17 -30 -33t-33 -30q-20 -16 -38 -26t-32 -10zM269 200q14 17 27.5 33t31 38.5t42.5 60.5q9 13 29 46.5t38 69.5q12 25 21 48.5t9 38.5q0 19 -13 19q-12 0 -30.5 -18.5t-39.5 -56.5q-22 -39 -44.5 -89.5t-41 -100.5t-29.5 -89zM85 37q10 0 21.5 9t19.5 16
q20 17 40.5 40t37 44t22.5 32q5 8 8 18t3 18t-4.5 14.5t-17.5 6.5q-29 0 -55 -21.5t-49 -50.5q-19 -25 -30.5 -51t-11.5 -46q0 -29 16 -29z" />
    <glyph glyph-name="e" unicode="e" horiz-adv-x="235" 
d="M122 -12q-40 0 -56.5 18t-16.5 45q0 16 5 33t13 34q-7 4 -7 10q0 9 21 16q9 13 22.5 35.5t30 45.5t34.5 39t35 16q14 0 18 -11q4 1 11 1q29 0 29 -30q0 -23 -16 -43.5t-38 -25.5l1 -5l10 1.5t17 2.5q17 1 37 0t26 -9q2 -2 -0.5 -3t-4.5 0q-8 4 -26 4q-24 0 -56.5 -6
t-59.5 -14.5t-37 -15.5q-9 -14 -18 -35.5t-9 -41.5q0 -18 10.5 -30.5t38.5 -12.5q30 0 55.5 15t47.5 37.5t39 42.5q2 2 14 16t25.5 30.5t19.5 25.5l2 -2q2 -4 -1 -8q-13 -16 -26 -34t-27 -35q-20 -25 -44.5 -49.5t-53.5 -40.5t-65 -16zM124 146q19 7 30 10t20 7
q9 5 17.5 11.5t18.5 18.5q9 11 15 24.5t6 24.5q0 10 -6 16t-21 -7.5t-32 -33.5q-16 -20 -29.5 -40t-18.5 -31z" />
    <glyph glyph-name="f" unicode="f" horiz-adv-x="201" 
d="M-222 -355q-32 0 -56 19t-24 67q0 29 11 60t27.5 59t33.5 50t30 33q5 5 5.5 1t-1.5 -6q-15 -21 -32 -52t-28.5 -64.5t-11.5 -62.5v-8.5t1 -8.5q6 -35 23.5 -49.5t39.5 -14.5q20 0 41.5 10t40.5 26q32 27 58.5 68t48.5 84t38.5 83.5t26.5 65.5l54 148q-10 -3 -17.5 -5.5
t-16.5 -4.5q-3 -1 -5 -1h-4q-8 0 -8 5q0 2 1.5 4.5t2.5 5.5q5 8 13.5 17t15.5 10l33 9q18 53 36.5 115t42 124t55.5 112q22 35 46.5 50.5t45.5 15.5q20 0 33 -14t13 -38v-8t-1 -8q-7 -42 -31 -88.5t-57 -92.5t-67 -87.5t-61 -72.5q17 5 34.5 7.5t29.5 3.5q2 0 4.5 0.5
t3.5 0.5q8 0 9.5 -1.5t1.5 -2.5q0 -4 -7 -6q-17 -3 -41.5 -11t-45.5 -20.5t-27 -31.5l-46 -135q-30 -94 -69.5 -176t-98.5 -129q-27 -20 -67 -37.5t-77 -17.5zM165 221q0 -4 6 0.5t19 20.5q8 9 29.5 36.5t48.5 66t53.5 81.5t42.5 82q8 18 11 31.5t3 23.5q0 26 -19 26
q-15 0 -36 -17t-40 -49q-24 -40 -44 -89.5t-36.5 -99t-30.5 -90.5q-3 -8 -5 -14t-2 -9z" />
    <glyph glyph-name="g" unicode="g" horiz-adv-x="284" 
d="M-98 -369q-61 0 -101.5 22.5t-40.5 63.5q0 26 19.5 60t62.5 74q47 44 115 74.5t142.5 47t140.5 18.5q0 36 -1.5 72.5t-3.5 72.5q-18 -36 -36 -58q-25 -31 -53.5 -49t-53.5 -24q-16 -4 -31 -4q-22 0 -31 10t-9 26q0 25 15.5 55t40.5 55q17 17 33.5 28t35.5 23q25 15 43 26
t40 27q0 6 1 12t2 10q5 22 17 31.5t22 9.5q13 0 13 -13q0 -11 -15 -29l-27 -26l3 -27q7 -58 18 -114.5t16 -114.5h1q42 0 61 -12t20 -28q0 -12 -6 -12q-5 0 -5 9q0 11 -13 17.5t-29.5 10.5t-27.5 5q1 -7 1 -14.5v-15.5q0 -74 -29 -131.5t-79 -97.5t-114 -62.5t-135 -26.5
q-5 0 -11 -0.5t-11 -0.5zM106 25q22 0 38.5 11.5t46.5 45.5q13 15 23 31.5t20 38.5q-1 16 -2.5 32t-1.5 31v20l-49 -39q-24 -19 -46.5 -39.5t-41.5 -46.5q-7 -10 -12.5 -24.5t-5.5 -28.5q0 -13 7 -22.5t24 -9.5zM-112 -357q17 0 36 3q88 13 159.5 56.5t114 114t42.5 162.5v1
q-63 -2 -127.5 -17.5t-123.5 -44.5t-105 -72q-47 -44 -68 -79t-21 -61q0 -31 25.5 -47t67.5 -16z" />
    <glyph glyph-name="h" unicode="h" horiz-adv-x="284" 
d="M21 -26q0 2 1.5 5.5t2.5 5.5q3 6 7 16t9 24q15 38 27.5 71.5t31.5 84.5l34 87q-28 5 -37.5 17.5t-9.5 22.5q0 5 2 11t5 7.5t5 1.5q3 0 3 -2t-2.5 -6t-2.5 -9q0 -8 5 -14q4 -5 13 -9t16 -4q10 0 11 5q35 83 78.5 159t110.5 132q43 35 80.5 51.5t65.5 16.5q35 0 55.5 -20.5
t20.5 -55.5q0 -26 -13 -58.5t-41 -69.5q-40 -52 -96 -88t-117 -56.5t-116 -28.5q-11 -30 -25.5 -68.5t-26.5 -72.5t-18 -52q40 41 76.5 80t67.5 76q19 22 46 22q5 0 11.5 -1t10.5 -3q5 -2 3 -4t-6 -3q-5 -1 -13.5 -8.5t-20.5 -27.5q-21 -31 -36 -65.5t-21 -72.5
q-1 -6 -1.5 -12t-0.5 -11q0 -15 5.5 -23t17.5 -5q15 5 32 19.5t33 31.5t26 29q2 2 13.5 16t25 30.5t19.5 24.5q2 2 2 -1q2 -5 -1 -8q-12 -16 -25 -33.5t-27 -34.5q-20 -24 -42.5 -46.5t-48.5 -38.5q-23 -13 -38 -13q-9 0 -16 4q-10 6 -14.5 17.5t-4.5 25.5q0 29 12 64t23 58
q-34 -27 -57 -47q-12 -11 -23 -22.5t-21 -23.5q-11 -15 -19 -37t-11 -36q-10 -6 -27 -13l-29 -13v1zM174 284q56 9 114 34.5t109.5 64t86.5 85.5q28 38 40 66.5t12 48.5q0 24 -15 36t-39 12q-30 0 -67 -17.5t-71 -52.5q-35 -36 -68.5 -86t-60.5 -100.5t-41 -90.5z" />
    <glyph glyph-name="i" unicode="i" horiz-adv-x="151" 
d="M147 283q-9 0 -9 12q0 14 15.5 23.5t34 15.5t27.5 7h5q6 0 6 -2q0 -4 -14 -15l-24 -19l-12 -8t-11 -7q-12 -7 -18 -7zM82 -1q-13 0 -22.5 7.5t-12.5 24.5q-1 9 6.5 35.5t20 58t24.5 58.5t18 37q6 8 24 17.5t29 10.5q5 3 5 0q-8 -10 -20.5 -32t-25.5 -49.5t-23 -54.5
t-14 -45q-1 -5 -1.5 -10t-0.5 -10q0 -29 17 -29q11 0 25 13q19 16 37 34.5t40 46.5l4 -2l3 -3q-5 -6 -20.5 -23.5t-33 -36t-28.5 -27.5t-24.5 -15t-26.5 -6z" />
    <glyph glyph-name="j" unicode="j" horiz-adv-x="172" 
d="M94 283q-8 0 -8 12q0 14 15 23.5t33.5 15.5t27.5 7h5q6 0 6 -2q0 -4 -14 -15l-24 -19l-12 -8t-11 -7q-12 -7 -18 -7zM-192 -369q-61 0 -100 22t-39 62q0 26 19 58.5t61 71.5q44 41 108 70t134 45.5t133 18.5q-1 43 -5.5 82.5t-14.5 96.5q-22 -29 -49.5 -63t-47.5 -51h-1
q-1 0 -2 3t1 5q26 26 50 58q15 19 25.5 37t10.5 43q0 5 -0.5 9.5t-1.5 9.5v2q0 5 2.5 8t5.5 5t7 9t3 14v2q0 4 2 4q6 0 8 -13l5 -24t12 -62.5t13 -84.5t8 -90q26 0 51 -7t32 -31q1 -2 1 -5q0 -7 -4.5 -8t-4.5 3q2 13 -10 20.5t-30 11t-34 4.5q4 -102 -37.5 -175
t-116.5 -113.5t-172 -46.5q-5 0 -11 -0.5t-11 -0.5zM-206 -357q17 0 36 3q60 9 112.5 37t93 71.5t64 97.5t24.5 115q-58 -3 -119 -18t-117 -42t-99 -67q-46 -43 -66.5 -76.5t-20.5 -59.5q0 -29 25 -45t67 -16z" />
    <glyph glyph-name="k" unicode="k" horiz-adv-x="254" 
d="M346 -95q-25 0 -55.5 18.5t-59.5 49t-50.5 68t-30.5 75.5q-19 -15 -33.5 -31.5t-20.5 -33.5q1 -16 6 -29t16 -18q-14 -21 -30 -21q-12 0 -20.5 12.5t-10.5 30.5q0 4 -0.5 7.5t-0.5 7.5q0 22 5.5 42.5t17.5 48.5l110 261q3 8 7.5 21.5t4.5 25.5q0 11 -5 19.5t-19 8.5
q-11 0 -23.5 -4.5t-22.5 -9.5q0 2 1.5 5.5t2.5 4.5q5 2 25.5 9.5t38.5 14.5q8 3 16.5 7.5t16.5 8.5l10 5t10 4h2q10 0 10 -13q0 -7 -3 -18t-7 -22q-7 -22 -17 -42t-12 -25l-101 -225q-8 -19 -15 -41t-10 -43q21 29 47 52q-1 6 -1.5 11.5t-0.5 10.5q0 23 7 40q17 51 85 79
q30 12 50 12q36 0 36 -26q0 -15 -16.5 -35.5t-51.5 -41.5q-19 -11 -41.5 -25t-43.5 -30q10 -34 32 -66.5t50.5 -60t56.5 -47.5q11 -7 26 -12.5t25 -5.5q13 0 13 9q0 8 -11 22q-1 1 -1 2q0 2 4.5 2t6.5 -2q15 -13 15 -31q0 -14 -10 -25t-30 -11zM165 153q21 19 43 35.5
t41 30.5q25 19 25 30q0 10 -17 10q-10 0 -28 -5q-16 -4 -32 -18t-25.5 -35t-6.5 -48z" />
    <glyph glyph-name="l" unicode="l" horiz-adv-x="222" 
d="M128 -7q-31 0 -44 21t-13 52q0 18 3.5 38.5t8.5 41.5q7 30 21.5 72t33 89t38.5 92.5t39.5 83.5t35.5 61q24 35 49.5 50.5t45.5 15.5t32.5 -12.5t12.5 -35.5q0 -9 -3 -20q-9 -42 -35.5 -88.5t-61.5 -92.5t-71 -87.5t-65 -72.5q-24 -26 -33 -69.5t-9 -78.5q0 -24 7.5 -34
t20.5 -10q9 0 20 4.5t22 11.5q41 25 71.5 60.5t57.5 73.5q0 1 5.5 -1t3.5 -4q-30 -40 -63 -81.5t-80 -65.5q-28 -14 -50 -14zM148 221q0 -4 6 0.5t19 20.5q8 9 31 36.5t52.5 66t57.5 81t46 82.5q17 35 17 58q0 22 -18 22q-14 0 -36.5 -16.5t-42.5 -48.5q-25 -40 -47.5 -89.5
t-41.5 -99t-36 -90.5q-7 -17 -7 -23z" />
    <glyph glyph-name="m" unicode="m" horiz-adv-x="401" 
d="M352 -69q-39 0 -39 54q0 18 4 42.5t13 56.5q3 13 12.5 40.5t16.5 46.5q-21 -16 -48 -40.5t-50.5 -48.5t-35.5 -38q-8 -11 -8 -7l-11 -8q-7 -4 -12.5 -4t-5.5 5q0 8 3.5 26t8.5 41t11.5 43.5t12.5 32.5q-44 -35 -78.5 -72t-48.5 -85q-1 -4 -7.5 -6.5t-14.5 -4.5
q-7 -1 -15 -3.5t-15 -5.5q0 2 2 6l3 6q3 6 6.5 16.5t10.5 23.5q9 17 17.5 38t14.5 36.5l6 15.5l12 27q2 7 4.5 13t3.5 12q1 4 1 10q0 10 -4.5 16t-18.5 6q-11 0 -23.5 -5t-23.5 -10q1 2 2.5 6t2.5 5q5 2 25.5 10t38.5 15q8 3 16.5 7.5t15.5 8.5q2 2 9 6t9 4h2q9 0 9 -14
q-2 -15 -11 -39q-8 -22 -18.5 -43t-12.5 -26l-28 -64q42 43 78 82.5t68 77.5q19 23 47 23q5 0 11.5 -0.5t10.5 -2.5q5 -2 2.5 -4.5t-5.5 -3.5q-16 -4 -33 -27t-31.5 -54.5t-23.5 -62t-11 -48.5q0 -1 -0.5 -2.5t-0.5 -3.5q16 20 32 37.5t32 34.5q18 19 37 36.5t38 36.5
q5 6 11.5 8.5t13.5 3.5q9 2 17 3.5t15 5.5q7 5 9.5 4t2.5 -2v-2q0 -6 -8 -13q-12 -11 -25 -34.5t-23.5 -51t-17.5 -50.5q-13 -45 -13 -75q0 -41 28 -41q15 0 32.5 17t27.5 27q1 0 1.5 -0.5t-0.5 -0.5q-3 -13 -32 -41q-14 -14 -30 -21.5t-24 -7.5z" />
    <glyph glyph-name="n" unicode="n" horiz-adv-x="295" 
d="M45 1q0 3 2 6t3 5q3 7 6.5 17t10.5 23q8 15 17.5 37t18.5 44.5t15 35.5q2 7 4.5 13t3.5 12q1 4 1 10q0 10 -5 16t-19 6q-10 0 -22.5 -4.5t-22.5 -9.5q0 2 1.5 6t3.5 5q4 2 25 9.5t39 14.5q15 6 31 16q2 1 9.5 5t9.5 4h2q8 0 8 -11q0 -7 -2.5 -18t-7.5 -24
q-9 -22 -19.5 -43t-12.5 -26l-28 -63q42 42 78 81t69 77q20 23 50 23q12 0 20 -4q5 -2 2.5 -4t-6.5 -3q-14 -4 -33 -27t-35.5 -54.5t-25.5 -60.5q-8 -26 -8 -48q0 -14 5 -23t16 -9q16 0 42 18q14 10 35 32.5t41 47.5l32 40l2 -2q2 -5 -1 -8q-7 -10 -18 -25t-25 -32
q-14 -16 -29.5 -33t-30.5 -29q-14 -12 -31 -20t-33 -8q-23 0 -32 14.5t-9 34.5q0 17 4.5 35t9.5 34q5 15 19 42q-31 -25 -59.5 -51t-45.5 -52q-7 -10 -13 -25t-10 -29q-1 -3 -7.5 -5.5t-14.5 -4.5q-7 -1 -15 -3t-15 -6v1z" />
    <glyph glyph-name="o" unicode="o" horiz-adv-x="270" 
d="M118 -9q-24 0 -40.5 18t-16.5 56q0 34 15 68t40.5 61.5t56.5 41.5q8 3 15 5t14 2q15 0 26 -8t11 -25q0 -4 -0.5 -7t-1.5 -7t-5.5 -5t-4.5 3q2 17 -6.5 26.5t-21.5 9.5q-9 0 -17 -4q-25 -12 -43.5 -36.5t-28 -53.5t-9.5 -56q1 -58 39 -58q21 0 44 17t40 47t27 64.5
t10 62.5q0 17 -4 31t-14 21q-5 4 -16 4q-17 0 -26 -7q-6 -4 -7 -4q-4 0 -4 5q0 4 4 10q6 10 19 15t27 5q16 0 28 -7q26 -14 26 -59q0 -32 -13.5 -72t-37 -76.5t-53.5 -59.5q-36 -28 -72 -28z" />
    <glyph glyph-name="p" unicode="p" horiz-adv-x="330" 
d="M-200 -348q-31 0 -59 17.5t-34 51.5q-1 6 -1.5 11.5t-0.5 11.5q0 32 12 61.5t28.5 53t29.5 34.5q4 4 6 0.5t1 -5.5q-13 -16 -25 -41t-20 -53t-8 -53q0 -38 19.5 -56.5t42.5 -18.5q31 0 60 20.5t54.5 51.5t44.5 63t31 55q22 43 38 83.5t26 65.5l81 224q2 7 5 19t3 24
q0 13 -5 22.5t-21 9.5q-11 0 -23 -4.5t-22 -9.5v3q1 5 4 8q4 2 24 9.5t37 13.5q8 3 16.5 7.5t15.5 8.5l20 10h1q12 0 12 -18q0 -8 -2 -18t-5 -21q-6 -23 -14 -44.5t-10 -26.5l-51 -145q31 46 72 85.5t82.5 64.5t73.5 25q38 0 38 -30q0 -23 -20 -57t-47 -60q23 11 46.5 21
t45.5 17q10 3 10 -1q0 -5 -14 -11q-20 -7 -49.5 -23.5t-69.5 -36.5l-67 -44q-38 -25 -71 -25q-23 0 -23 15q0 8 7 17t15 11q31 8 66 17t63 26q26 16 40 41.5t14 45.5q0 14 -6.5 23t-20.5 9q-12 0 -27 -7q-36 -16 -72 -48t-65 -71t-47 -79q-13 -36 -31 -82t-42 -93
t-55.5 -86.5t-70.5 -64t-86 -24.5z" />
    <glyph glyph-name="q" unicode="q" horiz-adv-x="276" 
d="M118 -283q-26 0 -36.5 20t-10.5 48q0 30 8 60q11 39 32 86t43 89q11 21 21 39.5t17 32.5l13 23l4 8t5 13q-16 -17 -31 -33t-31 -31q-16 -16 -33.5 -30t-34.5 -25q-31 -20 -47 -20t-16 19q0 11 5 26t12 32q11 23 28 48.5t36 50.5q18 22 42.5 44.5t54 38.5t58.5 16
q23 0 38.5 -10.5t15.5 -32.5q0 -12 -3.5 -19.5t-5.5 -9.5q-4 -4 -4.5 -3t-1.5 2q-1 9 -8.5 19.5t-19.5 14.5q-13 4 -30 4q-36 0 -69 -21t-56 -50q-19 -25 -30 -51.5t-11 -46.5q0 -29 15 -29q10 0 22 9t20 16q29 26 54.5 57t35.5 44q2 2 12 6t21 8l20 5q6 0 7 -1
q-7 -8 -13 -21q-4 -7 -10 -16.5t-12 -21.5q-7 -12 -23.5 -44.5t-37 -75t-38.5 -86t-28 -78.5q-10 -34 -10 -58q0 -39 30 -39q21 0 49 20.5t50 48.5q29 35 49 73.5t20 61.5q0 10 -4 15q-2 4 0 6.5t5 -1.5q8 -11 8 -31q0 -33 -24 -78q-11 -20 -29.5 -44t-42.5 -46t-49.5 -36.5
t-50.5 -14.5z" />
    <glyph glyph-name="r" unicode="r" horiz-adv-x="248" 
d="M166 -2q-16 2 -23 13t-7 26q0 21 8.5 46.5t19 47.5t16.5 33l17 28q-13 -5 -23 -5q-24 0 -35 24q-4 -5 -9 -13t-7 -12q-15 -21 -36 -48.5t-42 -52t-38 -38.5h-1q-1 0 -2 3t1 5q14 14 28 30.5t26 32.5q11 14 25 34t26 40.5t17 35.5q-1 8 1 25.5t17 46.5q6 13 21 13
q10 0 19.5 -5.5t12.5 -13.5q-18 -15 -31 -32q-5 -7 -11 -18.5t-6 -22.5q0 -7 4 -12.5t16 -5.5q16 0 32.5 8t30.5 13q7 2 13 4t11 2q14 0 13 -15q-22 -22 -40 -48.5t-32 -55.5q-3 -7 -9 -21.5t-10.5 -30t-4.5 -27.5q0 -19 13 -19q5 0 12.5 2.5t17.5 9.5q23 16 47 41.5
t44.5 52t33.5 45.5q2 2 4 2t3.5 -4t-2.5 -9q-31 -44 -62 -78.5t-60 -55.5q-17 -13 -32.5 -17.5t-26.5 -3.5z" />
    <glyph glyph-name="s" unicode="s" horiz-adv-x="247" 
d="M80 -95q-21 0 -32 17t-15.5 38.5t-6.5 36.5q-16 7 -25.5 15.5t-9.5 15.5q0 3 3.5 7t7.5 4q8 -3 22.5 -8t30.5 -8.5t26 -2.5q3 17 4.5 34.5t2.5 33.5q2 17 4 33.5t6 32.5q14 49 44.5 84t87.5 55q17 5 29 5q15 0 27 -6t14 -18q1 -3 1 -8q0 -20 -15.5 -38.5t-36 -32.5
t-36.5 -21q-1 -1 -0.5 2l0.5 3q8 3 23 15t25 25q11 14 11 25q0 14 -18 14q-8 0 -19 -3q-37 -10 -70.5 -34t-47.5 -63q-6 -17 -8.5 -40.5t-2.5 -46.5q0 -16 1 -30t2 -22q7 -1 13 -1h12q30 0 57.5 8.5t52.5 27.5q29 22 55.5 55t42.5 56q1 1 3 1q5 0 5 -7q0 -1 -9.5 -14
t-24 -32t-31 -37.5t-30.5 -30.5q-34 -26 -66.5 -35.5t-55.5 -9.5q-7 0 -12.5 0.5t-10.5 1.5q-1 -9 -2 -24.5t-4 -32.5t-8.5 -28.5t-15.5 -11.5zM58 -51q12 0 17 17l5 30q-9 0 -18 1t-21 2q-1 -7 1 -18t3 -16q3 -16 13 -16z" />
    <glyph glyph-name="t" unicode="t" horiz-adv-x="186" 
d="M111 -1q-27 0 -38 13t-11 34q0 11 2.5 23t6.5 25q5 18 12.5 35.5t16.5 34.5l37 71q1 2 2.5 4t2.5 4q-6 -1 -12 -3.5t-11 -4.5q-7 -3 -14.5 -5.5t-12.5 -4.5q-3 -1 -8 -1q-7 0 -7 5q0 8 8.5 17t15.5 10q11 2 25.5 6t28.5 7q14 26 25.5 53t17.5 55q2 5 2 9.5v8.5
q0 13 -5.5 17.5t-13.5 4.5q-7 0 -17 -3t-18 -8l1 2q0 7 3 7l52 21l31 15l14 7t7 3h1q10 0 10 -14q0 -10 -6 -25q-15 -37 -34.5 -74t-39.5 -74q16 2 29.5 2t26.5 -1q14 -1 20.5 -9.5t6.5 -17.5q0 -4 -2 -10q-1 -4 -3 -4q-6 0 -4 8q5 12 -3 17t-22 5q-4 0 -9 -0.5t-10 -1.5
q-11 -1 -22 -4t-19 -5l-23 -44q-4 -7 -12.5 -25.5t-18 -42.5t-16 -47.5t-6.5 -41.5q0 -20 12 -28q7 -4 15 -4q19 0 40 15.5t39 35t27 29.5q2 2 14 16t25.5 30.5t19.5 25.5l2 -2q2 -4 -1 -8q-12 -16 -25.5 -33.5t-27.5 -34.5q-14 -18 -34.5 -40.5t-44 -38.5t-48.5 -16z" />
    <glyph glyph-name="u" unicode="u" horiz-adv-x="247" 
d="M237 -53q-22 0 -31 22.5t-9 52.5q0 32 6.5 63.5t11.5 45.5l-63 -62q-16 -15 -33 -29t-34 -25q-31 -19 -48 -19q-20 0 -20 22q0 24 20 56q3 4 17.5 24t33.5 48t34 55q8 12 14.5 30.5t6.5 31.5q0 19 -14 19q-9 0 -22 -7q-1 -1 -1.5 3t3.5 5q9 6 25 11t27 2q14 -4 20 -12.5
t6 -19.5q0 -19 -13.5 -41.5t-22.5 -35.5l-48 -65q-12 -16 -20.5 -32t-13.5 -29q-1 -4 -1.5 -7t-0.5 -6q0 -13 14 -13t32 15q21 16 44.5 41.5t42.5 49t26 32.5q7 10 25 16t31 6q9 0 11 -2q-19 -20 -33.5 -56t-23 -75t-8.5 -67q0 -19 4.5 -30.5t14.5 -8.5h1q3 0 3 -3
q0 -6 -14 -6z" />
    <glyph glyph-name="v" unicode="v" horiz-adv-x="321" 
d="M161 -19q5 6 10 21.5t7 31.5q3 22 5 44.5t2 44.5q0 9 -0.5 18t-1.5 18q-1 19 -8 26t-17 7q-13 0 -26.5 -8.5t-23.5 -19.5q-7 -8 -13.5 -16t-13.5 -15q-3 -3 -8 -3q-1 0 0 3l36 45q11 14 29.5 33t36.5 19q25 0 34.5 -19t9.5 -47q0 -24 -5 -52t-12 -52.5t-12 -40.5
q51 65 102.5 140.5t91.5 136.5q5 8 17 12.5t23 5.5h7q8 0 11 -1q3 -2 0 -5l-108 -128q-33 -40 -63.5 -79.5t-44.5 -63.5q-3 -5 -5.5 -11t-4.5 -11q-3 -5 -5.5 -9t-6.5 -6q-7 -4 -15.5 -8.5t-16.5 -7.5q-7 -3 -11 -3z" />
    <glyph glyph-name="w" unicode="w" horiz-adv-x="501" 
d="M122 -16q-5 0 -1 8.5t11 23.5q2 4 8 10.5t7 11.5q11 31 20 69t13 74q0 3 0.5 5.5t0.5 4.5q0 20 -12 20t-31 -17t-31 -30l-36 -47l-0.5 -0.5t-1.5 -0.5q-6 0 -3 8l28 39q17 24 34.5 48.5t36.5 37.5q9 6 19.5 10.5t19.5 4.5q11 0 19 -8t8 -30q0 -16 -6 -42
q-6 -28 -19.5 -59.5t-27 -59t-22.5 -43.5l55 55t50 50.5t54 57.5q12 13 24 13q8 0 8 -7t-8 -15l-1 -1q3 -37 14 -67t26 -49q22 -28 44 -28q20 0 36 19t25.5 48t9.5 60q0 23 -6.5 44t-20.5 37q-12 13 -22 21t-21 8q-2 0 -4.5 -0.5t-5.5 -1.5q-5 0 -8 3q-3 5 -3 12q0 8 6 15
q8 8 19 8q16 0 34 -19q23 -25 33 -60.5t10 -73.5q0 -41 -11 -79.5t-30 -62.5t-45 -24q-25 0 -53 28q-23 24 -39.5 61.5t-12.5 80.5q0 5 2 11q-39 -33 -72.5 -70t-62.5 -78q-4 -5 -7 -9t-7 -6q-38 -19 -44 -19z" />
    <glyph glyph-name="x" unicode="x" horiz-adv-x="297" 
d="M-38 -99q-2 0 -2 4q1 4 19.5 27t48 57t64.5 72t68 71l-24 110q-2 -26 -15.5 -54t-29.5 -45q-1 -1 -3 -1q-3 0 -4.5 2.5t0.5 5.5q21 28 33.5 66t10.5 71q0 8 15 8q12 0 23.5 -7.5t12.5 -21.5q2 -13 6 -36.5t7.5 -44.5t5.5 -27q32 35 65.5 71.5t69.5 70.5q5 3 20 9
q5 1 8 1.5t2 -3.5q0 -1 -21.5 -22t-58 -56t-83.5 -80q5 -20 10 -41.5t12 -35.5q16 -31 40 -31q13 0 26 7.5t25 20.5q23 25 41.5 48t39.5 49q1 2 4 -1.5t1 -5.5q-13 -18 -37 -48t-49.5 -57.5t-45.5 -38.5q-16 -8 -28 -8q-22 0 -38.5 18.5t-25.5 44.5t-12 48
q-20 -19 -46.5 -48t-53.5 -59.5t-47.5 -54.5t-28.5 -34q-16 -21 -25 -21z" />
    <glyph glyph-name="y" unicode="y" horiz-adv-x="325" 
d="M102 -355q-33 0 -57 20t-24 60q0 8 1 17.5t4 19.5q8 29 17 48.5t28 49.5q20 29 42.5 60t46.5 62q4 5 10 21t8 33q2 13 3.5 35.5t1.5 45.5q0 74 -30 74q-21 0 -50 -35l-48 -58q-2 -2 -3 -2q-2 0 -3.5 3t1.5 6q15 19 29 38.5t21 29.5q17 26 37 41.5t38 15.5
q25 0 34.5 -18.5t9.5 -46.5q0 -24 -5 -51.5t-12 -52t-12 -40.5q51 65 102.5 139.5t91.5 135.5q5 8 17 13t23 5h7q8 0 11 -1q3 -2 0 -5q-15 -18 -45 -54.5t-65.5 -81t-69 -87t-55.5 -72.5q-29 -38 -60 -81.5t-54.5 -89t-30.5 -88.5q-1 -4 -1 -7.5v-8.5q0 -28 15 -52t44 -24
q12 0 26.5 5.5t30.5 18.5q5 4 9 4q3 0 3 -4q0 -7 -5 -10q-19 -16 -40.5 -23.5t-41.5 -7.5z" />
    <glyph glyph-name="z" unicode="z" horiz-adv-x="295" 
d="M-86 -309q-50 0 -78 24t-28 59q0 32 25.5 69.5t80.5 68.5q36 20 79 35.5t87 25.5t82 15t62 4q2 0 5 -0.5t7 -0.5q4 9 8 20.5t8 23.5q6 21 6 35q0 20 -9 28.5t-22 8.5q-6 0 -12 -2t-12 -5q-10 -4 -19.5 -12.5t-17.5 -16.5l-7.5 -7.5t-5.5 -6.5l-7 -6q-9 -3 -16 2.5
t-10.5 13.5t-0.5 10q37 34 55 70.5t19 58.5q0 10 -3.5 16.5t-11.5 6.5q-20 0 -57 -47l-18 -23q-10 -13 -19 -22q-3 -3 -8 -3q-1 0 0 3l24 31l11 17q10 15 23.5 35t27.5 30q22 16 43 16q16 0 26 -9t10 -26q0 -8 -2.5 -18.5t-8.5 -21.5q-7 -16 -18.5 -32.5t-22.5 -30.5
l-21 -26q-4 -5 -8 -11t-10 -17q14 12 26.5 21.5t22.5 15.5q35 18 56 18q22 0 30.5 -15t8.5 -37t-6 -45.5t-15 -43.5q55 -11 61 -32q0 -1 -2 -3h-2q-2 10 -18 17t-42 11q-23 -50 -62 -103.5t-87 -97t-100 -65.5q-31 -13 -57.5 -18.5t-49.5 -5.5zM-94 -300q21 0 47.5 7.5
t57.5 23.5q44 23 85 64.5t76.5 91.5t59.5 97l-11 1q-23 2 -60.5 -4t-81 -19t-85.5 -31t-75 -41q-45 -31 -66 -64.5t-21 -61.5t19 -46t55 -18z" />
    <glyph glyph-name="braceleft" unicode="{" horiz-adv-x="260" 
d="M150 -30q-44 0 -63 14q-15 12 -15 33q0 7 1.5 14t3.5 15q6 23 29 71q11 23 18.5 40.5t10.5 29.5t3 22q0 42 -67 43l14 16q53 6 78 22q27 17 48 64q5 14 13.5 34t20.5 48q24 57 64 80q37 22 97 22q6 0 9 -9l-14 -5q-70 0 -105 -56q-13 -29 -25.5 -58t-27.5 -58
q-37 -75 -104 -94q32 -14 32 -48q0 -11 -5 -28q-3 -12 -10 -29.5t-18 -40.5t-18 -40.5t-11 -28.5q-4 -15 -4 -26q0 -15 8 -21q1 0 50 -11l8 -8q-14 -7 -21 -7z" />
    <glyph glyph-name="bar" unicode="|" horiz-adv-x="147" 
d="M94 -120q-5 0 -14 7q-7 8 -13.5 21.5t-10.5 29.5q-4 14 -5.5 42t-1.5 68q0 61 3 145q8 134 15.5 206.5t16.5 79.5q10 8 16 8q4 0 8 -3q2 -3 2 -14q-2 -13 -4 -33.5t-5 -48.5q-22 -201 -24 -345q0 -12 -0.5 -21.5t-0.5 -17.5q0 -25 2.5 -45t6.5 -34q2 -5 4 -9t3 -7
q8 -5 17 -4q1 1 2 0.5t1 -1.5q1 0 1 -3q0 -4 -3 -9t-6 -8q-5 -4 -10 -4z" />
    <glyph glyph-name="braceright" unicode="}" horiz-adv-x="314" 
d="M31 -21q-5 0 -10 9q20 10 40 8.5t39 8.5q23 11 42 44q2 3 12 25.5t29 62.5q26 57 56 82q35 28 74 40q-40 13 -40 52q0 14 4 27q4 11 11 28t18 39q21 44 27 66q5 18 5 27q0 15 -9 19l-49 11l-7 7l13 8q52 0 70 -11q16 -10 16 -34q0 -6 -1 -13t-3 -15q-7 -23 -30 -70
q-12 -23 -19 -40t-11 -28q-1 -7 -2.5 -13t-1.5 -11q0 -18 12 -27q12 -11 57 -15l-16 -16q-82 -2 -119 -70l-60 -129q-47 -72 -147 -72z" />
    <glyph glyph-name="asciitilde" unicode="~" horiz-adv-x="295" 
d="M299 314q-15 0 -40 11q-24 12 -37 12q-17 0 -30.5 -11t-23.5 -11l-1 3q3 9 15.5 18t32.5 19q17 9 34 9q8 0 17 -2.5t21 -6.5q24 -9 37 -9q21 0 39 17q9 2 6 -5q-3 -15 -45 -37q-13 -7 -25 -7z" />
    <glyph glyph-name="uni00A0" unicode="&#xa0;" horiz-adv-x="203" 
 />
    <glyph glyph-name="exclamdown" unicode="&#xa1;" horiz-adv-x="187" 
d="M156 204q-10 0 -7 9q7 30 40 47q7 -1 13 -11q5 -7 5 -12q0 -10 -17 -22q-13 -10 -23 -10q-4 -1 -6.5 -1h-4.5zM-19 -207q-10 0 -10 12q0 6 3 15q7 24 21 55.5t34 68.5l68 123q6 11 12.5 27t14.5 35q8 18 16 18q6 0 7 -7q-4 -16 -15.5 -41.5t-28.5 -61.5
q-12 -26 -32.5 -71t-49.5 -110q5 -5 5 -13q0 -5 -1 -8q-3 -11 -17 -27q-15 -15 -27 -15z" />
    <glyph glyph-name="cent" unicode="&#xa2;" horiz-adv-x="369" 
d="M128 -138q-9 0 -12 19q-1 6 -1 13.5v14.5q0 21 3 48q2 17 8 43.5t16 62.5q-7 -1 -12.5 -1.5t-11.5 -0.5q-37 0 -52 19.5t-15 47.5q0 29 11.5 62t27.5 61q32 55 76 100t89 66q55 161 67 165q6 2 7 2q8 0 10 -11q0 -7 -3 -18l-15 -37.5t-20 -53.5q-3 -9 -6.5 -18t-6.5 -17
q4 1 7 1h6q31 0 31 -40q0 -14 -3.5 -24.5t-7.5 -15.5q-2 -5 -4 -5q-2 15 -7.5 24.5t-16.5 12.5q-10 3 -20 3q-28 -77 -52 -147.5t-43 -133.5q2 0 3.5 0.5t2.5 0.5q36 8 69.5 35t61.5 61q12 15 18 15q4 0 4 -6q0 -9 -6 -17q-29 -43 -72 -76.5t-91 -47.5v-1q-9 -27 -14 -45
t-7 -26q-12 -44 -15 -74q-1 -7 -0.5 -13t0.5 -11q3 -12 9 -14l2 -3v-1q0 -5 -4.5 -10.5t-7.5 -7.5q-1 0 -1.5 -0.5t-1.5 -0.5zM153 103q11 35 23.5 74.5t26.5 85.5l40 119q-29 -7 -53.5 -30.5t-42 -53.5t-27.5 -59q-6 -18 -9.5 -36t-3.5 -34q0 -27 10.5 -45.5t35.5 -20.5z
" />
    <glyph glyph-name="sterling" unicode="&#xa3;" horiz-adv-x="476" 
d="M477 -67q-69 0 -139 28.5t-136 62.5q-7 -13 -12 -24.5t-10 -19.5q-27 -46 -63 -46q-33 0 -61 38q-16 23 -26 52t-10 54q0 23 8.5 38t27.5 15q20 0 57 -19t85 -46q11 29 20 51t17 45q-19 -2 -33.5 -3t-24.5 -1q-24 0 -35 4q7 30 45 30h58q7 17 14 38t16 47q17 53 33 93
t32 68q56 102 129 102q37 0 57.5 -18t28.5 -46.5t6 -60.5q0 -12 -8 -12q-5 0 -4 12q2 41 -23 61q-24 21 -64 21q-51 0 -96 -77q-5 -12 -19 -48t-32.5 -83.5t-39.5 -97.5q23 0 45.5 -0.5t45.5 -0.5l-1 -2q2 0 2 -5q-2 -7 -20 -8q-16 -3 -52 -6q-8 -1 -15.5 -2t-15.5 -2
q-13 -30 -24.5 -57.5t-22.5 -50.5q45 -24 95.5 -48t101.5 -40t98 -16q30 1 50 18t15 51q-3 14 -11.5 23t-7.5 13q2 5 5.5 4t6.5 -3q33 -24 33 -52q0 -26 -26.5 -46.5t-64.5 -25.5q-9 -1 -17.5 -1.5t-17.5 -0.5zM116 -53q13 0 26 12t23 31q8 14 20 43q-18 9 -34.5 18
t-33.5 16q-22 11 -35 11q-17 0 -17 -23q0 -4 0.5 -9.5t1.5 -12.5q6 -46 19.5 -66t29.5 -20z" />
    <glyph glyph-name="currency" unicode="&#xa4;" horiz-adv-x="322" 
d="M74 167q-9 0 -9 13q0 7 6 19q4 6 13.5 19.5t21.5 29.5q-7 4 -10 12q-13 18 -13 37q0 5 1.5 11t2.5 12q9 28 31 50q-9 14 -15.5 23.5t-9.5 16.5q-5 11 -10.5 23.5t-6.5 21.5q3 8 5 8q3 0 10 -14q5 -12 17 -32t22 -35q17 12 34 18.5t34 6.5q16 0 29 -5q60 66 66 62
q8 -4 6 -15q0 -4 -3 -9q-12 -10 -33 -33q-4 -5 -8 -9l-9 -9l6 -7q12 -18 12 -40q0 -10 -3 -22q-9 -30 -32 -51l38 -37q9 -10 17 -18t14 -13l4 -8v-3q0 -8 -6 -12q-8 -4 -83 78q-31 -22 -64 -22q-12 0 -26 3q-8 -13 -17 -27.5t-19 -31.5q-6 -11 -13 -11zM161 272q10 0 19 4
t18 11q18 14 24 33q2 8 2 13q0 11 -7 21q-10 15 -29 15q-21 0 -39 -15q-17 -14 -23 -34q-2 -8 -2 -13q0 -12 7 -20q10 -15 30 -15z" />
    <glyph glyph-name="yen" unicode="&#xa5;" horiz-adv-x="306" 
d="M85 -177q-32 0 -32 32q0 6 1.5 13t3.5 15q18 64 149 233l-5 -1l5 13q-13 0 -24 -0.5t-21 -0.5q-49 0 -66 6q9 30 45 30q33 0 73 -3q6 30 6 61q-20 -1 -36 -1h-29q-42 0 -50 4q9 30 34 30q20 0 40 -1.5t39 -1.5q-8 84 -47 126v-9q0 -57 -47 -57q-9 0 -9 4q0 6 8 8
q23 2 23 24q0 13 -6.5 27.5t-12 27t-3.5 18.5q8 24 31 24q51 0 75 -76q18 -54 17 -117l68 -2q51 61 91.5 106t70.5 73q-4 -1 -8.5 -3t-8.5 -2q-11 0 -11 6q0 9 18 13q38 10 65 35q16 14 33 14q13 0 10 -9q0 -2 -7 -9q-56 -49 -112.5 -105t-113.5 -120l65 -2h25q5 -2 5 -5
q0 -9 -19 -12q-6 -1 -30 -2t-67 -2q-15 -17 -29 -34l-28 -34q26 -1 53 -1.5t54 -0.5l-1 -3h1v-2l-1 -4q0 -5 -18 -8q-14 -2 -42 -4t-69 -4q-61 -76 -96.5 -132.5t-46.5 -94.5q-6 -22 -6 -36q0 -20 13 -20q10 0 40 15q15 8 24 12t12 4q2 0 2 -2q0 -6 -14 -17q-46 -36 -84 -36
zM241 159l53 65l-48 -2q-3 -22 -12 -63h7z" />
    <glyph glyph-name="brokenbar" unicode="&#xa6;" horiz-adv-x="147" 
d="M54 229q8 117 15 180t15 70q10 8 16 8q5 0 8 -3q2 -3 2 -14q-2 -13 -4 -33.5t-5 -48.5q-9 -84 -15 -159h-32zM94 -120q-5 0 -14 7q-7 8 -13.5 21.5t-10.5 29.5q-4 14 -5.5 42t-1.5 68v45t1 49h30q-3 -52 -3 -99q0 -12 -0.5 -21.5t-0.5 -17.5q0 -25 2.5 -45t6.5 -34
q2 -5 4 -9t3 -7q8 -5 17 -4q1 1 2 0.5t1 -1.5q1 0 1 -3q0 -4 -3 -9t-6 -8q-5 -4 -10 -4z" />
    <glyph glyph-name="section" unicode="&#xa7;" horiz-adv-x="380" 
d="M-22 -149q-25 0 -21 17q7 23 49 34l37 6q41 7 72 15.5t52 19.5q80 42 80 76q0 28 -47 53q-25 14 -51 27t-52 28q-46 27 -46 62q0 27 29.5 55t85.5 58q15 27 54 54.5t100 55.5q117 53 178 53q47 0 47 -24q0 -5 -1 -8q-16 -58 -56 -105q-22 -28 -33 -28q-7 0 -3 9
q2 8 7.5 19t14.5 26q8 14 13.5 25t7.5 18q1 4 1.5 7t0.5 6q0 24 -37 24q-58 0 -149 -38q-118 -48 -118 -108q0 -35 46 -59q26 -14 53.5 -26t55.5 -25q51 -25 51 -54q0 -6 -1 -9q-15 -49 -112 -98q-27 -52 -140 -102q-14 -6 -168 -64zM292 40q61 36 61 66q0 28 -47 53
q-25 14 -52 27t-52 28q-45 27 -45 58q0 3 0.5 6t1.5 6q-40 -21 -58 -42t-18 -42q0 -33 44 -56q26 -13 53 -25t53 -25q58 -26 59 -54z" />
    <glyph glyph-name="dieresis" unicode="&#xa8;" horiz-adv-x="158" 
d="M99 322q-10 0 -10 12q0 3 0.5 6t1.5 6q5 14 22 27q16 13 31 13q6 0 6 -3q-1 -4 -4 -9.5t-7 -13.5q-4 -7 -7 -12t-4 -7q-4 -19 -29 -19zM9 322q-9 0 -9 11q0 3 0.5 6t1.5 7q5 14 21 27q17 13 32 13q8 0 5 -3q-1 -4 -3.5 -9.5t-7.5 -13.5q-8 -14 -10 -19q-6 -19 -30 -19z
" />
    <glyph glyph-name="copyright" unicode="&#xa9;" horiz-adv-x="376" 
d="M259 -4q-67 4 -121.5 32.5t-87 75t-32.5 104.5q0 22 5 45t16 47q33 72 84.5 117t113 65.5t123.5 20.5q56 0 107 -15.5t92 -44t64.5 -68.5t23.5 -89q0 -15 -2.5 -31.5t-8.5 -33.5q-12 -36 -43.5 -77t-80 -76.5t-112.5 -56t-141 -15.5zM291 11q62 0 112.5 20.5t89.5 53
t64 69t35 68.5q9 32 9 61q0 62 -35 107.5t-91 71t-120 25.5q-53 0 -105.5 -19.5t-96.5 -61.5t-72 -109q-10 -22 -14 -44t-4 -42q0 -54 27.5 -98t74.5 -70.5t104 -30.5q6 -1 11.5 -1h10.5zM268 60q-48 0 -81.5 27t-33.5 82q0 12 2 25t6 28q15 52 49 96t81.5 71t101.5 27h10
t10 -1q22 -2 29 -10q5 6 8 13t7 11q7 5 12 5t8 -4.5t-2 -9.5q-21 -27 -34 -52t-24 -56q-1 -5 -7 -5q-7 0 -4 9l17 40q6 14 6 23q0 15 -14 20q-16 6 -33 6q-33 0 -63.5 -20t-56 -50.5t-43 -64t-25.5 -59.5q-8 -30 -8 -52q0 -43 23.5 -63t60.5 -20q40 0 85 21q31 14 51 34
t43 48q3 3 6 2.5t0 -4.5q-23 -34 -45.5 -57.5t-51.5 -37.5q-22 -11 -45.5 -16.5t-44.5 -5.5z" />
    <glyph glyph-name="ordfeminine" unicode="&#xaa;" horiz-adv-x="300" 
d="M227 171q-31 0 -31 44q0 27 8 51t15 49q-16 -17 -30.5 -33t-31.5 -32q-16 -15 -33 -29.5t-34 -25.5q-31 -20 -47 -20t-16 19q0 22 17 59q10 22 27.5 48t36.5 51q18 22 42.5 45t53.5 39t58 16q23 0 38.5 -10.5t15.5 -33.5q0 -24 -9 -29q-3 -3 -9 -4.5l-6 -1.5
q-1 9 -8.5 19t-18.5 13q-12 4 -27 4q-33 0 -62.5 -19.5t-49.5 -46.5q-19 -23 -29 -48t-10 -43q0 -14 5 -19t11 -5q9 0 19.5 7.5t17.5 14.5q26 24 49.5 52t32.5 41q5 2 14.5 7t20.5 8l21 5q6 0 6 -1q-6 -8 -16 -33t-18.5 -53.5t-8.5 -48.5q0 -16 6 -21q3 -3 8 -3q8 0 17 5.5
t19 12.5q35 26 66.5 64t53.5 68l2 -2q2 -5 0 -8q-13 -17 -25 -35.5t-26 -36.5q-15 -17 -30.5 -33.5t-32.5 -30.5q-20 -16 -39 -26t-33 -10z" />
    <glyph glyph-name="guillemotleft" unicode="&#xab;" horiz-adv-x="353" 
d="M331 112l-6 4q-6 12 -14.5 24.5t-19.5 25.5l-42 43q-3 3 -1 6q3 11 66 74q29 30 48 48.5t28 26.5q12 10 21 10q7 0 5 -8q-5 -14 -119 -128q26 -51 39 -79.5t11 -33.5q-5 -14 -16 -13zM213 112l-6 4q-5 12 -13.5 24.5t-20.5 25.5l-42 43q-3 3 -1 6q2 5 18.5 24t47.5 50
q29 30 48 48.5t28 26.5q12 10 20 10t6 -8q-3 -12 -119 -128q52 -103 49 -113q-4 -14 -15 -13z" />
    <glyph glyph-name="logicalnot" unicode="&#xac;" horiz-adv-x="595" 
d="M474 72q-5 0 -5 9q0 5 5 20q4 13 11.5 45.5t19 72.5t25.5 73q-136 5 -226.5 9t-145 7.5t-81.5 6t-36.5 4.5t-10.5 3q-5 8 -5 14q0 9 11 9q5 0 18 0.5t43 0.5t84.5 0.5t142.5 1.5t218 3q16 0 21.5 -5.5t6.5 -16.5q-3 -24 -14.5 -60.5t-25 -74.5t-25 -67t-15.5 -37
q-9 -18 -16 -18z" />
    <glyph glyph-name="uni00AD" unicode="&#xad;" horiz-adv-x="225" 
d="M112 158q-11 -1 -20 0.5t-15 3.5q7 30 45 30q24 0 42.5 -0.5t38.5 -1t50 -0.5l-1 -2q2 0 2 -5q-2 -7 -20 -8q-8 -1 -21.5 -2.5t-30.5 -3.5q-26 -4 -39 -6.5t-31 -4.5z" />
    <glyph glyph-name="registered" unicode="&#xae;" horiz-adv-x="483" 
d="M259 -4q-67 4 -121.5 32.5t-87 75t-32.5 104.5q0 22 5 45t16 47q33 72 84.5 117t113 65.5t123.5 20.5q56 0 107 -15.5t92 -44t64.5 -68.5t23.5 -89q0 -15 -2.5 -31.5t-8.5 -33.5q-12 -36 -43.5 -77t-80 -76.5t-112.5 -56t-141 -15.5zM291 11q62 0 112.5 20.5t89.5 53
t64 69t35 68.5q9 32 9 61q0 62 -35 107.5t-91 71t-120 25.5q-53 0 -105.5 -19.5t-96.5 -61.5t-72 -109q-10 -22 -14 -44t-4 -42q0 -54 27.5 -98t74.5 -70.5t104 -30.5q6 -1 11.5 -1h10.5zM195 87q-19 0 -37 14q-15 11 -24 31t-13 41t-3 34q1 3 4 5.5t2 -2.5q2 -18 8 -39
t19.5 -36t34.5 -15q14 0 27 5.5t24 19.5q17 20 31 49.5t25 60.5l-4 5q-4 4 -10 6.5t-11 0.5q-3 0 2.5 4.5t13 10t8.5 6.5q4 0 10 -8q8 20 13 37.5t9 27.5l6.5 19.5t4.5 19.5q0 8 0.5 14.5t1.5 10.5q-20 0 -38.5 -1t-31.5 -3q-28 -4 -53.5 -15t-41.5 -28.5t-16 -39.5
q0 -13 8 -28.5t26 -32.5l14 -12t12 -12q2 -1 0.5 -2.5t-3.5 -0.5q-8 5 -26.5 17.5t-33.5 32.5t-15 48q0 30 21.5 48.5t54.5 28.5t69 13t64 1q3 3 7.5 6.5t10.5 8.5q9 8 17 18q5 4 5 -3q0 -5 -3.5 -14.5t-6.5 -11.5q-4 -4 -5 -6q5 0 10 -1t10 -1q53 -9 76 -31.5t23 -49.5
q0 -29 -19 -53.5t-47 -39t-56 -14.5q-19 0 -33 7q17 -22 36.5 -47.5t37.5 -46t32 -28.5q8 -5 16 -5q16 0 16 19q0 14 -6.5 30t-14.5 29q-2 5 1 5t5 -4q6 -8 11 -19.5t9 -21.5q4 -11 4 -21q0 -16 -9.5 -26.5t-24.5 -10.5q-25 0 -49.5 25.5t-48.5 61t-48 65.5q-14 -41 -29 -75
q-7 -17 -18.5 -36t-26.5 -32t-34 -13zM368 239q24 0 45.5 15t35.5 37.5t14 45.5q-1 23 -18.5 41.5t-58.5 25.5l-22 3q-2 -4 -4 -8.5t-4 -10.5q-5 -13 -11 -29.5t-14 -37.5l-18 -52l10 -13q1 0 1 -0.5t1 -0.5q20 -16 43 -16z" />
    <glyph glyph-name="macron" unicode="&#xaf;" horiz-adv-x="174" 
d="M0 326q0 7 1.5 17t8.5 10l140 -4q0 -7 -1 -10t-9 -4z" />
    <glyph glyph-name="degree" unicode="&#xb0;" horiz-adv-x="238" 
d="M202 267q-31 0 -46 22q-10 14 -10 31q0 11 3 21q9 31 36 52q29 23 59 23t46 -22q11 -16 11 -33q0 -9 -3 -20q-9 -30 -37 -52t-59 -22zM209 289q19 0 40 16q20 15 26 36q1 4 1.5 7t0.5 7q0 13 -7 23q-12 15 -32 15q-21 0 -41 -15q-19 -16 -25 -37q-1 -4 -1.5 -7.5
t-0.5 -7.5q0 -13 7 -21q11 -16 32 -16z" />
    <glyph glyph-name="plusminus" unicode="&#xb1;" horiz-adv-x="318" 
d="M171 74q-3 0 -3 6q0 5 1 8q2 7 4.5 13t5.5 11q53 83 58 102l-97 -1q-2 3 -2 8q3 9 14 15q5 3 10 5t9 1l81 -1q3 4 12.5 19t25.5 41l22 37q12 18 31 18q10 0 7 -7q-8 -29 -62 -109q18 0 36 1t36 1q42 0 42 -11q0 -3 -7.5 -6.5t-26.5 -4.5l-96 -8q-7 -13 -19.5 -32
t-29.5 -45q-42 -61 -52 -61zM88 13q-3 1 -8 1q-14 0 -14 8q0 11 12.5 22t23.5 11q8 0 5 -6q0 -1 -2 -5q23 0 46.5 -1t46.5 -1q13 0 23.5 0.5t17.5 1.5v1h11q5 0 15 -2t9 -4q-2 -6 -46 -14q-76 -12 -130 -12h-10z" />
    <glyph glyph-name="uni00B2" unicode="&#xb2;" horiz-adv-x="253" 
d="M180 258q-4 -4 -4 2q0 5 -1 9.5t-2 8.5q-1 11 -16 14t-35 3h-15t-15 -1t-17 -4t-19 -6q-1 -1 -13 -5t-13 -4q-10 0 -10 4q0 5 9.5 11.5t13.5 9.5l5 3l3 2q12 6 29.5 21.5t36 37.5t33 46t19.5 46q3 11 3 21q0 14 -8.5 23.5t-31.5 6.5q-9 -1 -16.5 -9t-10.5 -17
q-1 -6 -9 -6q-10 0 -10 11q0 2 1.5 9t2.5 9q2 7 3.5 13.5t2.5 10.5q1 6 5 5t4 -4q-1 -4 -2 -9.5t-1 -10.5q7 6 14.5 11.5t17.5 9.5q11 3 21 3q24 0 39.5 -15.5t15.5 -38.5q0 -12 -6 -26q-8 -21 -25 -43.5t-35 -41.5q-16 -18 -31.5 -32t-22.5 -21q14 2 27.5 2h26.5h36
q9 0 13 -6.5t4 -13.5q0 -8 -6 -18t-8 -18z" />
    <glyph glyph-name="uni00B3" unicode="&#xb3;" horiz-adv-x="219" 
d="M54 271q-22 0 -36 13.5t-18 24.5q1 2 3.5 3l2.5 1q2 -4 4 -7.5t5 -7.5q8 -10 31 -10q24 0 43 13.5t30 33t11 36.5q0 15 -9.5 25t-30.5 10q-5 0 -11 -1t-11 -3q-4 3 -4 5v5q13 8 31 17.5t31.5 22t13.5 28.5q-1 12 -6.5 21.5t-22.5 9.5q-13 0 -23 -8.5t-12 -16.5
q-4 -9 -12 -9t-8 9q0 3 2 9.5t3 8.5q4 13 6 25q1 6 4.5 5t3.5 -4q0 -4 -1 -10.5t0 -10.5q8 8 24 15t32 7t25 -8q14 -11 14 -30q0 -13 -6.5 -25.5t-16.5 -20.5q-7 -6 -14.5 -12t-15.5 -10q-3 -1 -3 -3q1 -1 5 -1q25 2 36 -11t11 -32q0 -29 -16 -53.5t-41 -39t-54 -14.5z" />
    <glyph glyph-name="acute" unicode="&#xb4;" horiz-adv-x="119" 
d="M2 326q0 5 11.5 15t45.5 37l39 33q5 3 9 3q14 0 14 -15q0 -8 -14 -17q-10 -7 -19.5 -11.5t-23.5 -12.5q-22 -13 -42 -25t-20 -7z" />
    <glyph glyph-name="uni00B5" unicode="&#xb5;" horiz-adv-x="220" 
d="M-256 -316q-28 0 -41 31q-6 15 -6 31q0 14 4 25q3 15 15 20l-3 -44q1 -34 26 -34q32 0 85 44q40 34 72 73q40 49 76 115t70 150q11 29 17 45.5t7 20.5l2 14q2 6 7 17.5t13 27.5q5 11 18 11h15q3 -4 1 -10q-1 -4 -29 -54q-15 -28 -25.5 -52t-16.5 -47q-4 -15 -4 -24
q0 -10 5 -10q18 0 76 65q52 60 83 117q11 21 28 21q10 0 10 -7q0 -5 -10 -18l-10 -13q-10 -20 -20 -45t-18 -55q-4 -13 -6 -24t-2 -19q0 -24 16 -24q15 0 44 33q15 16 24 25t12 9q4 0 4 -4q0 -11 -49 -54q-46 -40 -60 -40q-23 0 -23 31q0 20 7 45q3 10 9 26.5t15 38.5
q-15 -18 -33 -37.5t-38 -40.5q-66 -66 -87 -66q-5 0 -8 3q-42 -96 -99 -177q-40 -55 -77.5 -89.5t-75.5 -47.5q-9 -3 -20 -3z" />
    <glyph glyph-name="paragraph" unicode="&#xb6;" horiz-adv-x="600" 
d="M159 0l99 283q-113 0 -113 70q0 17 8 41q11 34 38 62.5t63 42.5q20 8 40.5 9.5t39.5 1.5h104l-7 -20h-15l-172 -490h-22l172 490h-38l-172 -490h-25z" />
    <glyph glyph-name="periodcentered" unicode="&#xb7;" horiz-adv-x="152" 
d="M95 125q-8 0 -14 9q-5 8 -5 12q0 7 5 12t12 10q17 13 29 13q11 0 11 -11q0 -6 -5 -15.5t-16 -20.5q-9 -9 -17 -9z" />
    <glyph glyph-name="cedilla" unicode="&#xb8;" horiz-adv-x="144" 
d="M44 -157q-19 0 -40 6q-5 2 -3 8q2 2 5 3l6 2q6 -1 12 -2.5t11 -1.5q22 0 36 12t14 29q0 7 -5 19q-7 13 -7 27q0 24 24 47q17 16 39 16q8 0 8 -7q-40 -6 -40 -39q0 -16 8 -29q10 -17 10 -33q0 -25 -22.5 -41t-55.5 -16z" />
    <glyph glyph-name="uni00B9" unicode="&#xb9;" horiz-adv-x="211" 
d="M74 278q-5 0 -6 3.5t0 7.5q0 2 0.5 3t0.5 2q14 47 34.5 91.5t36.5 91.5q-31 -27 -44 -36t-15 -10q-6 -4 -6 1q0 6 2 8q24 20 47.5 42t36.5 39q2 2 3.5 4.5t3.5 4.5t9 2q6 0 11.5 -1.5t4.5 -5.5q-9 -20 -21 -45.5t-25 -52.5q-13 -28 -24 -56t-19 -55q-1 -4 -0.5 -6t0.5 -6
v-6q-1 -5 -11.5 -12.5t-18.5 -7.5z" />
    <glyph glyph-name="ordmasculine" unicode="&#xba;" horiz-adv-x="270" 
d="M101 171q-24 0 -40.5 18t-16.5 56q0 34 15 68t40.5 61.5t56.5 41.5q8 3 15 5t14 2q15 0 26 -8t11 -25q0 -4 -0.5 -7t-1.5 -7t-5.5 -7t-4.5 1q2 17 -6.5 26t-21.5 9q-9 0 -17 -4q-38 -18 -59.5 -59.5t-21.5 -79.5q1 -28 12 -42t28 -14q20 0 43 16q23 17 39.5 46.5t25.5 63
t9 60.5q0 16 -3.5 28.5t-11.5 17.5q-12 9 -26 9q-9 0 -16 -5q-6 -4 -7 -4q-4 0 -4 5q0 4 4 10q6 10 19 15t27 5q16 0 28 -7q26 -14 26 -59q0 -32 -13.5 -72t-37 -76.5t-53.5 -59.5q-36 -28 -72 -28z" />
    <glyph glyph-name="guillemotright" unicode="&#xbb;" horiz-adv-x="353" 
d="M106 106q-7 0 -5 7q4 14 119 129q-25 50 -38 79t-12 34q5 13 16 13l6 -4q6 -12 14.5 -24.5t19.5 -25.5l42 -43q3 -2 1 -6q-3 -10 -65 -74q-29 -29 -48.5 -48t-28.5 -27q-12 -10 -21 -10zM238 106q-8 0 -6 7q4 14 119 129q-25 50 -38 79t-12 34q5 13 16 13l6 -4
q6 -12 14.5 -24.5t19.5 -25.5l42 -43q3 -2 1 -6q-1 -5 -17.5 -23.5t-47.5 -50.5q-29 -29 -48.5 -48t-28.5 -27q-12 -10 -20 -10z" />
    <glyph glyph-name="onequarter" unicode="&#xbc;" horiz-adv-x="613" 
d="M59 -60q-9 0 -9 10q0 6 2 12q9 30 33 69q22 35 96 118q25 28 54 59.5t62 67.5q116 122 179.5 184t73.5 62q14 0 14 -10q0 -6 -3 -10.5t-8 -9.5q-13 -12 -31 -29.5t-42 -40.5q-89 -87 -164 -164.5t-135 -144.5q-19 -22 -31.5 -36t-18.5 -21q-15 -18 -26.5 -33t-18.5 -28
q-4 -7 -6.5 -12.5t-3.5 -9.5q-1 -3 -1 -7q0 -6 4 -10q1 -1 1 -3q-2 -5 -9 -9t-12 -4zM74 278q-5 0 -6 3.5t0 7.5q0 2 0.5 3t0.5 2q14 47 34.5 91.5t36.5 91.5q-31 -27 -44 -36t-15 -10q-6 -4 -6 1q0 6 2 8q24 20 47.5 42t36.5 39q2 2 3.5 4.5t3.5 4.5t9 2q6 0 11.5 -1.5
t4.5 -5.5q-9 -20 -21 -45.5t-25 -52.5q-13 -28 -24 -56t-19 -55q-1 -4 -0.5 -6t0.5 -6v-6q-1 -5 -11.5 -12.5t-18.5 -7.5zM391 -10q-5 0 -6 3.5t0 7.5q0 2 0.5 3t0.5 2q5 18 13.5 36.5t15.5 35.5l-41 -2q-13 -1 -25 -2.5t-17 -3.5q-2 -1 -5 -1q-8 0 -8 10q0 5 4 9
q7 5 23 20.5t33.5 33.5t31.5 34t18 23q-1 2 -1 7q0 4 3 10l6 6t9 8l19 18q2 3 8 3q2 0 3 -4t-1 -8q-17 -22 -39 -51t-40.5 -54t-26.5 -37l55 4q5 10 13.5 29t18 39t15.5 32q4 8 9 8t8 -6.5t0 -11.5q-11 -21 -21 -44l-20 -46q8 1 13 1h10q11 0 17 -1.5t6 -9.5q0 -6 -5 -14
q-1 -4 -3 -9l-4 -10h-6q1 3 1 7q0 9 -6.5 12.5t-14.5 3.5q-4 0 -8.5 -0.5t-8.5 -1.5q-4 -11 -8.5 -25.5t-7.5 -25.5q-1 -4 -0.5 -6t0.5 -6v-6q-2 -5 -12.5 -12.5t-18.5 -7.5z" />
    <glyph glyph-name="onehalf" unicode="&#xbd;" horiz-adv-x="613" 
d="M59 -60q-9 0 -9 10q0 6 2 12q9 30 33 69q22 35 96 118q25 28 54 59.5t62 67.5q116 122 179.5 184t73.5 62q14 0 14 -10q0 -6 -3 -10.5t-8 -9.5q-13 -12 -31 -29.5t-42 -40.5q-89 -87 -164 -164.5t-135 -144.5q-19 -22 -31.5 -36t-18.5 -21q-15 -18 -26.5 -33t-18.5 -28
q-4 -7 -6.5 -12.5t-3.5 -9.5q-1 -3 -1 -7q0 -6 4 -10q1 -1 1 -3q-2 -5 -9 -9t-12 -4zM74 278q-5 0 -6 3.5t0 7.5q0 2 0.5 3t0.5 2q14 47 34.5 91.5t36.5 91.5q-31 -27 -44 -36t-15 -10q-6 -4 -6 1q0 6 2 8q24 20 47.5 42t36.5 39q2 2 3.5 4.5t3.5 4.5t9 2q6 0 11.5 -1.5
t4.5 -5.5q-9 -20 -21 -45.5t-25 -52.5q-13 -28 -24 -56t-19 -55q-1 -4 -0.5 -6t0.5 -6v-6q-1 -5 -11.5 -12.5t-18.5 -7.5zM459 -28q-4 -4 -4 2q0 5 -1 9.5t-2 8.5q-1 11 -16 14t-35 3h-15t-15 -1t-17 -4t-19 -6q-1 -1 -13 -5t-13 -4q-10 0 -10 4q0 5 9.5 11.5t13.5 9.5l5 3
l3 2q12 6 29.5 21.5t36 37.5t33 46t19.5 46q3 11 3 21q0 14 -8.5 23.5t-31.5 6.5q-9 -1 -16.5 -9t-10.5 -17q-1 -6 -9 -6q-10 0 -10 11q0 2 1.5 9t2.5 9q2 7 3.5 13.5t2.5 10.5q1 6 5 5t4 -4q-1 -4 -2 -9.5t-1 -10.5q7 6 14.5 11.5t17.5 9.5q11 3 21 3q24 0 39.5 -15.5
t15.5 -38.5q0 -12 -6 -26q-8 -21 -25 -43.5t-35 -41.5q-16 -18 -31.5 -32t-22.5 -21q14 2 27.5 2h26.5h36q9 0 13 -6.5t4 -13.5q0 -8 -6 -18t-8 -18z" />
    <glyph glyph-name="threequarters" unicode="&#xbe;" horiz-adv-x="563" 
d="M9 -60q-9 0 -9 10q0 6 2 12q9 30 33 69q22 35 96 118q25 28 54 59.5t62 67.5q116 122 179.5 184t73.5 62q14 0 14 -10q0 -6 -3 -10.5t-8 -9.5q-13 -12 -31 -29.5t-42 -40.5q-89 -87 -164 -164.5t-135 -144.5q-19 -22 -31.5 -36t-18.5 -21q-15 -18 -26.5 -33t-18.5 -28
q-4 -7 -6.5 -12.5t-3.5 -9.5q-1 -3 -1 -7q0 -6 4 -10q1 -1 1 -3q-2 -5 -9 -9t-12 -4zM54 271q-22 0 -36 13.5t-18 24.5q1 2 3.5 3l2.5 1q2 -4 4 -7.5t5 -7.5q8 -10 31 -10q24 0 43 13.5t30 33t11 36.5q0 15 -9.5 25t-30.5 10q-5 0 -11 -1t-11 -3q-4 3 -4 5v5q13 8 31 17.5
t31.5 22t13.5 28.5q-1 12 -6.5 21.5t-22.5 9.5q-13 0 -23 -8.5t-12 -16.5q-4 -9 -12 -9t-8 9q0 3 2 9.5t3 8.5q4 13 6 25q1 6 4.5 5t3.5 -4q0 -4 -1 -10.5t0 -10.5q8 8 24 15t32 7t25 -8q14 -11 14 -30q0 -13 -6.5 -25.5t-16.5 -20.5q-7 -6 -14.5 -12t-15.5 -10q-3 -1 -3 -3
q1 -1 5 -1q25 2 36 -11t11 -32q0 -29 -16 -53.5t-41 -39t-54 -14.5zM341 -10q-5 0 -6 3.5t0 7.5q0 2 0.5 3t0.5 2q5 18 13.5 36.5t15.5 35.5l-41 -2q-13 -1 -25 -2.5t-17 -3.5q-2 -1 -5 -1q-8 0 -8 10q0 5 4 9q7 5 23 20.5t33.5 33.5t31.5 34t18 23q-1 2 -1 7q0 4 3 10l6 6
t9 8l19 18q2 3 8 3q2 0 3 -4t-1 -8q-17 -22 -39 -51t-40.5 -54t-26.5 -37l55 4q5 10 13.5 29t18 39t15.5 32q4 8 9 8t8 -6.5t0 -11.5q-11 -21 -21 -44l-20 -46q8 1 13 1h10q11 0 17 -1.5t6 -9.5q0 -6 -5 -14q-1 -4 -3 -9l-4 -10h-6q1 3 1 7q0 9 -6.5 12.5t-14.5 3.5
q-4 0 -8.5 -0.5t-8.5 -1.5q-4 -11 -8.5 -25.5t-7.5 -25.5q-1 -4 -0.5 -6t0.5 -6v-6q-2 -5 -12.5 -12.5t-18.5 -7.5z" />
    <glyph glyph-name="questiondown" unicode="&#xbf;" horiz-adv-x="194" 
d="M178 105q-12 0 -12 11q0 15 21 36q9 9 17 9t14 -9q5 -8 5 -13q0 -7 -5 -12t-12 -10q-18 -12 -28 -12zM20 -314q-40 0 -78 10t-59 26q-33 24 -33 63q0 23 13.5 47t41.5 45q22 17 53.5 33.5t64.5 32.5t60.5 32.5t43.5 33t12 32.5l-1 4q0 10 10 10q9 0 9 -9
q3 -45 -20.5 -72.5t-63 -48.5t-85.5 -47q-60 -34 -80.5 -54.5t-20.5 -45.5q0 -22 19 -37.5t48.5 -24t62.5 -8.5q38 0 74.5 12.5t55.5 39.5q7 10 7 22q0 9 -4 17q-1 1 -1 5q0 5 4 5q11 0 17.5 -8t6.5 -20q0 -13 -9 -28q-10 -17 -34 -34t-60 -27q-24 -6 -54 -6z" />
    <glyph glyph-name="Agrave" unicode="&#xc0;" horiz-adv-x="591" 
d="M153 167q-15 0 -24 5q-4 1 -4 4q0 2 2.5 3t6.5 -1q6 -2 9 -2q13 0 27 10t24.5 27t10.5 38q0 12 -5 27q-5 14 -14 27.5t-15 26.5q-8 17 -11.5 31t-3.5 27q0 32 20 50.5t51.5 29t66.5 15.5t64 9q25 3 60.5 8.5t74.5 12t74.5 14.5t61 16t32.5 16q2 2 4 2q3 0 3.5 -3t-2.5 -6
q-11 -12 -46 -24t-82.5 -23t-98.5 -21t-96 -19t-73 -17q-91 -25 -91 -83q0 -23 13 -44.5t25.5 -42.5t12.5 -43q0 -31 -25.5 -50.5t-51.5 -19.5zM141 -14q-42 0 -70 19.5t-42 50.5t-14 67q0 24 6 46q3 20 14 20q3 0 3 -4t-2.5 -10.5t-1.5 -8.5q3 -72 34 -105.5t76 -33.5
q64 0 135 57q26 21 52.5 50.5t52.5 63.5q-12 -2 -23.5 -5t-22.5 -6q-14 -4 -26 -7t-21 -4q-4 -1 -8 -1h-7q-11 0 -12 4t2 8q6 8 17.5 15.5t21.5 8.5q21 3 47 7.5t54 8.5q38 52 74 105t66 94q11 14 20.5 26t19.5 24q13 16 36 20q5 6 20 20.5t27 19.5q4 2 5 2q5 0 5.5 -4.5
t-1.5 -6.5q-9 -7 -19 -20.5t-16 -26.5q-27 -59 -50 -121t-43 -125q22 -1 33.5 -11.5t11.5 -21.5q0 -14 -8.5 -15.5t-4.5 6.5q2 3 2 8q0 8 -11 13t-28 6q-7 -22 -15.5 -56t-13.5 -65q-1 -9 -1.5 -16.5t-0.5 -13.5q0 -23 7 -33t18 -10q14 0 31.5 11.5t34.5 27.5t28 30
q2 2 11 14t20 25.5t17 21.5q1 2 5.5 0.5t2.5 -3.5q-24 -34 -51 -67q-13 -15 -34.5 -38t-46.5 -40.5t-49 -17.5q-3 0 -6 0.5t-6 1.5q-16 4 -23 20t-7 38q0 11 2 24t5 26q7 27 18 58.5t23 61.5q-3 0 -5.5 -0.5t-5.5 -0.5q-25 -2 -50 -6.5t-40 -7.5q-38 -55 -81 -105
t-90.5 -81.5t-100.5 -31.5zM431 231q25 2 47.5 3t42.5 1q8 18 14.5 33.5t10.5 27.5q17 44 31 82t14 45q0 3 -12 1t-29 -22q-27 -32 -57 -77.5t-62 -93.5zM720 599q0 -3 -10.5 1.5t-26 12.5t-31.5 14q-15 7 -24.5 10.5t-20.5 9.5q-16 8 -16 15v2q0 13 12 15q3 0 9 -2l43 -29
q36 -23 50 -33.5t15 -15.5z" />
    <glyph glyph-name="Aacute" unicode="&#xc1;" horiz-adv-x="591" 
d="M153 167q-15 0 -24 5q-4 1 -4 4q0 2 2.5 3t6.5 -1q6 -2 9 -2q13 0 27 10t24.5 27t10.5 38q0 12 -5 27q-5 14 -14 27.5t-15 26.5q-8 17 -11.5 31t-3.5 27q0 32 20 50.5t51.5 29t66.5 15.5t64 9q25 3 60.5 8.5t74.5 12t74.5 14.5t61 16t32.5 16q2 2 4 2q3 0 3.5 -3t-2.5 -6
q-11 -12 -46 -24t-82.5 -23t-98.5 -21t-96 -19t-73 -17q-91 -25 -91 -83q0 -23 13 -44.5t25.5 -42.5t12.5 -43q0 -31 -25.5 -50.5t-51.5 -19.5zM141 -14q-42 0 -70 19.5t-42 50.5t-14 67q0 24 6 46q3 20 14 20q3 0 3 -4t-2.5 -10.5t-1.5 -8.5q3 -72 34 -105.5t76 -33.5
q64 0 135 57q26 21 52.5 50.5t52.5 63.5q-12 -2 -23.5 -5t-22.5 -6q-14 -4 -26 -7t-21 -4q-4 -1 -8 -1h-7q-11 0 -12 4t2 8q6 8 17.5 15.5t21.5 8.5q21 3 47 7.5t54 8.5q38 52 74 105t66 94q11 14 20.5 26t19.5 24q13 16 36 20q5 6 20 20.5t27 19.5q4 2 5 2q5 0 5.5 -4.5
t-1.5 -6.5q-9 -7 -19 -20.5t-16 -26.5q-27 -59 -50 -121t-43 -125q22 -1 33.5 -11.5t11.5 -21.5q0 -14 -8.5 -15.5t-4.5 6.5q2 3 2 8q0 8 -11 13t-28 6q-7 -22 -15.5 -56t-13.5 -65q-1 -9 -1.5 -16.5t-0.5 -13.5q0 -23 7 -33t18 -10q14 0 31.5 11.5t34.5 27.5t28 30
q2 2 11 14t20 25.5t17 21.5q1 2 5.5 0.5t2.5 -3.5q-24 -34 -51 -67q-13 -15 -34.5 -38t-46.5 -40.5t-49 -17.5q-3 0 -6 0.5t-6 1.5q-16 4 -23 20t-7 38q0 11 2 24t5 26q7 27 18 58.5t23 61.5q-3 0 -5.5 -0.5t-5.5 -0.5q-25 -2 -50 -6.5t-40 -7.5q-38 -55 -81 -105
t-90.5 -81.5t-100.5 -31.5zM431 231q25 2 47.5 3t42.5 1q8 18 14.5 33.5t10.5 27.5q17 44 31 82t14 45q0 3 -12 1t-29 -22q-27 -32 -57 -77.5t-62 -93.5zM643 599q1 5 15 15.5t50 33.5l43 29q6 2 9 2q12 -2 12 -15q0 -8 -16 -17q-10 -6 -20 -9.5t-25 -10.5q-15 -6 -31 -14
t-26.5 -12.5t-10.5 -1.5z" />
    <glyph glyph-name="Acircumflex" unicode="&#xc2;" horiz-adv-x="591" 
d="M153 167q-15 0 -24 5q-4 1 -4 4q0 2 2.5 3t6.5 -1q6 -2 9 -2q13 0 27 10t24.5 27t10.5 38q0 12 -5 27q-5 14 -14 27.5t-15 26.5q-8 17 -11.5 31t-3.5 27q0 32 20 50.5t51.5 29t66.5 15.5t64 9q25 3 60.5 8.5t74.5 12t74.5 14.5t61 16t32.5 16q2 2 4 2q3 0 3.5 -3t-2.5 -6
q-11 -12 -46 -24t-82.5 -23t-98.5 -21t-96 -19t-73 -17q-91 -25 -91 -83q0 -23 13 -44.5t25.5 -42.5t12.5 -43q0 -31 -25.5 -50.5t-51.5 -19.5zM141 -14q-42 0 -70 19.5t-42 50.5t-14 67q0 24 6 46q3 20 14 20q3 0 3 -4t-2.5 -10.5t-1.5 -8.5q3 -72 34 -105.5t76 -33.5
q64 0 135 57q26 21 52.5 50.5t52.5 63.5q-12 -2 -23.5 -5t-22.5 -6q-14 -4 -26 -7t-21 -4q-4 -1 -8 -1h-7q-11 0 -12 4t2 8q6 8 17.5 15.5t21.5 8.5q21 3 47 7.5t54 8.5q38 52 74 105t66 94q11 14 20.5 26t19.5 24q13 16 36 20q5 6 20 20.5t27 19.5q4 2 5 2q5 0 5.5 -4.5
t-1.5 -6.5q-9 -7 -19 -20.5t-16 -26.5q-27 -59 -50 -121t-43 -125q22 -1 33.5 -11.5t11.5 -21.5q0 -14 -8.5 -15.5t-4.5 6.5q2 3 2 8q0 8 -11 13t-28 6q-7 -22 -15.5 -56t-13.5 -65q-1 -9 -1.5 -16.5t-0.5 -13.5q0 -23 7 -33t18 -10q14 0 31.5 11.5t34.5 27.5t28 30
q2 2 11 14t20 25.5t17 21.5q1 2 5.5 0.5t2.5 -3.5q-24 -34 -51 -67q-13 -15 -34.5 -38t-46.5 -40.5t-49 -17.5q-3 0 -6 0.5t-6 1.5q-16 4 -23 20t-7 38q0 11 2 24t5 26q7 27 18 58.5t23 61.5q-3 0 -5.5 -0.5t-5.5 -0.5q-25 -2 -50 -6.5t-40 -7.5q-38 -55 -81 -105
t-90.5 -81.5t-100.5 -31.5zM431 231q25 2 47.5 3t42.5 1q8 18 14.5 33.5t10.5 27.5q17 44 31 82t14 45q0 3 -12 1t-29 -22q-27 -32 -57 -77.5t-62 -93.5zM778 583q-4 -1 -20 8.5t-27 17.5q-8 6 -19.5 13t-17.5 11q-7 -4 -16 -7.5t-17 -7.5q-31 -16 -45 -23t-22 -10
q-2 0 -1 3q4 6 17 17t32 25q14 11 26 19.5t27 21.5q7 7 10 7q2 0 7 -7q2 -4 12 -17.5t17 -22.5q9 -11 23.5 -26.5t15.5 -17.5q3 -4 -2 -4z" />
    <glyph glyph-name="Atilde" unicode="&#xc3;" horiz-adv-x="591" 
d="M153 167q-15 0 -24 5q-4 1 -4 4q0 2 2.5 3t6.5 -1q6 -2 9 -2q13 0 27 10t24.5 27t10.5 38q0 12 -5 27q-5 14 -14 27.5t-15 26.5q-8 17 -11.5 31t-3.5 27q0 32 20 50.5t51.5 29t66.5 15.5t64 9q25 3 60.5 8.5t74.5 12t74.5 14.5t61 16t32.5 16q2 2 4 2q3 0 3.5 -3t-2.5 -6
q-11 -12 -46 -24t-82.5 -23t-98.5 -21t-96 -19t-73 -17q-91 -25 -91 -83q0 -23 13 -44.5t25.5 -42.5t12.5 -43q0 -31 -25.5 -50.5t-51.5 -19.5zM141 -14q-42 0 -70 19.5t-42 50.5t-14 67q0 24 6 46q3 20 14 20q3 0 3 -4t-2.5 -10.5t-1.5 -8.5q3 -72 34 -105.5t76 -33.5
q64 0 135 57q26 21 52.5 50.5t52.5 63.5q-12 -2 -23.5 -5t-22.5 -6q-14 -4 -26 -7t-21 -4q-4 -1 -8 -1h-7q-11 0 -12 4t2 8q6 8 17.5 15.5t21.5 8.5q21 3 47 7.5t54 8.5q38 52 74 105t66 94q11 14 20.5 26t19.5 24q13 16 36 20q5 6 20 20.5t27 19.5q4 2 5 2q5 0 5.5 -4.5
t-1.5 -6.5q-9 -7 -19 -20.5t-16 -26.5q-27 -59 -50 -121t-43 -125q22 -1 33.5 -11.5t11.5 -21.5q0 -14 -8.5 -15.5t-4.5 6.5q2 3 2 8q0 8 -11 13t-28 6q-7 -22 -15.5 -56t-13.5 -65q-1 -9 -1.5 -16.5t-0.5 -13.5q0 -23 7 -33t18 -10q14 0 31.5 11.5t34.5 27.5t28 30
q2 2 11 14t20 25.5t17 21.5q1 2 5.5 0.5t2.5 -3.5q-24 -34 -51 -67q-13 -15 -34.5 -38t-46.5 -40.5t-49 -17.5q-3 0 -6 0.5t-6 1.5q-16 4 -23 20t-7 38q0 11 2 24t5 26q7 27 18 58.5t23 61.5q-3 0 -5.5 -0.5t-5.5 -0.5q-25 -2 -50 -6.5t-40 -7.5q-38 -55 -81 -105
t-90.5 -81.5t-100.5 -31.5zM431 231q25 2 47.5 3t42.5 1q8 18 14.5 33.5t10.5 27.5q17 44 31 82t14 45q0 3 -12 1t-29 -22q-27 -32 -57 -77.5t-62 -93.5zM733 597q-14 0 -28 9t-27.5 17.5t-28.5 8.5t-22 -5.5t-13 -13.5q-4 -6 -5 -10.5t-3 -4.5t-2 9q0 7 7 21t18 26.5
t23 12.5q13 0 27 -9.5t28.5 -19t27.5 -9.5q9 0 20.5 4t19.5 16q3 5 5.5 8t5.5 3q5 0 2 -6q-4 -9 -12.5 -22.5t-19.5 -24t-23 -10.5z" />
    <glyph glyph-name="Adieresis" unicode="&#xc4;" horiz-adv-x="591" 
d="M153 167q-15 0 -24 5q-4 1 -4 4q0 2 2.5 3t6.5 -1q6 -2 9 -2q13 0 27 10t24.5 27t10.5 38q0 12 -5 27q-5 14 -14 27.5t-15 26.5q-8 17 -11.5 31t-3.5 27q0 32 20 50.5t51.5 29t66.5 15.5t64 9q25 3 60.5 8.5t74.5 12t74.5 14.5t61 16t32.5 16q2 2 4 2q3 0 3.5 -3t-2.5 -6
q-11 -12 -46 -24t-82.5 -23t-98.5 -21t-96 -19t-73 -17q-91 -25 -91 -83q0 -23 13 -44.5t25.5 -42.5t12.5 -43q0 -31 -25.5 -50.5t-51.5 -19.5zM141 -14q-42 0 -70 19.5t-42 50.5t-14 67q0 24 6 46q3 20 14 20q3 0 3 -4t-2.5 -10.5t-1.5 -8.5q3 -72 34 -105.5t76 -33.5
q64 0 135 57q26 21 52.5 50.5t52.5 63.5q-12 -2 -23.5 -5t-22.5 -6q-14 -4 -26 -7t-21 -4q-4 -1 -8 -1h-7q-11 0 -12 4t2 8q6 8 17.5 15.5t21.5 8.5q21 3 47 7.5t54 8.5q38 52 74 105t66 94q11 14 20.5 26t19.5 24q13 16 36 20q5 6 20 20.5t27 19.5q4 2 5 2q5 0 5.5 -4.5
t-1.5 -6.5q-9 -7 -19 -20.5t-16 -26.5q-27 -59 -50 -121t-43 -125q22 -1 33.5 -11.5t11.5 -21.5q0 -14 -8.5 -15.5t-4.5 6.5q2 3 2 8q0 8 -11 13t-28 6q-7 -22 -15.5 -56t-13.5 -65q-1 -9 -1.5 -16.5t-0.5 -13.5q0 -23 7 -33t18 -10q14 0 31.5 11.5t34.5 27.5t28 30
q2 2 11 14t20 25.5t17 21.5q1 2 5.5 0.5t2.5 -3.5q-24 -34 -51 -67q-13 -15 -34.5 -38t-46.5 -40.5t-49 -17.5q-3 0 -6 0.5t-6 1.5q-16 4 -23 20t-7 38q0 11 2 24t5 26q7 27 18 58.5t23 61.5q-3 0 -5.5 -0.5t-5.5 -0.5q-25 -2 -50 -6.5t-40 -7.5q-38 -55 -81 -105
t-90.5 -81.5t-100.5 -31.5zM431 231q25 2 47.5 3t42.5 1q8 18 14.5 33.5t10.5 27.5q17 44 31 82t14 45q0 3 -12 1t-29 -22q-27 -32 -57 -77.5t-62 -93.5zM728 599q-10 0 -10 11q0 5 2 11q5 14 21 26q15 12 30 12q5 0 5 -2q-1 -4 -3.5 -9.5t-6.5 -12.5l-11 -18
q-1 -10 -8.5 -14t-18.5 -4zM642 599q-8 0 -8 10q0 3 0.5 6t0.5 6q5 14 20 26q16 12 31 12q7 0 5 -2q-1 -7 -11 -22l-9 -18q-6 -18 -29 -18z" />
    <glyph glyph-name="Aring" unicode="&#xc5;" horiz-adv-x="591" 
d="M153 167q-15 0 -24 5q-4 1 -4 4q0 2 2.5 3t6.5 -1q6 -2 9 -2q13 0 27 10t24.5 27t10.5 38q0 12 -5 27q-5 14 -14 27.5t-15 26.5q-8 17 -11.5 31t-3.5 27q0 32 20 50.5t51.5 29t66.5 15.5t64 9q25 3 60.5 8.5t74.5 12t74.5 14.5t61 16t32.5 16q2 2 4 2q3 0 3.5 -3t-2.5 -6
q-11 -12 -46 -24t-82.5 -23t-98.5 -21t-96 -19t-73 -17q-91 -25 -91 -83q0 -23 13 -44.5t25.5 -42.5t12.5 -43q0 -31 -25.5 -50.5t-51.5 -19.5zM141 -14q-42 0 -70 19.5t-42 50.5t-14 67q0 24 6 46q3 20 14 20q3 0 3 -4t-2.5 -10.5t-1.5 -8.5q3 -72 34 -105.5t76 -33.5
q64 0 135 57q26 21 52.5 50.5t52.5 63.5q-12 -2 -23.5 -5t-22.5 -6q-14 -4 -26 -7t-21 -4q-4 -1 -8 -1h-7q-11 0 -12 4t2 8q6 8 17.5 15.5t21.5 8.5q21 3 47 7.5t54 8.5q38 52 74 105t66 94q11 14 20.5 26t19.5 24q13 16 36 20q5 6 20 20.5t27 19.5q4 2 5 2q5 0 5.5 -4.5
t-1.5 -6.5q-9 -7 -19 -20.5t-16 -26.5q-27 -59 -50 -121t-43 -125q22 -1 33.5 -11.5t11.5 -21.5q0 -14 -8.5 -15.5t-4.5 6.5q2 3 2 8q0 8 -11 13t-28 6q-7 -22 -15.5 -56t-13.5 -65q-1 -9 -1.5 -16.5t-0.5 -13.5q0 -23 7 -33t18 -10q14 0 31.5 11.5t34.5 27.5t28 30
q2 2 11 14t20 25.5t17 21.5q1 2 5.5 0.5t2.5 -3.5q-24 -34 -51 -67q-13 -15 -34.5 -38t-46.5 -40.5t-49 -17.5q-3 0 -6 0.5t-6 1.5q-16 4 -23 20t-7 38q0 11 2 24t5 26q7 27 18 58.5t23 61.5q-3 0 -5.5 -0.5t-5.5 -0.5q-25 -2 -50 -6.5t-40 -7.5q-38 -55 -81 -105
t-90.5 -81.5t-100.5 -31.5zM431 231q25 2 47.5 3t42.5 1q8 18 14.5 33.5t10.5 27.5q17 44 31 82t14 45q0 3 -12 1t-29 -22q-27 -32 -57 -77.5t-62 -93.5zM695 588q-20 0 -34.5 13t-14.5 31q0 20 24 38t50 18q21 0 35.5 -11.5t14.5 -30.5q0 -25 -24 -41.5t-51 -16.5zM698 597
q14 0 27.5 14t13.5 37q0 14 -5.5 22.5t-15.5 8.5q-14 0 -28.5 -16t-14.5 -34q0 -13 6.5 -22.5t16.5 -9.5z" />
    <glyph glyph-name="AE" unicode="&#xc6;" horiz-adv-x="815" 
d="M153 167q-4 0 -16 2t-12 7q0 3 4 3t7 -1.5t7 -1.5q18 0 32 12.5t22 30.5t8 33q0 23 -12.5 43.5t-25 43t-12.5 51.5q0 33 22.5 52t55.5 29.5t67 15t58 7.5q16 2 48.5 6.5t71.5 11t77 14.5t67 17t39 18q4 2 5 2q3 0 3 -4q0 -2 -3 -5q-12 -12 -49 -24t-86.5 -24
t-101.5 -22.5t-94.5 -19t-64.5 -14.5q-19 -5 -40.5 -15t-36 -26t-14.5 -40q0 -25 13 -46.5t25.5 -42t12.5 -43.5q0 -30 -24 -50t-53 -20zM617 -25q-25 0 -51 6t-48 19t-30.5 31.5t-13.5 41.5q-1 4 -1.5 7.5t-0.5 7.5q0 10 6.5 31t15.5 45.5t17.5 46.5t13.5 33
q-24 -4 -47.5 -6.5t-46.5 -7.5q-23 -35 -53.5 -77t-68 -80t-80 -62.5t-89.5 -24.5q-60 0 -92.5 40.5t-32.5 96.5q0 7 1.5 22.5t5.5 29.5t12 15l3 -2q1 -1 1 -3q0 -4 -2 -9t-2 -10q0 -34 11.5 -66t36 -52.5t62.5 -20.5q41 0 78 19.5t70.5 50t61.5 65t50 63.5
q-17 -3 -40.5 -10t-46.5 -12.5t-39 -5.5q-2 0 -7.5 1t-5.5 5q0 11 17 20t25 10q29 5 58.5 10.5t58.5 8.5q32 44 61.5 87.5t60.5 86.5q10 13 20 25.5t20 24.5q8 9 16.5 13.5t19.5 6.5l15 15t21 18.5t17 8.5q5 0 5 -6q0 -3 -2 -5q-7 -5 -12 -11.5t-10 -13.5q7 2 13.5 3t13.5 0
l192 -1l6 -2q1 -2 1.5 -4t0.5 -4l-0.5 -1t-0.5 -2q-1 -3 -9 -8t-11 -7q-16 -11 -32.5 -22.5t-30.5 -26.5l-16 -18q-2 -2 -6.5 -5t-8.5 -3q-2 0 -2 2q0 5 10 17t19.5 24t9.5 18q0 5 -9 6.5t-17 1.5q-22 0 -43 1t-43 1h-20t-19 -2q-6 -1 -8.5 -3t-6.5 -7q-8 -10 -18.5 -33.5
t-21 -51t-19 -52t-13.5 -38.5l42 5q30 4 60.5 6.5t61.5 2.5q12 0 27 -1.5t26 -8.5t11 -23q0 -4 -2.5 -11.5t-8.5 -7.5q-3 0 -3 3q0 2 2 5.5t2 7.5q0 12 -16 14t-24 2q-42 0 -90 -9.5t-89 -19.5q-7 -17 -17.5 -46t-18.5 -58t-8 -47q0 -25 15 -42t38 -27t48 -14t45 -4
q49 0 93 18.5t76 55.5q1 1 3 2.5t3 1.5q2 0 2 -2q0 -5 -3.5 -10t-6.5 -8q-39 -44 -99.5 -69.5t-118.5 -25.5zM447 254q42 3 83 3q3 8 13 32.5t21 53t19 51.5t8 29q0 2 -2 2h-3q-10 0 -20 -8t-16 -15q-29 -34 -53.5 -72t-49.5 -76z" />
    <glyph glyph-name="Ccedilla" unicode="&#xc7;" horiz-adv-x="421" 
d="M220 -39q-49 0 -89 18.5t-64 55.5t-24 93q0 37 12 82q17 59 50.5 112.5t81 95.5t104.5 66t120 24q8 0 15.5 -0.5t15.5 -1.5q15 -1 27 -4.5t18 -10.5q8 10 12 21t11 16q8 7 17 7q15 0 15 -12q0 -4 -3 -9q-33 -41 -53.5 -80t-37.5 -86q-3 -8 -10 -8q-4 0 -7 3.5t0 9.5
l27 63q9 21 9 34q0 23 -22 31q-24 10 -52 10q-40 0 -78 -20t-72 -53.5t-61.5 -73.5t-47 -79.5t-28.5 -72.5q-13 -43 -13 -81q0 -64 36.5 -94.5t92.5 -30.5q60 0 132 32q47 21 77.5 51t66.5 74q3 4 8 4q7 0 2 -8q-37 -51 -71 -87t-79 -58q-69 -33 -138 -33zM134 -185
q-19 0 -40 6q-5 2 -3 8q2 2 5 3l6 2q6 -1 12 -2.5t11 -1.5q22 0 36 12t14 29q0 7 -5 19q-7 13 -7 27q0 24 24 47q17 16 39 16q8 0 8 -7q-40 -6 -40 -39q0 -16 8 -29q10 -17 10 -33q0 -25 -22.5 -41t-55.5 -16z" />
    <glyph glyph-name="Egrave" unicode="&#xc8;" horiz-adv-x="450" 
d="M265 -24q-26 0 -51 5.5t-48 18.5q-21 12 -32 35t-11 42q0 29 14.5 71.5t36.5 90.5q-12 -3 -22.5 -5.5t-18.5 -3.5q-2 0 -4.5 -0.5t-4.5 -0.5q-14 0 -14 8q0 3 2 6.5t3 5.5q5 8 17 15t22 8q8 1 18 3t20 3q27 56 53.5 108.5t39.5 88.5l-122 -4q-55 -1 -81.5 -17.5
t-26.5 -57.5q0 -23 8.5 -47t15.5 -44q0 -1 0.5 -1.5t0.5 -1.5q0 -8 -6 -8t-13 19q-4 14 -10 36t-9 37q-2 9 -3 18t-1 16q0 39 21.5 59t55.5 27t70 7q26 0 50.5 -2t43.5 -4t19.5 6t6.5 20q3 13 14 13q6 0 11.5 -5.5t5.5 -16.5q0 -10 -4 -19l192 -1l6 -2q2 -7 1 -11
q0 -3 -17 -13.5t-40 -27.5t-42 -41q-8 -8 -15 -8q-2 0 -2 2q0 5 7 13q1 2 7 9t15 19q5 7 7.5 11t2.5 7q0 8 -36 8q-16 0 -30.5 1t-29.5 1h-15t-16 -2q-4 -1 -7 -2.5t-7 -7.5q-13 -17 -37 -67t-48 -108l29 5q29 5 57 7t53 2h18t17 -1q22 -1 31.5 -11.5t9.5 -21.5q0 -7 -3 -13
t-8 -5.5t-1 6.5q3 6 3 10q0 9 -11.5 12.5t-29.5 3.5q-25 0 -58 -5t-59.5 -10.5t-34.5 -7.5l-27 -6q-19 -49 -31 -90.5t-12 -60.5q0 -30 21.5 -49t54.5 -28.5t67 -9.5q47 0 94.5 18.5t77.5 55.5q3 5 6 5q1 0 1 -3q0 -2 -2 -7t-7 -11q-9 -10 -19 -19t-21 -17
q-37 -26 -84.5 -42t-94.5 -16zM457 571q0 -3 -10.5 1.5t-26 12.5t-31.5 14q-15 7 -24.5 10.5t-20.5 9.5q-16 8 -16 15v2q0 13 12 15q3 0 9 -2l43 -29q36 -23 50 -33.5t15 -15.5z" />
    <glyph glyph-name="Eacute" unicode="&#xc9;" horiz-adv-x="450" 
d="M265 -24q-26 0 -51 5.5t-48 18.5q-21 12 -32 35t-11 42q0 29 14.5 71.5t36.5 90.5q-12 -3 -22.5 -5.5t-18.5 -3.5q-2 0 -4.5 -0.5t-4.5 -0.5q-14 0 -14 8q0 3 2 6.5t3 5.5q5 8 17 15t22 8q8 1 18 3t20 3q27 56 53.5 108.5t39.5 88.5l-122 -4q-55 -1 -81.5 -17.5
t-26.5 -57.5q0 -23 8.5 -47t15.5 -44q0 -1 0.5 -1.5t0.5 -1.5q0 -8 -6 -8t-13 19q-4 14 -10 36t-9 37q-2 9 -3 18t-1 16q0 39 21.5 59t55.5 27t70 7q26 0 50.5 -2t43.5 -4t19.5 6t6.5 20q3 13 14 13q6 0 11.5 -5.5t5.5 -16.5q0 -10 -4 -19l192 -1l6 -2q2 -7 1 -11
q0 -3 -17 -13.5t-40 -27.5t-42 -41q-8 -8 -15 -8q-2 0 -2 2q0 5 7 13q1 2 7 9t15 19q5 7 7.5 11t2.5 7q0 8 -36 8q-16 0 -30.5 1t-29.5 1h-15t-16 -2q-4 -1 -7 -2.5t-7 -7.5q-13 -17 -37 -67t-48 -108l29 5q29 5 57 7t53 2h18t17 -1q22 -1 31.5 -11.5t9.5 -21.5q0 -7 -3 -13
t-8 -5.5t-1 6.5q3 6 3 10q0 9 -11.5 12.5t-29.5 3.5q-25 0 -58 -5t-59.5 -10.5t-34.5 -7.5l-27 -6q-19 -49 -31 -90.5t-12 -60.5q0 -30 21.5 -49t54.5 -28.5t67 -9.5q47 0 94.5 18.5t77.5 55.5q3 5 6 5q1 0 1 -3q0 -2 -2 -7t-7 -11q-9 -10 -19 -19t-21 -17
q-37 -26 -84.5 -42t-94.5 -16zM380 571q1 5 15 15.5t50 33.5l43 29q6 2 9 2q12 -2 12 -15q0 -8 -16 -17q-10 -6 -20 -9.5t-25 -10.5q-15 -6 -31 -14t-26.5 -12.5t-10.5 -1.5z" />
    <glyph glyph-name="Ecircumflex" unicode="&#xca;" horiz-adv-x="450" 
d="M265 -24q-26 0 -51 5.5t-48 18.5q-21 12 -32 35t-11 42q0 29 14.5 71.5t36.5 90.5q-12 -3 -22.5 -5.5t-18.5 -3.5q-2 0 -4.5 -0.5t-4.5 -0.5q-14 0 -14 8q0 3 2 6.5t3 5.5q5 8 17 15t22 8q8 1 18 3t20 3q27 56 53.5 108.5t39.5 88.5l-122 -4q-55 -1 -81.5 -17.5
t-26.5 -57.5q0 -23 8.5 -47t15.5 -44q0 -1 0.5 -1.5t0.5 -1.5q0 -8 -6 -8t-13 19q-4 14 -10 36t-9 37q-2 9 -3 18t-1 16q0 39 21.5 59t55.5 27t70 7q26 0 50.5 -2t43.5 -4t19.5 6t6.5 20q3 13 14 13q6 0 11.5 -5.5t5.5 -16.5q0 -10 -4 -19l192 -1l6 -2q2 -7 1 -11
q0 -3 -17 -13.5t-40 -27.5t-42 -41q-8 -8 -15 -8q-2 0 -2 2q0 5 7 13q1 2 7 9t15 19q5 7 7.5 11t2.5 7q0 8 -36 8q-16 0 -30.5 1t-29.5 1h-15t-16 -2q-4 -1 -7 -2.5t-7 -7.5q-13 -17 -37 -67t-48 -108l29 5q29 5 57 7t53 2h18t17 -1q22 -1 31.5 -11.5t9.5 -21.5q0 -7 -3 -13
t-8 -5.5t-1 6.5q3 6 3 10q0 9 -11.5 12.5t-29.5 3.5q-25 0 -58 -5t-59.5 -10.5t-34.5 -7.5l-27 -6q-19 -49 -31 -90.5t-12 -60.5q0 -30 21.5 -49t54.5 -28.5t67 -9.5q47 0 94.5 18.5t77.5 55.5q3 5 6 5q1 0 1 -3q0 -2 -2 -7t-7 -11q-9 -10 -19 -19t-21 -17
q-37 -26 -84.5 -42t-94.5 -16zM515 555q-4 -1 -20 8.5t-27 17.5q-8 6 -19.5 13t-17.5 11q-7 -4 -16 -7.5t-17 -7.5q-31 -16 -45 -23t-22 -10q-2 0 -1 3q4 6 17 17t32 25q14 11 26 19.5t27 21.5q7 7 10 7q2 0 7 -7q2 -4 12 -17.5t17 -22.5q9 -11 23.5 -26.5t15.5 -17.5
q3 -4 -2 -4z" />
    <glyph glyph-name="Edieresis" unicode="&#xcb;" horiz-adv-x="450" 
d="M265 -24q-26 0 -51 5.5t-48 18.5q-21 12 -32 35t-11 42q0 29 14.5 71.5t36.5 90.5q-12 -3 -22.5 -5.5t-18.5 -3.5q-2 0 -4.5 -0.5t-4.5 -0.5q-14 0 -14 8q0 3 2 6.5t3 5.5q5 8 17 15t22 8q8 1 18 3t20 3q27 56 53.5 108.5t39.5 88.5l-122 -4q-55 -1 -81.5 -17.5
t-26.5 -57.5q0 -23 8.5 -47t15.5 -44q0 -1 0.5 -1.5t0.5 -1.5q0 -8 -6 -8t-13 19q-4 14 -10 36t-9 37q-2 9 -3 18t-1 16q0 39 21.5 59t55.5 27t70 7q26 0 50.5 -2t43.5 -4t19.5 6t6.5 20q3 13 14 13q6 0 11.5 -5.5t5.5 -16.5q0 -10 -4 -19l192 -1l6 -2q2 -7 1 -11
q0 -3 -17 -13.5t-40 -27.5t-42 -41q-8 -8 -15 -8q-2 0 -2 2q0 5 7 13q1 2 7 9t15 19q5 7 7.5 11t2.5 7q0 8 -36 8q-16 0 -30.5 1t-29.5 1h-15t-16 -2q-4 -1 -7 -2.5t-7 -7.5q-13 -17 -37 -67t-48 -108l29 5q29 5 57 7t53 2h18t17 -1q22 -1 31.5 -11.5t9.5 -21.5q0 -7 -3 -13
t-8 -5.5t-1 6.5q3 6 3 10q0 9 -11.5 12.5t-29.5 3.5q-25 0 -58 -5t-59.5 -10.5t-34.5 -7.5l-27 -6q-19 -49 -31 -90.5t-12 -60.5q0 -30 21.5 -49t54.5 -28.5t67 -9.5q47 0 94.5 18.5t77.5 55.5q3 5 6 5q1 0 1 -3q0 -2 -2 -7t-7 -11q-9 -10 -19 -19t-21 -17
q-37 -26 -84.5 -42t-94.5 -16zM465 571q-10 0 -10 11q0 5 2 11q5 14 21 26q15 12 30 12q5 0 5 -2q-1 -4 -3.5 -9.5t-6.5 -12.5l-11 -18q-1 -10 -8.5 -14t-18.5 -4zM379 571q-8 0 -8 10q0 3 0.5 6t0.5 6q5 14 20 26q16 12 31 12q7 0 5 -2q-1 -7 -11 -22l-9 -18
q-6 -18 -29 -18z" />
    <glyph glyph-name="Igrave" unicode="&#xcc;" horiz-adv-x="322" 
d="M131 -37q-31 0 -53 17.5t-36 45.5t-21 58.5t-7 55.5q0 4 1 10.5t6 6.5q2 0 2 -3q0 -8 2 -17.5t4 -18.5q5 -23 16.5 -46t30.5 -38t46 -15q24 0 43 10t34 28q32 39 56.5 95.5t44.5 116.5t35 108q1 3 5 15.5l8 25t4 14.5q1 18 2 34.5t15 29.5q-36 -12 -72.5 -23.5
t-71.5 -25.5q-22 -9 -39 -25t-17 -42q0 -20 9.5 -39l18.5 -37t9 -38t-14.5 -37t-35.5 -17q-4 0 -12 2t-8 6q0 3 3 3q1 0 3 -1.5t5 -1.5q12 0 19.5 11.5t11.5 25.5t4 23q0 23 -10.5 43.5t-21 40.5t-10.5 41q0 27 20 43t52 25.5t67 15.5t66.5 12.5t49.5 17.5q7 4 19 17.5
t16 13.5q3 0 3 -6q0 -8 -5 -21.5t-11 -19.5q-12 -13 -19 -28t-14 -32q-10 -25 -19 -51l-18 -52q-23 -63 -44.5 -126.5t-48.5 -125.5q-10 -24 -27.5 -53t-41.5 -50.5t-54 -21.5zM458 605q0 -3 -10.5 1.5t-26 12.5t-31.5 14q-15 7 -24.5 10.5t-20.5 9.5q-16 8 -16 15v2
q0 13 12 15q3 0 9 -2l43 -29q36 -23 50 -33.5t15 -15.5z" />
    <glyph glyph-name="Iacute" unicode="&#xcd;" horiz-adv-x="322" 
d="M131 -37q-31 0 -53 17.5t-36 45.5t-21 58.5t-7 55.5q0 4 1 10.5t6 6.5q2 0 2 -3q0 -8 2 -17.5t4 -18.5q5 -23 16.5 -46t30.5 -38t46 -15q24 0 43 10t34 28q32 39 56.5 95.5t44.5 116.5t35 108q1 3 5 15.5l8 25t4 14.5q1 18 2 34.5t15 29.5q-36 -12 -72.5 -23.5
t-71.5 -25.5q-22 -9 -39 -25t-17 -42q0 -20 9.5 -39l18.5 -37t9 -38t-14.5 -37t-35.5 -17q-4 0 -12 2t-8 6q0 3 3 3q1 0 3 -1.5t5 -1.5q12 0 19.5 11.5t11.5 25.5t4 23q0 23 -10.5 43.5t-21 40.5t-10.5 41q0 27 20 43t52 25.5t67 15.5t66.5 12.5t49.5 17.5q7 4 19 17.5
t16 13.5q3 0 3 -6q0 -8 -5 -21.5t-11 -19.5q-12 -13 -19 -28t-14 -32q-10 -25 -19 -51l-18 -52q-23 -63 -44.5 -126.5t-48.5 -125.5q-10 -24 -27.5 -53t-41.5 -50.5t-54 -21.5zM381 605q1 5 15 15.5t50 33.5l43 29q6 2 9 2q12 -2 12 -15q0 -8 -16 -17q-10 -6 -20 -9.5
t-25 -10.5q-15 -6 -31 -14t-26.5 -12.5t-10.5 -1.5z" />
    <glyph glyph-name="Icircumflex" unicode="&#xce;" horiz-adv-x="322" 
d="M131 -37q-31 0 -53 17.5t-36 45.5t-21 58.5t-7 55.5q0 4 1 10.5t6 6.5q2 0 2 -3q0 -8 2 -17.5t4 -18.5q5 -23 16.5 -46t30.5 -38t46 -15q24 0 43 10t34 28q32 39 56.5 95.5t44.5 116.5t35 108q1 3 5 15.5l8 25t4 14.5q1 18 2 34.5t15 29.5q-36 -12 -72.5 -23.5
t-71.5 -25.5q-22 -9 -39 -25t-17 -42q0 -20 9.5 -39l18.5 -37t9 -38t-14.5 -37t-35.5 -17q-4 0 -12 2t-8 6q0 3 3 3q1 0 3 -1.5t5 -1.5q12 0 19.5 11.5t11.5 25.5t4 23q0 23 -10.5 43.5t-21 40.5t-10.5 41q0 27 20 43t52 25.5t67 15.5t66.5 12.5t49.5 17.5q7 4 19 17.5
t16 13.5q3 0 3 -6q0 -8 -5 -21.5t-11 -19.5q-12 -13 -19 -28t-14 -32q-10 -25 -19 -51l-18 -52q-23 -63 -44.5 -126.5t-48.5 -125.5q-10 -24 -27.5 -53t-41.5 -50.5t-54 -21.5zM516 589q-4 -1 -20 8.5t-27 17.5q-8 6 -19.5 13t-17.5 11q-7 -4 -16 -7.5t-17 -7.5
q-31 -16 -45 -23t-22 -10q-2 0 -1 3q4 6 17 17t32 25q14 11 26 19.5t27 21.5q7 7 10 7q2 0 7 -7q2 -4 12 -17.5t17 -22.5q9 -11 23.5 -26.5t15.5 -17.5q3 -4 -2 -4z" />
    <glyph glyph-name="Idieresis" unicode="&#xcf;" horiz-adv-x="322" 
d="M131 -37q-31 0 -53 17.5t-36 45.5t-21 58.5t-7 55.5q0 4 1 10.5t6 6.5q2 0 2 -3q0 -8 2 -17.5t4 -18.5q5 -23 16.5 -46t30.5 -38t46 -15q24 0 43 10t34 28q32 39 56.5 95.5t44.5 116.5t35 108q1 3 5 15.5l8 25t4 14.5q1 18 2 34.5t15 29.5q-36 -12 -72.5 -23.5
t-71.5 -25.5q-22 -9 -39 -25t-17 -42q0 -20 9.5 -39l18.5 -37t9 -38t-14.5 -37t-35.5 -17q-4 0 -12 2t-8 6q0 3 3 3q1 0 3 -1.5t5 -1.5q12 0 19.5 11.5t11.5 25.5t4 23q0 23 -10.5 43.5t-21 40.5t-10.5 41q0 27 20 43t52 25.5t67 15.5t66.5 12.5t49.5 17.5q7 4 19 17.5
t16 13.5q3 0 3 -6q0 -8 -5 -21.5t-11 -19.5q-12 -13 -19 -28t-14 -32q-10 -25 -19 -51l-18 -52q-23 -63 -44.5 -126.5t-48.5 -125.5q-10 -24 -27.5 -53t-41.5 -50.5t-54 -21.5zM466 605q-10 0 -10 11q0 5 2 11q5 14 21 26q15 12 30 12q5 0 5 -2q-1 -4 -3.5 -9.5t-6.5 -12.5
l-11 -18q-1 -10 -8.5 -14t-18.5 -4zM380 605q-8 0 -8 10q0 3 0.5 6t0.5 6q5 14 20 26q16 12 31 12q7 0 5 -2q-1 -7 -11 -22l-9 -18q-6 -18 -29 -18z" />
    <glyph glyph-name="Eth" unicode="&#xd0;" horiz-adv-x="564" 
d="M8 -14q-7 0 -1 10q3 5 15 21t37 16q8 0 16.5 -1t18.5 -1q19 0 25 4.5t16 16.5q2 3 16.5 34t33.5 77q-25 -2 -43 -3.5t-30 -1.5q-24 0 -35 4q7 30 45 30h37.5t37.5 -1q20 46 41.5 96t40 94t29.5 72q-14 5 -38 11t-51.5 10.5t-52.5 4.5q-13 0 -24.5 -1.5t-19.5 -5.5
q-67 -31 -67 -91q0 -22 9 -48t22 -49.5t29 -47.5q2 -4 -1 -6t-5 2q-16 24 -34 47.5t-30.5 49t-12.5 54.5q0 5 0.5 10.5t1.5 11.5q11 59 49.5 84t96.5 28q19 1 46.5 -3t54.5 -10t43 -12q20 44 48.5 69.5t71.5 25.5q7 0 15 -3t11 -9q1 -1 1 -3q0 -4 -4.5 -5t-6.5 3q0 1 -4.5 3
t-11.5 2q-25 0 -43 -14.5t-29.5 -36t-19.5 -42.5q44 -15 87 -41.5t79 -62t57.5 -79t21.5 -93.5q0 -44 -26 -82.5t-72.5 -67.5t-107.5 -45.5t-131 -17.5q-54 -1 -108 2.5t-105 4.5q-27 0 -37 -13q-1 -1 -2 -1zM269 11q84 1 148 25.5t100.5 66t36.5 94.5q0 40 -19.5 79.5
t-51.5 74t-70 59.5t-75 35q-36 -85 -62.5 -147.5t-46.5 -106.5q18 -1 36 -1h36l-1 -2q2 0 2 -5q-2 -7 -20 -8q-16 -3 -52 -6l-11 -2q-21 -49 -34 -77.5t-20 -42.5t-13 -23q8 -1 27.5 -4.5t43.5 -6t46 -2.5z" />
    <glyph glyph-name="Ntilde" unicode="&#xd1;" horiz-adv-x="665" 
d="M555 -43q-9 0 -16.5 11t-9.5 26q-1 8 -1.5 16.5t-0.5 17.5q0 13 1.5 27t5.5 30q-27 40 -54.5 83.5t-57.5 82.5t-65 67q-4 3 -6.5 0l-2.5 -3q-6 -15 -17.5 -45.5t-28 -69t-35.5 -78t-40.5 -73.5t-42.5 -56q-30 -30 -68 -30q-24 0 -46.5 14t-38.5 39q-15 25 -21.5 55
t-8.5 52q1 8 8 6q5 -24 11 -43t22 -37q32 -36 74 -36q35 0 67 26q26 21 45.5 53t35.5 63q8 18 20.5 48t23.5 60.5t16 48.5q2 4 2 7.5v7.5q0 18 -9 30q-20 22 -45.5 47t-54.5 45.5t-60 26.5q-4 1 -9 1.5t-10 0.5q-26 0 -44.5 -19.5t-18.5 -66.5q0 -19 8.5 -39t19 -39.5
t15.5 -36.5q3 -12 3 -22q0 -31 -20.5 -49t-41.5 -18q-13 0 -22 6q-4 3 -2 6t6 0q9 -5 21 3t20.5 26.5t8.5 42.5q0 15 -4 28q-4 14 -11 27.5t-12 27.5q-10 29 -10 56q0 47 29.5 75t73.5 28q33 0 69 -21t68.5 -49.5t54.5 -49.5q3 10 3.5 14t2 10t6 21.5t14.5 48.5q4 16 15 16
q5 0 8.5 -5.5t1.5 -16.5q-4 -16 -11.5 -43t-20.5 -61q59 -62 96.5 -115.5t56.5 -87t22 -37.5q3 15 12.5 51t22 83t27 95.5t27.5 88.5v2q0 4 -3 9t-2 8q7 23 17.5 40.5t19.5 34.5q5 7 13 7q15 0 18 -13q-10 -19 -26 -60t-33.5 -93.5t-33.5 -106t-27 -98.5t-13 -69
q8 -16 15.5 -41t7.5 -52q0 -26 -8 -46.5t-22 -20.5zM579 573q-14 0 -28 9t-27.5 17.5t-28.5 8.5t-22 -5.5t-13 -13.5q-4 -6 -5 -10.5t-3 -4.5t-2 9q0 7 7 21t18 26.5t23 12.5q13 0 27 -9.5t28.5 -19t27.5 -9.5q9 0 20.5 4t19.5 16q3 5 5.5 8t5.5 3q5 0 2 -6
q-4 -9 -12.5 -22.5t-19.5 -24t-23 -10.5z" />
    <glyph glyph-name="Ograve" unicode="&#xd2;" horiz-adv-x="469" 
d="M216 -18q-70 0 -100.5 35t-30.5 89q0 50 21 107q-22 17 -37.5 36t-17.5 40q-1 5 -1 10.5v9.5q0 46 28 80t72 57t92.5 35.5t89.5 15.5q12 8 34 18.5t47 18.5t44 8q17 0 26.5 -7.5t7.5 -25.5q-1 -6 -6 -7t-5 5q0 19 -17 19q-13 0 -30.5 -8.5t-33.5 -18.5
q72 -10 104.5 -57.5t32.5 -107.5q0 -67 -34 -129q-21 -39 -50 -78.5t-65 -72.5t-79 -52.5t-92 -19.5zM213 -3q42 0 82.5 22.5t76.5 58t64 75t44 73.5t23 65t7 59q0 56 -27.5 91.5t-77.5 35.5q-10 0 -22 -1.5t-24 -5.5q-34 -21 -84 -71t-94 -133q-9 -17 -16.5 -33t-12.5 -32
q23 -16 45 -27t38 -20q2 -2 2 -4q0 -3 -2 -5.5t-4 -1.5q-14 6 -37 17t-48 26q-15 -48 -15 -87q0 -47 21 -74.5t61 -27.5zM114 232l8 19q27 64 67.5 116.5t86.5 90.5q-32 -7 -67.5 -20t-67 -30.5t-51.5 -40.5t-20 -51q0 -33 37 -76zM504 594q0 -3 -10.5 1.5t-26 12.5
t-31.5 14q-15 7 -24.5 10.5t-20.5 9.5q-16 8 -16 15v2q0 13 12 15q3 0 9 -2l43 -29q36 -23 50 -33.5t15 -15.5z" />
    <glyph glyph-name="Oacute" unicode="&#xd3;" horiz-adv-x="469" 
d="M216 -18q-70 0 -100.5 35t-30.5 89q0 50 21 107q-22 17 -37.5 36t-17.5 40q-1 5 -1 10.5v9.5q0 46 28 80t72 57t92.5 35.5t89.5 15.5q12 8 34 18.5t47 18.5t44 8q17 0 26.5 -7.5t7.5 -25.5q-1 -6 -6 -7t-5 5q0 19 -17 19q-13 0 -30.5 -8.5t-33.5 -18.5
q72 -10 104.5 -57.5t32.5 -107.5q0 -67 -34 -129q-21 -39 -50 -78.5t-65 -72.5t-79 -52.5t-92 -19.5zM213 -3q42 0 82.5 22.5t76.5 58t64 75t44 73.5t23 65t7 59q0 56 -27.5 91.5t-77.5 35.5q-10 0 -22 -1.5t-24 -5.5q-34 -21 -84 -71t-94 -133q-9 -17 -16.5 -33t-12.5 -32
q23 -16 45 -27t38 -20q2 -2 2 -4q0 -3 -2 -5.5t-4 -1.5q-14 6 -37 17t-48 26q-15 -48 -15 -87q0 -47 21 -74.5t61 -27.5zM114 232l8 19q27 64 67.5 116.5t86.5 90.5q-32 -7 -67.5 -20t-67 -30.5t-51.5 -40.5t-20 -51q0 -33 37 -76zM427 594q1 5 15 15.5t50 33.5l43 29
q6 2 9 2q12 -2 12 -15q0 -8 -16 -17q-10 -6 -20 -9.5t-25 -10.5q-15 -6 -31 -14t-26.5 -12.5t-10.5 -1.5z" />
    <glyph glyph-name="Ocircumflex" unicode="&#xd4;" horiz-adv-x="469" 
d="M216 -18q-70 0 -100.5 35t-30.5 89q0 50 21 107q-22 17 -37.5 36t-17.5 40q-1 5 -1 10.5v9.5q0 46 28 80t72 57t92.5 35.5t89.5 15.5q12 8 34 18.5t47 18.5t44 8q17 0 26.5 -7.5t7.5 -25.5q-1 -6 -6 -7t-5 5q0 19 -17 19q-13 0 -30.5 -8.5t-33.5 -18.5
q72 -10 104.5 -57.5t32.5 -107.5q0 -67 -34 -129q-21 -39 -50 -78.5t-65 -72.5t-79 -52.5t-92 -19.5zM213 -3q42 0 82.5 22.5t76.5 58t64 75t44 73.5t23 65t7 59q0 56 -27.5 91.5t-77.5 35.5q-10 0 -22 -1.5t-24 -5.5q-34 -21 -84 -71t-94 -133q-9 -17 -16.5 -33t-12.5 -32
q23 -16 45 -27t38 -20q2 -2 2 -4q0 -3 -2 -5.5t-4 -1.5q-14 6 -37 17t-48 26q-15 -48 -15 -87q0 -47 21 -74.5t61 -27.5zM114 232l8 19q27 64 67.5 116.5t86.5 90.5q-32 -7 -67.5 -20t-67 -30.5t-51.5 -40.5t-20 -51q0 -33 37 -76zM562 578q-4 -1 -20 8.5t-27 17.5
q-8 6 -19.5 13t-17.5 11q-7 -4 -16 -7.5t-17 -7.5q-31 -16 -45 -23t-22 -10q-2 0 -1 3q4 6 17 17t32 25q14 11 26 19.5t27 21.5q7 7 10 7q2 0 7 -7q2 -4 12 -17.5t17 -22.5q9 -11 23.5 -26.5t15.5 -17.5q3 -4 -2 -4z" />
    <glyph glyph-name="Otilde" unicode="&#xd5;" horiz-adv-x="469" 
d="M216 -18q-70 0 -100.5 35t-30.5 89q0 50 21 107q-22 17 -37.5 36t-17.5 40q-1 5 -1 10.5v9.5q0 46 28 80t72 57t92.5 35.5t89.5 15.5q12 8 34 18.5t47 18.5t44 8q17 0 26.5 -7.5t7.5 -25.5q-1 -6 -6 -7t-5 5q0 19 -17 19q-13 0 -30.5 -8.5t-33.5 -18.5
q72 -10 104.5 -57.5t32.5 -107.5q0 -67 -34 -129q-21 -39 -50 -78.5t-65 -72.5t-79 -52.5t-92 -19.5zM213 -3q42 0 82.5 22.5t76.5 58t64 75t44 73.5t23 65t7 59q0 56 -27.5 91.5t-77.5 35.5q-10 0 -22 -1.5t-24 -5.5q-34 -21 -84 -71t-94 -133q-9 -17 -16.5 -33t-12.5 -32
q23 -16 45 -27t38 -20q2 -2 2 -4q0 -3 -2 -5.5t-4 -1.5q-14 6 -37 17t-48 26q-15 -48 -15 -87q0 -47 21 -74.5t61 -27.5zM114 232l8 19q27 64 67.5 116.5t86.5 90.5q-32 -7 -67.5 -20t-67 -30.5t-51.5 -40.5t-20 -51q0 -33 37 -76zM517 592q-14 0 -28 9t-27.5 17.5
t-28.5 8.5t-22 -5.5t-13 -13.5q-4 -6 -5 -10.5t-3 -4.5t-2 9q0 7 7 21t18 26.5t23 12.5q13 0 27 -9.5t28.5 -19t27.5 -9.5q9 0 20.5 4t19.5 16q3 5 5.5 8t5.5 3q5 0 2 -6q-4 -9 -12.5 -22.5t-19.5 -24t-23 -10.5z" />
    <glyph glyph-name="Odieresis" unicode="&#xd6;" horiz-adv-x="469" 
d="M216 -18q-70 0 -100.5 35t-30.5 89q0 50 21 107q-22 17 -37.5 36t-17.5 40q-1 5 -1 10.5v9.5q0 46 28 80t72 57t92.5 35.5t89.5 15.5q12 8 34 18.5t47 18.5t44 8q17 0 26.5 -7.5t7.5 -25.5q-1 -6 -6 -7t-5 5q0 19 -17 19q-13 0 -30.5 -8.5t-33.5 -18.5
q72 -10 104.5 -57.5t32.5 -107.5q0 -67 -34 -129q-21 -39 -50 -78.5t-65 -72.5t-79 -52.5t-92 -19.5zM213 -3q42 0 82.5 22.5t76.5 58t64 75t44 73.5t23 65t7 59q0 56 -27.5 91.5t-77.5 35.5q-10 0 -22 -1.5t-24 -5.5q-34 -21 -84 -71t-94 -133q-9 -17 -16.5 -33t-12.5 -32
q23 -16 45 -27t38 -20q2 -2 2 -4q0 -3 -2 -5.5t-4 -1.5q-14 6 -37 17t-48 26q-15 -48 -15 -87q0 -47 21 -74.5t61 -27.5zM114 232l8 19q27 64 67.5 116.5t86.5 90.5q-32 -7 -67.5 -20t-67 -30.5t-51.5 -40.5t-20 -51q0 -33 37 -76zM512 594q-10 0 -10 11q0 5 2 11
q5 14 21 26q15 12 30 12q5 0 5 -2q-1 -4 -3.5 -9.5t-6.5 -12.5l-11 -18q-1 -10 -8.5 -14t-18.5 -4zM426 594q-8 0 -8 10q0 3 0.5 6t0.5 6q5 14 20 26q16 12 31 12q7 0 5 -2q-1 -7 -11 -22l-9 -18q-6 -18 -29 -18z" />
    <glyph glyph-name="multiply" unicode="&#xd7;" horiz-adv-x="297" 
d="M19 -23q-2 0 -2 4q2 8 39 46.5t104 104.5l-32 155q0 8 15 8q12 0 23.5 -7.5t12.5 -21.5q2 -13 6 -36.5t7.5 -44.5t5.5 -27q32 35 65.5 71.5t69.5 70.5q5 3 20 9q2 1 4 1h3q10 0 -8 -22t-57.5 -60.5t-92.5 -88.5q5 -20 9 -36.5t11 -30.5q12 -25 24 -45t12 -30q0 -8 -11 -8
q-31 0 -47.5 25.5t-34.5 93.5q-40 -39 -71 -69.5t-48 -50.5q-8 -10 -15.5 -10.5t-11.5 -0.5z" />
    <glyph glyph-name="Oslash" unicode="&#xd8;" horiz-adv-x="469" 
d="M7 -106q-12 0 -12 12q0 7 3 14q11 36 42 82q8 11 20.5 27t29.5 36q-5 20 -5 40q0 24 6 51.5t16 56.5q-22 17 -38 36.5t-18 39.5q-1 5 -1 10.5v9.5q0 46 28 80t72 57t93 35.5t90 15.5q12 9 33.5 19.5t46 18t43.5 7.5q17 0 27 -7.5t8 -25.5q-1 -6 -6 -7t-5 5q0 19 -17 19
q-13 0 -30.5 -8.5t-33.5 -18.5q28 -4 49 -14t37 -24q136 128 153 128q18 0 18 -12q0 -7 -3.5 -12t-10.5 -12q-16 -13 -39 -34t-54 -49l-41 -37q14 -21 20.5 -46.5t6.5 -53.5q0 -65 -33 -128q-21 -39 -50 -78.5t-65 -72.5t-79 -52.5t-92 -19.5q-43 0 -71.5 14t-42.5 39l-3 -3
q-20 -20 -34 -38.5t-24 -34.5q-5 -7 -8 -14t-5 -12q-1 -3 -1 -8q0 -7 5 -12q1 -1 1 -4q-2 -6 -11.5 -10.5t-14.5 -4.5zM195 176l118 119l161 155q-29 27 -70 27q-10 0 -21.5 -2t-23.5 -5q-34 -21 -84 -71t-94 -133q-18 -34 -29 -64q11 -7 22 -13.5t21 -12.5zM114 232l8 19
q27 65 68 117t87 90q-32 -7 -68 -20t-67.5 -30.5t-51.5 -40.5t-20 -51q0 -33 37 -76zM213 -3q42 0 82.5 22.5t76.5 58t64 75t44 73.5t23 65t7 59q0 41 -15 71q-155 -141 -272 -260q3 -2 6 -3.5t6 -3.5q2 -2 2 -4q0 -3 -2 -5.5t-4 -1.5l-18 8l-49 -51l-31 -31q6 -34 26.5 -53
t53.5 -19zM131 109l32 34l21 22l-38 21q-13 -42 -15 -77z" />
    <glyph glyph-name="Ugrave" unicode="&#xd9;" horiz-adv-x="554" 
d="M67 145q-13 0 -22 6q-4 2 -2 5.5t6 0.5q9 -5 21 3t20.5 26.5t8.5 41.5q0 15 -4 28q-4 15 -10.5 28.5t-11.5 27.5q-6 17 -8.5 31t-2.5 27q0 32 16 52t40.5 30.5t51.5 16t49 9.5q14 2 36.5 7.5t47 13t45 16t29.5 16.5q5 3 7 3q5 0 5 -6t-7 -14.5t-24 -14.5
q-36 -12 -75.5 -24t-73.5 -22.5t-57 -19.5q-69 -24 -69 -84q0 -19 8.5 -39.5t19 -39.5t15.5 -36q3 -12 3 -22q0 -31 -20.5 -49t-41.5 -18zM241 -12q-43 0 -59 26.5t-16 61.5q0 26 6 52t13 45q26 72 55 142t55 139q2 6 10 9t17 3t16 -3.5t7 -11.5q0 -9 -11 -20q-6 -6 -10 -12
t-8 -13q-7 -13 -26.5 -50t-40 -89t-32.5 -112q-6 -27 -6 -49q0 -36 14 -54t38 -18t56.5 20t67.5 61q17 21 37.5 54.5t40.5 72.5t37 76t27 64q2 4 3 7.5t2 6.5q5 15 8 29t10 36q3 11 6.5 23t23.5 12q6 6 25 17t32 15q2 1 4 1q6 0 5.5 -5t-2.5 -6q-13 -3 -24.5 -14t-17.5 -24
q-57 -124 -98 -260q-11 -38 -20 -79.5t-9 -71.5q0 -22 5.5 -35.5t18.5 -13.5q14 0 37 17t56 57l55 67q0 1 0.5 0.5t0.5 -1.5q2 -5 0 -8l-24 -32t-26 -32q-7 -9 -23.5 -26t-36 -34.5t-38.5 -29t-32 -9.5q-22 3 -31.5 20t-9.5 41q0 10 1 20.5t3 20.5q7 36 19.5 72.5t25.5 71.5
q-20 -35 -47.5 -77.5t-59 -81t-65 -63.5t-65.5 -25zM546 573q0 -3 -10.5 1.5t-26 12.5t-31.5 14q-15 7 -24.5 10.5t-20.5 9.5q-16 8 -16 15v2q0 13 12 15q3 0 9 -2l43 -29q36 -23 50 -33.5t15 -15.5z" />
    <glyph glyph-name="Uacute" unicode="&#xda;" horiz-adv-x="554" 
d="M67 145q-13 0 -22 6q-4 2 -2 5.5t6 0.5q9 -5 21 3t20.5 26.5t8.5 41.5q0 15 -4 28q-4 15 -10.5 28.5t-11.5 27.5q-6 17 -8.5 31t-2.5 27q0 32 16 52t40.5 30.5t51.5 16t49 9.5q14 2 36.5 7.5t47 13t45 16t29.5 16.5q5 3 7 3q5 0 5 -6t-7 -14.5t-24 -14.5
q-36 -12 -75.5 -24t-73.5 -22.5t-57 -19.5q-69 -24 -69 -84q0 -19 8.5 -39.5t19 -39.5t15.5 -36q3 -12 3 -22q0 -31 -20.5 -49t-41.5 -18zM241 -12q-43 0 -59 26.5t-16 61.5q0 26 6 52t13 45q26 72 55 142t55 139q2 6 10 9t17 3t16 -3.5t7 -11.5q0 -9 -11 -20q-6 -6 -10 -12
t-8 -13q-7 -13 -26.5 -50t-40 -89t-32.5 -112q-6 -27 -6 -49q0 -36 14 -54t38 -18t56.5 20t67.5 61q17 21 37.5 54.5t40.5 72.5t37 76t27 64q2 4 3 7.5t2 6.5q5 15 8 29t10 36q3 11 6.5 23t23.5 12q6 6 25 17t32 15q2 1 4 1q6 0 5.5 -5t-2.5 -6q-13 -3 -24.5 -14t-17.5 -24
q-57 -124 -98 -260q-11 -38 -20 -79.5t-9 -71.5q0 -22 5.5 -35.5t18.5 -13.5q14 0 37 17t56 57l55 67q0 1 0.5 0.5t0.5 -1.5q2 -5 0 -8l-24 -32t-26 -32q-7 -9 -23.5 -26t-36 -34.5t-38.5 -29t-32 -9.5q-22 3 -31.5 20t-9.5 41q0 10 1 20.5t3 20.5q7 36 19.5 72.5t25.5 71.5
q-20 -35 -47.5 -77.5t-59 -81t-65 -63.5t-65.5 -25zM469 573q1 5 15 15.5t50 33.5l43 29q6 2 9 2q12 -2 12 -15q0 -8 -16 -17q-10 -6 -20 -9.5t-25 -10.5q-15 -6 -31 -14t-26.5 -12.5t-10.5 -1.5z" />
    <glyph glyph-name="Ucircumflex" unicode="&#xdb;" horiz-adv-x="554" 
d="M67 145q-13 0 -22 6q-4 2 -2 5.5t6 0.5q9 -5 21 3t20.5 26.5t8.5 41.5q0 15 -4 28q-4 15 -10.5 28.5t-11.5 27.5q-6 17 -8.5 31t-2.5 27q0 32 16 52t40.5 30.5t51.5 16t49 9.5q14 2 36.5 7.5t47 13t45 16t29.5 16.5q5 3 7 3q5 0 5 -6t-7 -14.5t-24 -14.5
q-36 -12 -75.5 -24t-73.5 -22.5t-57 -19.5q-69 -24 -69 -84q0 -19 8.5 -39.5t19 -39.5t15.5 -36q3 -12 3 -22q0 -31 -20.5 -49t-41.5 -18zM241 -12q-43 0 -59 26.5t-16 61.5q0 26 6 52t13 45q26 72 55 142t55 139q2 6 10 9t17 3t16 -3.5t7 -11.5q0 -9 -11 -20q-6 -6 -10 -12
t-8 -13q-7 -13 -26.5 -50t-40 -89t-32.5 -112q-6 -27 -6 -49q0 -36 14 -54t38 -18t56.5 20t67.5 61q17 21 37.5 54.5t40.5 72.5t37 76t27 64q2 4 3 7.5t2 6.5q5 15 8 29t10 36q3 11 6.5 23t23.5 12q6 6 25 17t32 15q2 1 4 1q6 0 5.5 -5t-2.5 -6q-13 -3 -24.5 -14t-17.5 -24
q-57 -124 -98 -260q-11 -38 -20 -79.5t-9 -71.5q0 -22 5.5 -35.5t18.5 -13.5q14 0 37 17t56 57l55 67q0 1 0.5 0.5t0.5 -1.5q2 -5 0 -8l-24 -32t-26 -32q-7 -9 -23.5 -26t-36 -34.5t-38.5 -29t-32 -9.5q-22 3 -31.5 20t-9.5 41q0 10 1 20.5t3 20.5q7 36 19.5 72.5t25.5 71.5
q-20 -35 -47.5 -77.5t-59 -81t-65 -63.5t-65.5 -25zM604 557q-4 -1 -20 8.5t-27 17.5q-8 6 -19.5 13t-17.5 11q-7 -4 -16 -7.5t-17 -7.5q-31 -16 -45 -23t-22 -10q-2 0 -1 3q4 6 17 17t32 25q14 11 26 19.5t27 21.5q7 7 10 7q2 0 7 -7q2 -4 12 -17.5t17 -22.5
q9 -11 23.5 -26.5t15.5 -17.5q3 -4 -2 -4z" />
    <glyph glyph-name="Udieresis" unicode="&#xdc;" horiz-adv-x="554" 
d="M67 145q-13 0 -22 6q-4 2 -2 5.5t6 0.5q9 -5 21 3t20.5 26.5t8.5 41.5q0 15 -4 28q-4 15 -10.5 28.5t-11.5 27.5q-6 17 -8.5 31t-2.5 27q0 32 16 52t40.5 30.5t51.5 16t49 9.5q14 2 36.5 7.5t47 13t45 16t29.5 16.5q5 3 7 3q5 0 5 -6t-7 -14.5t-24 -14.5
q-36 -12 -75.5 -24t-73.5 -22.5t-57 -19.5q-69 -24 -69 -84q0 -19 8.5 -39.5t19 -39.5t15.5 -36q3 -12 3 -22q0 -31 -20.5 -49t-41.5 -18zM241 -12q-43 0 -59 26.5t-16 61.5q0 26 6 52t13 45q26 72 55 142t55 139q2 6 10 9t17 3t16 -3.5t7 -11.5q0 -9 -11 -20q-6 -6 -10 -12
t-8 -13q-7 -13 -26.5 -50t-40 -89t-32.5 -112q-6 -27 -6 -49q0 -36 14 -54t38 -18t56.5 20t67.5 61q17 21 37.5 54.5t40.5 72.5t37 76t27 64q2 4 3 7.5t2 6.5q5 15 8 29t10 36q3 11 6.5 23t23.5 12q6 6 25 17t32 15q2 1 4 1q6 0 5.5 -5t-2.5 -6q-13 -3 -24.5 -14t-17.5 -24
q-57 -124 -98 -260q-11 -38 -20 -79.5t-9 -71.5q0 -22 5.5 -35.5t18.5 -13.5q14 0 37 17t56 57l55 67q0 1 0.5 0.5t0.5 -1.5q2 -5 0 -8l-24 -32t-26 -32q-7 -9 -23.5 -26t-36 -34.5t-38.5 -29t-32 -9.5q-22 3 -31.5 20t-9.5 41q0 10 1 20.5t3 20.5q7 36 19.5 72.5t25.5 71.5
q-20 -35 -47.5 -77.5t-59 -81t-65 -63.5t-65.5 -25zM554 573q-10 0 -10 11q0 5 2 11q5 14 21 26q15 12 30 12q5 0 5 -2q-1 -4 -3.5 -9.5t-6.5 -12.5l-11 -18q-1 -10 -8.5 -14t-18.5 -4zM468 573q-8 0 -8 10q0 3 0.5 6t0.5 6q5 14 20 26q16 12 31 12q7 0 5 -2q-1 -7 -11 -22
l-9 -18q-6 -18 -29 -18z" />
    <glyph glyph-name="Yacute" unicode="&#xdd;" horiz-adv-x="388" 
d="M-8 -290q-44 0 -75.5 25t-47.5 65t-16 85q0 15 1.5 30t5.5 30q4 4 7 4t3 -6t1 -12q7 -63 25.5 -97.5t45.5 -48.5t57 -14q8 0 15.5 0.5t14.5 1.5q37 5 82.5 40t88.5 84q35 41 64 86.5t55 94.5q-13 -10 -27 -15.5t-13 1.5q4 23 7 57t3 74q0 38 -4 78t-14 77q-16 59 -48 101
t-85 42q-33 0 -54.5 -21.5t-21.5 -53.5q0 -14 5 -28.5t15 -28.5q18 -22 47.5 -40t49.5 -36q15 -13 21.5 -25.5t6.5 -23.5q0 -17 -12 -26.5t-27 -6.5q-4 1 -5 4t3 1h3q11 0 11 16q0 13 -10 32t-34 38q-12 9 -27.5 17.5t-26.5 17.5q-29 23 -42 46.5t-13 44.5q0 38 35 64t82 26
q44 0 87.5 -27.5t70.5 -92.5q21 -52 28 -111t7 -109q0 -17 -0.5 -32.5t-1.5 -28.5q26 50 50.5 101t50.5 100q9 17 25 46t35.5 59t40 53t39.5 29q2 1 5 1t3 -3q0 -4 -4 -8q-10 -11 -10 -21t-5 -21.5t-31 -28.5q-10 -7 -33 -43t-53 -90t-63 -115t-64 -119t-56 -103t-39 -65
q-31 -44 -67.5 -83.5t-78.5 -63.5t-88 -24zM365 571q1 5 15 15.5t50 33.5l43 29q6 2 9 2q12 -2 12 -15q0 -8 -16 -17q-10 -6 -20 -9.5t-25 -10.5q-15 -6 -31 -14t-26.5 -12.5t-10.5 -1.5z" />
    <glyph glyph-name="Thorn" unicode="&#xde;" horiz-adv-x="541" 
d="M7 -140q-7 0 -11.5 3.5t-2.5 5.5q21 4 33 16.5t16 31.5q10 35 19 70.5t17 71.5q10 44 20 88.5t20 88.5q4 16 11 48t16 72t18.5 80.5t18 74t15 52t8.5 13.5q24 11 54.5 26.5t56.5 15.5q5 0 11.5 -3t6.5 -6q0 -5 -19 -5q-10 0 -19.5 -3.5t-23.5 -21.5q-12 -16 -29 -58
t-34 -97q29 0 65 -1.5t71 -11t60 -33.5q23 -22 33.5 -47t10.5 -50q0 -45 -27.5 -84t-69.5 -59q-31 -15 -75.5 -20t-83.5 -5q-16 0 -29.5 0.5t-24.5 1.5q-11 -49 -19 -96t-8 -80q0 -29 8 -42q5 -7 -9 -13.5t-35 -12t-39.5 -8.5t-23.5 -3h-6zM180 134q32 0 69 6t71 21.5
t55.5 42t21.5 68.5q0 32 -13 61t-35.5 49.5t-52.5 24.5q-4 1 -9.5 1h-11.5q-19 0 -39.5 -5t-26.5 -19q-7 -18 -17.5 -56t-21 -82t-19.5 -81l-7 -29q8 -1 17 -1.5t19 -0.5z" />
    <glyph glyph-name="germandbls" unicode="&#xdf;" horiz-adv-x="338" 
d="M-168 -208q-31 0 -52 10t-27 30q-1 3 -1 10q0 13 6 28.5t13 32.5q3 5 6 5q2 0 4 -2.5t0 -6.5q-6 -15 -6 -28q0 -27 22 -42t51 -15q12 0 24.5 2.5t23.5 8.5q38 20 63 52t44 66q15 28 33 71t37 91.5t36.5 92.5t30.5 73h-18q-4 0 -8.5 -1t-8.5 -2l-2 1q2 8 16 15t21 7h11
q20 48 45.5 88t58 65.5t73.5 27.5q48 0 70.5 -24t22.5 -58q0 -30 -17.5 -63t-52 -58.5t-84.5 -35.5q-5 -5 -5 -13q0 -12 11 -26t24.5 -28t20.5 -28q17 -28 17 -59q0 -34 -20 -62t-50.5 -44.5t-60.5 -16.5q-26 0 -46.5 15t-28.5 48q-1 3 -1 10q0 17 8 35.5t16 28.5q1 1 3 1
q3 0 4.5 -2.5t0.5 -4.5q-4 -7 -8 -18q-1 -4 -1 -8v-7q0 -40 23 -59.5t50 -19.5q31 0 50 21.5t19 63.5q0 28 -10.5 49.5t-23 40.5t-19.5 38q-4 8 -4 18q0 16 11.5 26.5t24.5 17.5q37 11 63.5 36t41 55.5t14.5 57.5q0 26 -14.5 43t-46.5 17q-22 0 -41 -14t-35 -34
q-25 -28 -49 -77.5t-46.5 -107.5t-44 -114t-42.5 -99q-17 -34 -41 -72.5t-55 -72t-67 -55t-77 -21.5z" />
    <glyph glyph-name="agrave" unicode="&#xe0;" horiz-adv-x="300" 
d="M216 -9q-28 0 -28 43q0 27 8 51.5t15 49.5q-16 -17 -30.5 -33t-31.5 -32q-16 -15 -33 -29.5t-34 -25.5q-31 -20 -47 -20t-16 19q0 22 17 59q10 22 27.5 48t36.5 51q18 22 42.5 45t53.5 39t58 16q23 0 38.5 -10.5t15.5 -33.5q0 -24 -9 -29q-3 -3 -4 -2l-1 1q-1 10 -9 20.5
t-20 14.5q-13 4 -29 4q-37 0 -69.5 -21.5t-55.5 -50.5q-19 -25 -30.5 -51.5t-11.5 -46.5q0 -30 16 -30q10 0 22 9t20 16q29 26 54.5 57.5t35.5 44.5q2 2 11.5 6.5t20.5 7.5l21 5q6 0 6 -1q-6 -8 -16.5 -33t-18.5 -53.5t-8 -48.5q0 -16 6 -21q3 -3 8 -3q8 0 17 5.5t19 12.5
q35 26 66.5 64t53.5 68l2 -2q2 -5 0 -8q-13 -17 -27 -35.5t-28 -36.5q-15 -17 -30.5 -33.5t-32.5 -30.5q-20 -16 -38.5 -26t-32.5 -10zM301 326q0 -5 -19.5 7t-42.5 25q-14 8 -23 12.5t-20 11.5q-14 9 -14 17q0 15 14 15q5 0 9 -3l39 -33q34 -27 45.5 -37t11.5 -15z" />
    <glyph glyph-name="aacute" unicode="&#xe1;" horiz-adv-x="300" 
d="M216 -9q-28 0 -28 43q0 27 8 51.5t15 49.5q-16 -17 -30.5 -33t-31.5 -32q-16 -15 -33 -29.5t-34 -25.5q-31 -20 -47 -20t-16 19q0 22 17 59q10 22 27.5 48t36.5 51q18 22 42.5 45t53.5 39t58 16q23 0 38.5 -10.5t15.5 -33.5q0 -24 -9 -29q-3 -3 -4 -2l-1 1q-1 10 -9 20.5
t-20 14.5q-13 4 -29 4q-37 0 -69.5 -21.5t-55.5 -50.5q-19 -25 -30.5 -51.5t-11.5 -46.5q0 -30 16 -30q10 0 22 9t20 16q29 26 54.5 57.5t35.5 44.5q2 2 11.5 6.5t20.5 7.5l21 5q6 0 6 -1q-6 -8 -16.5 -33t-18.5 -53.5t-8 -48.5q0 -16 6 -21q3 -3 8 -3q8 0 17 5.5t19 12.5
q35 26 66.5 64t53.5 68l2 -2q2 -5 0 -8q-13 -17 -27 -35.5t-28 -36.5q-15 -17 -30.5 -33.5t-32.5 -30.5q-20 -16 -38.5 -26t-32.5 -10zM241 326q0 5 11.5 15t45.5 37l39 33q5 3 9 3q14 0 14 -15q0 -8 -14 -17q-10 -7 -19.5 -11.5t-23.5 -12.5q-22 -13 -42 -25t-20 -7z" />
    <glyph glyph-name="acircumflex" unicode="&#xe2;" horiz-adv-x="300" 
d="M216 -9q-28 0 -28 43q0 27 8 51.5t15 49.5q-16 -17 -30.5 -33t-31.5 -32q-16 -15 -33 -29.5t-34 -25.5q-31 -20 -47 -20t-16 19q0 22 17 59q10 22 27.5 48t36.5 51q18 22 42.5 45t53.5 39t58 16q23 0 38.5 -10.5t15.5 -33.5q0 -24 -9 -29q-3 -3 -4 -2l-1 1q-1 10 -9 20.5
t-20 14.5q-13 4 -29 4q-37 0 -69.5 -21.5t-55.5 -50.5q-19 -25 -30.5 -51.5t-11.5 -46.5q0 -30 16 -30q10 0 22 9t20 16q29 26 54.5 57.5t35.5 44.5q2 2 11.5 6.5t20.5 7.5l21 5q6 0 6 -1q-6 -8 -16.5 -33t-18.5 -53.5t-8 -48.5q0 -16 6 -21q3 -3 8 -3q8 0 17 5.5t19 12.5
q35 26 66.5 64t53.5 68l2 -2q2 -5 0 -8q-13 -17 -27 -35.5t-28 -36.5q-15 -17 -30.5 -33.5t-32.5 -30.5q-20 -16 -38.5 -26t-32.5 -10zM357 310q-4 -1 -15 6.5t-34 23.5l-25 17l-28 -14q-31 -16 -42.5 -22t-19.5 -9q-2 0 -1 3q4 6 14.5 15t28.5 24q13 11 23 19t26 22
q6 6 10 6q3 0 7 -6q2 -4 9.5 -15.5t14.5 -21.5q4 -6 12 -16t14.5 -18t7.5 -10q3 -4 -2 -4z" />
    <glyph glyph-name="atilde" unicode="&#xe3;" horiz-adv-x="300" 
d="M216 -9q-28 0 -28 43q0 27 8 51.5t15 49.5q-16 -17 -30.5 -33t-31.5 -32q-16 -15 -33 -29.5t-34 -25.5q-31 -20 -47 -20t-16 19q0 22 17 59q10 22 27.5 48t36.5 51q18 22 42.5 45t53.5 39t58 16q23 0 38.5 -10.5t15.5 -33.5q0 -24 -9 -29q-3 -3 -4 -2l-1 1q-1 10 -9 20.5
t-20 14.5q-13 4 -29 4q-37 0 -69.5 -21.5t-55.5 -50.5q-19 -25 -30.5 -51.5t-11.5 -46.5q0 -30 16 -30q10 0 22 9t20 16q29 26 54.5 57.5t35.5 44.5q2 2 11.5 6.5t20.5 7.5l21 5q6 0 6 -1q-6 -8 -16.5 -33t-18.5 -53.5t-8 -48.5q0 -16 6 -21q3 -3 8 -3q8 0 17 5.5t19 12.5
q35 26 66.5 64t53.5 68l2 -2q2 -5 0 -8q-13 -17 -27 -35.5t-28 -36.5q-15 -17 -30.5 -33.5t-32.5 -30.5q-20 -16 -38.5 -26t-32.5 -10zM307 326q-13 0 -23.5 8.5t-21.5 16.5t-25 8t-20.5 -5t-12.5 -13q-4 -6 -5 -10t-3 -4t-2 8q0 7 6.5 20.5t17 25t22.5 11.5q13 0 24 -9
l22 -18t23 -9q9 0 20 4t18 15q3 5 5.5 8t5.5 3q5 0 2 -6q-4 -9 -12.5 -21.5t-18.5 -22.5t-22 -10z" />
    <glyph glyph-name="adieresis" unicode="&#xe4;" horiz-adv-x="300" 
d="M216 -9q-28 0 -28 43q0 27 8 51.5t15 49.5q-16 -17 -30.5 -33t-31.5 -32q-16 -15 -33 -29.5t-34 -25.5q-31 -20 -47 -20t-16 19q0 22 17 59q10 22 27.5 48t36.5 51q18 22 42.5 45t53.5 39t58 16q23 0 38.5 -10.5t15.5 -33.5q0 -24 -9 -29q-3 -3 -4 -2l-1 1q-1 10 -9 20.5
t-20 14.5q-13 4 -29 4q-37 0 -69.5 -21.5t-55.5 -50.5q-19 -25 -30.5 -51.5t-11.5 -46.5q0 -30 16 -30q10 0 22 9t20 16q29 26 54.5 57.5t35.5 44.5q2 2 11.5 6.5t20.5 7.5l21 5q6 0 6 -1q-6 -8 -16.5 -33t-18.5 -53.5t-8 -48.5q0 -16 6 -21q3 -3 8 -3q8 0 17 5.5t19 12.5
q35 26 66.5 64t53.5 68l2 -2q2 -5 0 -8q-13 -17 -27 -35.5t-28 -36.5q-15 -17 -30.5 -33.5t-32.5 -30.5q-20 -16 -38.5 -26t-32.5 -10zM309 322q-10 0 -10 12q0 3 0.5 6t1.5 6q5 14 22 27q16 13 31 13q6 0 6 -3q-1 -4 -4 -9.5t-7 -13.5q-4 -7 -7 -12t-4 -7q-4 -19 -29 -19z
M219 322q-9 0 -9 11q0 3 0.5 6t1.5 7q5 14 21 27q17 13 32 13q8 0 5 -3q-1 -4 -3.5 -9.5t-7.5 -13.5q-8 -14 -10 -19q-6 -19 -30 -19z" />
    <glyph glyph-name="aring" unicode="&#xe5;" horiz-adv-x="300" 
d="M216 -9q-28 0 -28 43q0 27 8 51.5t15 49.5q-16 -17 -30.5 -33t-31.5 -32q-16 -15 -33 -29.5t-34 -25.5q-31 -20 -47 -20t-16 19q0 22 17 59q10 22 27.5 48t36.5 51q18 22 42.5 45t53.5 39t58 16q23 0 38.5 -10.5t15.5 -33.5q0 -24 -9 -29q-3 -3 -4 -2l-1 1q-1 10 -9 20.5
t-20 14.5q-13 4 -29 4q-37 0 -69.5 -21.5t-55.5 -50.5q-19 -25 -30.5 -51.5t-11.5 -46.5q0 -30 16 -30q10 0 22 9t20 16q29 26 54.5 57.5t35.5 44.5q2 2 11.5 6.5t20.5 7.5l21 5q6 0 6 -1q-6 -8 -16.5 -33t-18.5 -53.5t-8 -48.5q0 -16 6 -21q3 -3 8 -3q8 0 17 5.5t19 12.5
q35 26 66.5 64t53.5 68l2 -2q2 -5 0 -8q-13 -17 -27 -35.5t-28 -36.5q-15 -17 -30.5 -33.5t-32.5 -30.5q-20 -16 -38.5 -26t-32.5 -10zM286 325q-19 0 -33 12.5t-14 29.5q0 20 22.5 37t47.5 17q20 0 34 -11.5t14 -28.5q0 -25 -22.5 -40.5t-48.5 -15.5zM288 334q14 0 27 13.5
t13 35.5q0 13 -5.5 21t-14.5 8q-14 0 -27.5 -15.5t-13.5 -32.5q0 -13 5.5 -21.5t15.5 -8.5z" />
    <glyph glyph-name="ae" unicode="&#xe6;" horiz-adv-x="311" 
d="M192 -11q-43 0 -43 43q0 18 8 45q3 13 8 25l10 24q-108 -111 -145 -111q-20 0 -20 18q0 23 24 57t70 78q84 81 126 81q17 0 21 -13q23 26 31 26q15 0 18 -10q9 9 15 9q19 0 19 -18q0 -3 -0.5 -6.5t-1.5 -7.5q-6 -17 -17 -35l65 10q4 -4 4 -6q-4 -4 -6 -4l-18 -4
q-21 -4 -37.5 -9.5t-30.5 -13.5q-3 -5 -13 -14q-33 -35 -52 -35q-8 0 -8 4l2 3q10 8 32 31q-32 -11 -44 -22q-5 -4 -11.5 -19.5t-14.5 -43.5q-7 -24 -7 -39q0 -23 16 -23q28 0 79 58l53 61q4 0 4 -4q-2 -5 -6 -11q-19 -28 -34 -46.5t-23 -28.5q-43 -49 -73 -49zM231 168
q16 4 26.5 8t16.5 7q6 4 16.5 20.5t11.5 22.5q3 9 -3 9q-3 0 -12 -7t-25 -24q-26 -26 -31 -36zM48 42q23 0 86 63q29 29 47.5 51t28.5 38q5 5 12 7l12 15q-3 1 -11 1q-20 0 -35 -9q-45 -24 -86 -65q-50 -48 -60 -83q-1 -3 -1 -5.5v-4.5q0 -8 7 -8z" />
    <glyph glyph-name="ccedilla" unicode="&#xe7;" horiz-adv-x="219" 
d="M99 -7q-31 0 -43.5 14.5t-12.5 36.5t9.5 46.5t22.5 45.5q31 49 76.5 86.5t87.5 46.5q4 1 7 1.5t6 0.5q26 0 26 -30q0 -10 -3 -18.5t-6 -11.5q-3 -4 -4 -4q-3 24 -20 28q-10 3 -21 3q-29 0 -54 -17.5t-42.5 -43t-27.5 -50.5q-11 -28 -11 -52q0 -22 10.5 -36.5t35.5 -14.5
q39 0 73.5 24.5t63.5 59.5t50 64q1 1 2 -1q3 -3 0 -8q-9 -13 -19 -26t-21 -27q-22 -28 -50 -55t-61.5 -44.5t-73.5 -17.5zM33 -157q-19 0 -40 6q-5 2 -3 8q2 2 5 3l6 2q6 -1 12 -2.5t11 -1.5q22 0 36 12t14 29q0 7 -5 19q-7 13 -7 27q0 24 24 47q17 16 39 16q8 0 8 -7
q-40 -6 -40 -39q0 -16 8 -29q10 -17 10 -33q0 -25 -22.5 -41t-55.5 -16z" />
    <glyph glyph-name="egrave" unicode="&#xe8;" horiz-adv-x="235" 
d="M122 -12q-40 0 -56.5 18t-16.5 45q0 16 5 33t13 34q-7 4 -7 10q0 9 21 16q9 13 22.5 35.5t30 45.5t34.5 39t35 16q14 0 18 -11q4 1 11 1q29 0 29 -30q0 -23 -16 -43.5t-38 -25.5l1 -5l10 1.5t17 2.5q17 1 37 0t26 -9q2 -2 -0.5 -3t-4.5 0q-8 4 -26 4q-24 0 -56.5 -6
t-59.5 -14.5t-37 -15.5q-9 -14 -18 -35.5t-9 -41.5q0 -18 10.5 -30.5t38.5 -12.5q30 0 55.5 15t47.5 37.5t39 42.5q2 2 14 16t25.5 30.5t19.5 25.5l2 -2q2 -4 -1 -8q-13 -16 -26 -34t-27 -35q-20 -25 -44.5 -49.5t-53.5 -40.5t-65 -16zM124 146q19 7 30 10t20 7
q9 5 17.5 11.5t18.5 18.5q9 11 15 24.5t6 24.5q0 10 -6 16t-21 -7.5t-32 -33.5q-16 -20 -29.5 -40t-18.5 -31zM253 326q0 -5 -19.5 7t-42.5 25q-14 8 -23 12.5t-20 11.5q-14 9 -14 17q0 15 14 15q5 0 9 -3l39 -33q34 -27 45.5 -37t11.5 -15z" />
    <glyph glyph-name="eacute" unicode="&#xe9;" horiz-adv-x="235" 
d="M122 -12q-40 0 -56.5 18t-16.5 45q0 16 5 33t13 34q-7 4 -7 10q0 9 21 16q9 13 22.5 35.5t30 45.5t34.5 39t35 16q14 0 18 -11q4 1 11 1q29 0 29 -30q0 -23 -16 -43.5t-38 -25.5l1 -5l10 1.5t17 2.5q17 1 37 0t26 -9q2 -2 -0.5 -3t-4.5 0q-8 4 -26 4q-24 0 -56.5 -6
t-59.5 -14.5t-37 -15.5q-9 -14 -18 -35.5t-9 -41.5q0 -18 10.5 -30.5t38.5 -12.5q30 0 55.5 15t47.5 37.5t39 42.5q2 2 14 16t25.5 30.5t19.5 25.5l2 -2q2 -4 -1 -8q-13 -16 -26 -34t-27 -35q-20 -25 -44.5 -49.5t-53.5 -40.5t-65 -16zM124 146q19 7 30 10t20 7
q9 5 17.5 11.5t18.5 18.5q9 11 15 24.5t6 24.5q0 10 -6 16t-21 -7.5t-32 -33.5q-16 -20 -29.5 -40t-18.5 -31zM193 326q0 5 11.5 15t45.5 37l39 33q5 3 9 3q14 0 14 -15q0 -8 -14 -17q-10 -7 -19.5 -11.5t-23.5 -12.5q-22 -13 -42 -25t-20 -7z" />
    <glyph glyph-name="ecircumflex" unicode="&#xea;" horiz-adv-x="235" 
d="M122 -12q-40 0 -56.5 18t-16.5 45q0 16 5 33t13 34q-7 4 -7 10q0 9 21 16q9 13 22.5 35.5t30 45.5t34.5 39t35 16q14 0 18 -11q4 1 11 1q29 0 29 -30q0 -23 -16 -43.5t-38 -25.5l1 -5l10 1.5t17 2.5q17 1 37 0t26 -9q2 -2 -0.5 -3t-4.5 0q-8 4 -26 4q-24 0 -56.5 -6
t-59.5 -14.5t-37 -15.5q-9 -14 -18 -35.5t-9 -41.5q0 -18 10.5 -30.5t38.5 -12.5q30 0 55.5 15t47.5 37.5t39 42.5q2 2 14 16t25.5 30.5t19.5 25.5l2 -2q2 -4 -1 -8q-13 -16 -26 -34t-27 -35q-20 -25 -44.5 -49.5t-53.5 -40.5t-65 -16zM124 146q19 7 30 10t20 7
q9 5 17.5 11.5t18.5 18.5q9 11 15 24.5t6 24.5q0 10 -6 16t-21 -7.5t-32 -33.5q-16 -20 -29.5 -40t-18.5 -31zM309 310q-4 -1 -15 6.5t-34 23.5l-25 17l-28 -14q-31 -16 -42.5 -22t-19.5 -9q-2 0 -1 3q4 6 14.5 15t28.5 24q13 11 23 19t26 22q6 6 10 6q3 0 7 -6
q2 -4 9.5 -15.5t14.5 -21.5q4 -6 12 -16t14.5 -18t7.5 -10q3 -4 -2 -4z" />
    <glyph glyph-name="edieresis" unicode="&#xeb;" horiz-adv-x="235" 
d="M122 -12q-40 0 -56.5 18t-16.5 45q0 16 5 33t13 34q-7 4 -7 10q0 9 21 16q9 13 22.5 35.5t30 45.5t34.5 39t35 16q14 0 18 -11q4 1 11 1q29 0 29 -30q0 -23 -16 -43.5t-38 -25.5l1 -5l10 1.5t17 2.5q17 1 37 0t26 -9q2 -2 -0.5 -3t-4.5 0q-8 4 -26 4q-24 0 -56.5 -6
t-59.5 -14.5t-37 -15.5q-9 -14 -18 -35.5t-9 -41.5q0 -18 10.5 -30.5t38.5 -12.5q30 0 55.5 15t47.5 37.5t39 42.5q2 2 14 16t25.5 30.5t19.5 25.5l2 -2q2 -4 -1 -8q-13 -16 -26 -34t-27 -35q-20 -25 -44.5 -49.5t-53.5 -40.5t-65 -16zM124 146q19 7 30 10t20 7
q9 5 17.5 11.5t18.5 18.5q9 11 15 24.5t6 24.5q0 10 -6 16t-21 -7.5t-32 -33.5q-16 -20 -29.5 -40t-18.5 -31zM261 322q-10 0 -10 12q0 3 0.5 6t1.5 6q5 14 22 27q16 13 31 13q6 0 6 -3q-1 -4 -4 -9.5t-7 -13.5q-4 -7 -7 -12t-4 -7q-4 -19 -29 -19zM171 322q-9 0 -9 11
q0 3 0.5 6t1.5 7q5 14 21 27q17 13 32 13q8 0 5 -3q-1 -4 -3.5 -9.5t-7.5 -13.5q-8 -14 -10 -19q-6 -19 -30 -19z" />
    <glyph glyph-name="igrave" unicode="&#xec;" horiz-adv-x="143" 
d="M62 -11q-20 0 -20 25q0 7 1.5 14.5l3.5 17.5q3 11 9 27.5t16 38.5q18 45 24 66q4 14 6 24.5t2 18.5q0 27 -22 27q-4 0 -8 -1t-9 -1t-4 6q1 5 17.5 11t34.5 11t23 5q10 0 10 -14q0 -4 -1 -9t-3 -11q-7 -28 -30 -84q-11 -28 -18.5 -48.5t-11.5 -34.5q-7 -24 -7 -41
q0 -24 16 -24q11 0 23.5 7.5t20.5 15.5l2 2q2 0 2 -1l1 3q4 0 4 -4q0 -7 -10 -15t-27 -16q-31 -16 -45 -16zM165 326q0 -5 -19.5 7t-42.5 25q-14 8 -23 12.5t-20 11.5q-14 9 -14 17q0 15 14 15q5 0 9 -3l39 -33q34 -27 45.5 -37t11.5 -15z" />
    <glyph glyph-name="iacute" unicode="&#xed;" horiz-adv-x="143" 
d="M62 -11q-20 0 -20 25q0 7 1.5 14.5l3.5 17.5q3 11 9 27.5t16 38.5q18 45 24 66q4 14 6 24.5t2 18.5q0 27 -22 27q-4 0 -8 -1t-9 -1t-4 6q1 5 17.5 11t34.5 11t23 5q10 0 10 -14q0 -4 -1 -9t-3 -11q-7 -28 -30 -84q-11 -28 -18.5 -48.5t-11.5 -34.5q-7 -24 -7 -41
q0 -24 16 -24q11 0 23.5 7.5t20.5 15.5l2 2q2 0 2 -1l1 3q4 0 4 -4q0 -7 -10 -15t-27 -16q-31 -16 -45 -16zM105 326q0 5 11.5 15t45.5 37l39 33q5 3 9 3q14 0 14 -15q0 -8 -14 -17q-10 -7 -19.5 -11.5t-23.5 -12.5q-22 -13 -42 -25t-20 -7z" />
    <glyph glyph-name="icircumflex" unicode="&#xee;" horiz-adv-x="143" 
d="M62 -11q-20 0 -20 25q0 7 1.5 14.5l3.5 17.5q3 11 9 27.5t16 38.5q18 45 24 66q4 14 6 24.5t2 18.5q0 27 -22 27q-4 0 -8 -1t-9 -1t-4 6q1 5 17.5 11t34.5 11t23 5q10 0 10 -14q0 -4 -1 -9t-3 -11q-7 -28 -30 -84q-11 -28 -18.5 -48.5t-11.5 -34.5q-7 -24 -7 -41
q0 -24 16 -24q11 0 23.5 7.5t20.5 15.5l2 2q2 0 2 -1l1 3q4 0 4 -4q0 -7 -10 -15t-27 -16q-31 -16 -45 -16zM221 310q-4 -1 -15 6.5t-34 23.5l-25 17l-28 -14q-31 -16 -42.5 -22t-19.5 -9q-2 0 -1 3q4 6 14.5 15t28.5 24q13 11 23 19t26 22q6 6 10 6q3 0 7 -6
q2 -4 9.5 -15.5t14.5 -21.5q4 -6 12 -16t14.5 -18t7.5 -10q3 -4 -2 -4z" />
    <glyph glyph-name="idieresis" unicode="&#xef;" horiz-adv-x="143" 
d="M62 -11q-20 0 -20 25q0 7 1.5 14.5l3.5 17.5q3 11 9 27.5t16 38.5q18 45 24 66q4 14 6 24.5t2 18.5q0 27 -22 27q-4 0 -8 -1t-9 -1t-4 6q1 5 17.5 11t34.5 11t23 5q10 0 10 -14q0 -4 -1 -9t-3 -11q-7 -28 -30 -84q-11 -28 -18.5 -48.5t-11.5 -34.5q-7 -24 -7 -41
q0 -24 16 -24q11 0 23.5 7.5t20.5 15.5l2 2q2 0 2 -1l1 3q4 0 4 -4q0 -7 -10 -15t-27 -16q-31 -16 -45 -16zM173 322q-10 0 -10 12q0 3 0.5 6t1.5 6q5 14 22 27q16 13 31 13q6 0 6 -3q-1 -4 -4 -9.5t-7 -13.5q-4 -7 -7 -12t-4 -7q-4 -19 -29 -19zM83 322q-9 0 -9 11
q0 3 0.5 6t1.5 7q5 14 21 27q17 13 32 13q8 0 5 -3q-1 -4 -3.5 -9.5t-7.5 -13.5q-8 -14 -10 -19q-6 -19 -30 -19z" />
    <glyph glyph-name="eth" unicode="&#xf0;" horiz-adv-x="330" 
d="M98 -6q-16 0 -24.5 11.5t-8.5 30.5q0 17 6 36q6 22 19.5 48t29.5 50q14 22 33 44.5t42.5 38t50.5 15.5q16 0 22.5 -3.5t7.5 -8.5q6 26 8.5 58.5t2.5 65.5q0 21 -1 40.5t-3 35.5q-19 -10 -37.5 -20.5t-37.5 -24.5q-9 -6 -15 -6q-10 0 -10 10q0 7 8 17.5t28 22.5
q11 3 27 10.5t32 15.5q-7 30 -21.5 52.5t-37.5 31.5q-10 4 -10 9q0 7 19 12q3 1 9 1q17 0 38.5 -17.5t34.5 -69.5q23 13 40.5 24t30.5 18q8 5 17 5q16 0 16 -13q0 -7 -10 -16.5t-34 -17.5q-12 -6 -25 -11t-30 -13q4 -23 6 -49t2 -53q0 -68 -16.5 -138.5t-57.5 -129.5
q-25 -36 -54.5 -58.5t-45.5 -33.5q-30 -20 -51 -20zM136 35q18 0 39 18q19 16 36.5 41t31 49t18.5 35q5 13 5 27q0 12 -7 20.5t-25 8.5q-32 0 -56.5 -21t-43.5 -50q-9 -13 -16.5 -41.5t-7.5 -49.5q0 -19 7.5 -28t18.5 -9z" />
    <glyph glyph-name="ntilde" unicode="&#xf1;" horiz-adv-x="295" 
d="M45 1q0 3 2 6t3 5q3 7 6.5 17t10.5 23q8 15 17.5 37t18.5 44.5t15 35.5q2 7 4.5 13t3.5 12q1 4 1 10q0 10 -5 16t-19 6q-10 0 -22.5 -4.5t-22.5 -9.5q0 2 1.5 6t3.5 5q4 2 25 9.5t39 14.5q15 6 31 16q2 1 9.5 5t9.5 4h2q8 0 8 -11q0 -7 -2.5 -18t-7.5 -24
q-9 -22 -19.5 -43t-12.5 -26l-28 -63q42 42 78 81t69 77q20 23 50 23q12 0 20 -4q5 -2 2.5 -4t-6.5 -3q-14 -4 -33 -27t-35.5 -54.5t-25.5 -60.5q-8 -26 -8 -48q0 -14 5 -23t16 -9q16 0 42 18q14 10 35 32.5t41 47.5l32 40l2 -2q2 -5 -1 -8q-7 -10 -18 -25t-25 -32
q-14 -16 -29.5 -33t-30.5 -29q-14 -12 -31 -20t-33 -8q-23 0 -32 14.5t-9 34.5q0 17 4.5 35t9.5 34q5 15 19 42q-31 -25 -59.5 -51t-45.5 -52q-7 -10 -13 -25t-10 -29q-1 -3 -7.5 -5.5t-14.5 -4.5q-7 -1 -15 -3t-15 -6v1zM328 326q-13 0 -23.5 8.5t-21.5 16.5t-25 8
t-20.5 -5t-12.5 -13q-4 -6 -5 -10t-3 -4t-2 8q0 7 6.5 20.5t17 25t22.5 11.5q13 0 24 -9l22 -18t23 -9q9 0 20 4t18 15q3 5 5.5 8t5.5 3q5 0 2 -6q-4 -9 -12.5 -21.5t-18.5 -22.5t-22 -10z" />
    <glyph glyph-name="ograve" unicode="&#xf2;" horiz-adv-x="270" 
d="M118 -9q-24 0 -40.5 18t-16.5 56q0 34 15 68t40.5 61.5t56.5 41.5q8 3 15 5t14 2q15 0 26 -8t11 -25q0 -4 -0.5 -7t-1.5 -7t-5.5 -5t-4.5 3q2 17 -6.5 26.5t-21.5 9.5q-9 0 -17 -4q-25 -12 -43.5 -36.5t-28 -53.5t-9.5 -56q1 -58 39 -58q21 0 44 17t40 47t27 64.5
t10 62.5q0 17 -4 31t-14 21q-5 4 -16 4q-17 0 -26 -7q-6 -4 -7 -4q-4 0 -4 5q0 4 4 10q6 10 19 15t27 5q16 0 28 -7q26 -14 26 -59q0 -32 -13.5 -72t-37 -76.5t-53.5 -59.5q-36 -28 -72 -28zM285 326q0 -5 -19.5 7t-42.5 25q-14 8 -23 12.5t-20 11.5q-14 9 -14 17
q0 15 14 15q5 0 9 -3l39 -33q34 -27 45.5 -37t11.5 -15z" />
    <glyph glyph-name="oacute" unicode="&#xf3;" horiz-adv-x="270" 
d="M118 -9q-24 0 -40.5 18t-16.5 56q0 34 15 68t40.5 61.5t56.5 41.5q8 3 15 5t14 2q15 0 26 -8t11 -25q0 -4 -0.5 -7t-1.5 -7t-5.5 -5t-4.5 3q2 17 -6.5 26.5t-21.5 9.5q-9 0 -17 -4q-25 -12 -43.5 -36.5t-28 -53.5t-9.5 -56q1 -58 39 -58q21 0 44 17t40 47t27 64.5
t10 62.5q0 17 -4 31t-14 21q-5 4 -16 4q-17 0 -26 -7q-6 -4 -7 -4q-4 0 -4 5q0 4 4 10q6 10 19 15t27 5q16 0 28 -7q26 -14 26 -59q0 -32 -13.5 -72t-37 -76.5t-53.5 -59.5q-36 -28 -72 -28zM225 326q0 5 11.5 15t45.5 37l39 33q5 3 9 3q14 0 14 -15q0 -8 -14 -17
q-10 -7 -19.5 -11.5t-23.5 -12.5q-22 -13 -42 -25t-20 -7z" />
    <glyph glyph-name="ocircumflex" unicode="&#xf4;" horiz-adv-x="270" 
d="M118 -9q-24 0 -40.5 18t-16.5 56q0 34 15 68t40.5 61.5t56.5 41.5q8 3 15 5t14 2q15 0 26 -8t11 -25q0 -4 -0.5 -7t-1.5 -7t-5.5 -5t-4.5 3q2 17 -6.5 26.5t-21.5 9.5q-9 0 -17 -4q-25 -12 -43.5 -36.5t-28 -53.5t-9.5 -56q1 -58 39 -58q21 0 44 17t40 47t27 64.5
t10 62.5q0 17 -4 31t-14 21q-5 4 -16 4q-17 0 -26 -7q-6 -4 -7 -4q-4 0 -4 5q0 4 4 10q6 10 19 15t27 5q16 0 28 -7q26 -14 26 -59q0 -32 -13.5 -72t-37 -76.5t-53.5 -59.5q-36 -28 -72 -28zM341 310q-4 -1 -15 6.5t-34 23.5l-25 17l-28 -14q-31 -16 -42.5 -22t-19.5 -9
q-2 0 -1 3q4 6 14.5 15t28.5 24q13 11 23 19t26 22q6 6 10 6q3 0 7 -6q2 -4 9.5 -15.5t14.5 -21.5q4 -6 12 -16t14.5 -18t7.5 -10q3 -4 -2 -4z" />
    <glyph glyph-name="otilde" unicode="&#xf5;" horiz-adv-x="270" 
d="M118 -9q-24 0 -40.5 18t-16.5 56q0 34 15 68t40.5 61.5t56.5 41.5q8 3 15 5t14 2q15 0 26 -8t11 -25q0 -4 -0.5 -7t-1.5 -7t-5.5 -5t-4.5 3q2 17 -6.5 26.5t-21.5 9.5q-9 0 -17 -4q-25 -12 -43.5 -36.5t-28 -53.5t-9.5 -56q1 -58 39 -58q21 0 44 17t40 47t27 64.5
t10 62.5q0 17 -4 31t-14 21q-5 4 -16 4q-17 0 -26 -7q-6 -4 -7 -4q-4 0 -4 5q0 4 4 10q6 10 19 15t27 5q16 0 28 -7q26 -14 26 -59q0 -32 -13.5 -72t-37 -76.5t-53.5 -59.5q-36 -28 -72 -28zM291 326q-13 0 -23.5 8.5t-21.5 16.5t-25 8t-20.5 -5t-12.5 -13q-4 -6 -5 -10
t-3 -4t-2 8q0 7 6.5 20.5t17 25t22.5 11.5q13 0 24 -9l22 -18t23 -9q9 0 20 4t18 15q3 5 5.5 8t5.5 3q5 0 2 -6q-4 -9 -12.5 -21.5t-18.5 -22.5t-22 -10z" />
    <glyph glyph-name="odieresis" unicode="&#xf6;" horiz-adv-x="270" 
d="M118 -9q-24 0 -40.5 18t-16.5 56q0 34 15 68t40.5 61.5t56.5 41.5q8 3 15 5t14 2q15 0 26 -8t11 -25q0 -4 -0.5 -7t-1.5 -7t-5.5 -5t-4.5 3q2 17 -6.5 26.5t-21.5 9.5q-9 0 -17 -4q-25 -12 -43.5 -36.5t-28 -53.5t-9.5 -56q1 -58 39 -58q21 0 44 17t40 47t27 64.5
t10 62.5q0 17 -4 31t-14 21q-5 4 -16 4q-17 0 -26 -7q-6 -4 -7 -4q-4 0 -4 5q0 4 4 10q6 10 19 15t27 5q16 0 28 -7q26 -14 26 -59q0 -32 -13.5 -72t-37 -76.5t-53.5 -59.5q-36 -28 -72 -28zM293 322q-10 0 -10 12q0 3 0.5 6t1.5 6q5 14 22 27q16 13 31 13q6 0 6 -3
q-1 -4 -4 -9.5t-7 -13.5q-4 -7 -7 -12t-4 -7q-4 -19 -29 -19zM203 322q-9 0 -9 11q0 3 0.5 6t1.5 7q5 14 21 27q17 13 32 13q8 0 5 -3q-1 -4 -3.5 -9.5t-7.5 -13.5q-8 -14 -10 -19q-6 -19 -30 -19z" />
    <glyph glyph-name="divide" unicode="&#xf7;" horiz-adv-x="282" 
d="M208 179q-22 0 -22 15q0 14 9 20.5t23 6.5q27 0 21 -22q-3 -9 -13 -15q-12 -5 -18 -5zM159 122q-46 0 -70 3.5t-22 13.5q5 17 22 17h156q20 0 34.5 0.5t25.5 1.5l-1 -4q-2 -7 -19.5 -12t-46.5 -10q-28 -5 -47.5 -7.5t-31.5 -2.5zM147 58q-23 0 -23 16q0 13 9 19.5t23 6.5
q27 0 21 -22q-1 -7 -13 -14q-9 -6 -17 -6z" />
    <glyph glyph-name="oslash" unicode="&#xf8;" horiz-adv-x="270" 
d="M-1 -108q-7 0 -7 8q0 4 2 9q6 22 24 51q16 27 69 89q19 21 40 45t45 51q85 91 131 138t53 47q10 0 10 -8q0 -4 -2 -7.5t-6 -7.5q-9 -8 -22 -21.5t-30 -30.5q-65 -66 -119.5 -124t-98.5 -109q-15 -16 -24 -27t-13 -16q-11 -13 -19 -24.5t-14 -21.5q-3 -5 -4.5 -9t-2.5 -7
q-1 -2 -1 -5q0 -5 3 -8q1 0 1 -2q-2 -4 -7 -7t-8 -3zM118 -9q-24 0 -40.5 18t-16.5 56q0 34 15 68t40.5 61.5t56.5 41.5q8 3 15 5t14 2q15 0 26 -8t11 -25q0 -4 -0.5 -7t-1.5 -7t-5.5 -5t-4.5 3q2 17 -6.5 26.5t-21.5 9.5q-9 0 -17 -4q-25 -12 -43.5 -36.5t-28 -53.5
t-9.5 -56q1 -58 39 -58q21 0 44 17t40 47t27 64.5t10 62.5q0 17 -4 31t-14 21q-5 4 -16 4q-17 0 -26 -7q-6 -4 -7 -4q-4 0 -4 5q0 4 4 10q6 10 19 15t27 5q16 0 28 -7q26 -14 26 -59q0 -32 -13.5 -72t-37 -76.5t-53.5 -59.5q-36 -28 -72 -28z" />
    <glyph glyph-name="ugrave" unicode="&#xf9;" horiz-adv-x="247" 
d="M237 -53q-22 0 -31 22.5t-9 52.5q0 32 6.5 63.5t11.5 45.5l-63 -62q-16 -15 -33 -29t-34 -25q-31 -19 -48 -19q-20 0 -20 22q0 24 20 56q3 4 17.5 24t33.5 48t34 55q8 12 14.5 30.5t6.5 31.5q0 19 -14 19q-9 0 -22 -7q-1 -1 -1.5 3t3.5 5q9 6 25 11t27 2q14 -4 20 -12.5
t6 -19.5q0 -19 -13.5 -41.5t-22.5 -35.5l-48 -65q-12 -16 -20.5 -32t-13.5 -29q-1 -4 -1.5 -7t-0.5 -6q0 -13 14 -13t32 15q21 16 44.5 41.5t42.5 49t26 32.5q7 10 25 16t31 6q9 0 11 -2q-19 -20 -33.5 -56t-23 -75t-8.5 -67q0 -19 4.5 -30.5t14.5 -8.5h1q3 0 3 -3
q0 -6 -14 -6zM301 315q0 -5 -19.5 7t-42.5 25q-14 8 -23 12.5t-20 11.5q-14 9 -14 17q0 15 14 15q5 0 9 -3l39 -33q34 -27 45.5 -37t11.5 -15z" />
    <glyph glyph-name="uacute" unicode="&#xfa;" horiz-adv-x="247" 
d="M237 -53q-22 0 -31 22.5t-9 52.5q0 32 6.5 63.5t11.5 45.5l-63 -62q-16 -15 -33 -29t-34 -25q-31 -19 -48 -19q-20 0 -20 22q0 24 20 56q3 4 17.5 24t33.5 48t34 55q8 12 14.5 30.5t6.5 31.5q0 19 -14 19q-9 0 -22 -7q-1 -1 -1.5 3t3.5 5q9 6 25 11t27 2q14 -4 20 -12.5
t6 -19.5q0 -19 -13.5 -41.5t-22.5 -35.5l-48 -65q-12 -16 -20.5 -32t-13.5 -29q-1 -4 -1.5 -7t-0.5 -6q0 -13 14 -13t32 15q21 16 44.5 41.5t42.5 49t26 32.5q7 10 25 16t31 6q9 0 11 -2q-19 -20 -33.5 -56t-23 -75t-8.5 -67q0 -19 4.5 -30.5t14.5 -8.5h1q3 0 3 -3
q0 -6 -14 -6zM241 315q0 5 11.5 15t45.5 37l39 33q5 3 9 3q14 0 14 -15q0 -8 -14 -17q-10 -7 -19.5 -11.5t-23.5 -12.5q-22 -13 -42 -25t-20 -7z" />
    <glyph glyph-name="ucircumflex" unicode="&#xfb;" horiz-adv-x="247" 
d="M237 -53q-22 0 -31 22.5t-9 52.5q0 32 6.5 63.5t11.5 45.5l-63 -62q-16 -15 -33 -29t-34 -25q-31 -19 -48 -19q-20 0 -20 22q0 24 20 56q3 4 17.5 24t33.5 48t34 55q8 12 14.5 30.5t6.5 31.5q0 19 -14 19q-9 0 -22 -7q-1 -1 -1.5 3t3.5 5q9 6 25 11t27 2q14 -4 20 -12.5
t6 -19.5q0 -19 -13.5 -41.5t-22.5 -35.5l-48 -65q-12 -16 -20.5 -32t-13.5 -29q-1 -4 -1.5 -7t-0.5 -6q0 -13 14 -13t32 15q21 16 44.5 41.5t42.5 49t26 32.5q7 10 25 16t31 6q9 0 11 -2q-19 -20 -33.5 -56t-23 -75t-8.5 -67q0 -19 4.5 -30.5t14.5 -8.5h1q3 0 3 -3
q0 -6 -14 -6zM357 299q-4 -1 -15 6.5t-34 23.5l-25 17l-28 -14q-31 -16 -42.5 -22t-19.5 -9q-2 0 -1 3q4 6 14.5 15t28.5 24q13 11 23 19t26 22q6 6 10 6q3 0 7 -6q2 -4 9.5 -15.5t14.5 -21.5q4 -6 12 -16t14.5 -18t7.5 -10q3 -4 -2 -4z" />
    <glyph glyph-name="udieresis" unicode="&#xfc;" horiz-adv-x="247" 
d="M237 -53q-22 0 -31 22.5t-9 52.5q0 32 6.5 63.5t11.5 45.5l-63 -62q-16 -15 -33 -29t-34 -25q-31 -19 -48 -19q-20 0 -20 22q0 24 20 56q3 4 17.5 24t33.5 48t34 55q8 12 14.5 30.5t6.5 31.5q0 19 -14 19q-9 0 -22 -7q-1 -1 -1.5 3t3.5 5q9 6 25 11t27 2q14 -4 20 -12.5
t6 -19.5q0 -19 -13.5 -41.5t-22.5 -35.5l-48 -65q-12 -16 -20.5 -32t-13.5 -29q-1 -4 -1.5 -7t-0.5 -6q0 -13 14 -13t32 15q21 16 44.5 41.5t42.5 49t26 32.5q7 10 25 16t31 6q9 0 11 -2q-19 -20 -33.5 -56t-23 -75t-8.5 -67q0 -19 4.5 -30.5t14.5 -8.5h1q3 0 3 -3
q0 -6 -14 -6zM309 311q-10 0 -10 12q0 3 0.5 6t1.5 6q5 14 22 27q16 13 31 13q6 0 6 -3q-1 -4 -4 -9.5t-7 -13.5q-4 -7 -7 -12t-4 -7q-4 -19 -29 -19zM219 311q-9 0 -9 11q0 3 0.5 6t1.5 7q5 14 21 27q17 13 32 13q8 0 5 -3q-1 -4 -3.5 -9.5t-7.5 -13.5q-8 -14 -10 -19
q-6 -19 -30 -19z" />
    <glyph glyph-name="yacute" unicode="&#xfd;" horiz-adv-x="325" 
d="M102 -355q-33 0 -57 20t-24 60q0 8 1 17.5t4 19.5q8 29 17 48.5t28 49.5q20 29 42.5 60t46.5 62q4 5 10 21t8 33q2 13 3.5 35.5t1.5 45.5q0 74 -30 74q-21 0 -50 -35l-48 -58q-2 -2 -3 -2q-2 0 -3.5 3t1.5 6q15 19 29 38.5t21 29.5q17 26 37 41.5t38 15.5
q25 0 34.5 -18.5t9.5 -46.5q0 -24 -5 -51.5t-12 -52t-12 -40.5q51 65 102.5 139.5t91.5 135.5q5 8 17 13t23 5h7q8 0 11 -1q3 -2 0 -5q-15 -18 -45 -54.5t-65.5 -81t-69 -87t-55.5 -72.5q-29 -38 -60 -81.5t-54.5 -89t-30.5 -88.5q-1 -4 -1 -7.5v-8.5q0 -28 15 -52t44 -24
q12 0 26.5 5.5t30.5 18.5q5 4 9 4q3 0 3 -4q0 -7 -5 -10q-19 -16 -40.5 -23.5t-41.5 -7.5zM254 340q0 5 11.5 15t45.5 37l39 33q5 3 9 3q14 0 14 -15q0 -8 -14 -17q-10 -7 -19.5 -11.5t-23.5 -12.5q-22 -13 -42 -25t-20 -7z" />
    <glyph glyph-name="thorn" unicode="&#xfe;" horiz-adv-x="330" 
d="M-144 -359q-5 0 3 8q14 16 34.5 51.5t44 81.5t47.5 94.5t44.5 91.5t33.5 71q24 51 51 110.5t54.5 117t52.5 99.5q38 64 83 123t94 93q10 8 33.5 12t41.5 4q22 0 22 -4q0 -6 -33 -14q-30 -8 -64 -38.5t-68 -75.5t-66 -97t-59 -103t-46 -94q-5 -13 -11 -27t-13 -29
q31 38 68 68.5t73 49t63 18.5q38 0 38 -30q0 -23 -20 -57t-47 -60q23 11 46.5 21t45.5 17q10 3 10 -1q0 -5 -14 -11q-20 -7 -49.5 -23.5t-69.5 -36.5l-67 -44q-38 -25 -71 -25q-23 0 -23 15q0 8 7 17t15 11q31 8 66 17t63 26q26 16 40 41.5t14 45.5q0 14 -6.5 23t-20.5 9
q-12 0 -27 -7q-44 -20 -90 -62.5t-75 -90.5q-33 -71 -68.5 -143t-66 -130t-51.5 -87q-6 -8 -19.5 -19t-26 -19t-16.5 -8z" />
    <glyph glyph-name="ydieresis" unicode="&#xff;" horiz-adv-x="325" 
d="M102 -355q-33 0 -57 20t-24 60q0 8 1 17.5t4 19.5q8 29 17 48.5t28 49.5q20 29 42.5 60t46.5 62q4 5 10 21t8 33q2 13 3.5 35.5t1.5 45.5q0 74 -30 74q-21 0 -50 -35l-48 -58q-2 -2 -3 -2q-2 0 -3.5 3t1.5 6q15 19 29 38.5t21 29.5q17 26 37 41.5t38 15.5
q25 0 34.5 -18.5t9.5 -46.5q0 -24 -5 -51.5t-12 -52t-12 -40.5q51 65 102.5 139.5t91.5 135.5q5 8 17 13t23 5h7q8 0 11 -1q3 -2 0 -5q-15 -18 -45 -54.5t-65.5 -81t-69 -87t-55.5 -72.5q-29 -38 -60 -81.5t-54.5 -89t-30.5 -88.5q-1 -4 -1 -7.5v-8.5q0 -28 15 -52t44 -24
q12 0 26.5 5.5t30.5 18.5q5 4 9 4q3 0 3 -4q0 -7 -5 -10q-19 -16 -40.5 -23.5t-41.5 -7.5zM322 336q-10 0 -10 12q0 3 0.5 6t1.5 6q5 14 22 27q16 13 31 13q6 0 6 -3q-1 -4 -4 -9.5t-7 -13.5q-4 -7 -7 -12t-4 -7q-4 -19 -29 -19zM232 336q-9 0 -9 11q0 3 0.5 6t1.5 7
q5 14 21 27q17 13 32 13q8 0 5 -3q-1 -4 -3.5 -9.5t-7.5 -13.5q-8 -14 -10 -19q-6 -19 -30 -19z" />
    <glyph glyph-name="Amacron" unicode="&#x100;" horiz-adv-x="591" 
d="M153 167q-15 0 -24 5q-4 1 -4 4q0 2 2.5 3t6.5 -1q6 -2 9 -2q13 0 27 10t24.5 27t10.5 38q0 12 -5 27q-5 14 -14 27.5t-15 26.5q-8 17 -11.5 31t-3.5 27q0 32 20 50.5t51.5 29t66.5 15.5t64 9q25 3 60.5 8.5t74.5 12t74.5 14.5t61 16t32.5 16q2 2 4 2q3 0 3.5 -3t-2.5 -6
q-11 -12 -46 -24t-82.5 -23t-98.5 -21t-96 -19t-73 -17q-91 -25 -91 -83q0 -23 13 -44.5t25.5 -42.5t12.5 -43q0 -31 -25.5 -50.5t-51.5 -19.5zM141 -14q-42 0 -70 19.5t-42 50.5t-14 67q0 24 6 46q3 20 14 20q3 0 3 -4t-2.5 -10.5t-1.5 -8.5q3 -72 34 -105.5t76 -33.5
q64 0 135 57q26 21 52.5 50.5t52.5 63.5q-12 -2 -23.5 -5t-22.5 -6q-14 -4 -26 -7t-21 -4q-4 -1 -8 -1h-7q-11 0 -12 4t2 8q6 8 17.5 15.5t21.5 8.5q21 3 47 7.5t54 8.5q38 52 74 105t66 94q11 14 20.5 26t19.5 24q13 16 36 20q5 6 20 20.5t27 19.5q4 2 5 2q5 0 5.5 -4.5
t-1.5 -6.5q-9 -7 -19 -20.5t-16 -26.5q-27 -59 -50 -121t-43 -125q22 -1 33.5 -11.5t11.5 -21.5q0 -14 -8.5 -15.5t-4.5 6.5q2 3 2 8q0 8 -11 13t-28 6q-7 -22 -15.5 -56t-13.5 -65q-1 -9 -1.5 -16.5t-0.5 -13.5q0 -23 7 -33t18 -10q14 0 31.5 11.5t34.5 27.5t28 30
q2 2 11 14t20 25.5t17 21.5q1 2 5.5 0.5t2.5 -3.5q-24 -34 -51 -67q-13 -15 -34.5 -38t-46.5 -40.5t-49 -17.5q-3 0 -6 0.5t-6 1.5q-16 4 -23 20t-7 38q0 11 2 24t5 26q7 27 18 58.5t23 61.5q-3 0 -5.5 -0.5t-5.5 -0.5q-25 -2 -50 -6.5t-40 -7.5q-38 -55 -81 -105
t-90.5 -81.5t-100.5 -31.5zM431 231q25 2 47.5 3t42.5 1q8 18 14.5 33.5t10.5 27.5q17 44 31 82t14 45q0 3 -12 1t-29 -22q-27 -32 -57 -77.5t-62 -93.5zM592 599q0 7 1.5 17t8.5 10l160 -4q0 -7 -1 -10t-9 -4z" />
    <glyph glyph-name="amacron" unicode="&#x101;" horiz-adv-x="300" 
d="M216 -9q-28 0 -28 43q0 27 8 51.5t15 49.5q-16 -17 -30.5 -33t-31.5 -32q-16 -15 -33 -29.5t-34 -25.5q-31 -20 -47 -20t-16 19q0 22 17 59q10 22 27.5 48t36.5 51q18 22 42.5 45t53.5 39t58 16q23 0 38.5 -10.5t15.5 -33.5q0 -24 -9 -29q-3 -3 -4 -2l-1 1q-1 10 -9 20.5
t-20 14.5q-13 4 -29 4q-37 0 -69.5 -21.5t-55.5 -50.5q-19 -25 -30.5 -51.5t-11.5 -46.5q0 -30 16 -30q10 0 22 9t20 16q29 26 54.5 57.5t35.5 44.5q2 2 11.5 6.5t20.5 7.5l21 5q6 0 6 -1q-6 -8 -16.5 -33t-18.5 -53.5t-8 -48.5q0 -16 6 -21q3 -3 8 -3q8 0 17 5.5t19 12.5
q35 26 66.5 64t53.5 68l2 -2q2 -5 0 -8q-13 -17 -27 -35.5t-28 -36.5q-15 -17 -30.5 -33.5t-32.5 -30.5q-20 -16 -38.5 -26t-32.5 -10zM178 326q0 7 1.5 17t8.5 10l140 -4q0 -7 -1 -10t-9 -4z" />
    <glyph glyph-name="Abreve" unicode="&#x102;" horiz-adv-x="591" 
d="M153 167q-15 0 -24 5q-4 1 -4 4q0 2 2.5 3t6.5 -1q6 -2 9 -2q13 0 27 10t24.5 27t10.5 38q0 12 -5 27q-5 14 -14 27.5t-15 26.5q-8 17 -11.5 31t-3.5 27q0 32 20 50.5t51.5 29t66.5 15.5t64 9q25 3 60.5 8.5t74.5 12t74.5 14.5t61 16t32.5 16q2 2 4 2q3 0 3.5 -3t-2.5 -6
q-11 -12 -46 -24t-82.5 -23t-98.5 -21t-96 -19t-73 -17q-91 -25 -91 -83q0 -23 13 -44.5t25.5 -42.5t12.5 -43q0 -31 -25.5 -50.5t-51.5 -19.5zM141 -14q-42 0 -70 19.5t-42 50.5t-14 67q0 24 6 46q3 20 14 20q3 0 3 -4t-2.5 -10.5t-1.5 -8.5q3 -72 34 -105.5t76 -33.5
q64 0 135 57q26 21 52.5 50.5t52.5 63.5q-12 -2 -23.5 -5t-22.5 -6q-14 -4 -26 -7t-21 -4q-4 -1 -8 -1h-7q-11 0 -12 4t2 8q6 8 17.5 15.5t21.5 8.5q21 3 47 7.5t54 8.5q38 52 74 105t66 94q11 14 20.5 26t19.5 24q13 16 36 20q5 6 20 20.5t27 19.5q4 2 5 2q5 0 5.5 -4.5
t-1.5 -6.5q-9 -7 -19 -20.5t-16 -26.5q-27 -59 -50 -121t-43 -125q22 -1 33.5 -11.5t11.5 -21.5q0 -14 -8.5 -15.5t-4.5 6.5q2 3 2 8q0 8 -11 13t-28 6q-7 -22 -15.5 -56t-13.5 -65q-1 -9 -1.5 -16.5t-0.5 -13.5q0 -23 7 -33t18 -10q14 0 31.5 11.5t34.5 27.5t28 30
q2 2 11 14t20 25.5t17 21.5q1 2 5.5 0.5t2.5 -3.5q-24 -34 -51 -67q-13 -15 -34.5 -38t-46.5 -40.5t-49 -17.5q-3 0 -6 0.5t-6 1.5q-16 4 -23 20t-7 38q0 11 2 24t5 26q7 27 18 58.5t23 61.5q-3 0 -5.5 -0.5t-5.5 -0.5q-25 -2 -50 -6.5t-40 -7.5q-38 -55 -81 -105
t-90.5 -81.5t-100.5 -31.5zM431 231q25 2 47.5 3t42.5 1q8 18 14.5 33.5t10.5 27.5q17 44 31 82t14 45q0 3 -12 1t-29 -22q-27 -32 -57 -77.5t-62 -93.5zM686 588q-28 0 -43 14.5t-15 37.5q0 8 1.5 20t9.5 11q1 -24 11.5 -38t41.5 -14q36 0 54.5 13t25.5 26t10 13q1 0 1 -2
t-1 -5.5t-2 -5.5q-10 -29 -32 -49.5t-62 -20.5z" />
    <glyph glyph-name="abreve" unicode="&#x103;" horiz-adv-x="300" 
d="M216 -9q-28 0 -28 43q0 27 8 51.5t15 49.5q-16 -17 -30.5 -33t-31.5 -32q-16 -15 -33 -29.5t-34 -25.5q-31 -20 -47 -20t-16 19q0 22 17 59q10 22 27.5 48t36.5 51q18 22 42.5 45t53.5 39t58 16q23 0 38.5 -10.5t15.5 -33.5q0 -24 -9 -29q-3 -3 -4 -2l-1 1q-1 10 -9 20.5
t-20 14.5q-13 4 -29 4q-37 0 -69.5 -21.5t-55.5 -50.5q-19 -25 -30.5 -51.5t-11.5 -46.5q0 -30 16 -30q10 0 22 9t20 16q29 26 54.5 57.5t35.5 44.5q2 2 11.5 6.5t20.5 7.5l21 5q6 0 6 -1q-6 -8 -16.5 -33t-18.5 -53.5t-8 -48.5q0 -16 6 -21q3 -3 8 -3q8 0 17 5.5t19 12.5
q35 26 66.5 64t53.5 68l2 -2q2 -5 0 -8q-13 -17 -27 -35.5t-28 -36.5q-15 -17 -30.5 -33.5t-32.5 -30.5q-20 -16 -38.5 -26t-32.5 -10zM277 315q-21 0 -34.5 17t-13.5 40q0 8 1.5 20t9.5 11q1 -24 10 -40t33 -16q31 0 47 14t23 28t10 14q1 0 1 -2t-1 -5.5t-2 -5.5
q-10 -29 -31 -52t-53 -23z" />
    <glyph glyph-name="Aogonek" unicode="&#x104;" horiz-adv-x="591" 
d="M153 167q-15 0 -24 5q-4 1 -4 4q0 2 2.5 3t6.5 -1q6 -2 9 -2q13 0 27 10t24.5 27t10.5 38q0 12 -5 27q-5 14 -14 27.5t-15 26.5q-8 17 -11.5 31t-3.5 27q0 32 20 50.5t51.5 29t66.5 15.5t64 9q25 3 60.5 8.5t74.5 12t74.5 14.5t61 16t32.5 16q2 2 4 2q3 0 3.5 -3t-2.5 -6
q-11 -12 -46 -24t-82.5 -23t-98.5 -21t-96 -19t-73 -17q-91 -25 -91 -83q0 -23 13 -44.5t25.5 -42.5t12.5 -43q0 -31 -25.5 -50.5t-51.5 -19.5zM141 -14q-42 0 -70 19.5t-42 50.5t-14 67q0 24 6 46q3 20 14 20q3 0 3 -4t-2.5 -10.5t-1.5 -8.5q3 -72 34 -105.5t76 -33.5
q64 0 135 57q26 21 52.5 50.5t52.5 63.5q-12 -2 -23.5 -5t-22.5 -6q-14 -4 -26 -7t-21 -4q-4 -1 -8 -1h-7q-11 0 -12 4t2 8q6 8 17.5 15.5t21.5 8.5q21 3 47 7.5t54 8.5q38 52 74 105t66 94q11 14 20.5 26t19.5 24q13 16 36 20q5 6 20 20.5t27 19.5q4 2 5 2q5 0 5.5 -4.5
t-1.5 -6.5q-9 -7 -19 -20.5t-16 -26.5q-27 -59 -50 -121t-43 -125q22 -1 33.5 -11.5t11.5 -21.5q0 -14 -8.5 -15.5t-4.5 6.5q2 3 2 8q0 8 -11 13t-28 6q-7 -22 -15.5 -56t-13.5 -65q-1 -9 -1.5 -16.5t-0.5 -13.5q0 -23 7 -33t18 -10q14 0 31.5 11.5t34.5 27.5t28 30
q2 2 11 14t20 25.5t17 21.5q1 2 5.5 0.5t2.5 -3.5q-24 -34 -51 -67q-13 -15 -34.5 -38t-46.5 -40.5t-49 -17.5q-3 0 -6 0.5t-6 1.5q-16 4 -23 20t-7 38q0 11 2 24t5 26q7 27 18 58.5t23 61.5q-3 0 -5.5 -0.5t-5.5 -0.5q-25 -2 -50 -6.5t-40 -7.5q-38 -55 -81 -105
t-90.5 -81.5t-100.5 -31.5zM431 231q25 2 47.5 3t42.5 1q8 18 14.5 33.5t10.5 27.5q17 44 31 82t14 45q0 3 -12 1t-29 -22q-27 -32 -57 -77.5t-62 -93.5zM476 -132q-20 0 -31.5 8t-7.5 27q4 20 18 44.5t32 43t34 19.5q3 0 3 -5q-24 -25 -38 -50t-14 -42q0 -21 26 -21
q17 0 37 7q11 5 18 7.5t8 2.5q9 0 9 -5q0 -6 -8.5 -11.5t-20.5 -10.5q-36 -14 -65 -14z" />
    <glyph glyph-name="aogonek" unicode="&#x105;" horiz-adv-x="300" 
d="M216 -9q-28 0 -28 43q0 27 8 51.5t15 49.5q-16 -17 -30.5 -33t-31.5 -32q-16 -15 -33 -29.5t-34 -25.5q-31 -20 -47 -20t-16 19q0 22 17 59q10 22 27.5 48t36.5 51q18 22 42.5 45t53.5 39t58 16q23 0 38.5 -10.5t15.5 -33.5q0 -24 -9 -29q-3 -3 -4 -2l-1 1q-1 10 -9 20.5
t-20 14.5q-13 4 -29 4q-37 0 -69.5 -21.5t-55.5 -50.5q-19 -25 -30.5 -51.5t-11.5 -46.5q0 -30 16 -30q10 0 22 9t20 16q29 26 54.5 57.5t35.5 44.5q2 2 11.5 6.5t20.5 7.5l21 5q6 0 6 -1q-6 -8 -16.5 -33t-18.5 -53.5t-8 -48.5q0 -16 6 -21q3 -3 8 -3q8 0 17 5.5t19 12.5
q35 26 66.5 64t53.5 68l2 -2q2 -5 0 -8q-13 -17 -27 -35.5t-28 -36.5q-15 -17 -30.5 -33.5t-32.5 -30.5q-20 -16 -38.5 -26t-32.5 -10zM198 -121q-20 0 -32.5 8.5t-8.5 27.5q6 29 30.5 57t49.5 38q3 1 3 -5q-36 -21 -44 -44.5t-8 -36.5q0 -21 26 -21q17 0 37 7q11 5 18 7.5
t8 2.5q9 0 9 -5q0 -6 -8.5 -11.5t-20.5 -10.5q-17 -7 -31 -10.5t-28 -3.5z" />
    <glyph glyph-name="Cacute" unicode="&#x106;" horiz-adv-x="421" 
d="M220 -39q-49 0 -89 18.5t-64 55.5t-24 93q0 37 12 82q17 59 50.5 112.5t81 95.5t104.5 66t120 24q8 0 15.5 -0.5t15.5 -1.5q15 -1 27 -4.5t18 -10.5q8 10 12 21t11 16q8 7 17 7q15 0 15 -12q0 -4 -3 -9q-33 -41 -53.5 -80t-37.5 -86q-3 -8 -10 -8q-4 0 -7 3.5t0 9.5
l27 63q9 21 9 34q0 23 -22 31q-24 10 -52 10q-40 0 -78 -20t-72 -53.5t-61.5 -73.5t-47 -79.5t-28.5 -72.5q-13 -43 -13 -81q0 -64 36.5 -94.5t92.5 -30.5q60 0 132 32q47 21 77.5 51t66.5 74q3 4 8 4q7 0 2 -8q-37 -51 -71 -87t-79 -58q-69 -33 -138 -33zM375 569
q1 5 15 15.5t50 33.5l43 29q6 2 9 2q12 -2 12 -15q0 -8 -16 -17q-10 -6 -20 -9.5t-25 -10.5q-15 -6 -31 -14t-26.5 -12.5t-10.5 -1.5z" />
    <glyph glyph-name="cacute" unicode="&#x107;" horiz-adv-x="219" 
d="M99 -7q-31 0 -43.5 14.5t-12.5 36.5t9.5 46.5t22.5 45.5q31 49 76.5 86.5t87.5 46.5q4 1 7 1.5t6 0.5q26 0 26 -30q0 -10 -3 -18.5t-6 -11.5q-3 -4 -4 -4q-3 24 -20 28q-10 3 -21 3q-29 0 -54 -17.5t-42.5 -43t-27.5 -50.5q-11 -28 -11 -52q0 -22 10.5 -36.5t35.5 -14.5
q39 0 73.5 24.5t63.5 59.5t50 64q1 1 2 -1q3 -3 0 -8q-9 -13 -19 -26t-21 -27q-22 -28 -50 -55t-61.5 -44.5t-73.5 -17.5zM210 326q0 5 11.5 15t45.5 37l39 33q5 3 9 3q14 0 14 -15q0 -8 -14 -17q-10 -7 -19.5 -11.5t-23.5 -12.5q-22 -13 -42 -25t-20 -7z" />
    <glyph glyph-name="Ccircumflex" unicode="&#x108;" horiz-adv-x="421" 
d="M220 -39q-49 0 -89 18.5t-64 55.5t-24 93q0 37 12 82q17 59 50.5 112.5t81 95.5t104.5 66t120 24q8 0 15.5 -0.5t15.5 -1.5q15 -1 27 -4.5t18 -10.5q8 10 12 21t11 16q8 7 17 7q15 0 15 -12q0 -4 -3 -9q-33 -41 -53.5 -80t-37.5 -86q-3 -8 -10 -8q-4 0 -7 3.5t0 9.5
l27 63q9 21 9 34q0 23 -22 31q-24 10 -52 10q-40 0 -78 -20t-72 -53.5t-61.5 -73.5t-47 -79.5t-28.5 -72.5q-13 -43 -13 -81q0 -64 36.5 -94.5t92.5 -30.5q60 0 132 32q47 21 77.5 51t66.5 74q3 4 8 4q7 0 2 -8q-37 -51 -71 -87t-79 -58q-69 -33 -138 -33zM510 553
q-4 -1 -20 8.5t-27 17.5q-8 6 -19.5 13t-17.5 11q-7 -4 -16 -7.5t-17 -7.5q-31 -16 -45 -23t-22 -10q-2 0 -1 3q4 6 17 17t32 25q14 11 26 19.5t27 21.5q7 7 10 7q2 0 7 -7q2 -4 12 -17.5t17 -22.5q9 -11 23.5 -26.5t15.5 -17.5q3 -4 -2 -4z" />
    <glyph glyph-name="ccircumflex" unicode="&#x109;" horiz-adv-x="219" 
d="M99 -7q-31 0 -43.5 14.5t-12.5 36.5t9.5 46.5t22.5 45.5q31 49 76.5 86.5t87.5 46.5q4 1 7 1.5t6 0.5q26 0 26 -30q0 -10 -3 -18.5t-6 -11.5q-3 -4 -4 -4q-3 24 -20 28q-10 3 -21 3q-29 0 -54 -17.5t-42.5 -43t-27.5 -50.5q-11 -28 -11 -52q0 -22 10.5 -36.5t35.5 -14.5
q39 0 73.5 24.5t63.5 59.5t50 64q1 1 2 -1q3 -3 0 -8q-9 -13 -19 -26t-21 -27q-22 -28 -50 -55t-61.5 -44.5t-73.5 -17.5zM326 310q-4 -1 -15 6.5t-34 23.5l-25 17l-28 -14q-31 -16 -42.5 -22t-19.5 -9q-2 0 -1 3q4 6 14.5 15t28.5 24q13 11 23 19t26 22q6 6 10 6q3 0 7 -6
q2 -4 9.5 -15.5t14.5 -21.5q4 -6 12 -16t14.5 -18t7.5 -10q3 -4 -2 -4z" />
    <glyph glyph-name="Cdotaccent" unicode="&#x10a;" horiz-adv-x="421" 
d="M220 -39q-49 0 -89 18.5t-64 55.5t-24 93q0 37 12 82q17 59 50.5 112.5t81 95.5t104.5 66t120 24q8 0 15.5 -0.5t15.5 -1.5q15 -1 27 -4.5t18 -10.5q8 10 12 21t11 16q8 7 17 7q15 0 15 -12q0 -4 -3 -9q-33 -41 -53.5 -80t-37.5 -86q-3 -8 -10 -8q-4 0 -7 3.5t0 9.5
l27 63q9 21 9 34q0 23 -22 31q-24 10 -52 10q-40 0 -78 -20t-72 -53.5t-61.5 -73.5t-47 -79.5t-28.5 -72.5q-13 -43 -13 -81q0 -64 36.5 -94.5t92.5 -30.5q60 0 132 32q47 21 77.5 51t66.5 74q3 4 8 4q7 0 2 -8q-37 -51 -71 -87t-79 -58q-69 -33 -138 -33zM412 568
q-10 0 -10 12q0 3 0.5 6t1.5 6q5 14 22 27q16 13 31 13q6 0 6 -3q-1 -4 -4 -9.5t-7 -13.5q-4 -7 -7 -12t-4 -7q-4 -19 -29 -19z" />
    <glyph glyph-name="cdotaccent" unicode="&#x10b;" horiz-adv-x="219" 
d="M99 -7q-31 0 -43.5 14.5t-12.5 36.5t9.5 46.5t22.5 45.5q31 49 76.5 86.5t87.5 46.5q4 1 7 1.5t6 0.5q26 0 26 -30q0 -10 -3 -18.5t-6 -11.5q-3 -4 -4 -4q-3 24 -20 28q-10 3 -21 3q-29 0 -54 -17.5t-42.5 -43t-27.5 -50.5q-11 -28 -11 -52q0 -22 10.5 -36.5t35.5 -14.5
q39 0 73.5 24.5t63.5 59.5t50 64q1 1 2 -1q3 -3 0 -8q-9 -13 -19 -26t-21 -27q-22 -28 -50 -55t-61.5 -44.5t-73.5 -17.5zM235 325q-10 0 -10 12q0 3 0.5 6t1.5 6q5 14 22 27q16 13 31 13q6 0 6 -3q-1 -4 -4 -9.5t-7 -13.5q-4 -7 -7 -12t-4 -7q-4 -19 -29 -19z" />
    <glyph glyph-name="Ccaron" unicode="&#x10c;" horiz-adv-x="421" 
d="M342 654q5 2 20.5 -8t26.5 -18q8 -6 19.5 -12.5t17.5 -11.5q7 4 16.5 7.5t16.5 7.5l46 23t21 10q2 0 1 -3q-4 -6 -17 -17t-32 -25q-13 -10 -25.5 -19t-27.5 -22q-7 -7 -10 -7q-2 0 -7 7q-2 4 -11.5 17.5t-17.5 22.5q-9 11 -23 26.5t-16 17.5q-3 4 2 4zM220 -39
q-49 0 -89 18.5t-64 55.5t-24 93q0 37 12 82q17 59 50.5 112.5t81 95.5t104.5 66t120 24q8 0 15.5 -0.5t15.5 -1.5q15 -1 27 -4.5t18 -10.5q8 10 12 21t11 16q8 7 17 7q15 0 15 -12q0 -4 -3 -9q-33 -41 -53.5 -80t-37.5 -86q-3 -8 -10 -8q-4 0 -7 3.5t0 9.5l27 63q9 21 9 34
q0 23 -22 31q-24 10 -52 10q-40 0 -78 -20t-72 -53.5t-61.5 -73.5t-47 -79.5t-28.5 -72.5q-13 -43 -13 -81q0 -64 36.5 -94.5t92.5 -30.5q60 0 132 32q47 21 77.5 51t66.5 74q3 4 8 4q7 0 2 -8q-37 -51 -71 -87t-79 -58q-69 -33 -138 -33z" />
    <glyph glyph-name="ccaron" unicode="&#x10d;" horiz-adv-x="219" 
d="M175 411q5 2 15.5 -6t33.5 -24l25 -17l28 14q32 16 43.5 22t18.5 9q2 0 1 -3q-4 -6 -14.5 -15t-28.5 -24q-13 -10 -23 -18.5t-26 -22.5q-6 -6 -10 -6q-2 0 -7 6q-2 4 -9.5 15.5t-14.5 21.5q-4 6 -11.5 16t-14.5 18.5t-8 9.5q-3 4 2 4zM99 -7q-31 0 -43.5 14.5t-12.5 36.5
t9.5 46.5t22.5 45.5q31 49 76.5 86.5t87.5 46.5q4 1 7 1.5t6 0.5q26 0 26 -30q0 -10 -3 -18.5t-6 -11.5q-3 -4 -4 -4q-3 24 -20 28q-10 3 -21 3q-29 0 -54 -17.5t-42.5 -43t-27.5 -50.5q-11 -28 -11 -52q0 -22 10.5 -36.5t35.5 -14.5q39 0 73.5 24.5t63.5 59.5t50 64
q1 1 2 -1q3 -3 0 -8q-9 -13 -19 -26t-21 -27q-22 -28 -50 -55t-61.5 -44.5t-73.5 -17.5z" />
    <glyph glyph-name="Dcaron" unicode="&#x10e;" horiz-adv-x="564" 
d="M356 701q5 2 15.5 -6t33.5 -24l25 -17l28 14q32 16 43.5 22t18.5 9q2 0 1 -3q-4 -6 -14.5 -15t-28.5 -24q-13 -10 -23 -18.5t-26 -22.5q-6 -6 -10 -6q-2 0 -7 6q-2 4 -9.5 15.5t-14.5 21.5q-4 6 -11.5 16t-14.5 18.5t-8 9.5q-3 4 2 4zM8 -14q-7 0 -1 10q3 5 15 21t37 16
q8 0 16.5 -1t18.5 -1q19 0 25 4.5t16 16.5q2 3 12.5 26t26.5 60t35 81t37.5 88t35 82.5t26.5 63.5q-14 5 -38 11t-51.5 10.5t-52.5 4.5q-13 0 -24.5 -1.5t-19.5 -5.5q-67 -31 -67 -91q0 -22 9 -48t22 -49.5t29 -47.5q2 -4 -1 -6t-5 2q-16 24 -34 47.5t-30.5 49t-12.5 54.5
q0 5 0.5 10.5t1.5 11.5q11 59 49.5 84t96.5 28q19 1 46.5 -3t54.5 -10t43 -12q20 44 48.5 69.5t71.5 25.5q7 0 15 -3t11 -9q1 -1 1 -3q0 -4 -4.5 -5t-6.5 3q0 1 -4.5 3t-11.5 2q-25 0 -43 -14.5t-29.5 -36t-19.5 -42.5q44 -15 87 -41.5t79 -62t57.5 -79t21.5 -93.5
q0 -44 -26 -82.5t-72.5 -67.5t-107.5 -45.5t-131 -17.5q-54 -1 -108 2.5t-105 4.5q-27 0 -37 -13q-1 -1 -2 -1zM269 11q84 1 148 25.5t100.5 66t36.5 94.5q0 40 -19.5 79.5t-51.5 74t-70 59.5t-75 35q-43 -102 -73.5 -172t-50 -115t-31.5 -71.5t-19 -40.5t-12 -22
q8 -1 27.5 -4.5t43.5 -6t46 -2.5z" />
    <glyph glyph-name="dcaron" unicode="&#x10f;" horiz-adv-x="302" 
d="M216 -9q-13 0 -21 10.5t-8 32.5q0 27 8 51t16 49q-16 -17 -31 -33t-31 -31q-16 -16 -33 -30.5t-34 -25.5q-31 -20 -47 -20t-16 20q0 22 17 58q10 22 27.5 48t36.5 50q18 23 40 46t47 38.5t50 13.5q4 0 13 -3q8 24 17 46t19 44q27 60 56.5 110t58 79.5t52.5 29.5
q9 0 18 -6q14 -10 14 -32q0 -23 -12 -53.5t-30 -61t-34.5 -56t-25.5 -38.5q-37 -53 -71.5 -95.5t-46.5 -55.5l-5 -8l-18 -68l-7 -31.5t-3 -22.5q0 -15 6 -21q2 -2 8 -2q8 0 17.5 5t19.5 12q35 26 66.5 63.5t52.5 67.5q1 1 3 -1q3 -5 0 -8q-13 -17 -27 -35.5t-29 -36.5
q-14 -17 -30 -33t-33 -30q-20 -16 -38 -26t-32 -10zM269 200q14 17 27.5 33t31 38.5t42.5 60.5q9 13 29 46.5t38 69.5q12 25 21 48.5t9 38.5q0 19 -13 19q-12 0 -30.5 -18.5t-39.5 -56.5q-22 -39 -44.5 -89.5t-41 -100.5t-29.5 -89zM85 37q10 0 21.5 9t19.5 16
q20 17 40.5 40t37 44t22.5 32q5 8 8 18t3 18t-4.5 14.5t-17.5 6.5q-29 0 -55 -21.5t-49 -50.5q-19 -25 -30.5 -51t-11.5 -46q0 -29 16 -29zM507 432q8 11 17.5 19.5t19.5 27.5q8 13 9 23t1 18t-6 14.5t-11 12.5q10 25 32 25q25 0 25 -20q0 -3 -0.5 -5.5t-1.5 -5.5
q-3 -11 -7.5 -25t-17.5 -34q-10 -16 -27 -31t-33 -19z" />
    <glyph glyph-name="Dcroat" unicode="&#x110;" horiz-adv-x="564" 
d="M8 -14q-7 0 -1 10q3 5 15 21t37 16q8 0 16.5 -1t18.5 -1q19 0 25 4.5t16 16.5q2 3 16.5 34t33.5 77q-25 -2 -43 -3.5t-30 -1.5q-24 0 -35 4q7 30 45 30h37.5t37.5 -1q20 46 41.5 96t40 94t29.5 72q-14 5 -38 11t-51.5 10.5t-52.5 4.5q-13 0 -24.5 -1.5t-19.5 -5.5
q-67 -31 -67 -91q0 -22 9 -48t22 -49.5t29 -47.5q2 -4 -1 -6t-5 2q-16 24 -34 47.5t-30.5 49t-12.5 54.5q0 5 0.5 10.5t1.5 11.5q11 59 49.5 84t96.5 28q19 1 46.5 -3t54.5 -10t43 -12q20 44 48.5 69.5t71.5 25.5q7 0 15 -3t11 -9q1 -1 1 -3q0 -4 -4.5 -5t-6.5 3q0 1 -4.5 3
t-11.5 2q-25 0 -43 -14.5t-29.5 -36t-19.5 -42.5q44 -15 87 -41.5t79 -62t57.5 -79t21.5 -93.5q0 -44 -26 -82.5t-72.5 -67.5t-107.5 -45.5t-131 -17.5q-54 -1 -108 2.5t-105 4.5q-27 0 -37 -13q-1 -1 -2 -1zM269 11q84 1 148 25.5t100.5 66t36.5 94.5q0 40 -19.5 79.5
t-51.5 74t-70 59.5t-75 35q-36 -85 -62.5 -147.5t-46.5 -106.5q18 -1 36 -1h36l-1 -2q2 0 2 -5q-2 -7 -20 -8q-16 -3 -52 -6l-11 -2q-21 -49 -34 -77.5t-20 -42.5t-13 -23q8 -1 27.5 -4.5t43.5 -6t46 -2.5z" />
    <glyph glyph-name="dcroat" unicode="&#x111;" horiz-adv-x="302" 
d="M215 -8q-10 0 -20 6.5t-10 17.5q0 14 7 32t16 35.5t16 28.5q-35 -37 -73 -70q-19 -16 -42 -30t-49 -14q-10 0 -14 6.5t-4 15.5q0 5 1 7q5 39 25 81t49 79t59 60q23 17 44 21.5t46 4.5h33q17 28 35.5 63.5t35.5 68.5q-15 0 -29.5 -0.5t-30.5 -2.5q-2 0 2 7t10.5 14t9.5 6
q9 -2 22 -2.5t27 -0.5q11 18 19 32q41 70 62.5 104.5t32.5 34.5q13 0 21.5 -4.5t8.5 -10.5q0 -3 -5 -8q-13 -12 -36.5 -40.5t-52.5 -78.5q-7 -12 -16 -30q20 1 35 1.5t26 1.5q2 0 -2 -7t-10 -13.5t-10 -6.5q-11 1 -22.5 2t-27.5 2l-32.5 -65t-33.5 -68t-26 -56
q-5 -12 -17 -36.5t-25.5 -53t-23 -52.5t-9.5 -34q0 -14 12 -14t32.5 14t43 36.5t42.5 47.5t33 46q5 -4 0.5 -13t-11.5 -17.5t-11 -13.5q-14 -18 -33.5 -41t-41.5 -44.5t-44.5 -35t-43.5 -13.5zM101 32q12 0 33.5 17.5t46.5 44t47 56t36.5 54t14.5 37.5q0 11 -6.5 15t-16.5 4
q-16 0 -34.5 -11.5t-29.5 -22.5q-12 -11 -28.5 -34.5t-32.5 -51.5t-27 -54t-11 -42q0 -12 8 -12z" />
    <glyph glyph-name="Emacron" unicode="&#x112;" horiz-adv-x="450" 
d="M265 -24q-26 0 -51 5.5t-48 18.5q-21 12 -32 35t-11 42q0 29 14.5 71.5t36.5 90.5q-12 -3 -22.5 -5.5t-18.5 -3.5q-2 0 -4.5 -0.5t-4.5 -0.5q-14 0 -14 8q0 3 2 6.5t3 5.5q5 8 17 15t22 8q8 1 18 3t20 3q27 56 53.5 108.5t39.5 88.5l-122 -4q-55 -1 -81.5 -17.5
t-26.5 -57.5q0 -23 8.5 -47t15.5 -44q0 -1 0.5 -1.5t0.5 -1.5q0 -8 -6 -8t-13 19q-4 14 -10 36t-9 37q-2 9 -3 18t-1 16q0 39 21.5 59t55.5 27t70 7q26 0 50.5 -2t43.5 -4t19.5 6t6.5 20q3 13 14 13q6 0 11.5 -5.5t5.5 -16.5q0 -10 -4 -19l192 -1l6 -2q2 -7 1 -11
q0 -3 -17 -13.5t-40 -27.5t-42 -41q-8 -8 -15 -8q-2 0 -2 2q0 5 7 13q1 2 7 9t15 19q5 7 7.5 11t2.5 7q0 8 -36 8q-16 0 -30.5 1t-29.5 1h-15t-16 -2q-4 -1 -7 -2.5t-7 -7.5q-13 -17 -37 -67t-48 -108l29 5q29 5 57 7t53 2h18t17 -1q22 -1 31.5 -11.5t9.5 -21.5q0 -7 -3 -13
t-8 -5.5t-1 6.5q3 6 3 10q0 9 -11.5 12.5t-29.5 3.5q-25 0 -58 -5t-59.5 -10.5t-34.5 -7.5l-27 -6q-19 -49 -31 -90.5t-12 -60.5q0 -30 21.5 -49t54.5 -28.5t67 -9.5q47 0 94.5 18.5t77.5 55.5q3 5 6 5q1 0 1 -3q0 -2 -2 -7t-7 -11q-9 -10 -19 -19t-21 -17
q-37 -26 -84.5 -42t-94.5 -16zM329 571q0 7 1.5 17t8.5 10l160 -4q0 -7 -1 -10t-9 -4z" />
    <glyph glyph-name="emacron" unicode="&#x113;" horiz-adv-x="235" 
d="M122 -12q-40 0 -56.5 18t-16.5 45q0 16 5 33t13 34q-7 4 -7 10q0 9 21 16q9 13 22.5 35.5t30 45.5t34.5 39t35 16q14 0 18 -11q4 1 11 1q29 0 29 -30q0 -23 -16 -43.5t-38 -25.5l1 -5l10 1.5t17 2.5q17 1 37 0t26 -9q2 -2 -0.5 -3t-4.5 0q-8 4 -26 4q-24 0 -56.5 -6
t-59.5 -14.5t-37 -15.5q-9 -14 -18 -35.5t-9 -41.5q0 -18 10.5 -30.5t38.5 -12.5q30 0 55.5 15t47.5 37.5t39 42.5q2 2 14 16t25.5 30.5t19.5 25.5l2 -2q2 -4 -1 -8q-13 -16 -26 -34t-27 -35q-20 -25 -44.5 -49.5t-53.5 -40.5t-65 -16zM124 146q19 7 30 10t20 7
q9 5 17.5 11.5t18.5 18.5q9 11 15 24.5t6 24.5q0 10 -6 16t-21 -7.5t-32 -33.5q-16 -20 -29.5 -40t-18.5 -31zM130 326q0 7 1.5 17t8.5 10l140 -4q0 -7 -1 -10t-9 -4z" />
    <glyph glyph-name="Ebreve" unicode="&#x114;" horiz-adv-x="450" 
d="M265 -24q-26 0 -51 5.5t-48 18.5q-21 12 -32 35t-11 42q0 29 14.5 71.5t36.5 90.5q-12 -3 -22.5 -5.5t-18.5 -3.5q-2 0 -4.5 -0.5t-4.5 -0.5q-14 0 -14 8q0 3 2 6.5t3 5.5q5 8 17 15t22 8q8 1 18 3t20 3q27 56 53.5 108.5t39.5 88.5l-122 -4q-55 -1 -81.5 -17.5
t-26.5 -57.5q0 -23 8.5 -47t15.5 -44q0 -1 0.5 -1.5t0.5 -1.5q0 -8 -6 -8t-13 19q-4 14 -10 36t-9 37q-2 9 -3 18t-1 16q0 39 21.5 59t55.5 27t70 7q26 0 50.5 -2t43.5 -4t19.5 6t6.5 20q3 13 14 13q6 0 11.5 -5.5t5.5 -16.5q0 -10 -4 -19l192 -1l6 -2q2 -7 1 -11
q0 -3 -17 -13.5t-40 -27.5t-42 -41q-8 -8 -15 -8q-2 0 -2 2q0 5 7 13q1 2 7 9t15 19q5 7 7.5 11t2.5 7q0 8 -36 8q-16 0 -30.5 1t-29.5 1h-15t-16 -2q-4 -1 -7 -2.5t-7 -7.5q-13 -17 -37 -67t-48 -108l29 5q29 5 57 7t53 2h18t17 -1q22 -1 31.5 -11.5t9.5 -21.5q0 -7 -3 -13
t-8 -5.5t-1 6.5q3 6 3 10q0 9 -11.5 12.5t-29.5 3.5q-25 0 -58 -5t-59.5 -10.5t-34.5 -7.5l-27 -6q-19 -49 -31 -90.5t-12 -60.5q0 -30 21.5 -49t54.5 -28.5t67 -9.5q47 0 94.5 18.5t77.5 55.5q3 5 6 5q1 0 1 -3q0 -2 -2 -7t-7 -11q-9 -10 -19 -19t-21 -17
q-37 -26 -84.5 -42t-94.5 -16zM423 560q-28 0 -43 14.5t-15 37.5q0 8 1.5 20t9.5 11q1 -24 11.5 -38t41.5 -14q36 0 54.5 13t25.5 26t10 13q1 0 1 -2t-1 -5.5t-2 -5.5q-10 -29 -32 -49.5t-62 -20.5z" />
    <glyph glyph-name="ebreve" unicode="&#x115;" horiz-adv-x="235" 
d="M122 -12q-40 0 -56.5 18t-16.5 45q0 16 5 33t13 34q-7 4 -7 10q0 9 21 16q9 13 22.5 35.5t30 45.5t34.5 39t35 16q14 0 18 -11q4 1 11 1q29 0 29 -30q0 -23 -16 -43.5t-38 -25.5l1 -5l10 1.5t17 2.5q17 1 37 0t26 -9q2 -2 -0.5 -3t-4.5 0q-8 4 -26 4q-24 0 -56.5 -6
t-59.5 -14.5t-37 -15.5q-9 -14 -18 -35.5t-9 -41.5q0 -18 10.5 -30.5t38.5 -12.5q30 0 55.5 15t47.5 37.5t39 42.5q2 2 14 16t25.5 30.5t19.5 25.5l2 -2q2 -4 -1 -8q-13 -16 -26 -34t-27 -35q-20 -25 -44.5 -49.5t-53.5 -40.5t-65 -16zM124 146q19 7 30 10t20 7
q9 5 17.5 11.5t18.5 18.5q9 11 15 24.5t6 24.5q0 10 -6 16t-21 -7.5t-32 -33.5q-16 -20 -29.5 -40t-18.5 -31zM229 315q-21 0 -34.5 17t-13.5 40q0 8 1.5 20t9.5 11q1 -24 10 -40t33 -16q31 0 47 14t23 28t10 14q1 0 1 -2t-1 -5.5t-2 -5.5q-10 -29 -31 -52t-53 -23z" />
    <glyph glyph-name="Edotaccent" unicode="&#x116;" horiz-adv-x="450" 
d="M265 -24q-26 0 -51 5.5t-48 18.5q-21 12 -32 35t-11 42q0 29 14.5 71.5t36.5 90.5q-12 -3 -22.5 -5.5t-18.5 -3.5q-2 0 -4.5 -0.5t-4.5 -0.5q-14 0 -14 8q0 3 2 6.5t3 5.5q5 8 17 15t22 8q8 1 18 3t20 3q27 56 53.5 108.5t39.5 88.5l-122 -4q-55 -1 -81.5 -17.5
t-26.5 -57.5q0 -23 8.5 -47t15.5 -44q0 -1 0.5 -1.5t0.5 -1.5q0 -8 -6 -8t-13 19q-4 14 -10 36t-9 37q-2 9 -3 18t-1 16q0 39 21.5 59t55.5 27t70 7q26 0 50.5 -2t43.5 -4t19.5 6t6.5 20q3 13 14 13q6 0 11.5 -5.5t5.5 -16.5q0 -10 -4 -19l192 -1l6 -2q2 -7 1 -11
q0 -3 -17 -13.5t-40 -27.5t-42 -41q-8 -8 -15 -8q-2 0 -2 2q0 5 7 13q1 2 7 9t15 19q5 7 7.5 11t2.5 7q0 8 -36 8q-16 0 -30.5 1t-29.5 1h-15t-16 -2q-4 -1 -7 -2.5t-7 -7.5q-13 -17 -37 -67t-48 -108l29 5q29 5 57 7t53 2h18t17 -1q22 -1 31.5 -11.5t9.5 -21.5q0 -7 -3 -13
t-8 -5.5t-1 6.5q3 6 3 10q0 9 -11.5 12.5t-29.5 3.5q-25 0 -58 -5t-59.5 -10.5t-34.5 -7.5l-27 -6q-19 -49 -31 -90.5t-12 -60.5q0 -30 21.5 -49t54.5 -28.5t67 -9.5q47 0 94.5 18.5t77.5 55.5q3 5 6 5q1 0 1 -3q0 -2 -2 -7t-7 -11q-9 -10 -19 -19t-21 -17
q-37 -26 -84.5 -42t-94.5 -16zM417 570q-10 0 -10 12q0 3 0.5 6t1.5 6q5 14 22 27q16 13 31 13q6 0 6 -3q-1 -4 -4 -9.5t-7 -13.5q-4 -7 -7 -12t-4 -7q-4 -19 -29 -19z" />
    <glyph glyph-name="edotaccent" unicode="&#x117;" horiz-adv-x="235" 
d="M122 -12q-40 0 -56.5 18t-16.5 45q0 16 5 33t13 34q-7 4 -7 10q0 9 21 16q9 13 22.5 35.5t30 45.5t34.5 39t35 16q14 0 18 -11q4 1 11 1q29 0 29 -30q0 -23 -16 -43.5t-38 -25.5l1 -5l10 1.5t17 2.5q17 1 37 0t26 -9q2 -2 -0.5 -3t-4.5 0q-8 4 -26 4q-24 0 -56.5 -6
t-59.5 -14.5t-37 -15.5q-9 -14 -18 -35.5t-9 -41.5q0 -18 10.5 -30.5t38.5 -12.5q30 0 55.5 15t47.5 37.5t39 42.5q2 2 14 16t25.5 30.5t19.5 25.5l2 -2q2 -4 -1 -8q-13 -16 -26 -34t-27 -35q-20 -25 -44.5 -49.5t-53.5 -40.5t-65 -16zM124 146q19 7 30 10t20 7
q9 5 17.5 11.5t18.5 18.5q9 11 15 24.5t6 24.5q0 10 -6 16t-21 -7.5t-32 -33.5q-16 -20 -29.5 -40t-18.5 -31zM218 325q-10 0 -10 12q0 3 0.5 6t1.5 6q5 14 22 27q16 13 31 13q6 0 6 -3q-1 -4 -4 -9.5t-7 -13.5q-4 -7 -7 -12t-4 -7q-4 -19 -29 -19z" />
    <glyph glyph-name="Eogonek" unicode="&#x118;" horiz-adv-x="450" 
d="M265 -24q-26 0 -51 5.5t-48 18.5q-21 12 -32 35t-11 42q0 29 14.5 71.5t36.5 90.5q-12 -3 -22.5 -5.5t-18.5 -3.5q-2 0 -4.5 -0.5t-4.5 -0.5q-14 0 -14 8q0 3 2 6.5t3 5.5q5 8 17 15t22 8q8 1 18 3t20 3q27 56 53.5 108.5t39.5 88.5l-122 -4q-55 -1 -81.5 -17.5
t-26.5 -57.5q0 -23 8.5 -47t15.5 -44q0 -1 0.5 -1.5t0.5 -1.5q0 -8 -6 -8t-13 19q-4 14 -10 36t-9 37q-2 9 -3 18t-1 16q0 39 21.5 59t55.5 27t70 7q26 0 50.5 -2t43.5 -4t19.5 6t6.5 20q3 13 14 13q6 0 11.5 -5.5t5.5 -16.5q0 -10 -4 -19l192 -1l6 -2q2 -7 1 -11
q0 -3 -17 -13.5t-40 -27.5t-42 -41q-8 -8 -15 -8q-2 0 -2 2q0 5 7 13q1 2 7 9t15 19q5 7 7.5 11t2.5 7q0 8 -36 8q-16 0 -30.5 1t-29.5 1h-15t-16 -2q-4 -1 -7 -2.5t-7 -7.5q-13 -17 -37 -67t-48 -108l29 5q29 5 57 7t53 2h18t17 -1q22 -1 31.5 -11.5t9.5 -21.5q0 -7 -3 -13
t-8 -5.5t-1 6.5q3 6 3 10q0 9 -11.5 12.5t-29.5 3.5q-25 0 -58 -5t-59.5 -10.5t-34.5 -7.5l-27 -6q-19 -49 -31 -90.5t-12 -60.5q0 -30 21.5 -49t54.5 -28.5t67 -9.5q47 0 94.5 18.5t77.5 55.5q3 5 6 5q1 0 1 -3q0 -2 -2 -7t-7 -11q-9 -10 -19 -19t-21 -17
q-37 -26 -84.5 -42t-94.5 -16zM349 -132q-20 0 -31.5 8t-7.5 27q4 20 18 44.5t32 43t34 19.5q3 0 3 -5q-24 -25 -38 -50t-14 -42q0 -21 26 -21q17 0 37 7q11 5 18 7.5t8 2.5q9 0 9 -5q0 -6 -8.5 -11.5t-20.5 -10.5q-36 -14 -65 -14z" />
    <glyph glyph-name="eogonek" unicode="&#x119;" horiz-adv-x="235" 
d="M122 -12q-40 0 -56.5 18t-16.5 45q0 16 5 33t13 34q-7 4 -7 10q0 9 21 16q9 13 22.5 35.5t30 45.5t34.5 39t35 16q14 0 18 -11q4 1 11 1q29 0 29 -30q0 -23 -16 -43.5t-38 -25.5l1 -5l10 1.5t17 2.5q17 1 37 0t26 -9q2 -2 -0.5 -3t-4.5 0q-8 4 -26 4q-24 0 -56.5 -6
t-59.5 -14.5t-37 -15.5q-9 -14 -18 -35.5t-9 -41.5q0 -18 10.5 -30.5t38.5 -12.5q30 0 55.5 15t47.5 37.5t39 42.5q2 2 14 16t25.5 30.5t19.5 25.5l2 -2q2 -4 -1 -8q-13 -16 -26 -34t-27 -35q-20 -25 -44.5 -49.5t-53.5 -40.5t-65 -16zM124 146q19 7 30 10t20 7
q9 5 17.5 11.5t18.5 18.5q9 11 15 24.5t6 24.5q0 10 -6 16t-21 -7.5t-32 -33.5q-16 -20 -29.5 -40t-18.5 -31zM168 -105q-20 0 -32.5 8.5t-8.5 27.5q6 29 30.5 57t49.5 38q3 1 3 -5q-36 -21 -44 -44.5t-8 -36.5q0 -21 26 -21q17 0 37 7q11 5 18 7.5t8 2.5q9 0 9 -5
q0 -6 -8.5 -11.5t-20.5 -10.5q-17 -7 -31 -10.5t-28 -3.5z" />
    <glyph glyph-name="Ecaron" unicode="&#x11a;" horiz-adv-x="450" 
d="M347 656q5 2 20.5 -8t26.5 -18q8 -6 19.5 -12.5t17.5 -11.5q7 4 16.5 7.5t16.5 7.5l46 23t21 10q2 0 1 -3q-4 -6 -17 -17t-32 -25q-13 -10 -25.5 -19t-27.5 -22q-7 -7 -10 -7q-2 0 -7 7q-2 4 -11.5 17.5t-17.5 22.5q-9 11 -23 26.5t-16 17.5q-3 4 2 4zM265 -24
q-26 0 -51 5.5t-48 18.5q-21 12 -32 35t-11 42q0 29 14.5 71.5t36.5 90.5q-12 -3 -22.5 -5.5t-18.5 -3.5q-2 0 -4.5 -0.5t-4.5 -0.5q-14 0 -14 8q0 3 2 6.5t3 5.5q5 8 17 15t22 8q8 1 18 3t20 3q27 56 53.5 108.5t39.5 88.5l-122 -4q-55 -1 -81.5 -17.5t-26.5 -57.5
q0 -23 8.5 -47t15.5 -44q0 -1 0.5 -1.5t0.5 -1.5q0 -8 -6 -8t-13 19q-4 14 -10 36t-9 37q-2 9 -3 18t-1 16q0 39 21.5 59t55.5 27t70 7q26 0 50.5 -2t43.5 -4t19.5 6t6.5 20q3 13 14 13q6 0 11.5 -5.5t5.5 -16.5q0 -10 -4 -19l192 -1l6 -2q2 -7 1 -11q0 -3 -17 -13.5
t-40 -27.5t-42 -41q-8 -8 -15 -8q-2 0 -2 2q0 5 7 13q1 2 7 9t15 19q5 7 7.5 11t2.5 7q0 8 -36 8q-16 0 -30.5 1t-29.5 1h-15t-16 -2q-4 -1 -7 -2.5t-7 -7.5q-13 -17 -37 -67t-48 -108l29 5q29 5 57 7t53 2h18t17 -1q22 -1 31.5 -11.5t9.5 -21.5q0 -7 -3 -13t-8 -5.5t-1 6.5
q3 6 3 10q0 9 -11.5 12.5t-29.5 3.5q-25 0 -58 -5t-59.5 -10.5t-34.5 -7.5l-27 -6q-19 -49 -31 -90.5t-12 -60.5q0 -30 21.5 -49t54.5 -28.5t67 -9.5q47 0 94.5 18.5t77.5 55.5q3 5 6 5q1 0 1 -3q0 -2 -2 -7t-7 -11q-9 -10 -19 -19t-21 -17q-37 -26 -84.5 -42t-94.5 -16z
" />
    <glyph glyph-name="ecaron" unicode="&#x11b;" horiz-adv-x="235" 
d="M158 411q5 2 15.5 -6t33.5 -24l25 -17l28 14q32 16 43.5 22t18.5 9q2 0 1 -3q-4 -6 -14.5 -15t-28.5 -24q-13 -10 -23 -18.5t-26 -22.5q-6 -6 -10 -6q-2 0 -7 6q-2 4 -9.5 15.5t-14.5 21.5q-4 6 -11.5 16t-14.5 18.5t-8 9.5q-3 4 2 4zM122 -12q-40 0 -56.5 18t-16.5 45
q0 16 5 33t13 34q-7 4 -7 10q0 9 21 16q9 13 22.5 35.5t30 45.5t34.5 39t35 16q14 0 18 -11q4 1 11 1q29 0 29 -30q0 -23 -16 -43.5t-38 -25.5l1 -5l10 1.5t17 2.5q17 1 37 0t26 -9q2 -2 -0.5 -3t-4.5 0q-8 4 -26 4q-24 0 -56.5 -6t-59.5 -14.5t-37 -15.5q-9 -14 -18 -35.5
t-9 -41.5q0 -18 10.5 -30.5t38.5 -12.5q30 0 55.5 15t47.5 37.5t39 42.5q2 2 14 16t25.5 30.5t19.5 25.5l2 -2q2 -4 -1 -8q-13 -16 -26 -34t-27 -35q-20 -25 -44.5 -49.5t-53.5 -40.5t-65 -16zM124 146q19 7 30 10t20 7q9 5 17.5 11.5t18.5 18.5q9 11 15 24.5t6 24.5
q0 10 -6 16t-21 -7.5t-32 -33.5q-16 -20 -29.5 -40t-18.5 -31z" />
    <glyph glyph-name="Gcircumflex" unicode="&#x11c;" horiz-adv-x="561" 
d="M198 -278q-37 0 -65.5 20.5t-28.5 69.5q0 32 12.5 62.5t29 54t29.5 34.5q4 3 6 0t0 -5q-12 -16 -24 -41t-20 -53t-8 -53q0 -5 0.5 -9.5t1.5 -9.5q5 -31 21 -44t37 -13q22 0 45.5 12t41.5 28q28 26 59 73.5t59.5 104.5t50.5 112.5t31 98.5q-19 -25 -51 -50.5t-62.5 -45.5
t-46.5 -28q-46 -23 -85 -33.5t-71 -10.5q-63 0 -97.5 35t-34.5 90q0 44 23 96.5t72 106.5q45 50 103.5 91.5t126 66.5t139.5 25q37 0 52 -16q8 10 12 21t11 16q8 7 17 7q15 0 15 -11q0 -5 -4 -10q-32 -41 -52.5 -80t-37.5 -86q-3 -8 -10 -8q-4 0 -7 3.5t0 9.5q4 9 11 26.5
t16 36.5q9 21 9 34q0 23 -19 30t-46 7q-62 0 -119.5 -27.5t-105 -70.5t-80.5 -88q-34 -48 -49.5 -89t-15.5 -73q0 -52 33 -80.5t85 -28.5q48 0 105 26q15 7 40 23.5t51.5 37.5t46.5 44t24 43q-11 4 -35 4q-38 0 -78 -8q-11 -2 -15 -6.5t-4 -9.5t3 -10t5 -8v-1q0 -3 -2 -6.5
t-4 -0.5q-7 5 -17.5 18.5t-16.5 23.5q-5 8 -5 14q0 15 21 15q6 0 21.5 -0.5t35.5 -0.5q30 0 66.5 0.5t69.5 1t54.5 1l21.5 0.5q4 -1 3.5 -5t-2.5 -7q-11 0 -24.5 -0.5t-28 -12t-29.5 -45.5q-22 -50 -42.5 -110t-45 -119.5t-59.5 -109t-86 -78.5q-17 -10 -39 -16t-44 -6z
M575 573q-4 -1 -20 8.5t-27 17.5q-8 6 -19.5 13t-17.5 11q-7 -4 -16 -7.5t-17 -7.5q-31 -16 -45 -23t-22 -10q-2 0 -1 3q4 6 17 17t32 25q14 11 26 19.5t27 21.5q7 7 10 7q2 0 7 -7q2 -4 12 -17.5t17 -22.5q9 -11 23.5 -26.5t15.5 -17.5q3 -4 -2 -4z" />
    <glyph glyph-name="gcircumflex" unicode="&#x11d;" horiz-adv-x="284" 
d="M-98 -369q-61 0 -101.5 22.5t-40.5 63.5q0 26 19.5 60t62.5 74q47 44 115 74.5t142.5 47t140.5 18.5q0 36 -1.5 72.5t-3.5 72.5q-18 -36 -36 -58q-25 -31 -53.5 -49t-53.5 -24q-16 -4 -31 -4q-22 0 -31 10t-9 26q0 25 15.5 55t40.5 55q17 17 33.5 28t35.5 23q25 15 43 26
t40 27q0 6 1 12t2 10q5 22 17 31.5t22 9.5q13 0 13 -13q0 -11 -15 -29l-27 -26l3 -27q7 -58 18 -114.5t16 -114.5h1q42 0 61 -12t20 -28q0 -12 -6 -12q-5 0 -5 9q0 11 -13 17.5t-29.5 10.5t-27.5 5q1 -7 1 -14.5v-15.5q0 -74 -29 -131.5t-79 -97.5t-114 -62.5t-135 -26.5
q-5 0 -11 -0.5t-11 -0.5zM106 25q22 0 38.5 11.5t46.5 45.5q13 15 23 31.5t20 38.5q-1 16 -2.5 32t-1.5 31v20l-49 -39q-24 -19 -46.5 -39.5t-41.5 -46.5q-7 -10 -12.5 -24.5t-5.5 -28.5q0 -13 7 -22.5t24 -9.5zM-112 -357q17 0 36 3q88 13 159.5 56.5t114 114t42.5 162.5v1
q-63 -2 -127.5 -17.5t-123.5 -44.5t-105 -72q-47 -44 -68 -79t-21 -61q0 -31 25.5 -47t67.5 -16zM300 330q-4 -1 -15 6.5t-34 23.5l-25 17l-28 -14q-31 -16 -42.5 -22t-19.5 -9q-2 0 -1 3q4 6 14.5 15t28.5 24q13 11 23 19t26 22q6 6 10 6q3 0 7 -6q2 -4 9.5 -15.5
t14.5 -21.5q4 -6 12 -16t14.5 -18t7.5 -10q3 -4 -2 -4z" />
    <glyph glyph-name="Gbreve" unicode="&#x11e;" horiz-adv-x="561" 
d="M198 -278q-37 0 -65.5 20.5t-28.5 69.5q0 32 12.5 62.5t29 54t29.5 34.5q4 3 6 0t0 -5q-12 -16 -24 -41t-20 -53t-8 -53q0 -5 0.5 -9.5t1.5 -9.5q5 -31 21 -44t37 -13q22 0 45.5 12t41.5 28q28 26 59 73.5t59.5 104.5t50.5 112.5t31 98.5q-19 -25 -51 -50.5t-62.5 -45.5
t-46.5 -28q-46 -23 -85 -33.5t-71 -10.5q-63 0 -97.5 35t-34.5 90q0 44 23 96.5t72 106.5q45 50 103.5 91.5t126 66.5t139.5 25q37 0 52 -16q8 10 12 21t11 16q8 7 17 7q15 0 15 -11q0 -5 -4 -10q-32 -41 -52.5 -80t-37.5 -86q-3 -8 -10 -8q-4 0 -7 3.5t0 9.5q4 9 11 26.5
t16 36.5q9 21 9 34q0 23 -19 30t-46 7q-62 0 -119.5 -27.5t-105 -70.5t-80.5 -88q-34 -48 -49.5 -89t-15.5 -73q0 -52 33 -80.5t85 -28.5q48 0 105 26q15 7 40 23.5t51.5 37.5t46.5 44t24 43q-11 4 -35 4q-38 0 -78 -8q-11 -2 -15 -6.5t-4 -9.5t3 -10t5 -8v-1q0 -3 -2 -6.5
t-4 -0.5q-7 5 -17.5 18.5t-16.5 23.5q-5 8 -5 14q0 15 21 15q6 0 21.5 -0.5t35.5 -0.5q30 0 66.5 0.5t69.5 1t54.5 1l21.5 0.5q4 -1 3.5 -5t-2.5 -7q-11 0 -24.5 -0.5t-28 -12t-29.5 -45.5q-22 -50 -42.5 -110t-45 -119.5t-59.5 -109t-86 -78.5q-17 -10 -39 -16t-44 -6z
M483 578q-28 0 -43 14.5t-15 37.5q0 8 1.5 20t9.5 11q1 -24 11.5 -38t41.5 -14q36 0 54.5 13t25.5 26t10 13q1 0 1 -2t-1 -5.5t-2 -5.5q-10 -29 -32 -49.5t-62 -20.5z" />
    <glyph glyph-name="gbreve" unicode="&#x11f;" horiz-adv-x="284" 
d="M-98 -369q-61 0 -101.5 22.5t-40.5 63.5q0 26 19.5 60t62.5 74q47 44 115 74.5t142.5 47t140.5 18.5q0 36 -1.5 72.5t-3.5 72.5q-18 -36 -36 -58q-25 -31 -53.5 -49t-53.5 -24q-16 -4 -31 -4q-22 0 -31 10t-9 26q0 25 15.5 55t40.5 55q17 17 33.5 28t35.5 23q25 15 43 26
t40 27q0 6 1 12t2 10q5 22 17 31.5t22 9.5q13 0 13 -13q0 -11 -15 -29l-27 -26l3 -27q7 -58 18 -114.5t16 -114.5h1q42 0 61 -12t20 -28q0 -12 -6 -12q-5 0 -5 9q0 11 -13 17.5t-29.5 10.5t-27.5 5q1 -7 1 -14.5v-15.5q0 -74 -29 -131.5t-79 -97.5t-114 -62.5t-135 -26.5
q-5 0 -11 -0.5t-11 -0.5zM106 25q22 0 38.5 11.5t46.5 45.5q13 15 23 31.5t20 38.5q-1 16 -2.5 32t-1.5 31v20l-49 -39q-24 -19 -46.5 -39.5t-41.5 -46.5q-7 -10 -12.5 -24.5t-5.5 -28.5q0 -13 7 -22.5t24 -9.5zM-112 -357q17 0 36 3q88 13 159.5 56.5t114 114t42.5 162.5v1
q-63 -2 -127.5 -17.5t-123.5 -44.5t-105 -72q-47 -44 -68 -79t-21 -61q0 -31 25.5 -47t67.5 -16zM220 335q-21 0 -34.5 17t-13.5 40q0 8 1.5 20t9.5 11q1 -24 10 -40t33 -16q31 0 47 14t23 28t10 14q1 0 1 -2t-1 -5.5t-2 -5.5q-10 -29 -31 -52t-53 -23z" />
    <glyph glyph-name="Gdotaccent" unicode="&#x120;" horiz-adv-x="561" 
d="M198 -278q-37 0 -65.5 20.5t-28.5 69.5q0 32 12.5 62.5t29 54t29.5 34.5q4 3 6 0t0 -5q-12 -16 -24 -41t-20 -53t-8 -53q0 -5 0.5 -9.5t1.5 -9.5q5 -31 21 -44t37 -13q22 0 45.5 12t41.5 28q28 26 59 73.5t59.5 104.5t50.5 112.5t31 98.5q-19 -25 -51 -50.5t-62.5 -45.5
t-46.5 -28q-46 -23 -85 -33.5t-71 -10.5q-63 0 -97.5 35t-34.5 90q0 44 23 96.5t72 106.5q45 50 103.5 91.5t126 66.5t139.5 25q37 0 52 -16q8 10 12 21t11 16q8 7 17 7q15 0 15 -11q0 -5 -4 -10q-32 -41 -52.5 -80t-37.5 -86q-3 -8 -10 -8q-4 0 -7 3.5t0 9.5q4 9 11 26.5
t16 36.5q9 21 9 34q0 23 -19 30t-46 7q-62 0 -119.5 -27.5t-105 -70.5t-80.5 -88q-34 -48 -49.5 -89t-15.5 -73q0 -52 33 -80.5t85 -28.5q48 0 105 26q15 7 40 23.5t51.5 37.5t46.5 44t24 43q-11 4 -35 4q-38 0 -78 -8q-11 -2 -15 -6.5t-4 -9.5t3 -10t5 -8v-1q0 -3 -2 -6.5
t-4 -0.5q-7 5 -17.5 18.5t-16.5 23.5q-5 8 -5 14q0 15 21 15q6 0 21.5 -0.5t35.5 -0.5q30 0 66.5 0.5t69.5 1t54.5 1l21.5 0.5q4 -1 3.5 -5t-2.5 -7q-11 0 -24.5 -0.5t-28 -12t-29.5 -45.5q-22 -50 -42.5 -110t-45 -119.5t-59.5 -109t-86 -78.5q-17 -10 -39 -16t-44 -6z
M477 588q-10 0 -10 12q0 3 0.5 6t1.5 6q5 14 22 27q16 13 31 13q6 0 6 -3q-1 -4 -4 -9.5t-7 -13.5q-4 -7 -7 -12t-4 -7q-4 -19 -29 -19z" />
    <glyph glyph-name="gdotaccent" unicode="&#x121;" horiz-adv-x="284" 
d="M-98 -369q-61 0 -101.5 22.5t-40.5 63.5q0 26 19.5 60t62.5 74q47 44 115 74.5t142.5 47t140.5 18.5q0 36 -1.5 72.5t-3.5 72.5q-18 -36 -36 -58q-25 -31 -53.5 -49t-53.5 -24q-16 -4 -31 -4q-22 0 -31 10t-9 26q0 25 15.5 55t40.5 55q17 17 33.5 28t35.5 23q25 15 43 26
t40 27q0 6 1 12t2 10q5 22 17 31.5t22 9.5q13 0 13 -13q0 -11 -15 -29l-27 -26l3 -27q7 -58 18 -114.5t16 -114.5h1q42 0 61 -12t20 -28q0 -12 -6 -12q-5 0 -5 9q0 11 -13 17.5t-29.5 10.5t-27.5 5q1 -7 1 -14.5v-15.5q0 -74 -29 -131.5t-79 -97.5t-114 -62.5t-135 -26.5
q-5 0 -11 -0.5t-11 -0.5zM106 25q22 0 38.5 11.5t46.5 45.5q13 15 23 31.5t20 38.5q-1 16 -2.5 32t-1.5 31v20l-49 -39q-24 -19 -46.5 -39.5t-41.5 -46.5q-7 -10 -12.5 -24.5t-5.5 -28.5q0 -13 7 -22.5t24 -9.5zM-112 -357q17 0 36 3q88 13 159.5 56.5t114 114t42.5 162.5v1
q-63 -2 -127.5 -17.5t-123.5 -44.5t-105 -72q-47 -44 -68 -79t-21 -61q0 -31 25.5 -47t67.5 -16zM209 345q-10 0 -10 12q0 3 0.5 6t1.5 6q5 14 22 27q16 13 31 13q6 0 6 -3q-1 -4 -4 -9.5t-7 -13.5q-4 -7 -7 -12t-4 -7q-4 -19 -29 -19z" />
    <glyph glyph-name="uni0122" unicode="&#x122;" horiz-adv-x="561" 
d="M183 -333q25 0 25 -20q0 -3 -0.5 -5.5t-1.5 -5.5q-3 -11 -7.5 -25t-17.5 -34q-10 -16 -27 -31t-33 -19q8 11 17.5 19.5t19.5 27.5q8 13 9 23t1 18t-6 14.5t-11 12.5q10 25 32 25zM198 -278q-37 0 -65.5 20.5t-28.5 69.5q0 32 12.5 62.5t29 54t29.5 34.5q4 3 6 0t0 -5
q-12 -16 -24 -41t-20 -53t-8 -53q0 -5 0.5 -9.5t1.5 -9.5q5 -31 21 -44t37 -13q22 0 45.5 12t41.5 28q28 26 59 73.5t59.5 104.5t50.5 112.5t31 98.5q-19 -25 -51 -50.5t-62.5 -45.5t-46.5 -28q-46 -23 -85 -33.5t-71 -10.5q-63 0 -97.5 35t-34.5 90q0 44 23 96.5t72 106.5
q45 50 103.5 91.5t126 66.5t139.5 25q37 0 52 -16q8 10 12 21t11 16q8 7 17 7q15 0 15 -11q0 -5 -4 -10q-32 -41 -52.5 -80t-37.5 -86q-3 -8 -10 -8q-4 0 -7 3.5t0 9.5q4 9 11 26.5t16 36.5q9 21 9 34q0 23 -19 30t-46 7q-62 0 -119.5 -27.5t-105 -70.5t-80.5 -88
q-34 -48 -49.5 -89t-15.5 -73q0 -52 33 -80.5t85 -28.5q48 0 105 26q15 7 40 23.5t51.5 37.5t46.5 44t24 43q-11 4 -35 4q-38 0 -78 -8q-11 -2 -15 -6.5t-4 -9.5t3 -10t5 -8v-1q0 -3 -2 -6.5t-4 -0.5q-7 5 -17.5 18.5t-16.5 23.5q-5 8 -5 14q0 15 21 15q6 0 21.5 -0.5
t35.5 -0.5q30 0 66.5 0.5t69.5 1t54.5 1l21.5 0.5q4 -1 3.5 -5t-2.5 -7q-11 0 -24.5 -0.5t-28 -12t-29.5 -45.5q-22 -50 -42.5 -110t-45 -119.5t-59.5 -109t-86 -78.5q-17 -10 -39 -16t-44 -6z" />
    <glyph glyph-name="uni0123" unicode="&#x123;" horiz-adv-x="284" 
d="M304 499q3 0 3 -6t-3 -12q-18 -30 -24 -43.5t-6 -20.5q0 -8 4 -14.5t5 -27.5q-7 -14 -15.5 -20t-16.5 -6q-10 0 -16 7.5t-3 18.5t7.5 21t20.5 36q8 12 17 28t18 31q6 8 9 8zM-98 -369q-61 0 -101.5 22.5t-40.5 63.5q0 26 19.5 60t62.5 74q47 44 115 74.5t142.5 47
t140.5 18.5q0 36 -1.5 72.5t-3.5 72.5q-18 -36 -36 -58q-25 -31 -53.5 -49t-53.5 -24q-16 -4 -31 -4q-22 0 -31 10t-9 26q0 25 15.5 55t40.5 55q17 17 33.5 28t35.5 23q25 15 43 26t40 27q0 6 1 12t2 10q5 22 17 31.5t22 9.5q13 0 13 -13q0 -11 -15 -29l-27 -26l3 -27
q7 -58 18 -114.5t16 -114.5h1q42 0 61 -12t20 -28q0 -12 -6 -12q-5 0 -5 9q0 11 -13 17.5t-29.5 10.5t-27.5 5q1 -7 1 -14.5v-15.5q0 -74 -29 -131.5t-79 -97.5t-114 -62.5t-135 -26.5q-5 0 -11 -0.5t-11 -0.5zM106 25q22 0 38.5 11.5t46.5 45.5q13 15 23 31.5t20 38.5
q-1 16 -2.5 32t-1.5 31v20l-49 -39q-24 -19 -46.5 -39.5t-41.5 -46.5q-7 -10 -12.5 -24.5t-5.5 -28.5q0 -13 7 -22.5t24 -9.5zM-112 -357q17 0 36 3q88 13 159.5 56.5t114 114t42.5 162.5v1q-63 -2 -127.5 -17.5t-123.5 -44.5t-105 -72q-47 -44 -68 -79t-21 -61
q0 -31 25.5 -47t67.5 -16z" />
    <glyph glyph-name="Hcircumflex" unicode="&#x124;" horiz-adv-x="597" 
d="M514 -11q-23 0 -32.5 13.5t-9.5 35.5q0 16 4 35t10 39q10 34 23 64t27 59q-54 -4 -108 -13t-107 -20l-23 -5q-8 -20 -17.5 -39.5t-17.5 -37.5q-13 -26 -32 -55t-43.5 -49t-54.5 -20q-36 0 -60 25t-36 63.5t-12 77.5v10t1 9q2 5 6.5 8t3.5 -5q1 -27 9.5 -58t28.5 -52.5
t53 -21.5q21 0 41 8.5t39 29.5q36 43 65 103q-4 -1 -8.5 -1.5t-8.5 -0.5t-7 -0.5t-5 -0.5q-19 0 -19 9q0 5 6 11q8 8 24 15t30 8q5 0 7 1q22 48 38 91.5t25 67.5q10 26 14.5 39.5t5.5 15.5v5q0 30 7.5 43t20.5 23l-6 -2q-36 -12 -75.5 -24t-73.5 -23t-57 -19
q-69 -25 -69 -84q0 -24 11.5 -47t23 -45.5t11.5 -45.5q0 -31 -20.5 -49t-42.5 -18q-12 0 -21 6q-4 3 -2 6.5t6 0.5q2 -2 8 -2q14 0 28 21t14 52q0 26 -9 46.5t-18.5 42.5t-9.5 52q0 33 16 52.5t40.5 30.5t51.5 16.5t49 9.5q14 2 36.5 7.5t47 13t45 16t29.5 16.5q5 3 7 3
q5 0 5 -6q0 -4 -5 -12q1 0 3 2q7 6 14 12.5t14 15.5q4 2 5 2q6 0 3.5 -10t-8 -21.5t-10.5 -15.5q-7 -7 -15 -18.5t-21 -41.5q-9 -19 -19 -45t-24 -58l-49 -120q58 7 116 14.5t116 8.5l17 37q20 44 33.5 75t13.5 38q-2 0 -6 2t-4 8q0 5 9 23.5t20 39t16 29.5q6 6 24 13t30 12
q4 2 6 2q5 0 5 -4.5t-2 -6.5q-9 -7 -19.5 -20.5t-17.5 -26.5q-28 -53 -52.5 -109t-45.5 -112q7 0 14 -0.5t15 -0.5q31 -1 45 -11.5t14 -21.5q0 -6 -5 -13q-4 -6 -10.5 -5.5t-2.5 6.5q4 5 4 10q0 9 -15 12.5t-38 3.5h-14t-15 -1l-6 -18q-7 -20 -16.5 -50.5t-17 -61
t-7.5 -53.5q0 -15 4.5 -24.5t14.5 -9.5q12 0 30 11t38 28t35 34q2 2 13.5 15t25 28.5t19.5 23.5q1 1 2 -1q2 -4 -1 -8l-53 -64q-7 -9 -22.5 -25.5t-34.5 -33.5t-39 -28.5t-37 -11.5zM673 585q-4 -1 -20 8.5t-27 17.5q-8 6 -19.5 13t-17.5 11q-7 -4 -16 -7.5t-17 -7.5
q-31 -16 -45 -23t-22 -10q-2 0 -1 3q4 6 17 17t32 25q14 11 26 19.5t27 21.5q7 7 10 7q2 0 7 -7q2 -4 12 -17.5t17 -22.5q9 -11 23.5 -26.5t15.5 -17.5q3 -4 -2 -4z" />
    <glyph glyph-name="hcircumflex" unicode="&#x125;" horiz-adv-x="284" 
d="M21 -26q0 2 1.5 5.5t2.5 5.5q3 6 7 16t9 24q15 38 27.5 71.5t31.5 84.5l34 87q-28 5 -37.5 17.5t-9.5 22.5q0 5 2 11t5 7.5t5 1.5q3 0 3 -2t-2.5 -6t-2.5 -9q0 -8 5 -14q4 -5 13 -9t16 -4q10 0 11 5q35 83 78.5 159t110.5 132q43 35 80.5 51.5t65.5 16.5q35 0 55.5 -20.5
t20.5 -55.5q0 -26 -13 -58.5t-41 -69.5q-40 -52 -96 -88t-117 -56.5t-116 -28.5q-11 -30 -25.5 -68.5t-26.5 -72.5t-18 -52q40 41 76.5 80t67.5 76q19 22 46 22q5 0 11.5 -1t10.5 -3q5 -2 3 -4t-6 -3q-5 -1 -13.5 -8.5t-20.5 -27.5q-21 -31 -36 -65.5t-21 -72.5
q-1 -6 -1.5 -12t-0.5 -11q0 -15 5.5 -23t17.5 -5q15 5 32 19.5t33 31.5t26 29q2 2 13.5 16t25 30.5t19.5 24.5q2 2 2 -1q2 -5 -1 -8q-12 -16 -25 -33.5t-27 -34.5q-20 -24 -42.5 -46.5t-48.5 -38.5q-23 -13 -38 -13q-9 0 -16 4q-10 6 -14.5 17.5t-4.5 25.5q0 29 12 64t23 58
q-34 -27 -57 -47q-12 -11 -23 -22.5t-21 -23.5q-11 -15 -19 -37t-11 -36q-10 -6 -27 -13l-29 -13v1zM174 284q56 9 114 34.5t109.5 64t86.5 85.5q28 38 40 66.5t12 48.5q0 24 -15 36t-39 12q-30 0 -67 -17.5t-71 -52.5q-35 -36 -68.5 -86t-60.5 -100.5t-41 -90.5zM566 684
q-4 -1 -15 6.5t-34 23.5l-25 17l-28 -14q-31 -16 -42.5 -22t-19.5 -9q-2 0 -1 3q4 6 14.5 15t28.5 24q13 11 23 19t26 22q6 6 10 6q3 0 7 -6q2 -4 9.5 -15.5t14.5 -21.5q4 -6 12 -16t14.5 -18t7.5 -10q3 -4 -2 -4z" />
    <glyph glyph-name="Hbar" unicode="&#x126;" horiz-adv-x="597" 
d="M514 -11q-23 0 -32.5 13.5t-9.5 35.5q0 16 4 35t10 39q10 34 23 64t27 59q-54 -4 -108 -13t-107 -20l-23 -5q-8 -20 -17.5 -39.5t-17.5 -37.5q-13 -26 -32 -55t-43.5 -49t-54.5 -20q-36 0 -60 25t-36 63.5t-12 77.5v10t1 9q2 5 6.5 8t3.5 -5q1 -27 9.5 -58t28.5 -52.5
t53 -21.5q21 0 41 8.5t39 29.5q36 43 65 103q-4 -1 -8.5 -1.5t-8.5 -0.5t-7 -0.5t-5 -0.5q-19 0 -19 9q0 5 6 11q8 8 24 15t30 8q5 0 7 1q22 48 38 91.5t25 67.5q10 26 14.5 39.5t5.5 15.5v5q0 30 7.5 43t20.5 23l-6 -2q-36 -12 -75.5 -24t-73.5 -23t-57 -19
q-69 -25 -69 -84q0 -24 11.5 -47t23 -45.5t11.5 -45.5q0 -31 -20.5 -49t-42.5 -18q-12 0 -21 6q-4 3 -2 6.5t6 0.5q2 -2 8 -2q14 0 28 21t14 52q0 26 -9 46.5t-18.5 42.5t-9.5 52q0 33 16 52.5t40.5 30.5t51.5 16.5t49 9.5q14 2 36.5 7.5t47 13t45 16t29.5 16.5q5 3 7 3
q5 0 5 -6q0 -4 -5 -12q1 0 3 2q7 6 14 12.5t14 15.5q4 2 5 2q6 0 3.5 -10t-8 -21.5t-10.5 -15.5q-7 -7 -15 -18.5t-21 -41.5q-9 -19 -19 -45t-24 -58l-49 -120q58 7 116 14.5t116 8.5l17 37q20 44 33.5 75t13.5 38q-2 0 -6 2t-4 8q0 5 9 23.5t20 39t16 29.5q6 6 24 13t30 12
q4 2 6 2q5 0 5 -4.5t-2 -6.5q-9 -7 -19.5 -20.5t-17.5 -26.5q-28 -53 -52.5 -109t-45.5 -112q7 0 14 -0.5t15 -0.5q31 -1 45 -11.5t14 -21.5q0 -6 -5 -13q-4 -6 -10.5 -5.5t-2.5 6.5q4 5 4 10q0 9 -15 12.5t-38 3.5h-14t-15 -1l-6 -18q-7 -20 -16.5 -50.5t-17 -61
t-7.5 -53.5q0 -15 4.5 -24.5t14.5 -9.5q12 0 30 11t38 28t35 34q2 2 13.5 15t25 28.5t19.5 23.5q1 1 2 -1q2 -4 -1 -8l-53 -64q-7 -9 -22.5 -25.5t-34.5 -33.5t-39 -28.5t-37 -11.5zM316 361q-61 0 -73 4q7 30 45 30q41 0 82 -1.5t81 -1.5q12 0 57 -1t122 -3l60 -1h33
q8 -1 8 -5q0 -8 -27 -11q-5 -1 -25 -2t-54 -2l-158 -3q-49 -1 -87 -2t-64 -1z" />
    <glyph glyph-name="hbar" unicode="&#x127;" horiz-adv-x="284" 
d="M21 -26q0 2 1.5 5.5t2.5 5.5q3 6 7 16t9 24q15 38 27.5 71.5t31.5 84.5l34 87q-28 5 -37.5 17.5t-9.5 22.5q0 5 2 11t5 7.5t5 1.5q3 0 3 -2t-2.5 -6t-2.5 -9q0 -8 5 -14q4 -5 13 -9t16 -4q10 0 11 5q35 83 78.5 159t110.5 132q43 35 80.5 51.5t65.5 16.5q35 0 55.5 -20.5
t20.5 -55.5q0 -26 -13 -58.5t-41 -69.5q-40 -52 -96 -88t-117 -56.5t-116 -28.5q-11 -30 -25.5 -68.5t-26.5 -72.5t-18 -52q40 41 76.5 80t67.5 76q19 22 46 22q5 0 11.5 -1t10.5 -3q5 -2 3 -4t-6 -3q-5 -1 -13.5 -8.5t-20.5 -27.5q-21 -31 -36 -65.5t-21 -72.5
q-1 -6 -1.5 -12t-0.5 -11q0 -15 5.5 -23t17.5 -5q15 5 32 19.5t33 31.5t26 29q2 2 13.5 16t25 30.5t19.5 24.5q2 2 2 -1q2 -5 -1 -8q-12 -16 -25 -33.5t-27 -34.5q-20 -24 -42.5 -46.5t-48.5 -38.5q-23 -13 -38 -13q-9 0 -16 4q-10 6 -14.5 17.5t-4.5 25.5q0 29 12 64t23 58
q-34 -27 -57 -47q-12 -11 -23 -22.5t-21 -23.5q-11 -15 -19 -37t-11 -36q-10 -6 -27 -13l-29 -13v1zM174 284q56 9 114 34.5t109.5 64t86.5 85.5q28 38 40 66.5t12 48.5q0 24 -15 36t-39 12q-30 0 -67 -17.5t-71 -52.5q-35 -36 -68.5 -86t-60.5 -100.5t-41 -90.5zM129 357
q0 7 1.5 17t8.5 10l140 -4q0 -7 -1 -10t-9 -4z" />
    <glyph glyph-name="Itilde" unicode="&#x128;" horiz-adv-x="322" 
d="M131 -37q-31 0 -53 17.5t-36 45.5t-21 58.5t-7 55.5q0 4 1 10.5t6 6.5q2 0 2 -3q0 -8 2 -17.5t4 -18.5q5 -23 16.5 -46t30.5 -38t46 -15q24 0 43 10t34 28q32 39 56.5 95.5t44.5 116.5t35 108q1 3 5 15.5l8 25t4 14.5q1 18 2 34.5t15 29.5q-36 -12 -72.5 -23.5
t-71.5 -25.5q-22 -9 -39 -25t-17 -42q0 -20 9.5 -39l18.5 -37t9 -38t-14.5 -37t-35.5 -17q-4 0 -12 2t-8 6q0 3 3 3q1 0 3 -1.5t5 -1.5q12 0 19.5 11.5t11.5 25.5t4 23q0 23 -10.5 43.5t-21 40.5t-10.5 41q0 27 20 43t52 25.5t67 15.5t66.5 12.5t49.5 17.5q7 4 19 17.5
t16 13.5q3 0 3 -6q0 -8 -5 -21.5t-11 -19.5q-12 -13 -19 -28t-14 -32q-10 -25 -19 -51l-18 -52q-23 -63 -44.5 -126.5t-48.5 -125.5q-10 -24 -27.5 -53t-41.5 -50.5t-54 -21.5zM471 603q-14 0 -28 9t-27.5 17.5t-28.5 8.5t-22 -5.5t-13 -13.5q-4 -6 -5 -10.5t-3 -4.5t-2 9
q0 7 7 21t18 26.5t23 12.5q13 0 27 -9.5t28.5 -19t27.5 -9.5q9 0 20.5 4t19.5 16q3 5 5.5 8t5.5 3q5 0 2 -6q-4 -9 -12.5 -22.5t-19.5 -24t-23 -10.5z" />
    <glyph glyph-name="itilde" unicode="&#x129;" horiz-adv-x="143" 
d="M62 -11q-20 0 -20 25q0 7 1.5 14.5l3.5 17.5q3 11 9 27.5t16 38.5q18 45 24 66q4 14 6 24.5t2 18.5q0 27 -22 27q-4 0 -8 -1t-9 -1t-4 6q1 5 17.5 11t34.5 11t23 5q10 0 10 -14q0 -4 -1 -9t-3 -11q-7 -28 -30 -84q-11 -28 -18.5 -48.5t-11.5 -34.5q-7 -24 -7 -41
q0 -24 16 -24q11 0 23.5 7.5t20.5 15.5l2 2q2 0 2 -1l1 3q4 0 4 -4q0 -7 -10 -15t-27 -16q-31 -16 -45 -16zM171 326q-13 0 -23.5 8.5t-21.5 16.5t-25 8t-20.5 -5t-12.5 -13q-4 -6 -5 -10t-3 -4t-2 8q0 7 6.5 20.5t17 25t22.5 11.5q13 0 24 -9l22 -18t23 -9q9 0 20 4t18 15
q3 5 5.5 8t5.5 3q5 0 2 -6q-4 -9 -12.5 -21.5t-18.5 -22.5t-22 -10z" />
    </font>
</defs>
</svg>
